<svg id="Layer_1" data-name="Layer 1" xmlns="http://www.w3.org/2000/svg" viewBox="0 0 208.84 251.8"><title>ico-share</title><path d="M161.71,207.51,66.56,148.69c-9.09,8.07-19.53,10.73-31.09,7.13-12-3.73-19.48-12-21.69-24.39C11.36,118,16.09,107,27.57,99.59c10.69-6.89,22.14-7.31,33-.53,4.33,2.7,6.92,2.21,10.81-.41q42.23-28.5,84.78-56.52c2.91-1.92,3.8-3.78,3.39-7.26-1.8-15.16,6.63-28.39,20.73-33.11,14.7-4.92,29.82.68,37.5,13.9a31.22,31.22,0,0,1-5.94,38.79c-11.17,10.17-27.4,11.43-39.45,2.27-4.06-3.08-6.41-2.52-10.18,0q-41.83,28.2-84,55.95c-2.68,1.77-3.75,3.23-2.92,6.76a29.25,29.25,0,0,1,.16,11.87c-.65,3.4.57,4.67,3.09,6.22q44.66,27.46,89.19,55.15c2.88,1.8,4.95,2,8,.18,12.69-7.42,29.22-4.18,38.87,7.25a31.45,31.45,0,1,1-54.36,12.23C160.64,210.91,161.1,209.5,161.71,207.51ZM60.4,126.14a16.23,16.23,0,0,0-15.25-16.06,15.78,15.78,0,1,0-.57,31.55A16.25,16.25,0,0,0,60.4,126.14Zm130,78.59a15.62,15.62,0,1,0,15.9,15.75A15.72,15.72,0,0,0,190.45,204.73ZM190.58,47a15.82,15.82,0,0,0,15.77-15.4,15.77,15.77,0,0,0-31.54-.48A15.76,15.76,0,0,0,190.58,47Z" transform="translate(-13.16 0)"/></svg>