<?xml version="1.0" encoding="UTF-8" standalone="no"?>
<!DOCTYPE svg  PUBLIC '-//W3C//DTD SVG 1.1//EN'  'http://www.w3.org/Graphics/SVG/1.1/DTD/svg11.dtd'>
<svg version="1.1" xmlns="http://www.w3.org/2000/svg">
<defs>
<font id="LFTZeno-Medium" horiz-adv-x="805">
<font-face panose-1="0 0 0 0 0 0 0 0 0 0" font-weight="400" font-family="LFT Zeno Medium" underline-thickness="0" units-per-em="1000" underline-position="0" ascent="820" unicode-range="U+0020-00FE" x-height="530" cap-height="710" descent="-180" bbox="-37 -205 1021 944"/>
<missing-glyph/>
<glyph glyph-name="space" horiz-adv-x="320" unicode=" "/>
<glyph glyph-name="exclam" d="M106 190q-18 0 -20 20l-20 301v179q0 20 20 20h90q20 0 20 -20v-179l-20 -301q-2 -20 -20 -20h-50zM85 0q-20 0 -20 20v94q0 20 20 20h92q20 0 20 -20v-94q0 -20 -20 -20h-92z" horiz-adv-x="262" unicode="!"/>
<glyph glyph-name="quotedbl" d="M327 505q-5 -20 -23 -20h-58q-16 0 -16 20v185q0 20 20 20h103q10 0 16 -5.5t4 -14.5zM154 505q-5 -20 -23 -20h-57q-16 0 -16 20v185q0 20 20 20h102q10 0 16 -5.5t4 -14.5z" horiz-adv-x="417" unicode='&quot;'/>
<glyph glyph-name="numbersign" d="M398 286l43 130h-110l-43 -130h110zM360 172h-110l-50 -150q-7 -22 -26 -22h-88q-21 0 -14 22l50 150h-94q-10 0 -12 3.5t2 16.5l24 74q5 14 9 17t21 3h88l43 130h-105q-10 0 -12 3.5t2 16.5l24 74q5 14 9 17t21 3h99l52 158q7 22 26 22h88q21 0 14 -22l-52 -158h110 l52 158q7 22 26 22h88q21 0 14 -22l-52 -158h104q10 0 12 -3.5t-2 -16.5l-24 -74q-5 -14 -9 -17t-21 -3h-98l-43 -130h115q10 0 12 -3.5t-2 -16.5l-24 -74q-5 -14 -9 -17t-21 -3h-109l-50 -150q-7 -22 -26 -22h-88q-21 0 -14 22z" horiz-adv-x="739" unicode="#"/>
<glyph glyph-name="dollar" d="M616 193q0 -82 -66 -137.5t-172 -65.5v-57q0 -20 -20 -20h-54q-20 0 -20 20v57q-122 8 -225 52q-22 9 -10 32l34 66q10 20 32 12q109 -45 212 -45q26 0 50.5 3.5t50.5 12.5t41.5 28t15.5 46q0 39 -33 60t-108 42l-104 29q-86 24 -137.5 77t-51.5 119q0 74 59.5 129.5 t173.5 66.5v57q0 20 20 20h54q20 0 20 -20v-56q109 -8 197 -45q21 -8 10 -31l-32 -68q-8 -18 -32 -12q-114 38 -187 38q-67 0 -108.5 -18t-41.5 -56q0 -60 137 -99l104 -29q97 -27 144 -76.5t47 -131.5z" horiz-adv-x="661" unicode="$"/>
<glyph glyph-name="percent" d="M209 286q-89 0 -139 60.5t-50 154.5q0 96 50 158.5t139 62.5q90 0 140 -60.5t50 -156.5q0 -95 -50 -157t-140 -62zM366 22q-6 -13 -11 -17.5t-15 -4.5h-80q-10 0 -15.5 6.5t-1.5 15.5l310 666q6 13 11 17.5t15 4.5h80q10 0 15.5 -6.5t1.5 -15.5zM209 390q75 0 75 111 q0 53 -19 83t-56 30q-74 0 -74 -113q0 -111 74 -111zM709 -12q-89 0 -139 62t-50 157q0 96 50 158.5t139 62.5q90 0 140 -62.5t50 -158.5q0 -95 -50 -157t-140 -62zM709 96q37 0 56.5 29t19.5 82t-19.5 83t-56.5 30t-56 -30t-19 -83q0 -111 75 -111z" horiz-adv-x="919" unicode="%"/>
<glyph glyph-name="ampersand" d="M314 -12q-136 0 -212.5 59t-76.5 160q0 112 100 173v2q-71 54 -71 133q0 92 66 149.5t193 57.5q120 0 205 -55q24 -15 8 -37l-43 -61q-12 -17 -33 -5q-66 40 -137 40q-126 0 -126 -89q0 -43 21.5 -59.5t65.5 -19.5q20 -2 20 -20v-72q0 -17 -20 -20q-116 -15 -116 -117 q0 -46 39 -73.5t118 -27.5q78 0 117 27.5t39 73.5q0 93 -102 114l-18 3q-20 3 -20 20v71q0 20 20 20h257q20 0 20 -20v-71q0 -20 -20 -20h-100v-2q48 -8 72 -44.5t24 -70.5q0 -101 -77 -160t-213 -59z" horiz-adv-x="643" unicode="&amp;"/>
<glyph glyph-name="quotesingle" d="M155 505q-5 -20 -23 -20h-58q-16 0 -16 20v185q0 20 20 20h103q10 0 16 -5.5t4 -14.5z" horiz-adv-x="245" unicode="&apos;"/>
<glyph glyph-name="parenleft" d="M196 -122q-58 46 -104.5 158t-46.5 261t46.5 261t104.5 158q13 10 26 0l51 -41q12 -9 4 -20q-102 -163 -102 -358t102 -358q8 -11 -4 -20l-51 -41q-13 -10 -26 0z" horiz-adv-x="285" unicode="("/>
<glyph glyph-name="parenright" d="M240 297q0 -149 -46.5 -261t-104.5 -158q-13 -10 -26 0l-51 41q-12 9 -4 20q102 163 102 358t-102 358q-8 11 4 20l51 41q13 10 26 0q58 -46 104.5 -158t46.5 -261z" horiz-adv-x="285" unicode=")"/>
<glyph glyph-name="asterisk" d="M296 321q3 -9 -3.5 -14.5t-16.5 -5.5h-86q-10 0 -16.5 5.5t-3.5 14.5l44 150l-1 1l-108 -113q-14 -15 -28 7l-43 74q-12 24 8 28l153 37v1l-153 37q-20 4 -8 28l43 74q14 21 28 7l108 -114l1 1l-44 151q-3 9 3.5 14.5t16.5 5.5h86q10 0 16.5 -5.5t3.5 -14.5l-44 -151 l1 -1l108 114q14 15 28 -7l43 -74q12 -24 -8 -28l-153 -37v-1l153 -37q20 -4 8 -28l-43 -74q-14 -21 -28 -7l-108 113l-1 -1z" horiz-adv-x="466" unicode="*"/>
<glyph glyph-name="plus" d="M65 215q-20 0 -20 20v73q0 20 20 20h161v146q-2 20 20 20h90q20 0 20 -20v-146h161q20 0 20 -20v-73q0 -18 -20 -20h-161v-137q0 -20 -20 -20h-90q-22 0 -20 20v137h-161z" horiz-adv-x="582" unicode="+"/>
<glyph glyph-name="comma" d="M87 -115l35 115h-42q-20 0 -20 20v110q0 20 20 20h104q20 0 20 -20v-90q0 -24 -9 -43l-62 -112h-46z" horiz-adv-x="264" unicode=","/>
<glyph glyph-name="hyphen" d="M65 211q-20 0 -20 20v90q0 20 20 20h260q20 0 20 -20v-90q0 -20 -20 -20h-260z" horiz-adv-x="390" unicode="-"/>
<glyph glyph-name="period" d="M80 0q-20 0 -20 20v110q0 20 20 20h104q20 0 20 -20v-110q0 -20 -20 -20h-104z" horiz-adv-x="264" unicode="."/>
<glyph glyph-name="slash" d="M147 -30q-7 -22 -26 -22h-96q-21 0 -14 22l255 757q6 22 26 22h91q21 0 14 -22z" horiz-adv-x="408" unicode="/"/>
<glyph glyph-name="zero" d="M354 -12q-149 0 -233 104t-84 262q0 159 84 263.5t233 104.5t233.5 -104.5t84.5 -263.5t-84.5 -262.5t-233.5 -103.5zM354 106q90 0 137.5 70.5t47.5 177.5t-47.5 178.5t-137.5 71.5t-137 -71.5t-47 -178.5t47 -177.5t137 -70.5z" horiz-adv-x="709" unicode="0"/>
<glyph glyph-name="one" d="M238 0h-90q-20 0 -20 20v574h-95q-19 0 -10 20l32 76q6 14 9.5 17t20.5 3h154q19 0 19 -20v-670q0 -20 -20 -20z" horiz-adv-x="318" unicode="1"/>
<glyph glyph-name="two" d="M522 0h-458q-19 0 -19 20v65q0 27 20 41l86 61q51 36 75 54t61 47t53.5 48t35.5 45.5t26 52t7 54.5q0 50 -31 84t-95 34q-82 0 -144 -58q-18 -16 -36 2l-43 42q-20 20 -3 38q88 92 230 92q122 0 189.5 -63.5t67.5 -172.5q0 -104 -71 -185.5t-195 -155.5l-45 -27v-2h289 q20 0 20 -20v-76q0 -20 -20 -20z" horiz-adv-x="589" unicode="2"/>
<glyph glyph-name="three" d="M268 -12q-143 0 -232 58q-15 9 -5 26l39 63q9 14 25 4q66 -43 155 -43q168 0 168 112q0 62 -56 92t-138 30h-86q-19 0 -19 20v54q0 21 17 34l207 154v2h-264q-20 0 -20 20v76q0 20 20 20h428q19 0 19 -20v-55q0 -27 -20 -41l-211 -156v-2q129 -7 192 -68.5t63 -152.5 q0 -104 -79 -165.5t-203 -61.5z" horiz-adv-x="587" unicode="3"/>
<glyph glyph-name="four" d="M515 20q2 -20 -20 -20h-90q-20 0 -20 20v111h-339q-16 0 -16 20v75q0 22 7 33l270 436q12 20 26 20h100q10 0 14.5 -8t-1.5 -19l-236 -380l-38 -59v-2h213v186q0 19 3.5 27.5t16.5 17.5l80 56q11 8 20.5 4t9.5 -20v-271h63q20 0 20 -20v-76q0 -20 -20 -20h-63v-111z" horiz-adv-x="623" unicode="4"/>
<glyph glyph-name="five" d="M559 215q0 -106 -73.5 -166.5t-195.5 -60.5q-152 0 -251 58q-15 9 -5 26l39 63q9 14 25 4q24 -13 73 -28t99 -15q72 0 114.5 28t42.5 81q0 55 -49 90t-142 35q-30 0 -47 -2l-100 -10q-10 -1 -15 4t-4 16l14 352q1 20 20 20h400q20 0 20 -20v-76q0 -20 -20 -20h-292 l-6 -162q47 5 78 5q131 0 203 -62t72 -160z" horiz-adv-x="596" unicode="5"/>
<glyph glyph-name="six" d="M331 -12q-80 0 -138.5 28t-91.5 79.5t-48.5 115t-15.5 143.5q0 158 88 263t238 105q124 0 204 -42q25 -14 15 -34l-31 -63q-9 -19 -32 -10q-88 32 -156 32q-84 0 -137.5 -57.5t-60.5 -166.5l2 -1q28 48 81.5 70t112.5 22q127 0 193.5 -67t66.5 -171q0 -105 -80 -175.5 t-210 -70.5zM333 105q70 0 113.5 37.5t43.5 91.5q0 56 -31 88.5t-113 32.5q-76 0 -119 -35t-43 -86q0 -58 43.5 -93.5t105.5 -35.5z" horiz-adv-x="656" unicode="6"/>
<glyph glyph-name="seven" d="M213 20q-13 -20 -28 -20h-104q-11 0 -14 7.5t5 21.5l344 563v2h-371q-20 0 -20 20v76q0 20 20 20h498q19 0 19 -20v-72q0 -24 -5 -32z" horiz-adv-x="582" unicode="7"/>
<glyph glyph-name="eight" d="M329 -12q-135 0 -212 59.5t-77 160.5q0 113 100 174v2q-71 54 -71 132q0 89 66.5 147.5t193.5 58.5q128 0 193.5 -58.5t65.5 -147.5q0 -79 -70 -132v-2q101 -59 101 -174q0 -101 -77 -160.5t-213 -59.5zM329 425q64 0 95.5 24.5t31.5 66.5q0 38 -29.5 64t-97.5 26 q-67 0 -97.5 -26.5t-30.5 -63.5q0 -42 32 -66.5t96 -24.5zM330 104q78 0 117.5 29t39.5 75q0 120 -158 120q-157 0 -157 -120q0 -46 39.5 -75t118.5 -29z" horiz-adv-x="659" unicode="8"/>
<glyph glyph-name="nine" d="M322 605q-70 0 -113.5 -37.5t-43.5 -91.5t37 -87.5t119 -33.5q70 0 115.5 33.5t45.5 93.5q0 62 -48.5 92.5t-111.5 30.5zM325 722q79 0 137 -28t91.5 -79t49.5 -115.5t16 -143.5q0 -368 -336 -368q-124 0 -204 42q-25 14 -15 34l31 63q9 19 32 10q88 -32 156 -32 q91 0 146 48.5t62 169.5h-2q-56 -85 -182 -85t-199 67.5t-73 170.5q0 105 80 175.5t210 70.5z" horiz-adv-x="656" unicode="9"/>
<glyph glyph-name="colon" d="M80 292q-20 0 -20 20v110q0 20 20 20h104q20 0 20 -20v-110q0 -20 -20 -20h-104zM80 0q-20 0 -20 20v110q0 20 20 20h104q20 0 20 -20v-110q0 -20 -20 -20h-104z" horiz-adv-x="264" unicode=":"/>
<glyph glyph-name="semicolon" d="M80 292q-20 0 -20 20v110q0 20 20 20h104q20 0 20 -20v-110q0 -20 -20 -20h-104zM87 -115l40 115h-47q-20 0 -20 20v110q0 20 20 20h104q20 0 20 -20v-90q0 -24 -9 -43l-62 -112h-46z" horiz-adv-x="264" unicode=";"/>
<glyph glyph-name="less" d="M462 30q-9 -18 -27 -8l-391 226q-10 6 -10 17.5t10 17.5l391 226q18 10 27 -8l42 -71q9 -18 -8 -28l-247 -135v-2l247 -136q17 -10 8 -28z" horiz-adv-x="552" unicode="&lt;"/>
<glyph glyph-name="equal" d="M70 308q-20 0 -20 20v73q0 20 20 20h452q20 0 20 -20v-73q0 -18 -20 -20h-452zM70 112q-20 0 -20 20v73q0 20 20 20h452q20 0 20 -20v-73q0 -18 -20 -20h-452z" horiz-adv-x="592" unicode="="/>
<glyph glyph-name="greater" d="M117 22q-18 -10 -27 8l-42 71q-9 18 8 28l247 136v2l-247 135q-17 10 -8 28l42 71q9 18 27 8l391 -226q10 -6 10 -17.5t-10 -17.5z" horiz-adv-x="553" unicode="&gt;"/>
<glyph glyph-name="question" d="M195 182q-20 0 -22 20l-2 20q-5 54 13.5 86t69.5 58l30 16q93 50 93 117q0 55 -38.5 80t-96.5 25q-78 0 -156 -32q-23 -10 -32 10l-31 64q-11 21 15 34q86 42 204 42q126 0 195.5 -59.5t69.5 -145.5q0 -148 -137 -212l-24 -11q-42 -17 -59 -33t-20 -41l-2 -18 q-2 -20 -20 -20h-50zM167 0q-20 0 -20 20v104q0 20 20 20h102q20 0 20 -20v-104q0 -20 -20 -20h-102z" horiz-adv-x="527" unicode="?"/>
<glyph glyph-name="at" d="M392 -93q-150 0 -255 104.5t-105 250.5v8q0 149 104.5 253t255.5 104q152 0 256 -99.5t104 -247.5v-8q0 -103 -46 -155t-102 -52q-95 0 -117 63h-2q-42 -63 -132 -63q-79 0 -131.5 56.5t-52.5 144.5q0 86 52.5 142t131.5 56q42 0 78 -17t54 -47h2v43q0 14 14 14h73 q15 0 15 -14v-266q0 -18 1 -26.5t9.5 -16.5t25.5 -8q36 0 56 44t20 102v8q0 126 -90 211t-219 85q-128 0 -218.5 -89.5t-90.5 -216.5v-8q0 -125 91.5 -214.5t217.5 -89.5q109 0 214 57l25 -48q-111 -60 -239 -60zM377 149q46 0 78 31.5t32 80.5v9q0 51 -31.5 80t-78.5 29 q-51 0 -79 -30t-28 -83q0 -55 28 -86t79 -31z" horiz-adv-x="784" unicode="@"/>
<glyph glyph-name="A" d="M239 239h258l-108 301l-20 60h-2l-20 -60zM198 123l-37 -103q-8 -20 -23 -20h-95q-10 0 -15 5.5t-2 14.5l245 670q4 12 8 16t15 4h147q11 0 15 -4t8 -16l246 -670q3 -9 -2 -14.5t-15 -5.5h-98q-8 0 -12 4.5t-8 15.5l-37 103h-340z" horiz-adv-x="736" unicode="A"/>
<glyph glyph-name="B" d="M370 0h-285q-20 0 -20 20v670q0 20 20 20h275q53 0 102 -17t85.5 -59.5t36.5 -103.5q0 -114 -97 -151v-2q53 -15 86 -63t33 -105q0 -105 -67 -157t-169 -52zM197 416h142q58 0 85 23t27 73q0 43 -30.5 66.5t-81.5 23.5h-142v-186zM197 308v-200h149q127 0 127 104 q0 47 -32.5 71.5t-91.5 24.5h-152z" horiz-adv-x="641" unicode="B"/>
<glyph glyph-name="C" d="M35 355q0 160 102.5 263.5t263.5 103.5q105 0 173 -37.5t94 -73.5q11 -15 -4 -29l-61 -54q-13 -12 -30 5q-73 69 -172 69q-102 0 -166.5 -67.5t-64.5 -179.5t64.5 -179.5t166.5 -67.5q100 0 172 68q17 17 30 5l61 -53q15 -14 4 -29q-22 -35 -92 -73t-175 -38 q-161 0 -263.5 103.5t-102.5 263.5z" horiz-adv-x="708" unicode="C"/>
<glyph glyph-name="D" d="M695 357q0 -171 -102 -264t-260 -93h-248q-20 0 -20 20v670q0 20 20 20h249q157 0 259 -92t102 -261zM560 357q0 115 -65.5 176t-178.5 61h-119v-478h118q116 0 180.5 61t64.5 180z" horiz-adv-x="730" unicode="D"/>
<glyph glyph-name="E" d="M197 402h339q13 0 15.5 -5t-0.5 -18l-18 -73q-4 -14 -8.5 -17t-21.5 -3h-306v-170h375q20 0 20 -20v-76q0 -20 -20 -20h-487q-20 0 -20 20v670q0 20 20 20h475q20 0 20 -20v-76q0 -20 -20 -20h-363v-192z" horiz-adv-x="635" unicode="E"/>
<glyph glyph-name="F" d="M197 375h354q13 0 15.5 -4.5t-0.5 -17.5l-18 -74q-4 -14 -8.5 -17t-21.5 -3h-321v-239q0 -20 -20 -20h-92q-20 0 -20 20v670q0 20 20 20h488q20 0 20 -20v-76q0 -20 -20 -20h-376v-219z" horiz-adv-x="628" unicode="F"/>
<glyph glyph-name="G" d="M35 355q0 160 102.5 263.5t263.5 103.5q105 0 173 -37.5t94 -73.5q11 -15 -4 -29l-61 -54q-13 -12 -30 5q-73 69 -172 69q-102 0 -166.5 -67.5t-64.5 -179.5t64.5 -179.5t166.5 -67.5q100 0 150 32v158q0 19 20 25l82 26q12 5 21 2.5t9 -18.5v-242q0 -16 -10 -24 q-35 -27 -110 -53t-162 -26q-161 0 -263.5 103.5t-102.5 263.5z" horiz-adv-x="735" unicode="G"/>
<glyph glyph-name="H" d="M197 285v-265q0 -20 -20 -20h-92q-20 0 -20 20v670q0 20 20 20h92q20 0 20 -20v-289h367v289q0 20 20 20h92q20 0 20 -20v-670q0 -20 -20 -20h-92q-20 0 -20 20v265h-367z" horiz-adv-x="761" unicode="H"/>
<glyph glyph-name="I" d="M197 20q0 -20 -20 -20h-92q-20 0 -20 20v670q0 20 20 20h92q20 0 20 -20v-670z" horiz-adv-x="262" unicode="I"/>
<glyph glyph-name="J" d="M55 -5q-20 0 -20 20v66q0 20 20 20q42 0 54 24.5t12 113.5v451q0 20 20 20h92q20 0 20 -20v-483q0 -68 -11.5 -111t-38.5 -64.5t-60.5 -29t-87.5 -7.5z" horiz-adv-x="310" unicode="J"/>
<glyph glyph-name="K" d="M197 20q0 -20 -20 -20h-92q-20 0 -20 20v670q0 20 20 20h92q20 0 20 -20v-335l284 335q18 20 40 20h108q10 0 14 -6t-2 -14l-293 -340l294 -327q7 -8 4.5 -15.5t-12.5 -7.5h-117q-30 0 -48 20l-272 306v-306z" horiz-adv-x="670" unicode="K"/>
<glyph glyph-name="L" d="M197 116h386q10 0 12 -3.5t-2 -16.5l-23 -76q-4 -14 -8.5 -17t-21.5 -3h-455q-20 0 -20 20v670q0 20 20 20h92q20 0 20 -20v-574z" horiz-adv-x="621" unicode="L"/>
<glyph glyph-name="M" d="M763 20q0 -20 -20 -20h-92q-20 0 -20 20v461h-2l-34 -60l-168 -301q-5 -10 -12 -10h-3q-8 0 -13 10l-167 301l-33 60h-2v-461q0 -20 -20 -20h-92q-20 0 -20 20v670q0 20 20 20h97q15 0 25 -20l177 -315l28 -53h2l28 53l179 315q12 20 25 20h97q20 0 20 -20v-670z" horiz-adv-x="828" unicode="M"/>
<glyph glyph-name="N" d="M197 20q0 -20 -20 -20h-92q-20 0 -20 20v670q0 20 20 20h92q15 0 30 -20l297 -432l41 -60h2v492q0 20 20 20h92q20 0 20 -20v-670q0 -20 -20 -20h-92q-15 0 -30 20l-296 423l-42 60h-2v-483z" horiz-adv-x="744" unicode="N"/>
<glyph glyph-name="O" d="M402 -12q-161 0 -264 103t-103 263q0 161 103 264.5t264 103.5t264.5 -103.5t103.5 -264.5q0 -160 -103.5 -263t-264.5 -103zM402 108q102 0 167.5 68.5t65.5 177.5q0 110 -65.5 179t-167.5 69q-103 0 -167.5 -69t-64.5 -179t64.5 -178t167.5 -68z" unicode="O"/>
<glyph glyph-name="P" d="M197 185v-165q0 -20 -20 -20h-92q-20 0 -20 20v670q0 20 20 20h285q52 0 98.5 -15.5t84 -46t59.5 -82t22 -118.5q0 -123 -77.5 -193t-186.5 -70h-173zM197 301h152q68 0 109 44t41 103q0 69 -39 107.5t-111 38.5h-152v-293z" horiz-adv-x="661" unicode="P"/>
<glyph glyph-name="Q" d="M402 722q161 0 264.5 -103.5t103.5 -264.5q0 -134 -75 -230.5t-199 -124.5v-2l70 -125q11 -20 -14 -20h-98q-16 0 -26 20l-64 118q-146 13 -237.5 113.5t-91.5 250.5q0 161 103 264.5t264 103.5zM402 602q-103 0 -167.5 -69t-64.5 -179t64.5 -178t167.5 -68 q102 0 167.5 68.5t65.5 177.5q0 110 -65.5 179t-167.5 69z" unicode="Q"/>
<glyph glyph-name="R" d="M497 458q0 64 -39 100t-111 36h-150v-274h150q68 0 109 40.5t41 97.5zM632 458q0 -91 -48.5 -151.5t-126.5 -82.5l169 -204q6 -8 2 -14t-14 -6h-109q-19 0 -36 20l-149 184h-123v-184q0 -20 -20 -20h-92q-20 0 -20 20v670q0 20 20 20h283q71 0 129 -25t96.5 -84 t38.5 -143z" horiz-adv-x="669" unicode="R"/>
<glyph glyph-name="S" d="M611 193q0 -91 -78.5 -148t-200.5 -57q-154 0 -278 54q-22 9 -10 32l34 66q10 20 32 12q109 -45 212 -45q26 0 50.5 3.5t50.5 12.5t41.5 28t15.5 46q0 39 -33 60t-108 42l-104 29q-89 25 -139 77t-50 119q0 83 73.5 140.5t211.5 57.5q133 0 239 -46q21 -8 10 -31l-32 -68 q-8 -18 -32 -12q-114 38 -187 38q-67 0 -108.5 -18t-41.5 -56q0 -37 32 -57.5t105 -41.5l104 -29q97 -27 144 -76.5t47 -131.5z" horiz-adv-x="651" unicode="S"/>
<glyph glyph-name="T" d="M301 594h-258q-20 0 -20 20v76q0 20 20 20h648q20 0 20 -20v-76q0 -20 -20 -20h-258v-574q0 -20 -20 -20h-92q-20 0 -20 20v574z" horiz-adv-x="734" unicode="T"/>
<glyph glyph-name="U" d="M371 108q184 0 184 194v388q0 20 20 20h92q20 0 20 -20v-404q0 -82 -27 -142t-74 -93t-100.5 -48t-114.5 -15t-114.5 15t-100.5 48t-74 93t-27 142v404q0 20 20 20h92q20 0 20 -20v-388q0 -194 184 -194z" horiz-adv-x="742" unicode="U"/>
<glyph glyph-name="V" d="M438 0h-148q-11 0 -15 4t-8 16l-246 670q-4 9 1.5 14.5t15.5 5.5h103q17 0 23 -20l180 -519l19 -62h2l19 62l180 519q7 20 21 20h105q10 0 15 -5.5t2 -14.5l-246 -670q-4 -12 -8.5 -16t-14.5 -4z" horiz-adv-x="728" unicode="V"/>
<glyph glyph-name="W" d="M787 0h-160q-19 0 -23 20l-84 420l-20 150h-2l-20 -150l-84 -420q-4 -20 -23 -20h-160q-18 0 -23 20l-157 670q-5 20 17 20h97q18 0 23 -20l107 -508l13 -73h2l13 73l108 508q4 20 21 20h134q17 0 21 -20l108 -508l13 -73h2l13 73l108 508q5 20 23 20h97q22 0 17 -20 l-158 -670q-5 -20 -23 -20z" horiz-adv-x="999" unicode="W"/>
<glyph glyph-name="X" d="M655 0h-105q-19 0 -33 20l-127 191l-39 62h-3l-39 -62l-128 -191q-14 -20 -33 -20h-105q-11 0 -17 6t0 14l240 348l-228 322q-6 8 0 14t17 6h106q17 0 31 -20l118 -172l38 -59h2l38 59l120 174q12 18 31 18h104q11 0 17 -6t0 -14l-225 -322l237 -348q6 -8 0 -14t-17 -6z " horiz-adv-x="698" unicode="X"/>
<glyph glyph-name="Y" d="M409 0h-92q-20 0 -20 20v211l-285 459q-5 8 1 14t16 6h98q9 0 13.5 -0.5t9.5 -5t10 -14.5l173 -282l30 -62h3l30 62l172 282q6 14 12 17t20 3h97q11 0 18 -5.5t1 -14.5l-287 -459v-211q0 -20 -20 -20z" horiz-adv-x="728" unicode="Y"/>
<glyph glyph-name="Z" d="M588 0h-524q-19 0 -19 20v65q0 25 16 44l391 463v2h-380q-20 0 -20 20v76q0 20 20 20h522q19 0 19 -20v-62q0 -25 -15 -44l-391 -466v-2h381q20 0 20 -20v-76q0 -20 -20 -20z" horiz-adv-x="659" unicode="Z"/>
<glyph glyph-name="bracketleft" d="M247 -147h-167q-19 0 -19 20v817q0 20 19 20h167q20 0 20 -20v-76q0 -20 -20 -20h-56v-625h56q20 0 20 -20v-76q0 -20 -20 -20z" horiz-adv-x="285" unicode="["/>
<glyph glyph-name="backslash" d="M261 -30l-250 757q-7 22 14 22h91q20 0 26 -22l255 -757q7 -22 -14 -22h-96q-19 0 -26 22z" horiz-adv-x="408" unicode="\"/>
<glyph glyph-name="bracketright" d="M205 -147h-167q-20 0 -20 20v76q0 20 20 20h56v625h-56q-20 0 -20 20v76q0 20 20 20h167q19 0 19 -20v-817q0 -20 -19 -20z" horiz-adv-x="285" unicode="]"/>
<glyph glyph-name="underscore" d="M35 -180q-20 0 -20 20v73q0 20 20 20h510q20 0 20 -20v-73q0 -20 -20 -20h-510z" horiz-adv-x="580" unicode="_"/>
<glyph glyph-name="grave" d="M242 606q9 -23 -12 -23h-74q-15 0 -30 17l-78 90q-6 7 -3 13.5t13 6.5h131q15 0 23 -20z" horiz-adv-x="289" unicode="`"/>
<glyph glyph-name="a" d="M256 88q63 0 105 40.5t42 87.5v14q-54 10 -113 10q-67 0 -96 -19.5t-29 -58.5q0 -35 26 -54.5t65 -19.5zM403 20v71h-3q-48 -100 -189 -100q-29 0 -58 8.5t-56.5 26.5t-44.5 51.5t-17 77.5q0 91 65.5 135.5t185.5 44.5q55 0 117 -11v3q0 57 -23.5 80.5t-101.5 23.5 q-66 0 -150 -26q-27 -7 -34 11l-20 52q-8 21 13 30q86 39 197 39q140 0 192.5 -52.5t52.5 -157.5v-307q0 -20 -20 -20h-86q-20 0 -20 20z" horiz-adv-x="584" unicode="a"/>
<glyph glyph-name="b" d="M363 -9q-48 0 -94.5 23t-75.5 63h-3v-57q0 -20 -20 -20h-90q-20 0 -20 20v651q0 18 20 25l80 26q12 5 21 2.5t9 -18.5v-253h2q28 40 74 63t95 23q114 0 189 -76t75 -196q0 -121 -74 -198.5t-188 -77.5zM348 99q68 0 110.5 45.5t42.5 122.5q0 76 -42.5 119t-110.5 43 q-66 0 -112 -42t-46 -113v-12q0 -73 46 -118t112 -45z" horiz-adv-x="660" unicode="b"/>
<glyph glyph-name="c" d="M35 267q0 120 78.5 196t198.5 76q113 0 187 -74q15 -15 0 -28l-50 -48q-12 -10 -26 2q-49 40 -111 40q-71 0 -112.5 -44t-41.5 -120q0 -74 42 -121t112 -47q67 0 109 38q15 13 28 2l50 -46q15 -13 0 -28q-74 -74 -187 -74q-119 0 -198 77.5t-79 198.5z" horiz-adv-x="543" unicode="c"/>
<glyph glyph-name="d" d="M311 99q66 0 112 43.5t46 116.5v12q0 71 -46 114.5t-112 43.5q-68 0 -110.5 -43t-42.5 -119q0 -77 42.5 -122.5t110.5 -45.5zM297 -9q-114 0 -188 77.5t-74 198.5t74 196.5t188 75.5q49 0 95.5 -22.5t74.5 -62.5h2v217q0 18 20 25l80 26q12 5 21 2.5t9 -18.5v-686 q0 -20 -20 -20h-90q-20 0 -20 20v56h-2q-28 -40 -74.5 -62.5t-95.5 -22.5z" horiz-adv-x="659" unicode="d"/>
<glyph glyph-name="e" d="M322 -9q-132 0 -209.5 75t-77.5 198q0 121 78 198t197 77q123 0 197 -76.5t74 -198.5v-23q0 -20 -20 -20h-400q11 -57 53 -89.5t108 -32.5q83 0 130 42q16 14 28 2l49 -50q14 -14 0 -28q-74 -74 -207 -74zM310 431q-56 0 -95 -30.5t-52 -84.5h289q-24 115 -142 115z" horiz-adv-x="611" unicode="e"/>
<glyph glyph-name="f" d="M222 20q0 -20 -20 -20h-90q-20 0 -20 20v408h-47q-20 0 -20 20v62q0 20 20 20h47v38q0 70 41.5 104.5t108.5 34.5q28 0 66 -8q24 -6 17 -29l-16 -59q-6 -19 -24 -16q-23 3 -39 3q-24 0 -24 -42v-26h65q20 0 20 -20v-62q0 -20 -20 -20h-65v-408z" horiz-adv-x="347" unicode="f"/>
<glyph glyph-name="g" d="M281 -205q-251 0 -251 119q0 32 26 57.5t69 32.5v2q-67 32 -67 82q0 35 26.5 58.5t68.5 28.5v2q-111 52 -109 169q1 87 65.5 139.5t176.5 52.5q100 0 163 -43l2 1v25q0 24 21 27l39 8q10 2 16 1t10 -5t9 -14l24 -55q6 -9 3.5 -20.5t-14.5 -15.5q-33 -13 -50 -16 q20 -38 20 -85q0 -88 -65.5 -142.5t-177.5 -54.5q-103 0 -103 -25q0 -17 49 -20l147 -8q177 -9 177 -127q0 -93 -66.5 -133.5t-208.5 -40.5zM287 251q120 0 120 94q0 92 -120 92q-121 0 -121 -92q0 -94 121 -94zM281 -102q146 0 146 45q0 37 -82 41l-128 6h-16 q-26 0 -40 -15.5t-14 -31.5q0 -45 134 -45z" horiz-adv-x="596" unicode="g"/>
<glyph glyph-name="h" d="M366 537q93 0 142.5 -56t49.5 -154v-307q0 -20 -20 -20h-90q-20 0 -20 20v297q0 124 -107 124q-58 0 -94.5 -32t-36.5 -92v-297q0 -20 -20 -20h-90q-20 0 -20 20v651q0 18 20 25l80 26q12 5 21 2.5t9 -18.5v-275h2q46 106 174 106z" horiz-adv-x="613" unicode="h"/>
<glyph glyph-name="i" d="M190 608q0 -20 -20 -20h-90q-20 0 -20 20v82q0 20 20 20h90q20 0 20 -20v-82zM190 20q0 -20 -20 -20h-90q-20 0 -20 20v490q0 20 20 20h90q20 0 20 -20v-490z" horiz-adv-x="250" unicode="i"/>
<glyph glyph-name="j" d="M195 608q0 -20 -20 -20h-90q-20 0 -20 20v82q0 20 20 20h90q20 0 20 -20v-82zM23 -159q-20 0 -20 21v74q0 19 20 19q42 0 42 75v480q0 20 20 20h90q20 0 20 -20v-515q0 -154 -172 -154z" horiz-adv-x="255" unicode="j"/>
<glyph glyph-name="k" d="M190 20q0 -20 -20 -20h-90q-20 0 -20 20v651q0 18 20 25l80 26q12 5 21 2.5t9 -18.5v-435l184 239q15 20 32 20h103q10 0 14 -6t-2 -14l-192 -240l206 -250q6 -8 2.5 -14t-13.5 -6h-109q-16 0 -32 20l-193 236v-236z" horiz-adv-x="559" unicode="k"/>
<glyph glyph-name="l" d="M170 0h-90q-20 0 -20 20v651q0 18 20 25l80 26q12 5 21 2.5t9 -18.5v-686q0 -20 -20 -20z" horiz-adv-x="250" unicode="l"/>
<glyph glyph-name="m" d="M686 537q200 0 200 -210v-307q0 -20 -20 -20h-90q-20 0 -20 20v287q0 63 -25 93.5t-82 30.5q-52 0 -81.5 -31.5t-29.5 -92.5v-287q0 -20 -20 -20h-90q-20 0 -20 20v287q0 63 -25 93.5t-82 30.5q-52 0 -81.5 -31.5t-29.5 -92.5v-287q0 -20 -20 -20h-90q-20 0 -20 20v490 q0 20 20 20h90q20 0 20 -20v-71h2q40 98 154 98q130 0 173 -109h2q24 54 67.5 81.5t97.5 27.5z" horiz-adv-x="941" unicode="m"/>
<glyph glyph-name="n" d="M366 537q93 0 142.5 -56t49.5 -154v-307q0 -20 -20 -20h-90q-20 0 -20 20v287q0 124 -107 124q-58 0 -94.5 -32t-36.5 -92v-287q0 -20 -20 -20h-90q-20 0 -20 20v490q0 20 20 20h90q20 0 20 -20v-79h2q46 106 174 106z" horiz-adv-x="613" unicode="n"/>
<glyph glyph-name="o" d="M312 -9q-119 0 -198 78t-79 198t78.5 196t198.5 76t199 -76t79 -196t-79.5 -198t-198.5 -78zM312 99q69 0 112 46t43 122q0 77 -42.5 120.5t-112.5 43.5q-69 0 -111.5 -43.5t-42.5 -120.5q0 -76 43 -122t111 -46z" horiz-adv-x="625" unicode="o"/>
<glyph glyph-name="p" d="M348 99q68 0 110.5 45.5t42.5 122.5t-42.5 120.5t-110.5 43.5q-66 0 -112 -42.5t-46 -113.5v-12q0 -74 46 -119t112 -45zM363 -9q-54 0 -100 22t-71 63h-2v-236q0 -20 -20 -20h-90q-20 0 -20 20v670q0 20 20 20h90q20 0 20 -20v-56h2q25 41 71 63t100 22q114 0 188 -75.5 t74 -196.5t-74 -198.5t-188 -77.5z" horiz-adv-x="660" unicode="p"/>
<glyph glyph-name="q" d="M287 -9q-109 0 -180.5 77.5t-71.5 198.5t71 196.5t181 75.5q58 0 107.5 -23t73.5 -64h2v58q0 20 20 20h90q20 0 20 -20v-670q0 -20 -20 -20h-90q-20 0 -20 20v238h-2q-60 -87 -181 -87zM312 99q66 0 112 45t46 117v12q0 73 -45.5 115.5t-112.5 42.5q-74 0 -113.5 -42.5 t-39.5 -121.5t39.5 -123.5t113.5 -44.5z" horiz-adv-x="660" unicode="q"/>
<glyph glyph-name="r" d="M190 20q0 -20 -20 -20h-90q-20 0 -20 20v490q0 20 20 20h90q20 0 20 -20v-92h2q29 119 119 119q33 0 59 -12q16 -7 9 -28l-25 -70q-6 -18 -28 -12q-13 4 -35 4q-49 0 -75 -38.5t-26 -88.5v-272z" horiz-adv-x="390" unicode="r"/>
<glyph glyph-name="s" d="M244 -11q-114 0 -191 36q-20 9 -12 28l23 63q6 16 27 8q81 -29 150 -29q111 0 111 53q0 22 -22 34t-91 31l-69 19q-55 15 -95 53.5t-40 101.5q0 71 58.5 112.5t163.5 41.5q115 0 184 -36q14 -8 8 -23l-23 -64q-6 -15 -24 -8q-64 24 -142 24q-103 0 -103 -47 q0 -23 21 -34.5t58 -21.5q6 -1 9 -2l69 -19q81 -22 120.5 -59t39.5 -103q0 -81 -63.5 -120t-166.5 -39z" horiz-adv-x="504" unicode="s"/>
<glyph glyph-name="t" d="M210 -5q-29 0 -55.5 9.5t-50 40.5t-23.5 80v303h-46q-20 0 -20 20v62q0 20 20 20h46v59q0 19 20 25l79 26q30 10 30 -16v-94h94q20 0 20 -20v-62q0 -20 -20 -20h-94v-253q0 -28 6 -42.5t13 -17.5t21 -3q18 0 31 3q11 3 18 1.5t10 -12.5l18 -65q7 -21 -9 -28 q-35 -16 -108 -16z" horiz-adv-x="369" unicode="t"/>
<glyph glyph-name="u" d="M241 -9q-89 0 -137.5 56t-48.5 154v309q0 20 20 20h90q20 0 20 -20v-289q0 -124 101 -124q57 0 94 34t37 94v285q0 20 20 20h90q20 0 20 -20v-490q0 -20 -20 -20h-90q-20 0 -20 20v80h-2q-49 -109 -174 -109z" horiz-adv-x="607" unicode="u"/>
<glyph glyph-name="v" d="M365 0h-168q-9 0 -13 4.5t-7 15.5l-156 490q-3 9 3.5 14.5t16.5 5.5h96q9 0 13 -4.5t7 -15.5l108 -372l15 -53h2l16 53l117 372q3 11 7 15.5t13 4.5h96q10 0 16.5 -5.5t3.5 -14.5l-166 -490q-3 -11 -7 -15.5t-13 -4.5z" horiz-adv-x="572" unicode="v"/>
<glyph glyph-name="w" d="M677 0h-160q-18 0 -23 20l-70 344l-11 62h-2l-12 -62l-72 -344q-5 -20 -20 -20h-164q-17 0 -20 20l-93 490q-3 20 20 20h85q17 0 20 -20l62 -363l10 -62h2l13 62l76 363q5 20 20 20h149q15 0 20 -20l73 -363l12 -62h2l10 62l66 363q3 20 20 20h85q10 0 16 -5.5t4 -14.5 l-98 -490q-5 -20 -20 -20z" horiz-adv-x="826" unicode="w"/>
<glyph glyph-name="x" d="M525 0h-91q-4 0 -8 1l-6 1.5t-4.5 3l-3.5 3.5t-4 5.5t-4 5.5l-73 100l-44 62h-2l-43 -62l-73 -100q-1 -2 -3.5 -5t-3.5 -4.5t-3 -3.5t-3.5 -3t-4 -2t-5.5 -1.5t-7 -0.5h-91q-11 0 -18.5 6t-1.5 14l182 250l-176 240q-6 8 1.5 14t18.5 6h91q8 0 14.5 -4t7.5 -5t8 -11 l70 -98l41 -60h2l41 60l69 98q1 1 2.5 3.5t2.5 3.5t2.5 3t2.5 3l2.5 2.5t3.5 2l4 1t4.5 1t5.5 0.5h91q11 0 18.5 -6t1.5 -14l-176 -241l182 -249q6 -8 -1.5 -14t-18.5 -6z" horiz-adv-x="573" unicode="x"/>
<glyph glyph-name="y" d="M256 0h-59q-9 0 -13 4.5t-7 15.5l-156 490q-3 9 3.5 14.5t16.5 5.5h96q9 0 13 -4.5t7 -15.5l106 -363l17 -62h2l18 62l115 363q3 11 7 15.5t13 4.5h96q10 0 16.5 -5.5t3.5 -14.5l-195 -572q-24 -70 -66 -96.5t-104 -26.5q-71 0 -118 22q-17 9 -9 28l23 60q8 19 24 14 q45 -15 75 -15q50 2 66 49z" horiz-adv-x="572" unicode="y"/>
<glyph glyph-name="z" d="M474 0h-410q-19 0 -19 20v61q0 25 14 40l294 305v2h-281q-20 0 -20 20v62q0 20 20 20h408q19 0 19 -20v-58q0 -27 -10 -38l-295 -310v-2h280q20 0 20 -20v-62q0 -20 -20 -20z" horiz-adv-x="544" unicode="z"/>
<glyph glyph-name="braceleft" d="M282 -180q-108 0 -145 49.5t-37 181.5v13q0 97 -8 125t-42 33q-20 3 -20 20v46q0 17 20 20q34 4 42 32.5t8 125.5v13q0 132 37 181.5t145 49.5q20 0 20 -20v-76q0 -20 -20 -20q-38 0 -46.5 -22t-8.5 -106v-13q0 -154 -52 -187v-2q52 -32 52 -187v-13q0 -84 8.5 -106 t46.5 -22q20 0 20 -20v-76q0 -20 -20 -20z" horiz-adv-x="317" unicode="{"/>
<glyph glyph-name="bar" d="M159 -140q0 -20 -20 -20h-54q-20 0 -20 20v860q0 20 20 20h54q20 0 20 -20v-860z" horiz-adv-x="224" unicode="|"/>
<glyph glyph-name="braceright" d="M217 51q0 -132 -37 -181.5t-145 -49.5q-20 0 -20 20v76q0 20 20 20q38 0 46.5 22t8.5 106v13q0 155 52 187v2q-52 33 -52 187v13q0 84 -8.5 106t-46.5 22q-20 0 -20 20v76q0 20 20 20q108 0 145 -49.5t37 -181.5v-13q0 -97 8 -125.5t42 -32.5q20 -3 20 -20v-46 q0 -17 -20 -20q-34 -5 -42 -33t-8 -125v-13z" horiz-adv-x="317" unicode="}"/>
<glyph glyph-name="uni00A0" horiz-adv-x="320" unicode=" "/>
<glyph glyph-name="exclamdown" d="M80 530h102q20 0 20 -20v-104q0 -20 -20 -20h-102q-20 0 -20 20v104q0 20 20 20zM106 330h50q18 0 20 -20l20 -291v-179q0 -20 -20 -20h-90q-20 0 -20 20v179l20 291q2 20 20 20z" horiz-adv-x="262" unicode="¡"/>
<glyph glyph-name="cent" d="M40 267q0 107 64 180.5t165 87.5v62q0 20 20 20h54q20 0 20 -20v-62q83 -12 141 -70q15 -15 0 -28l-50 -48q-12 -10 -26 2q-49 40 -111 40q-72 0 -113.5 -44t-41.5 -120q0 -74 42.5 -121t112.5 -47q67 0 109 38q15 13 28 2l50 -46q15 -13 0 -28q-58 -58 -141 -70v-62 q0 -20 -20 -20h-54q-20 0 -20 20v62q-101 15 -165 89.5t-64 182.5z" horiz-adv-x="563" unicode="¢"/>
<glyph glyph-name="sterling" d="M395 0h-316q-20 0 -20 20v75q0 17 19 38q11 13 11 132v43h-44q-20 0 -20 20v64q0 20 20 20h44v132q0 88 48.5 133t154.5 45q60 0 116 -16q25 -6 17 -29l-20 -60q-7 -21 -24 -16q-47 10 -85 10q-47 1 -60.5 -19t-13.5 -63v-117h95q20 -3 20 -20v-64q0 -20 -20 -20h-95v-40 q0 -123 -57 -150v-2h273q10 0 12 -3.5t-2 -16.5l-23 -76q-4 -14 -8.5 -17t-21.5 -3z" horiz-adv-x="484" unicode="£"/>
<glyph glyph-name="yen" d="M429 20q0 -20 -20 -20h-92q-20 0 -20 20v108h-199q-20 0 -20 20v73q0 20 20 20h193v2l-39 60h-154q-20 0 -20 20v73q0 20 20 20h84l-170 274q-5 8 1 14t16 6h98q9 0 13.5 -0.5t9.5 -5t10 -14.5l173 -282l30 -62h3l30 62l172 282q6 14 12 17t20 3h97q11 0 18 -5.5t1 -14.5 l-171 -274h85q20 0 20 -20v-73q0 -20 -20 -20h-156l-39 -60v-2h195q20 0 20 -20v-73q0 -20 -20 -20h-201v-108z" horiz-adv-x="728" unicode="¥"/>
<glyph glyph-name="dieresis" d="M344 608q0 -18 -18 -18h-93q-18 0 -18 18v99q0 18 18 18h93q18 0 18 -18v-99zM169 608q0 -18 -18 -18h-93q-18 0 -18 18v99q0 18 18 18h93q18 0 18 -18v-99z" horiz-adv-x="384" unicode="¨"/>
<glyph glyph-name="copyright" d="M262 241q-98 0 -167.5 69.5t-69.5 167.5t69.5 167.5t167.5 69.5t167.5 -69.5t69.5 -167.5t-69.5 -167.5t-167.5 -69.5zM262 285q79 0 135 56.5t56 136.5t-56 136.5t-135 56.5t-134.5 -56.5t-55.5 -136.5t55.5 -136.5t134.5 -56.5zM265 327q-63 0 -106 43.5t-43 107.5 t43 107.5t106 43.5q33 0 70 -16q8 -5 4 -12l-12 -25q-3 -7 -12 -4q-32 8 -50 8q-35 0 -65.5 -26t-30.5 -76q0 -49 30.5 -75.5t65.5 -26.5q14 0 50 9q9 3 12 -5l12 -25q4 -8 -4 -11q-34 -17 -70 -17z" horiz-adv-x="524" unicode="©"/>
<glyph glyph-name="ordfeminine" d="M187 404q43 0 69.5 22.5t26.5 50.5v9q-42 7 -71 7q-43 0 -61 -11t-18 -35q0 -21 15 -32t39 -11zM152 321q-48 0 -87.5 29.5t-39.5 91.5q0 132 185 132q29 0 73 -8v2q0 32 -18 49t-61 17q-50 0 -110 -20q-20 -6 -25 8l-14 49q-4 17 9 23q64 28 144 28q102 0 141 -38.5 t39 -115.5v-225q0 -14 -15 -14h-76q-14 0 -14 14v45h-2q-34 -67 -129 -67z" horiz-adv-x="433" unicode="ª"/>
<glyph glyph-name="guillemotleft" d="M471 29q-27 0 -47 25l-160 202q-10 12 0 24l160 202q20 25 47 25h96q14 0 19.5 -7.5t-3.5 -19.5l-170 -211v-2l170 -211q9 -13 4 -20t-20 -7h-96zM247 26q-27 0 -47 25l-160 202q-10 12 0 24l160 202q20 25 47 25h96q14 0 19.5 -7.5t-3.5 -19.5l-170 -211v-2l170 -211 q9 -13 4 -20t-20 -7h-96z" horiz-adv-x="624" unicode="«"/>
<glyph glyph-name="registered" d="M262 241q-98 0 -167.5 69.5t-69.5 167.5t69.5 167.5t167.5 69.5t167.5 -69.5t69.5 -167.5t-69.5 -167.5t-167.5 -69.5zM262 285q79 0 135 56.5t56 136.5t-56 136.5t-135 56.5t-134.5 -56.5t-55.5 -136.5t55.5 -136.5t134.5 -56.5zM233 467h33q21 0 34.5 17.5t13.5 42.5 q0 28 -13 44.5t-35 16.5h-33v-121zM232 342q0 -8 -8 -8h-31q-9 0 -9 8v282q0 9 9 9h75q40 0 68 -26.5t28 -79.5q0 -71 -62 -97l56 -88q5 -8 -6 -8h-36q-7 0 -12 8l-53 85h-19v-85z" horiz-adv-x="524" unicode="®"/>
<glyph glyph-name="macron" d="M63 599q-18 0 -18 18v64q0 18 18 18h292q18 0 18 -18v-64q0 -18 -18 -18h-292z" horiz-adv-x="418" unicode="¯"/>
<glyph glyph-name="degree" d="M163 433q-68 0 -105.5 40.5t-37.5 103.5t37.5 104t105.5 41q67 0 105.5 -41.5t38.5 -103.5t-38.5 -103t-105.5 -41zM163 518q21 0 33 16t12 43q0 28 -12 44t-33 16t-33 -16t-12 -44q0 -27 12 -43t33 -16z" horiz-adv-x="327" unicode="°"/>
<glyph glyph-name="plusminus" d="M361 175q0 -20 -20 -20h-90q-22 0 -20 20v107h-161q-20 0 -20 20v73q0 20 20 20h161v116q-2 20 20 20h90q20 0 20 -20v-116h161q20 0 20 -20v-73q0 -18 -20 -20h-161v-107zM542 21q0 -18 -20 -20h-452q-20 0 -20 20v73q0 20 20 20h452q20 0 20 -20v-73z" horiz-adv-x="592" unicode="±"/>
<glyph glyph-name="acute" d="M46 606l30 84q7 20 23 20h131q10 0 13.5 -6t-3.5 -14l-78 -90q-15 -17 -30 -17h-74q-20 0 -12 23z" horiz-adv-x="289" unicode="´"/>
<glyph glyph-name="paragraph" d="M368 20q0 -20 -20 -20h-40q-20 0 -20 20v145q-109 0 -186 67t-77 186q0 84 38.5 143t96.5 84t129 25h184q20 0 20 -20v-630q0 -20 -20 -20h-40q-20 0 -20 20v578h-45v-578z" horiz-adv-x="558" unicode="¶"/>
<glyph glyph-name="cedilla" d="M128 -180q-62 0 -80 11q-4 3 -3 10l7 31q3 9 10 7q24 -4 45 -4q36 0 36 26q0 27 -58 27h-23q-7 0 -7 7v36q0 4 4 12l59 38h88l-69 -42v-2q102 0 102 -76q0 -36 -32 -58.5t-79 -22.5z" horiz-adv-x="274" unicode="¸"/>
<glyph glyph-name="ordmasculine" d="M226 323q-87 0 -144 57t-57 144q0 88 57 143t144 55t145 -55.5t58 -142.5t-58 -144t-145 -57zM226 424q42 0 67.5 27.5t25.5 72.5q0 46 -25.5 72t-67.5 26q-41 0 -66 -26t-25 -72q0 -45 25.5 -72.5t65.5 -27.5z" horiz-adv-x="454" unicode="º"/>
<glyph glyph-name="guillemotright" d="M360 256l-160 -202q-20 -25 -47 -25h-96q-15 0 -20 7t4 20l170 211v2l-170 211q-9 12 -3.5 19.5t19.5 7.5h96q27 0 47 -25l160 -202q10 -12 0 -24zM584 253l-160 -202q-20 -25 -47 -25h-96q-15 0 -20 7t4 20l170 211v2l-170 211q-9 12 -3.5 19.5t19.5 7.5h96q27 0 47 -25 l160 -202q10 -12 0 -24z" horiz-adv-x="624" unicode="»"/>
<glyph glyph-name="onequarter" d="M174 343h-84q-10 0 -10 10v269h-55q-14 2 -9 13l28 65q3 7 5 8.5t11 1.5h114q10 0 10 -10v-347q0 -10 -10 -10zM195 22q-6 -13 -11 -17.5t-15 -4.5h-78q-10 0 -15.5 6.5t-1.5 15.5l310 666q6 13 11 17.5t15 4.5h78q10 0 15.5 -6.5t1.5 -15.5zM569 10q0 -10 -11 -10h-80 q-10 0 -10 10v46h-155q-8 0 -8 10v58q0 9 4 17l116 218q5 10 13 10h79q5 0 7.5 -4t-0.5 -10l-100 -189l-19 -30v-1h63v74q0 19 10 23l75 38q16 7 16 -8v-127h31q11 3 11 -10v-59q0 -7 -11 -10h-31v-46z" horiz-adv-x="631" unicode="¼"/>
<glyph glyph-name="onehalf" d="M174 343h-84q-10 0 -10 10v269h-55q-14 2 -9 13l28 65q3 7 5 8.5t11 1.5h114q10 0 10 -10v-347q0 -10 -10 -10zM193 22q-6 -13 -11 -17.5t-15 -4.5h-78q-10 0 -15.5 6.5t-1.5 15.5l310 666q6 13 11 17.5t15 4.5h78q10 0 15.5 -6.5t1.5 -15.5zM615 10q0 -10 -11 -10h-232 q-9 0 -9 10v73q0 14 10 21l41 29q94 66 94 110q0 17 -12.5 29.5t-29.5 12.5q-36 0 -66 -13q-14 -5 -17 7l-10 52q-3 17 8 22q39 18 102 18q59 0 96 -31t37 -85q0 -105 -106 -150l-36 -15v-1h130q11 0 11 -10v-69z" horiz-adv-x="641" unicode="½"/>
<glyph glyph-name="threequarters" d="M260 22q-6 -13 -11 -17.5t-15 -4.5h-78q-10 0 -15.5 6.5t-1.5 15.5l310 666q6 13 11 17.5t15 4.5h78q10 0 15.5 -6.5t1.5 -15.5zM151 334q-82 0 -120 19q-8 4 -5 14l19 63q1 7 13 2q28 -14 68 -14q62 0 62 36q0 20 -18.5 30t-46.5 10h-43q-4 0 -6.5 4t-2.5 6v47 q0 12 3 14l77 62v2h-98q-10 0 -10 10v60q0 11 10 11h211q9 0 9 -11v-54q0 -15 -10 -22l-78 -62v-2q107 -9 107 -109q0 -47 -40 -81.5t-101 -34.5zM634 10q0 -10 -11 -10h-80q-10 0 -10 10v46h-155q-8 0 -8 10v58q0 9 4 17l116 218q5 10 13 10h79q5 0 7.5 -4t-0.5 -10 l-100 -189l-19 -30v-1h63v74q0 19 10 23l75 38q16 7 16 -8v-127h31q11 3 11 -10v-59q0 -7 -11 -10h-31v-46z" horiz-adv-x="696" unicode="¾"/>
<glyph glyph-name="questiondown" d="M365 530q20 0 20 -20v-104q0 -20 -20 -20h-102q-20 0 -20 20v104q0 20 20 20h102zM339 348q20 0 22 -20l2 -20q5 -52 -13.5 -81.5t-69.5 -62.5l-30 -19q-54 -35 -73.5 -62t-19.5 -68q0 -40 35.5 -64.5t99.5 -24.5q78 0 156 32q23 10 32 -10l31 -64q11 -21 -15 -34 q-86 -42 -204 -42q-126 0 -195.5 56t-69.5 141q0 142 137 218l24 13q45 25 60.5 38t18.5 36l2 18q2 20 20 20h50z" horiz-adv-x="501" unicode="¿"/>
<glyph glyph-name="Agrave" d="M431 777q4 -9 0.5 -16t-12.5 -7h-104q-16 0 -30 17l-82 95q-6 8 -3 14t13 6h160q15 0 23 -20zM239 239h258l-108 301l-20 60h-2l-20 -60zM198 123l-37 -103q-8 -20 -23 -20h-95q-10 0 -15 5.5t-2 14.5l245 670q4 12 8 16t15 4h147q11 0 15 -4t8 -16l246 -670 q3 -9 -2 -14.5t-15 -5.5h-98q-8 0 -12 4.5t-8 15.5l-37 103h-340z" horiz-adv-x="736" unicode="À"/>
<glyph glyph-name="Aacute" d="M309 781l35 89q8 20 23 20h160q10 0 13 -6t-3 -14l-82 -95q-14 -17 -30 -17h-104q-9 0 -12.5 7t0.5 16zM239 239h258l-108 301l-20 60h-2l-20 -60zM198 123l-37 -103q-8 -20 -23 -20h-95q-10 0 -15 5.5t-2 14.5l245 670q4 12 8 16t15 4h147q11 0 15 -4t8 -16l246 -670 q3 -9 -2 -14.5t-15 -5.5h-98q-8 0 -12 4.5t-8 15.5l-37 103h-340z" horiz-adv-x="736" unicode="Á"/>
<glyph glyph-name="Acircumflex" d="M281 762q-32 -17 -47 -17h-37q-10 0 -14 7.5t2 15.5l98 111q16 20 32 20h106q16 0 32 -20l97 -111q7 -10 3 -16.5t-15 -6.5h-37q-15 0 -47 17l-85 44h-2zM239 239h258l-108 301l-20 60h-2l-20 -60zM198 123l-37 -103q-8 -20 -23 -20h-95q-10 0 -15 5.5t-2 14.5l245 670 q4 12 8 16t15 4h147q11 0 15 -4t8 -16l246 -670q3 -9 -2 -14.5t-15 -5.5h-98q-8 0 -12 4.5t-8 15.5l-37 103h-340z" horiz-adv-x="736" unicode="Â"/>
<glyph glyph-name="Atilde" d="M446 754q-30 0 -60 10l-46 17q-23 8 -45 8q-25 0 -36 -14q-13 -16 -25 -16h-36q-17 0 -10 34q19 96 106 96q29 0 57 -10l46 -16q25 -9 45 -9q25 0 36 14q13 16 25 16h36q17 0 10 -33q-19 -97 -103 -97zM239 239h258l-108 301l-20 60h-2l-20 -60zM198 123l-37 -103 q-8 -20 -23 -20h-95q-10 0 -15 5.5t-2 14.5l245 670q4 12 8 16t15 4h147q11 0 15 -4t8 -16l246 -670q3 -9 -2 -14.5t-15 -5.5h-98q-8 0 -12 4.5t-8 15.5l-37 103h-340z" horiz-adv-x="736" unicode="Ã"/>
<glyph glyph-name="Adieresis" d="M549 774q0 -18 -18 -18h-115q-18 0 -18 18v105q0 18 18 18h115q18 0 18 -18v-105zM338 774q0 -18 -18 -18h-115q-18 0 -18 18v105q0 18 18 18h115q18 0 18 -18v-105zM239 239h258l-108 301l-20 60h-2l-20 -60zM198 123l-37 -103q-8 -20 -23 -20h-95q-10 0 -15 5.5 t-2 14.5l245 670q4 12 8 16t15 4h147q11 0 15 -4t8 -16l246 -670q3 -9 -2 -14.5t-15 -5.5h-98q-8 0 -12 4.5t-8 15.5l-37 103h-340z" horiz-adv-x="736" unicode="Ä"/>
<glyph glyph-name="Aring" d="M368 734q-46 0 -77 30t-31 75t31 75t77 30q45 0 76.5 -30t31.5 -75t-31.5 -75t-76.5 -30zM368 804q15 0 25.5 10.5t10.5 24.5t-10.5 24.5t-25.5 10.5t-25.5 -10.5t-10.5 -24.5t10.5 -24.5t25.5 -10.5zM239 239h258l-108 301l-20 60h-2l-20 -60zM198 123l-37 -103 q-8 -20 -23 -20h-95q-10 0 -15 5.5t-2 14.5l245 670q4 12 8 16t15 4h147q11 0 15 -4t8 -16l246 -670q3 -9 -2 -14.5t-15 -5.5h-98q-8 0 -12 4.5t-8 15.5l-37 103h-340z" horiz-adv-x="736" unicode="Å"/>
<glyph glyph-name="AE" d="M494 239v362h-2l-40 -71l-166 -291h208zM494 123h-274l-60 -103q-11 -20 -23 -20h-98q-11 0 -16.5 5.5t-0.5 14.5l374 670q11 20 32 20h561q20 0 20 -20v-76q0 -20 -20 -20h-363v-192h339q13 0 15.5 -5t-0.5 -18l-18 -73q-4 -14 -8.5 -17t-21.5 -3h-306v-170h375 q20 0 20 -20v-76q0 -20 -20 -20h-487q-20 0 -20 20v103z" horiz-adv-x="1061" unicode="Æ"/>
<glyph glyph-name="Ccedilla" d="M383 -180q-63 0 -81 11q-4 3 -3 10l7 34q1 9 10 7q24 -4 45 -4q32 0 32 21q0 22 -54 22h-23q-7 0 -7 7v39q0 4 4 12l20 14q-134 22 -216 121t-82 241q0 160 102.5 263.5t263.5 103.5q105 0 173 -37.5t94 -73.5q11 -15 -4 -29l-61 -54q-13 -12 -30 5q-73 69 -172 69 q-102 0 -166.5 -67.5t-64.5 -179.5t64.5 -179.5t166.5 -67.5q100 0 172 68q17 17 30 5l61 -53q15 -14 4 -29q-22 -34 -89 -71.5t-168 -39.5l-20 -13v-2q116 0 116 -72q0 -81 -124 -81z" horiz-adv-x="708" unicode="Ç"/>
<glyph glyph-name="Egrave" d="M403 779q4 -9 0.5 -16t-12.5 -7h-104q-16 0 -30 17l-82 95q-6 8 -3 14t13 6h160q15 0 23 -20zM197 402h339q13 0 15.5 -5t-0.5 -18l-18 -73q-4 -14 -8.5 -17t-21.5 -3h-306v-170h375q20 0 20 -20v-76q0 -20 -20 -20h-487q-20 0 -20 20v670q0 20 20 20h475q20 0 20 -20 v-76q0 -20 -20 -20h-363v-192z" horiz-adv-x="635" unicode="È"/>
<glyph glyph-name="Eacute" d="M268 779l35 89q8 20 23 20h160q10 0 13 -6t-3 -14l-82 -95q-14 -17 -30 -17h-104q-9 0 -12.5 7t0.5 16zM197 402h339q13 0 15.5 -5t-0.5 -18l-18 -73q-4 -14 -8.5 -17t-21.5 -3h-306v-170h375q20 0 20 -20v-76q0 -20 -20 -20h-487q-20 0 -20 20v670q0 20 20 20h475 q20 0 20 -20v-76q0 -20 -20 -20h-363v-192z" horiz-adv-x="635" unicode="É"/>
<glyph glyph-name="Ecircumflex" d="M241 762q-32 -17 -47 -17h-37q-10 0 -14 7.5t2 15.5l98 111q16 20 32 20h106q16 0 32 -20l97 -111q7 -10 3 -16.5t-15 -6.5h-37q-15 0 -47 17l-85 44h-2zM197 402h339q13 0 15.5 -5t-0.5 -18l-18 -73q-4 -14 -8.5 -17t-21.5 -3h-306v-170h375q20 0 20 -20v-76 q0 -20 -20 -20h-487q-20 0 -20 20v670q0 20 20 20h475q20 0 20 -20v-76q0 -20 -20 -20h-363v-192z" horiz-adv-x="635" unicode="Ê"/>
<glyph glyph-name="Edieresis" d="M509 774q0 -18 -18 -18h-115q-18 0 -18 18v105q0 18 18 18h115q18 0 18 -18v-105zM298 774q0 -18 -18 -18h-115q-18 0 -18 18v105q0 18 18 18h115q18 0 18 -18v-105zM197 402h339q13 0 15.5 -5t-0.5 -18l-18 -73q-4 -14 -8.5 -17t-21.5 -3h-306v-170h375q20 0 20 -20v-76 q0 -20 -20 -20h-487q-20 0 -20 20v670q0 20 20 20h475q20 0 20 -20v-76q0 -20 -20 -20h-363v-192z" horiz-adv-x="635" unicode="Ë"/>
<glyph glyph-name="Igrave" d="M195 779q4 -9 0.5 -16t-12.5 -7h-104q-16 0 -30 17l-82 95q-6 8 -3 14t13 6h160q15 0 23 -20zM197 20q0 -20 -20 -20h-92q-20 0 -20 20v670q0 20 20 20h92q20 0 20 -20v-670z" horiz-adv-x="262" unicode="Ì"/>
<glyph glyph-name="Iacute" d="M72 779l35 89q8 20 23 20h160q10 0 13 -6t-3 -14l-82 -95q-14 -17 -30 -17h-104q-9 0 -12.5 7t0.5 16zM197 20q0 -20 -20 -20h-92q-20 0 -20 20v670q0 20 20 20h92q20 0 20 -20v-670z" horiz-adv-x="262" unicode="Í"/>
<glyph glyph-name="Icircumflex" d="M84 762q-26 -17 -37 -17h-47q-9 0 -12.5 7.5t0.5 15.5l58 111q10 20 32 20h106q22 0 32 -20l57 -111q11 -23 -12 -23h-47q-12 0 -37 17l-45 54h-2zM197 20q0 -20 -20 -20h-92q-20 0 -20 20v670q0 20 20 20h92q20 0 20 -20v-670z" horiz-adv-x="262" unicode="Î"/>
<glyph glyph-name="Idieresis" d="M297 764q0 -18 -18 -18h-107q-18 0 -18 18v105q0 18 18 18h107q18 0 18 -18v-105zM108 764q0 -18 -18 -18h-107q-18 0 -18 18v105q0 18 18 18h107q18 0 18 -18v-105zM197 20q0 -20 -20 -20h-92q-20 0 -20 20v670q0 20 20 20h92q20 0 20 -20v-670z" horiz-adv-x="262" unicode="Ï"/>
<glyph glyph-name="Eth" d="M357 0h-248q-20 0 -20 20v267h-59q-20 0 -20 20v76q0 20 20 20h59v287q0 20 20 20h249q157 0 259 -92t102 -261q0 -171 -102 -264t-260 -93zM221 116h118q116 0 180.5 61t64.5 180q0 115 -65.5 176t-178.5 61h-119v-191h151q20 0 20 -20v-76q0 -20 -20 -20h-151v-171z " horiz-adv-x="754" unicode="Ð"/>
<glyph glyph-name="Ntilde" d="M450 754q-30 0 -60 10l-46 17q-23 8 -45 8q-25 0 -36 -14q-13 -16 -25 -16h-36q-17 0 -10 34q19 96 106 96q29 0 57 -10l46 -16q25 -9 45 -9q25 0 36 14q13 16 25 16h36q17 0 10 -33q-19 -97 -103 -97zM197 20q0 -20 -20 -20h-92q-20 0 -20 20v670q0 20 20 20h92 q15 0 30 -20l297 -432l41 -60h2v492q0 20 20 20h92q20 0 20 -20v-670q0 -20 -20 -20h-92q-15 0 -30 20l-296 423l-42 60h-2v-483z" horiz-adv-x="744" unicode="Ñ"/>
<glyph glyph-name="Ograve" d="M471 779q4 -9 0.5 -16t-12.5 -7h-104q-16 0 -30 17l-82 95q-6 8 -3 14t13 6h160q15 0 23 -20zM402 -12q-161 0 -264 103t-103 263q0 161 103 264.5t264 103.5t264.5 -103.5t103.5 -264.5q0 -160 -103.5 -263t-264.5 -103zM402 108q102 0 167.5 68.5t65.5 177.5 q0 110 -65.5 179t-167.5 69q-103 0 -167.5 -69t-64.5 -179t64.5 -178t167.5 -68z" unicode="Ò"/>
<glyph glyph-name="Oacute" d="M345 779l35 89q8 20 23 20h160q10 0 13 -6t-3 -14l-82 -95q-14 -17 -30 -17h-104q-9 0 -12.5 7t0.5 16zM402 -12q-161 0 -264 103t-103 263q0 161 103 264.5t264 103.5t264.5 -103.5t103.5 -264.5q0 -160 -103.5 -263t-264.5 -103zM402 108q102 0 167.5 68.5t65.5 177.5 q0 110 -65.5 179t-167.5 69q-103 0 -167.5 -69t-64.5 -179t64.5 -178t167.5 -68z" unicode="Ó"/>
<glyph glyph-name="Ocircumflex" d="M318 762q-32 -17 -47 -17h-37q-10 0 -14 7.5t2 15.5l98 111q16 20 32 20h106q16 0 32 -20l97 -111q7 -10 3 -16.5t-15 -6.5h-37q-15 0 -47 17l-85 44h-2zM402 -12q-161 0 -264 103t-103 263q0 161 103 264.5t264 103.5t264.5 -103.5t103.5 -264.5q0 -160 -103.5 -263 t-264.5 -103zM402 108q102 0 167.5 68.5t65.5 177.5q0 110 -65.5 179t-167.5 69q-103 0 -167.5 -69t-64.5 -179t64.5 -178t167.5 -68z" unicode="Ô"/>
<glyph glyph-name="Otilde" d="M483 754q-30 0 -60 10l-46 17q-23 8 -45 8q-25 0 -36 -14q-13 -16 -25 -16h-36q-17 0 -10 34q19 96 106 96q29 0 57 -10l46 -16q26 -9 45 -9q25 0 36 14q13 16 25 16h36q17 0 10 -33q-19 -97 -103 -97zM402 -12q-161 0 -264 103t-103 263q0 161 103 264.5t264 103.5 t264.5 -103.5t103.5 -264.5q0 -160 -103.5 -263t-264.5 -103zM402 108q102 0 167.5 68.5t65.5 177.5q0 110 -65.5 179t-167.5 69q-103 0 -167.5 -69t-64.5 -179t64.5 -178t167.5 -68z" unicode="Õ"/>
<glyph glyph-name="Odieresis" d="M586 774q0 -18 -18 -18h-115q-18 0 -18 18v105q0 18 18 18h115q18 0 18 -18v-105zM375 774q0 -18 -18 -18h-115q-18 0 -18 18v105q0 18 18 18h115q18 0 18 -18v-105zM402 -12q-161 0 -264 103t-103 263q0 161 103 264.5t264 103.5t264.5 -103.5t103.5 -264.5 q0 -160 -103.5 -263t-264.5 -103zM402 108q102 0 167.5 68.5t65.5 177.5q0 110 -65.5 179t-167.5 69q-103 0 -167.5 -69t-64.5 -179t64.5 -178t167.5 -68z" unicode="Ö"/>
<glyph glyph-name="multiply" d="M394 60q-14 -14 -28 0l-127 128h-2l-127 -128q-13 -15 -28 0l-50 49q-15 15 0 29l128 127v2l-128 126q-15 14 0 29l50 49q15 15 28 0l127 -128h2l127 128q14 14 28 0l50 -49q14 -14 0 -29l-128 -126v-2l128 -127q14 -14 0 -29z" horiz-adv-x="476" unicode="×"/>
<glyph glyph-name="Oslash" d="M402 -12q-118 0 -212 63h-2l-44 -46q-14 -14 -28 0l-64 64q-14 14 0 28l18 18l28 24q-63 93 -63 215q0 161 103 264.5t264 103.5q119 0 212 -63h2l44 46q14 14 28 0l64 -64q14 -14 0 -28l-22 -22l-24 -21q64 -92 64 -216q0 -160 -103.5 -263t-264.5 -103zM402 602 q-103 0 -167.5 -69t-64.5 -179q0 -68 22 -118h2l39 41l244 245l50 47q-50 33 -125 33zM402 108q102 0 167.5 68.5t65.5 177.5q0 71 -24 120h-2l-43 -47l-249 -249l-41 -36q56 -34 126 -34z" unicode="Ø"/>
<glyph glyph-name="Ugrave" d="M451 779q4 -9 0.5 -16t-12.5 -7h-104q-16 0 -30 17l-82 95q-6 8 -3 14t13 6h160q15 0 23 -20zM371 108q184 0 184 194v388q0 20 20 20h92q20 0 20 -20v-404q0 -82 -27 -142t-74 -93t-100.5 -48t-114.5 -15t-114.5 15t-100.5 48t-74 93t-27 142v404q0 20 20 20h92 q20 0 20 -20v-388q0 -194 184 -194z" horiz-adv-x="742" unicode="Ù"/>
<glyph glyph-name="Uacute" d="M301 779l35 89q8 20 23 20h160q10 0 13 -6t-3 -14l-82 -95q-14 -17 -30 -17h-104q-9 0 -12.5 7t0.5 16zM371 108q184 0 184 194v388q0 20 20 20h92q20 0 20 -20v-404q0 -82 -27 -142t-74 -93t-100.5 -48t-114.5 -15t-114.5 15t-100.5 48t-74 93t-27 142v404q0 20 20 20 h92q20 0 20 -20v-388q0 -194 184 -194z" horiz-adv-x="742" unicode="Ú"/>
<glyph glyph-name="Ucircumflex" d="M284 762q-32 -17 -47 -17h-37q-10 0 -14 7.5t2 15.5l98 111q16 20 32 20h106q16 0 32 -20l97 -111q7 -10 3 -16.5t-15 -6.5h-37q-15 0 -47 17l-85 44h-2zM371 108q184 0 184 194v388q0 20 20 20h92q20 0 20 -20v-404q0 -82 -27 -142t-74 -93t-100.5 -48t-114.5 -15 t-114.5 15t-100.5 48t-74 93t-27 142v404q0 20 20 20h92q20 0 20 -20v-388q0 -194 184 -194z" horiz-adv-x="742" unicode="Û"/>
<glyph glyph-name="Udieresis" d="M552 774q0 -18 -18 -18h-115q-18 0 -18 18v105q0 18 18 18h115q18 0 18 -18v-105zM341 774q0 -18 -18 -18h-115q-18 0 -18 18v105q0 18 18 18h115q18 0 18 -18v-105zM371 108q184 0 184 194v388q0 20 20 20h92q20 0 20 -20v-404q0 -82 -27 -142t-74 -93t-100.5 -48 t-114.5 -15t-114.5 15t-100.5 48t-74 93t-27 142v404q0 20 20 20h92q20 0 20 -20v-388q0 -194 184 -194z" horiz-adv-x="742" unicode="Ü"/>
<glyph glyph-name="Yacute" d="M292 779l35 89q8 20 23 20h160q10 0 13 -6t-3 -14l-82 -95q-14 -17 -30 -17h-104q-9 0 -12.5 7t0.5 16zM409 0h-92q-20 0 -20 20v211l-285 459q-5 8 1 14t16 6h98q9 0 13.5 -0.5t9.5 -5t10 -14.5l173 -282l30 -62h3l30 62l172 282q6 14 12 17t20 3h97q11 0 18 -5.5 t1 -14.5l-287 -459v-211q0 -20 -20 -20z" horiz-adv-x="728" unicode="Ý"/>
<glyph glyph-name="Thorn" d="M197 93v-73q0 -20 -20 -20h-92q-20 0 -20 20v670q0 20 20 20h92q20 0 20 -20v-72h173q52 0 98.5 -15.5t84 -46t59.5 -82t22 -118.5q0 -123 -77.5 -193t-186.5 -70h-173zM197 209h152q68 0 109 44t41 103q0 69 -39 107.5t-111 38.5h-152v-293z" horiz-adv-x="661" unicode="Þ"/>
<glyph glyph-name="germandbls" d="M307 707q102 0 161 -43.5t59 -108.5q0 -41 -18 -72t-39 -46.5t-39 -33.5t-18 -35q0 -16 10.5 -24.5t39.5 -20.5l28 -12q65 -28 97.5 -63.5t32.5 -99.5q0 -77 -59 -118t-143 -41q-102 0 -174 36q-14 8 -8 23l24 64q5 14 24 8q2 -1 16 -6t25.5 -8.5t33.5 -6.5t45 -3 q94 0 94 57q0 20 -19 34.5t-65 34.5l-33 14q-100 42 -100 120q0 30 18 56t39.5 42.5t39.5 40t18 48.5q0 55 -91 55q-32 0 -52 -6.5t-28.5 -20.5t-11 -26.5t-2.5 -33.5v-491q0 -20 -20 -20h-90q-20 0 -20 20v408h-47q-20 0 -20 20v62q0 20 20 20h47v18q0 74 59.5 116.5 t165.5 42.5z" horiz-adv-x="636" unicode="ß"/>
<glyph glyph-name="agrave" d="M347 606q9 -23 -12 -23h-74q-15 0 -30 17l-78 90q-6 7 -3 13.5t13 6.5h131q15 0 23 -20zM256 88q63 0 105 40.5t42 87.5v14q-54 10 -113 10q-67 0 -96 -19.5t-29 -58.5q0 -35 26 -54.5t65 -19.5zM403 20v71h-3q-48 -100 -189 -100q-29 0 -58 8.5t-56.5 26.5t-44.5 51.5 t-17 77.5q0 91 65.5 135.5t185.5 44.5q55 0 117 -11v3q0 57 -23.5 80.5t-101.5 23.5q-66 0 -150 -26q-27 -7 -34 11l-20 52q-8 21 13 30q86 39 197 39q140 0 192.5 -52.5t52.5 -157.5v-307q0 -20 -20 -20h-86q-20 0 -20 20z" horiz-adv-x="584" unicode="à"/>
<glyph glyph-name="aacute" d="M249 606l30 84q7 20 23 20h131q10 0 13.5 -6t-3.5 -14l-78 -90q-15 -17 -30 -17h-74q-20 0 -12 23zM256 88q63 0 105 40.5t42 87.5v14q-54 10 -113 10q-67 0 -96 -19.5t-29 -58.5q0 -35 26 -54.5t65 -19.5zM403 20v71h-3q-48 -100 -189 -100q-29 0 -58 8.5t-56.5 26.5 t-44.5 51.5t-17 77.5q0 91 65.5 135.5t185.5 44.5q55 0 117 -11v3q0 57 -23.5 80.5t-101.5 23.5q-66 0 -150 -26q-27 -7 -34 11l-20 52q-8 21 13 30q86 39 197 39q140 0 192.5 -52.5t52.5 -157.5v-307q0 -20 -20 -20h-86q-20 0 -20 20z" horiz-adv-x="584" unicode="á"/>
<glyph glyph-name="acircumflex" d="M215 592q-3 -2 -11.5 -7t-14 -7.5t-11.5 -2.5h-47q-10 0 -14 7.5t2 15.5l93 111q16 20 32 20h106q16 0 32 -20l93 -111q7 -10 3 -16.5t-15 -6.5h-47q-6 0 -11.5 2.5t-14 7.5t-11.5 7l-81 46h-2zM256 88q63 0 105 40.5t42 87.5v14q-54 10 -113 10q-67 0 -96 -19.5 t-29 -58.5q0 -35 26 -54.5t65 -19.5zM403 20v71h-3q-48 -100 -189 -100q-29 0 -58 8.5t-56.5 26.5t-44.5 51.5t-17 77.5q0 91 65.5 135.5t185.5 44.5q55 0 117 -11v3q0 57 -23.5 80.5t-101.5 23.5q-66 0 -150 -26q-27 -7 -34 11l-20 52q-8 21 13 30q86 39 197 39 q140 0 192.5 -52.5t52.5 -157.5v-307q0 -20 -20 -20h-86q-20 0 -20 20z" horiz-adv-x="584" unicode="â"/>
<glyph glyph-name="atilde" d="M379 589q-30 0 -60 10l-56 17q-27 8 -45 8q-25 0 -36 -14q-13 -16 -25 -16h-26q-17 0 -10 34q22 97 106 97q27 0 57 -10l56 -17q27 -8 45 -8q25 0 36 14q13 16 25 16h26q17 0 10 -33q-22 -98 -103 -98zM256 88q63 0 105 40.5t42 87.5v14q-54 10 -113 10q-67 0 -96 -19.5 t-29 -58.5q0 -35 26 -54.5t65 -19.5zM403 20v71h-3q-48 -100 -189 -100q-29 0 -58 8.5t-56.5 26.5t-44.5 51.5t-17 77.5q0 91 65.5 135.5t185.5 44.5q55 0 117 -11v3q0 57 -23.5 80.5t-101.5 23.5q-66 0 -150 -26q-27 -7 -34 11l-20 52q-8 21 13 30q86 39 197 39 q140 0 192.5 -52.5t52.5 -157.5v-307q0 -20 -20 -20h-86q-20 0 -20 20z" horiz-adv-x="584" unicode="ã"/>
<glyph glyph-name="adieresis" d="M443 608q0 -18 -18 -18h-93q-18 0 -18 18v99q0 18 18 18h93q18 0 18 -18v-99zM268 608q0 -18 -18 -18h-93q-18 0 -18 18v99q0 18 18 18h93q18 0 18 -18v-99zM256 88q63 0 105 40.5t42 87.5v14q-54 10 -113 10q-67 0 -96 -19.5t-29 -58.5q0 -35 26 -54.5t65 -19.5zM403 20 v71h-3q-48 -100 -189 -100q-29 0 -58 8.5t-56.5 26.5t-44.5 51.5t-17 77.5q0 91 65.5 135.5t185.5 44.5q55 0 117 -11v3q0 57 -23.5 80.5t-101.5 23.5q-66 0 -150 -26q-27 -7 -34 11l-20 52q-8 21 13 30q86 39 197 39q140 0 192.5 -52.5t52.5 -157.5v-307q0 -20 -20 -20h-86 q-20 0 -20 20z" horiz-adv-x="584" unicode="ä"/>
<glyph glyph-name="aring" d="M298 571q-45 0 -74.5 29t-29.5 74t29.5 74t74.5 29t74.5 -29t29.5 -74t-29.5 -74t-74.5 -29zM298 636q15 0 25.5 11.5t10.5 26.5t-10.5 26.5t-25.5 11.5t-25.5 -11.5t-10.5 -26.5t10.5 -26.5t25.5 -11.5zM256 88q63 0 105 40.5t42 87.5v14q-54 10 -113 10 q-67 0 -96 -19.5t-29 -58.5q0 -35 26 -54.5t65 -19.5zM403 20v71h-3q-48 -100 -189 -100q-29 0 -58 8.5t-56.5 26.5t-44.5 51.5t-17 77.5q0 91 65.5 135.5t185.5 44.5q55 0 117 -11v3q0 57 -23.5 80.5t-101.5 23.5q-66 0 -150 -26q-27 -7 -34 11l-20 52q-8 21 13 30 q86 39 197 39q140 0 192.5 -52.5t52.5 -157.5v-307q0 -20 -20 -20h-86q-20 0 -20 20z" horiz-adv-x="584" unicode="å"/>
<glyph glyph-name="ae" d="M679 431q-56 0 -92.5 -30t-49.5 -85h284q-23 115 -142 115zM691 -9q-152 0 -224 97h-2q-76 -97 -232 -97q-82 0 -140 39t-58 125q0 91 65.5 135.5t185.5 44.5q60 0 122 -11v6q0 54 -26 78.5t-104 24.5q-66 0 -150 -26q-27 -7 -34 11l-20 52q-8 21 13 30q86 39 197 39 q153 0 195 -81h2q75 81 198 81q127 0 199 -75.5t72 -199.5v-23q0 -20 -20 -20h-395q12 -58 51 -90t105 -32q83 0 130 42q16 14 28 2l49 -50q14 -14 0 -28q-74 -74 -207 -74zM256 88q63 0 107.5 40.5t44.5 87.5v14q-54 10 -118 10q-67 0 -96 -19.5t-29 -58.5q0 -35 26 -54.5 t65 -19.5z" horiz-adv-x="980" unicode="æ"/>
<glyph glyph-name="ccedilla" d="M306 -180q-62 0 -80 11q-4 3 -3 10l7 31q3 9 10 7q24 -4 45 -4q36 0 36 26q0 27 -58 27h-23q-7 0 -7 7v36q0 4 4 12l20 13q-99 17 -160.5 91t-61.5 180q0 120 78.5 196t198.5 76q113 0 187 -74q15 -15 0 -28l-50 -48q-12 -10 -26 2q-49 40 -111 40q-71 0 -112.5 -44 t-41.5 -120q0 -74 42 -121t112 -47q67 0 109 38q15 13 28 2l50 -46q15 -13 0 -28q-65 -65 -163 -73l-21 -13v-2q102 0 102 -76q0 -36 -32 -58.5t-79 -22.5z" horiz-adv-x="543" unicode="ç"/>
<glyph glyph-name="egrave" d="M378 606q9 -23 -12 -23h-74q-15 0 -30 17l-78 90q-6 7 -3 13.5t13 6.5h131q15 0 23 -20zM322 -9q-132 0 -209.5 75t-77.5 198q0 121 78 198t197 77q123 0 197 -76.5t74 -198.5v-23q0 -20 -20 -20h-400q11 -57 53 -89.5t108 -32.5q83 0 130 42q16 14 28 2l49 -50 q14 -14 0 -28q-74 -74 -207 -74zM310 431q-56 0 -95 -30.5t-52 -84.5h289q-24 115 -142 115z" horiz-adv-x="611" unicode="è"/>
<glyph glyph-name="eacute" d="M280 606l30 84q7 20 23 20h131q10 0 13.5 -6t-3.5 -14l-78 -90q-15 -17 -30 -17h-74q-20 0 -12 23zM322 -9q-132 0 -209.5 75t-77.5 198q0 121 78 198t197 77q123 0 197 -76.5t74 -198.5v-23q0 -20 -20 -20h-400q11 -57 53 -89.5t108 -32.5q83 0 130 42q16 14 28 2 l49 -50q14 -14 0 -28q-74 -74 -207 -74zM310 431q-56 0 -95 -30.5t-52 -84.5h289q-24 115 -142 115z" horiz-adv-x="611" unicode="é"/>
<glyph glyph-name="ecircumflex" d="M233 592q-3 -2 -11.5 -7t-14 -7.5t-11.5 -2.5h-47q-10 0 -14 7.5t2 15.5l93 111q16 20 32 20h106q16 0 32 -20l93 -111q7 -10 3 -16.5t-15 -6.5h-47q-6 0 -11.5 2.5t-14 7.5t-11.5 7l-81 46h-2zM322 -9q-132 0 -209.5 75t-77.5 198q0 121 78 198t197 77q123 0 197 -76.5 t74 -198.5v-23q0 -20 -20 -20h-400q11 -57 53 -89.5t108 -32.5q83 0 130 42q16 14 28 2l49 -50q14 -14 0 -28q-74 -74 -207 -74zM310 431q-56 0 -95 -30.5t-52 -84.5h289q-24 115 -142 115z" horiz-adv-x="611" unicode="ê"/>
<glyph glyph-name="edieresis" d="M465 608q0 -18 -18 -18h-93q-18 0 -18 18v99q0 18 18 18h93q18 0 18 -18v-99zM290 608q0 -18 -18 -18h-93q-18 0 -18 18v99q0 18 18 18h93q18 0 18 -18v-99zM322 -9q-132 0 -209.5 75t-77.5 198q0 121 78 198t197 77q123 0 197 -76.5t74 -198.5v-23q0 -20 -20 -20h-400 q11 -57 53 -89.5t108 -32.5q83 0 130 42q16 14 28 2l49 -50q14 -14 0 -28q-74 -74 -207 -74zM310 431q-56 0 -95 -30.5t-52 -84.5h289q-24 115 -142 115z" horiz-adv-x="611" unicode="ë"/>
<glyph glyph-name="igrave" d="M179 606q9 -23 -12 -23h-74q-15 0 -30 17l-78 90q-6 7 -3 13.5t13 6.5h131q15 0 23 -20zM190 20q0 -20 -20 -20h-90q-20 0 -20 20v490q0 20 20 20h90q20 0 20 -20v-490z" horiz-adv-x="250" unicode="ì"/>
<glyph glyph-name="iacute" d="M76 606l30 84q7 20 23 20h131q10 0 13.5 -6t-3.5 -14l-78 -90q-15 -17 -30 -17h-74q-20 0 -12 23zM190 20q0 -20 -20 -20h-90q-20 0 -20 20v490q0 20 20 20h90q20 0 20 -20v-490z" horiz-adv-x="250" unicode="í"/>
<glyph glyph-name="icircumflex" d="M83 586q-19 -17 -37 -17h-47q-9 0 -12.5 7.5t0.5 15.5l53 111q9 20 32 20h106q23 0 32 -20l53 -111q11 -23 -12 -23h-47q-18 0 -37 17l-41 56h-2zM190 20q0 -20 -20 -20h-90q-20 0 -20 20v490q0 20 20 20h90q20 0 20 -20v-490z" horiz-adv-x="250" unicode="î"/>
<glyph glyph-name="idieresis" d="M260 599q0 -18 -18 -18h-78q-18 0 -18 18v94q0 18 18 18h78q18 0 18 -18v-94zM104 599q0 -18 -18 -18h-78q-18 0 -18 18v94q0 18 18 18h78q18 0 18 -18v-94zM190 20q0 -20 -20 -20h-90q-20 0 -20 20v490q0 20 20 20h90q20 0 20 -20v-490z" horiz-adv-x="250" unicode="ï"/>
<glyph glyph-name="eth" d="M312 -9q-125 0 -201 69t-76 177q0 107 78.5 173.5t198.5 66.5q56 0 116 -19l1 2q-12 33 -35.5 62t-39.5 38l-161 -75q-18 -9 -28 10l-21 43q-9 18 10 27l42 19l60 24v2q-42 11 -84 15q-22 3 -18 28l9 51q3 21 29 18q97 -11 180 -56l82 38q19 9 28 -10l21 -43 q9 -19 -10 -27l-15 -7l-21 -8l-1 -3q63 -55 98.5 -142.5t35.5 -196.5q0 -136 -77 -206t-201 -70zM312 99q69 0 112 37.5t43 100.5t-42.5 98.5t-112.5 35.5q-69 0 -111.5 -35.5t-42.5 -98.5q0 -65 40 -101.5t114 -36.5z" horiz-adv-x="630" unicode="ð"/>
<glyph glyph-name="ntilde" d="M422 589q-30 0 -60 10l-56 17q-27 8 -45 8q-25 0 -36 -14q-13 -16 -25 -16h-26q-17 0 -10 34q22 97 106 97q27 0 57 -10l56 -17q27 -8 45 -8q25 0 36 14q13 16 25 16h26q17 0 10 -33q-22 -98 -103 -98zM366 537q93 0 142.5 -56t49.5 -154v-307q0 -20 -20 -20h-90 q-20 0 -20 20v287q0 124 -107 124q-58 0 -94.5 -32t-36.5 -92v-287q0 -20 -20 -20h-90q-20 0 -20 20v490q0 20 20 20h90q20 0 20 -20v-79h2q46 106 174 106z" horiz-adv-x="613" unicode="ñ"/>
<glyph glyph-name="ograve" d="M379 606q9 -23 -12 -23h-74q-15 0 -30 17l-78 90q-6 7 -3 13.5t13 6.5h131q15 0 23 -20zM312 -9q-119 0 -198 78t-79 198t78.5 196t198.5 76t199 -76t79 -196t-79.5 -198t-198.5 -78zM312 99q69 0 112 46t43 122q0 77 -42.5 120.5t-112.5 43.5q-69 0 -111.5 -43.5 t-42.5 -120.5q0 -76 43 -122t111 -46z" horiz-adv-x="625" unicode="ò"/>
<glyph glyph-name="oacute" d="M268 606l30 84q7 20 23 20h131q10 0 13.5 -6t-3.5 -14l-78 -90q-15 -17 -30 -17h-74q-20 0 -12 23zM312 -9q-119 0 -198 78t-79 198t78.5 196t198.5 76t199 -76t79 -196t-79.5 -198t-198.5 -78zM312 99q69 0 112 46t43 122q0 77 -42.5 120.5t-112.5 43.5 q-69 0 -111.5 -43.5t-42.5 -120.5q0 -76 43 -122t111 -46z" horiz-adv-x="625" unicode="ó"/>
<glyph glyph-name="ocircumflex" d="M229 592q-3 -2 -11.5 -7t-14 -7.5t-11.5 -2.5h-47q-10 0 -14 7.5t2 15.5l93 111q16 20 32 20h106q16 0 32 -20l93 -111q7 -10 3 -16.5t-15 -6.5h-47q-6 0 -11.5 2.5t-14 7.5t-11.5 7l-81 46h-2zM312 -9q-119 0 -198 78t-79 198t78.5 196t198.5 76t199 -76t79 -196 t-79.5 -198t-198.5 -78zM312 99q69 0 112 46t43 122q0 77 -42.5 120.5t-112.5 43.5q-69 0 -111.5 -43.5t-42.5 -120.5q0 -76 43 -122t111 -46z" horiz-adv-x="625" unicode="ô"/>
<glyph glyph-name="otilde" d="M390 592q-30 0 -60 10l-56 17q-27 8 -45 8q-25 0 -36 -14q-13 -16 -25 -16h-26q-17 0 -10 34q22 97 106 97q27 0 57 -10l56 -17q27 -8 45 -8q25 0 36 14q13 16 25 16h26q17 0 10 -33q-22 -98 -103 -98zM312 -9q-119 0 -198 78t-79 198t78.5 196t198.5 76t199 -76t79 -196 t-79.5 -198t-198.5 -78zM312 99q69 0 112 46t43 122q0 77 -42.5 120.5t-112.5 43.5q-69 0 -111.5 -43.5t-42.5 -120.5q0 -76 43 -122t111 -46z" horiz-adv-x="625" unicode="õ"/>
<glyph glyph-name="odieresis" d="M464 608q0 -18 -18 -18h-93q-18 0 -18 18v99q0 18 18 18h93q18 0 18 -18v-99zM289 608q0 -18 -18 -18h-93q-18 0 -18 18v99q0 18 18 18h93q18 0 18 -18v-99zM312 -9q-119 0 -198 78t-79 198t78.5 196t198.5 76t199 -76t79 -196t-79.5 -198t-198.5 -78zM312 99 q69 0 112 46t43 122q0 77 -42.5 120.5t-112.5 43.5q-69 0 -111.5 -43.5t-42.5 -120.5q0 -76 43 -122t111 -46z" horiz-adv-x="625" unicode="ö"/>
<glyph glyph-name="divide" d="M244 378q-20 0 -20 20v100q0 20 20 20h94q20 0 20 -20v-100q0 -20 -20 -20h-94zM65 215q-20 0 -20 20v73q0 20 20 20h452q20 0 20 -20v-73q0 -18 -20 -20h-452zM244 26q-20 0 -20 20v100q0 20 20 20h94q20 0 20 -20v-100q0 -20 -20 -20h-94z" horiz-adv-x="582" unicode="÷"/>
<glyph glyph-name="oslash" d="M312 431q-69 0 -111.5 -43.5t-42.5 -120.5q0 -41 12 -72h2l23 27l166 167l28 26q-33 16 -77 16zM312 99q69 0 112 46t43 122q0 40 -10 70h-2l-25 -29l-168 -168l-25 -23q31 -18 75 -18zM312 -9q-87 0 -155 45h-2l-37 -40q-15 -16 -29 0l-46 46q-15 14 0 29l22 22l17 15 q-47 69 -47 159q0 120 78.5 196t198.5 76q87 0 156 -44h2l36 39q15 15 29 0l46 -46q15 -14 0 -29l-19 -19l-18 -16q46 -68 46 -157q0 -120 -79.5 -198t-198.5 -78z" horiz-adv-x="625" unicode="ø"/>
<glyph glyph-name="ugrave" d="M365 606q9 -23 -12 -23h-74q-15 0 -30 17l-78 90q-6 7 -3 13.5t13 6.5h131q15 0 23 -20zM241 -9q-89 0 -137.5 56t-48.5 154v309q0 20 20 20h90q20 0 20 -20v-289q0 -124 101 -124q57 0 94 34t37 94v285q0 20 20 20h90q20 0 20 -20v-490q0 -20 -20 -20h-90q-20 0 -20 20 v80h-2q-49 -109 -174 -109z" horiz-adv-x="607" unicode="ù"/>
<glyph glyph-name="uacute" d="M239 606l30 84q7 20 23 20h131q10 0 13.5 -6t-3.5 -14l-78 -90q-15 -17 -30 -17h-74q-20 0 -12 23zM241 -9q-89 0 -137.5 56t-48.5 154v309q0 20 20 20h90q20 0 20 -20v-289q0 -124 101 -124q57 0 94 34t37 94v285q0 20 20 20h90q20 0 20 -20v-490q0 -20 -20 -20h-90 q-20 0 -20 20v80h-2q-49 -109 -174 -109z" horiz-adv-x="607" unicode="ú"/>
<glyph glyph-name="ucircumflex" d="M219 592q-3 -2 -11.5 -7t-14 -7.5t-11.5 -2.5h-47q-10 0 -14 7.5t2 15.5l93 111q16 20 32 20h106q16 0 32 -20l93 -111q7 -10 3 -16.5t-15 -6.5h-47q-6 0 -11.5 2.5t-14 7.5t-11.5 7l-81 46h-2zM241 -9q-89 0 -137.5 56t-48.5 154v309q0 20 20 20h90q20 0 20 -20v-289 q0 -124 101 -124q57 0 94 34t37 94v285q0 20 20 20h90q20 0 20 -20v-490q0 -20 -20 -20h-90q-20 0 -20 20v80h-2q-49 -109 -174 -109z" horiz-adv-x="607" unicode="û"/>
<glyph glyph-name="udieresis" d="M453 608q0 -18 -18 -18h-93q-18 0 -18 18v99q0 18 18 18h93q18 0 18 -18v-99zM278 608q0 -18 -18 -18h-93q-18 0 -18 18v99q0 18 18 18h93q18 0 18 -18v-99zM241 -9q-89 0 -137.5 56t-48.5 154v309q0 20 20 20h90q20 0 20 -20v-289q0 -124 101 -124q57 0 94 34t37 94v285 q0 20 20 20h90q20 0 20 -20v-490q0 -20 -20 -20h-90q-20 0 -20 20v80h-2q-49 -109 -174 -109z" horiz-adv-x="607" unicode="ü"/>
<glyph glyph-name="yacute" d="M237 606l30 84q7 20 23 20h131q10 0 13.5 -6t-3.5 -14l-78 -90q-15 -17 -30 -17h-74q-20 0 -12 23zM256 0h-59q-9 0 -13 4.5t-7 15.5l-156 490q-3 9 3.5 14.5t16.5 5.5h96q9 0 13 -4.5t7 -15.5l106 -363l17 -62h2l18 62l115 363q3 11 7 15.5t13 4.5h96q10 0 16.5 -5.5 t3.5 -14.5l-195 -572q-24 -70 -66 -96.5t-104 -26.5q-71 0 -118 22q-17 9 -9 28l23 60q8 19 24 14q45 -15 75 -15q50 2 66 49z" horiz-adv-x="572" unicode="ý"/>
<glyph glyph-name="thorn" d="M348 99q68 0 110.5 45.5t42.5 122.5q0 76 -42.5 119t-110.5 43q-66 0 -112 -42t-46 -113v-12q0 -73 46 -118t112 -45zM363 -9q-48 0 -94.5 23t-75.5 63h-3v-236q0 -20 -20 -20h-90q-20 0 -20 20v830q0 18 20 25l80 26q12 5 21 2.5t9 -18.5v-253h2q28 40 74 63t95 23 q114 0 189 -76t75 -196q0 -121 -74 -198.5t-188 -77.5z" horiz-adv-x="660" unicode="þ"/>
</font>
</defs>
</svg>
