<?xml version="1.0" encoding="UTF-8" standalone="no"?>
<!DOCTYPE svg  PUBLIC '-//W3C//DTD SVG 1.1//EN'  'http://www.w3.org/Graphics/SVG/1.1/DTD/svg11.dtd'>
<svg xmlns="http://www.w3.org/2000/svg" version="1.1">
<defs>
<font id="LFTZeno-Regular" horiz-adv-x="773">
<font-face unicode-range="U+0020-00FE" descent="-180" cap-height="710" bbox="-34 -198 961 931" font-family="LFT Zeno Regular" x-height="530" units-per-em="1000" underline-thickness="0" panose-1="0 0 0 0 0 0 0 0 0 0" underline-position="0" font-weight="400" ascent="820"/>
<missing-glyph/>
<glyph unicode=" " glyph-name="space" horiz-adv-x="322"/>
<glyph d="M100 180q-18 0 -20 20l-10 241v249q0 20 20 20h59q20 0 20 -20v-249l-10 -241q0 -20 -20 -20h-39zM82 1q-22 0 -22 21v78q0 22 22 22h76q21 0 21 -22v-78q0 -21 -21 -21h-76z" unicode="!" glyph-name="exclam" horiz-adv-x="239"/>
<glyph d="M285 505q-4 -20 -23 -20h-43q-16 0 -16 20v185q0 20 20 20h75q10 0 16 -5.5t5 -14.5zM134 505q-4 -20 -23 -20h-43q-16 0 -16 20v185q0 20 20 20h75q23 0 20 -20z" unicode='&quot;' glyph-name="quotedbl" horiz-adv-x="361"/>
<glyph d="M376 286l49 156h-130l-49 -156h130zM348 198h-130l-56 -176q-6 -22 -26 -22h-59q-21 0 -14 22l55 176h-90q-10 0 -12 3.5t2 16.5l16 48q6 14 9.5 17t20.5 3h83l49 156h-98q-10 0 -12 3.5t2 16.5l16 48q6 14 9.5 17t20.5 3h90l50 158q6 22 26 22h59q21 0 14 -22l-50 -158 h130l50 158q7 22 26 22h60q21 0 14 -22l-50 -158h87q10 0 12 -3.5t-2 -16.5l-16 -48q-5 -14 -9 -17t-21 -3h-79l-49 -156h94q10 0 12 -3.5t-2 -16.5l-16 -48q-5 -14 -9 -17t-21 -3h-87l-55 -176q-7 -22 -26 -22h-60q-21 0 -14 22z" unicode="#" glyph-name="numbersign" horiz-adv-x="668"/>
<glyph d="M568 180q0 -77 -60.5 -130t-161.5 -60v-59q0 -18 -17 -18h-46q-18 0 -18 18v60q-116 8 -210 52q-23 10 -11 32l21 42q9 21 32 11q104 -47 215 -47q67 0 111 27t44 74q0 44 -35.5 72.5t-115.5 55.5l-71 22q-89 30 -140.5 81.5t-51.5 118.5q0 73 55 125t157 62v58 q0 19 18 19h46q17 0 17 -19v-57q97 -7 185 -46q23 -10 12 -31l-21 -44q-10 -19 -32 -10q-96 40 -182 40q-72 0 -112.5 -24t-40.5 -70q0 -39 35 -66.5t111 -54.5l72 -23q102 -37 148.5 -85.5t46.5 -125.5z" unicode="$" glyph-name="dollar" horiz-adv-x="611"/>
<glyph d="M196 285q-81 0 -128.5 58.5t-47.5 157.5q0 100 47.5 160t128.5 60q82 0 129 -59t47 -159q0 -99 -47 -158.5t-129 -59.5zM315 22q-6 -13 -11 -17.5t-15 -4.5h-56q-10 0 -15 6.5t0 15.5l325 666q6 13 11 17.5t15 4.5h56q10 0 15 -6.5t0 -15.5zM196 368q41 0 63 35.5 t22 97.5q0 135 -85 135t-85 -135q0 -62 22 -97.5t63 -35.5zM663 -11q-81 0 -128.5 60t-47.5 159t47.5 159t128.5 60q82 0 129 -60t47 -159t-47 -159t-129 -60zM663 75q41 0 63.5 35.5t22.5 97.5q0 64 -22 99t-64 35q-85 0 -85 -134q0 -62 22 -97.5t63 -35.5z" unicode="%" glyph-name="percent" horiz-adv-x="859"/>
<glyph d="M302 -12q-132 0 -203 58t-71 156q0 60 27.5 106.5t77.5 71.5v2q-76 47 -76 141q0 90 62.5 144.5t181.5 54.5q117 0 194 -49q23 -14 9 -34l-27 -40q-12 -18 -32 -6q-26 15 -67.5 27t-76.5 12q-142 0 -142 -109q0 -87 99 -96q18 -1 18 -21v-48q0 -16 -18 -18 q-128 -23 -128 -138q0 -53 43.5 -88.5t128.5 -35.5t129 35.5t44 88.5q0 107 -115 134q-4 1 -12 2t-9 1q-20 3 -20 21v47q0 20 20 20h242q20 0 20 -20v-48q0 -20 -20 -20h-110v-2q52 -8 79 -49.5t27 -85.5q0 -98 -71.5 -156t-203.5 -58z" unicode="&amp;" glyph-name="ampersand" horiz-adv-x="617"/>
<glyph d="M134 505q-4 -20 -23 -20h-43q-16 0 -16 20v185q0 20 20 20h75q23 0 20 -20z" unicode="&apos;" glyph-name="quotesingle" horiz-adv-x="209"/>
<glyph d="M180 -120q-52 56 -93.5 164t-41.5 253t41.5 253t93.5 164q12 12 25 3l40 -30q12 -9 4 -20q-105 -156 -105 -370t105 -370q8 -11 -4 -20l-40 -30q-13 -9 -25 3z" unicode="(" glyph-name="parenleft" horiz-adv-x="257"/>
<glyph d="M212 297q0 -146 -41.5 -254t-93.5 -163q-12 -13 -25 -3l-40 30q-13 8 -4 20q105 156 105 370q0 213 -105 369q-9 12 4 20l40 30q13 10 25 -3q52 -55 93.5 -163t41.5 -253z" unicode=")" glyph-name="parenright" horiz-adv-x="257"/>
<glyph d="M284 321q2 -9 -4 -14.5t-16 -5.5h-70q-10 0 -16.5 5.5t-3.5 14.5l41 160l-1 1l-117 -116q-14 -14 -28 6l-36 61q-10 24 9 28l160 44v1l-160 44q-19 4 -9 28l36 61q13 21 28 6l117 -117l1 1l-41 162q-3 9 3.5 14.5t16.5 5.5h70q10 0 16 -5.5t4 -14.5l-42 -162l2 -1 l117 117q14 14 28 -7l35 -60q12 -23 -8 -28l-160 -44v-1l160 -43q20 -5 8 -28l-35 -61q-13 -21 -28 -6l-117 115l-2 -1z" unicode="*" glyph-name="asterisk" horiz-adv-x="457"/>
<glyph d="M60 230q-20 0 -20 20v47q0 20 20 20h166v148q-2 20 20 20h59q20 0 20 -20v-148h165q20 0 20 -20v-47q0 -20 -20 -20h-165v-143q0 -20 -20 -20h-59q-22 0 -20 20v143h-166z" unicode="+" glyph-name="plus" horiz-adv-x="550"/>
<glyph d="M74 -110l29 110h-29q-21 0 -21 22v86q0 21 21 21h82q22 0 22 -21v-70q0 -20 -10 -42l-55 -106h-39z" unicode="," glyph-name="comma" horiz-adv-x="230"/>
<glyph d="M60 226q-20 0 -20 20v58q0 20 20 20h250q20 0 20 -20v-58q0 -20 -20 -20h-250z" unicode="-" glyph-name="hyphen" horiz-adv-x="370"/>
<glyph d="M74 0q-21 0 -21 22v86q0 21 21 21h82q22 0 22 -21v-86q0 -22 -22 -22h-82z" unicode="." glyph-name="period" horiz-adv-x="230"/>
<glyph d="M115 -30q-7 -22 -26 -22h-64q-21 0 -14 22l255 757q6 22 26 22h62q21 0 14 -22z" unicode="/" glyph-name="slash" horiz-adv-x="379"/>
<glyph d="M338 -11q-141 0 -218.5 98.5t-77.5 266.5q0 164 78 265.5t218 101.5t218 -101.5t78 -265.5q0 -168 -78 -266.5t-218 -98.5zM338 81q96 0 145 74.5t49 198.5q0 123 -48.5 199.5t-145.5 76.5t-145.5 -76.5t-48.5 -199.5q0 -125 48.5 -199t145.5 -74z" unicode="0" glyph-name="zero" horiz-adv-x="676"/>
<glyph d="M195 0h-59q-20 0 -20 20v601h-93q-19 0 -10 20l22 51q5 13 9 15.5t18 2.5h134q19 0 19 -20v-670q0 -20 -20 -20z" unicode="1" glyph-name="one" horiz-adv-x="280"/>
<glyph d="M499 0h-438q-19 0 -19 20v37q0 27 20 40l80 60q43 32 56 41.5t49.5 38t49.5 41t39 38t36 42.5t24 41.5t18.5 48t4.5 49.5q0 55 -35.5 94.5t-109.5 39.5q-81 0 -153 -48q-20 -15 -35 3l-25 28q-18 21 0 36q14 13 37 26.5t73 29t105 15.5q118 0 182 -61.5t64 -165.5 q0 -56 -22.5 -109.5t-64 -99t-84.5 -81t-99 -72.5l-60 -41v-2h307q20 0 20 -20v-49q0 -20 -20 -20z" unicode="2" glyph-name="two" horiz-adv-x="565"/>
<glyph d="M256 -11q-121 0 -219 53q-15 9 -5 26l28 46q8 13 28 2q74 -41 159 -41q80 0 130.5 33.5t50.5 102.5q0 67 -57 103t-159 36h-73q-19 0 -19 20v35q0 19 12 28l228 186v2h-280q-20 0 -20 20v49q0 20 20 20h408q19 0 19 -20v-31q0 -24 -20 -41l-228 -182v-2q133 -4 202 -63 t69 -156q0 -105 -76 -165.5t-198 -60.5z" unicode="3" glyph-name="three" horiz-adv-x="568"/>
<glyph d="M482 20q2 -20 -20 -20h-59q-20 0 -20 20v116h-341q-16 0 -16 20v47q0 24 6 33l286 459q6 9 8 11.5t7 5.5t11 3h68q10 0 15 -8t-2 -19l-251 -405l-38 -56v-2h247v230q0 15 0.5 20t4.5 12t13 13l53 34q28 18 28 -14v-295h69q20 0 20 -20v-49q0 -10 -5 -15.5t-15 -4.5h-69 v-116z" unicode="4" glyph-name="four" horiz-adv-x="596"/>
<glyph d="M535 216q0 -106 -73 -166.5t-194 -60.5q-129 0 -227 52q-18 10 -8 27l28 45q8 14 29 3q25 -13 72 -27t95 -14q79 0 126.5 36.5t47.5 99.5q0 62 -50.5 101.5t-148.5 39.5q-28 0 -61 -3l-84 -10q-9 -1 -14.5 4t-4.5 17l7 329q0 21 20 21h392q20 0 20 -20v-49q0 -20 -20 -20 h-314l-3 -190q48 6 90 6q132 0 203.5 -61t71.5 -160z" unicode="5" glyph-name="five" horiz-adv-x="573"/>
<glyph d="M322 -11q-75 0 -130.5 29.5t-87.5 81t-47 114t-15 136.5q0 160 81 265.5t229 105.5q113 0 189 -40q24 -14 15 -32l-21 -42q-8 -18 -29 -9q-69 33 -154 33q-95 0 -151.5 -70.5t-60.5 -198.5l2 -1q25 50 79 76t120 26q126 0 190.5 -65t64.5 -169t-73.5 -172t-200.5 -68z M324 79q78 0 124.5 41t46.5 108q0 145 -165 145q-74 0 -123 -39.5t-49 -96.5q7 -73 54 -115.5t112 -42.5z" unicode="6" glyph-name="six" horiz-adv-x="635"/>
<glyph d="M182 20q-13 -20 -27 -20h-69q-11 0 -14.5 7.5t3.5 21.5l355 590v2h-386q-20 0 -20 20v49q0 20 20 20h478q19 0 19 -20v-47q0 -24 -5 -32z" unicode="7" glyph-name="seven" horiz-adv-x="563"/>
<glyph d="M317 -11q-132 0 -205 56.5t-73 155.5q0 61 31 107.5t81 68.5v2q-83 51 -83 142q0 87 63 143.5t186 56.5t185 -56.5t62 -144.5q0 -91 -82 -141v-2q52 -23 83 -68.5t30 -107.5q0 -99 -73 -155.5t-205 -56.5zM317 417q74 0 109.5 30t35.5 79q0 44 -34 75t-111 31 q-78 0 -112 -30.5t-34 -75.5q0 -49 35.5 -79t110.5 -30zM318 79q87 0 131.5 34.5t44.5 86.5q0 63 -44.5 100t-132.5 37t-132 -37t-44 -100q0 -53 44.5 -87t132.5 -34z" unicode="8" glyph-name="eight" horiz-adv-x="634"/>
<glyph d="M310 631q-78 0 -124.5 -41t-46.5 -108q0 -66 41.5 -105.5t129.5 -39.5q72 0 122 39t50 101q-6 75 -54.5 114.5t-117.5 39.5zM313 721q75 0 130.5 -29.5t87.5 -81t47 -114.5t15 -137q0 -169 -81 -269.5t-239 -100.5q-119 0 -194 41q-24 12 -15 31l21 42q8 19 29 9 q76 -33 159 -33q98 0 157.5 66.5t63.5 200.5h-2q-26 -48 -78 -73t-118 -25q-123 0 -190 64.5t-67 169.5q0 104 73 171.5t201 67.5z" unicode="9" glyph-name="nine" horiz-adv-x="635"/>
<glyph d="M83 313q-21 0 -21 22v86q0 21 21 21h82q22 0 22 -21v-86q0 -22 -22 -22h-82zM83 0q-21 0 -21 22v86q0 21 21 21h82q22 0 22 -21v-86q0 -22 -22 -22h-82z" unicode=":" glyph-name="colon" horiz-adv-x="248"/>
<glyph d="M83 313q-21 0 -21 22v86q0 21 21 21h82q22 0 22 -21v-86q0 -22 -22 -22h-82zM83 -110l31 110h-31q-21 0 -21 22v86q0 21 21 21h82q22 0 22 -21v-70q0 -20 -10 -42l-55 -106h-39z" unicode=";" glyph-name="semicolon" horiz-adv-x="248"/>
<glyph d="M457 35q-9 -17 -27 -7l-390 226q-10 6 -10 17t10 17l390 226q18 10 27 -8l27 -45q9 -18 -8 -28l-285 -160v-2l285 -163q18 -9 8 -27z" unicode="&lt;" glyph-name="less" horiz-adv-x="529"/>
<glyph d="M65 319q-20 0 -20 20v48q0 20 20 20h442q20 0 20 -20v-48q0 -18 -20 -20h-442zM65 136q-20 0 -20 20v47q0 20 20 20h442q20 0 20 -20v-47q0 -18 -20 -20h-442z" unicode="=" glyph-name="equal" horiz-adv-x="572"/>
<glyph d="M99 28q-17 -9 -27 7l-26 46q-10 18 7 27l284 163v2l-284 160q-16 10 -7 28l26 45q10 17 27 8l391 -226q10 -6 10 -17t-10 -17z" unicode="&gt;" glyph-name="greater" horiz-adv-x="529"/>
<glyph d="M185 172q-20 0 -22 20l-1 18q-2 58 17 90.5t70 60.5l28 17q94 55 94 135q0 58 -39 88.5t-103 30.5q-69 0 -150 -33q-24 -12 -32 10l-19 38q-10 21 13 33q86 42 188 42q119 0 181 -58.5t62 -141.5q0 -136 -139 -212l-22 -12q-37 -19 -51 -39.5t-16 -50.5l-1 -16 q0 -20 -20 -20h-38zM162 0q-21 0 -21 22v83q0 21 21 21h81q22 0 22 -21v-83q0 -22 -22 -22h-81z" unicode="?" glyph-name="question" horiz-adv-x="497"/>
<glyph d="M390 -93q-146 0 -250.5 104t-104.5 249v8q0 150 103.5 254.5t251.5 104.5q153 0 252.5 -99t99.5 -252v-7q0 -106 -41 -155t-96 -49q-91 0 -110 70h-1q-42 -68 -138 -68q-79 0 -130.5 55.5t-51.5 143.5q0 86 52 141.5t130 55.5q44 0 81.5 -18t56.5 -50h1v47q0 15 15 15h51 q15 0 15 -15v-260q0 -30 8 -44t33 -14q68 0 68 145v7q0 134 -82.5 215.5t-212.5 81.5q-126 0 -212 -87t-86 -218v-8q0 -126 87.5 -213t210.5 -87q110 0 212 58l27 -49q-113 -62 -239 -62zM373 136q52 0 87 34.5t35 87.5v14q0 54 -34.5 87.5t-87.5 33.5q-52 0 -84.5 -34.5 t-32.5 -92.5q0 -60 32.5 -95t84.5 -35z" unicode="@" glyph-name="at" horiz-adv-x="777"/>
<glyph d="M201 221h283l-118 335l-22 70h-2l-23 -70zM169 132l-40 -112q-8 -20 -23 -20h-63q-10 0 -15.5 5.5t-2.5 14.5l243 670q4 12 8 16t15 4h102q11 0 15 -4t8 -16l243 -670q3 -9 -2 -14.5t-15 -5.5h-65q-14 0 -22 20l-39 112h-347z" unicode="A" glyph-name="A" horiz-adv-x="684"/>
<glyph d="M358 0h-270q-20 0 -20 20v670q0 20 20 20h264q50 0 94.5 -17t77.5 -60t33 -104q0 -57 -29 -98.5t-76 -54.5v-2q58 -15 95 -61.5t37 -114.5q0 -52 -19.5 -91.5t-53 -62t-72 -33.5t-81.5 -11zM168 405h160q62 0 95 29.5t33 78.5q0 112 -128 112h-160v-220zM168 320v-236 h164q69 0 110 28t41 88q0 58 -40 89t-109 31h-166z" unicode="B" glyph-name="B" horiz-adv-x="621"/>
<glyph d="M38 354q0 163 95.5 265t252.5 102q90 0 154.5 -31.5t99.5 -73.5q14 -17 -3 -31l-38 -33q-16 -13 -31 2q-73 75 -182 75q-110 0 -177.5 -73t-67.5 -202q0 -128 68 -200t177 -72q108 0 182 74q15 15 31 2l38 -32q17 -14 3 -32q-34 -42 -99 -73.5t-155 -31.5 q-154 0 -251 101t-97 264z" unicode="C" glyph-name="C" horiz-adv-x="686"/>
<glyph d="M668 357q0 -172 -97.5 -264.5t-253.5 -92.5h-229q-20 0 -20 20v670q0 20 20 20h230q156 0 253 -91.5t97 -261.5zM566 357q0 133 -72.5 198.5t-194.5 65.5h-131v-532h130q125 0 196.5 65.5t71.5 202.5z" unicode="D" glyph-name="D" horiz-adv-x="706"/>
<glyph d="M168 390h335q14 0 16.5 -4t-1.5 -18l-13 -47q-5 -14 -9 -17t-21 -3h-307v-212h374q20 0 20 -20v-49q0 -20 -20 -20h-454q-20 0 -20 20v670q0 20 20 20h443q20 0 20 -20v-49q0 -20 -20 -20h-363v-231z" unicode="E" glyph-name="E" horiz-adv-x="605"/>
<glyph d="M168 366h338q13 0 16 -4t-1 -18l-13 -48q-4 -13 -8.5 -16t-21.5 -3h-310v-257q0 -20 -20 -20h-60q-20 0 -20 20v670q0 20 20 20h445q20 0 20 -20v-49q0 -20 -20 -20h-365v-255z" unicode="F" glyph-name="F" horiz-adv-x="587"/>
<glyph d="M38 354q0 163 95.5 265t252.5 102q90 0 154.5 -31.5t99.5 -73.5q14 -17 -3 -31l-38 -33q-16 -13 -31 2q-73 75 -182 75q-110 0 -177.5 -73t-67.5 -202q0 -128 68 -200t177 -72q102 0 165 42v181q0 19 19 27l48 16q31 14 31 -21v-231q0 -24 -14 -33q-42 -27 -108.5 -50.5 t-140.5 -23.5q-154 0 -251 101t-97 264z" unicode="G" glyph-name="G" horiz-adv-x="704"/>
<glyph d="M168 297v-277q0 -20 -20 -20h-60q-20 0 -20 20v670q0 20 20 20h60q20 0 20 -20v-304h397v304q0 20 20 20h60q20 0 20 -20v-670q0 -20 -20 -20h-60q-20 0 -20 20v277h-397z" unicode="H" glyph-name="H" horiz-adv-x="732"/>
<glyph d="M168 20q0 -20 -20 -20h-60q-20 0 -20 20v670q0 20 20 20h60q20 0 20 -20v-670z" unicode="I" glyph-name="I" horiz-adv-x="235"/>
<glyph d="M56 -5q-20 0 -20 20v44q0 20 20 20q42 0 54 25.5t12 116.5v469q0 20 20 20h60q20 0 20 -20v-506q0 -79 -19 -121t-52 -55t-95 -13z" unicode="J" glyph-name="J" horiz-adv-x="284"/>
<glyph d="M168 20q0 -20 -20 -20h-60q-20 0 -20 20v670q0 20 20 20h60q20 0 20 -20v-335l309 335q1 1 4.5 5t5 5t5 3.5t6.5 3.5t8 2t11 1h72q10 0 15.5 -6t-1.5 -14l-313 -337l313 -330q8 -8 5 -15.5t-13 -7.5h-76q-29 0 -47 20l-304 318v-318z" unicode="K" glyph-name="K" horiz-adv-x="636"/>
<glyph d="M168 89h376q12 0 14 -3.5t-2 -17.5l-15 -48q-5 -14 -9 -17t-21 -3h-423q-20 0 -20 20v670q0 20 20 20h60q20 0 20 -20v-601z" unicode="L" glyph-name="L" horiz-adv-x="583"/>
<glyph d="M727 20q0 -20 -20 -20h-60q-20 0 -20 20v515h-2l-34 -67l-181 -323q-5 -10 -12 -10h-3q-8 0 -13 10l-180 323l-32 67h-2v-515q0 -20 -20 -20h-60q-20 0 -20 20v670q0 20 20 20h66q15 0 25 -20l184 -330l32 -61h2l32 61l186 330q11 20 25 20h67q20 0 20 -20v-670z" unicode="M" glyph-name="M" horiz-adv-x="794"/>
<glyph d="M168 20q0 -20 -20 -20h-60q-20 0 -20 20v670q0 20 20 20h65q17 0 30 -20l325 -476l42 -65h1v541q0 20 20 20h60q20 0 20 -20v-670q0 -20 -20 -20h-65q-15 0 -30 20l-325 470l-42 65h-1v-535z" unicode="N" glyph-name="N" horiz-adv-x="719"/>
<glyph unicode="O" glyph-name="O" d="M386 -11q-154 0 -251 100.5t-97 264.5q0 165 97 266t251 101q155 0 252.5 -101t97.5 -266q0 -164 -97.5 -264.5t-252.5 -100.5zM386 82q110 0 178.5 74t68.5 198q0 126 -68 200.5t-179 74.5t-178 -75t-67 -200t67.5 -198.5t177.5 -73.5z"/>
<glyph d="M168 195v-175q0 -20 -20 -20h-60q-20 0 -20 20v670q0 20 20 20h239q52 0 97 -14.5t82.5 -44t59.5 -80.5t22 -118q0 -126 -75.5 -192t-185.5 -66h-159zM168 284h143q84 0 129 47t45 122q0 81 -44.5 124.5t-129.5 43.5h-143v-337z" unicode="P" glyph-name="P" horiz-adv-x="616"/>
<glyph unicode="Q" glyph-name="Q" d="M386 721q155 0 252.5 -101t97.5 -266q0 -142 -74.5 -237.5t-198.5 -119.5v-2l70 -123q11 -20 -14 -20h-69q-15 0 -26 20l-65 118q-144 10 -232.5 109t-88.5 255q0 165 97 266t251 101zM386 629q-111 0 -178 -75t-67 -200t67.5 -198.5t177.5 -73.5t178.5 74t68.5 198 q0 126 -68 200.5t-179 74.5z"/>
<glyph d="M486 468q0 73 -44 113t-124 40h-150v-311h151q76 0 121.5 45t45.5 113zM589 468q0 -99 -55.5 -159t-139.5 -76l187 -213q6 -8 2 -14t-14 -6h-74q-19 0 -36 20l-175 201h-116v-201q0 -20 -20 -20h-60q-20 0 -20 20v670q0 20 20 20h247q49 0 93 -14t80.5 -42t58.5 -76 t22 -110z" unicode="R" glyph-name="R" horiz-adv-x="627"/>
<glyph d="M566 180q0 -83 -69 -137t-183 -54q-146 0 -261 54q-22 10 -12 32l21 42q10 21 32 11q104 -47 215 -47q68 0 112 27t44 74q0 43 -35.5 72t-115.5 56l-71 22q-91 30 -142 81t-51 119q0 81 67 135t189 54q117 0 223 -47q22 -10 11 -31l-21 -44q-9 -20 -32 -10 q-92 40 -182 40q-71 0 -112 -24t-41 -70q0 -42 34 -67.5t112 -53.5l72 -23q103 -37 149.5 -85.5t46.5 -125.5z" unicode="S" glyph-name="S" horiz-adv-x="606"/>
<glyph d="M289 621h-247q-20 0 -20 20v49q0 20 20 20h595q20 0 20 -20v-49q0 -20 -20 -20h-248v-601q0 -20 -20 -20h-60q-20 0 -20 20v601z" unicode="T" glyph-name="T" horiz-adv-x="678"/>
<glyph d="M356 82q197 0 197 215v393q0 20 20 20h60q20 0 20 -20v-415q0 -61 -16.5 -110t-44.5 -81.5t-66.5 -54t-80.5 -31t-89 -9.5q-129 0 -213 69.5t-84 216.5v415q0 20 20 20h60q20 0 20 -20v-393q0 -215 197 -215z" unicode="U" glyph-name="U" horiz-adv-x="711"/>
<glyph d="M402 0h-106q-11 0 -15 4t-8 16l-248 670q-6 20 18 20h69q17 0 23 -20l191 -540l23 -68h2l21 68l191 540q7 20 22 20h71q10 0 15 -5.5t2 -14.5l-247 -670l-4.5 -9t-4 -6t-6 -4t-9.5 -1z" unicode="V" glyph-name="V" horiz-adv-x="698"/>
<glyph d="M755 0h-114q-19 0 -23 20l-107 467l-24 135h-2l-23 -135l-105 -467q-4 -20 -23 -20h-114q-19 0 -24 20l-161 670q-5 20 18 20h65q18 0 23 -20l114 -510l20 -93h2l20 93l114 510q3 20 22 20h106q19 0 22 -20l117 -511l21 -92h2l19 93l112 510q4 20 23 20h66q22 0 17 -20 l-159 -670q-5 -20 -24 -20z" unicode="W" glyph-name="W" horiz-adv-x="973"/>
<glyph d="M624 0h-67q-19 0 -34 20l-159 231l-24 38h-3l-24 -38l-161 -231q-15 -20 -34 -20h-66q-11 0 -17.5 6t-0.5 14l242 342l-238 328q-6 8 0 14t17 6h69q18 0 32 -20l157 -220l24 -37h2l24 37l159 221q13 19 31 19h67q11 0 17.5 -6t0.5 -14l-236 -328l240 -342q6 -8 -0.5 -14 t-17.5 -6z" unicode="X" glyph-name="X" horiz-adv-x="675"/>
<glyph d="M370 0h-60q-20 0 -20 20v215l-277 455q-5 8 1 14t16 6h63q9 0 13.5 -0.5t9.5 -5t10 -14.5l179 -300l34 -63h3l34 63l178 300q7 14 13 17t20 3h63q11 0 17 -5.5t0 -14.5l-277 -455v-215q0 -20 -20 -20z" unicode="Y" glyph-name="Y" horiz-adv-x="680"/>
<glyph d="M576 0h-508q-19 0 -19 20v40q0 24 11 39l416 520v2h-400q-20 0 -20 20v49q0 20 20 20h506q19 0 19 -20v-37q0 -25 -10 -38l-417 -524v-2h402q20 0 20 -20v-49q0 -20 -20 -20z" unicode="Z" glyph-name="Z" horiz-adv-x="650"/>
<glyph d="M227 -142h-142q-19 0 -19 20v812q0 20 19 20h142q20 0 20 -20v-48q0 -20 -20 -20h-61v-676h61q20 0 20 -20v-48q0 -20 -20 -20z" unicode="[" glyph-name="bracketleft" horiz-adv-x="258"/>
<glyph d="M264 -30l-253 757q-7 22 14 22h62q20 0 26 -22l255 -757q7 -22 -14 -22h-64q-19 0 -26 22z" unicode="\" glyph-name="backslash" horiz-adv-x="379"/>
<glyph d="M174 -142h-142q-20 0 -20 20v48q0 20 20 20h60v676h-60q-20 0 -20 20v48q0 20 20 20h142q19 0 19 -20v-812q0 -20 -19 -20z" unicode="]" glyph-name="bracketright" horiz-adv-x="258"/>
<glyph d="M34 -180q-20 0 -20 20v47q0 20 20 20h500q20 0 20 -20v-47q0 -20 -20 -20h-500z" unicode="_" glyph-name="underscore" horiz-adv-x="567"/>
<glyph d="M214 604q7 -21 -13 -21h-56q-16 0 -29 18l-67 98q-5 7 -2.5 13.5t12.5 6.5h106q16 0 23 -20z" unicode="`" glyph-name="grave" horiz-adv-x="262"/>
<glyph d="M238 71q74 0 122.5 43t48.5 92v35q-64 12 -132 12q-71 0 -105.5 -22.5t-34.5 -71.5q0 -42 27 -65t74 -23zM409 20v69h-3q-26 -48 -79 -73t-118 -25q-69 0 -120 40.5t-51 123.5q0 175 241 175q59 0 130 -13v18q0 30 -4 48.5t-17 36.5t-40.5 26t-71.5 8q-67 0 -155 -27 q-27 -7 -33 12l-12 34q-6 21 14 29q79 36 190 36q70 0 115.5 -15t69 -46t32 -67.5t8.5 -89.5v-300q0 -20 -20 -20h-57q-19 0 -19 20z" unicode="a" glyph-name="a" horiz-adv-x="564"/>
<glyph d="M345 -9q-55 0 -102 25t-76 69h-3v-65q0 -20 -20 -20h-59q-20 0 -20 20v655q0 19 19 25l54 19q13 5 19.5 1.5t6.5 -19.5v-256h2q60 94 178 94q111 0 183.5 -76.5t72.5 -196.5q0 -121 -72 -198t-183 -77zM337 76q72 0 119.5 51.5t47.5 138.5q0 86 -47.5 136.5t-119.5 50.5 q-74 0 -123.5 -49t-49.5 -128v-19q0 -80 50 -130.5t123 -50.5z" unicode="b" glyph-name="b" horiz-adv-x="636"/>
<glyph d="M37 269q0 121 74 195.5t190 74.5q109 0 177 -69q16 -16 1 -29l-32 -32q-13 -11 -28 1q-53 44 -118 44q-82 0 -125.5 -52t-43.5 -133q0 -79 44 -136t125 -57q60 0 117 43q16 14 29 1l32 -30q15 -14 -1 -30q-69 -69 -177 -69q-116 0 -190 78t-74 200z" unicode="c" glyph-name="c" horiz-adv-x="525"/>
<glyph d="M299 76q73 0 123 50t50 129v20q0 78 -49.5 128t-123.5 50q-72 0 -119.5 -50.5t-47.5 -136.5q0 -87 47.5 -138.5t119.5 -51.5zM292 -9q-112 0 -183.5 77t-71.5 198t71.5 197t183.5 76q118 0 178 -93h2v229q0 19 18 25l55 19q13 5 19.5 1.5t6.5 -19.5v-681q0 -20 -20 -20 h-59q-20 0 -20 20v64h-3q-28 -44 -75 -68.5t-102 -24.5z" unicode="d" glyph-name="d" horiz-adv-x="636"/>
<glyph d="M312 -9q-126 0 -200.5 75.5t-74.5 197.5q0 121 74 198t188 77q115 0 184.5 -74.5t69.5 -190.5v-19q0 -21 -21 -21h-398q7 -68 53.5 -113t127.5 -45q75 0 135 45q15 14 28 1l31 -31q15 -15 0 -31q-74 -69 -197 -69zM299 454q-63 0 -106.5 -38t-56.5 -103h318 q-6 62 -47.5 101.5t-107.5 39.5z" unicode="e" glyph-name="e" horiz-adv-x="586"/>
<glyph d="M188 20q0 -20 -20 -20h-59q-20 0 -20 20v429h-45q-20 0 -20 20v41q0 20 20 20h45v41q0 126 131 126q23 0 52 -6q24 -6 17 -28l-11 -37q-4 -12 -8.5 -15t-13.5 -1q-23 3 -38 3q-17 0 -23.5 -11t-6.5 -36v-36h69q20 0 20 -20v-41q0 -20 -20 -20h-69v-429z" unicode="f" glyph-name="f" horiz-adv-x="312"/>
<glyph d="M275 -198q-121 0 -179.5 34.5t-58.5 91.5q0 33 22 58t58 36v2q-50 27 -50 72q0 32 25 52.5t65 25.5v2q-105 52 -105 170q1 88 62.5 140t162.5 52q91 0 151 -43l2 1v23q0 22 19 25l37 7q14 2 20 -0.5t12 -15.5l21 -47q6 -9 3.5 -19.5t-13.5 -14.5q-32 -12 -50 -14 q24 -43 24 -94q0 -89 -62 -142t-164 -53q-109 0 -109 -31q0 -22 50 -25l151 -7q74 -3 118 -33t44 -86q0 -86 -59.5 -126.5t-196.5 -40.5zM278 233q130 0 130 112q0 50 -30.5 81t-99.5 31t-100 -31t-31 -80q0 -113 131 -113zM275 -116q89 0 124 16.5t35 51.5q0 48 -99 52 l-142 5h-13q-24 -5 -38 -22.5t-14 -38.5q0 -64 147 -64z" unicode="g" glyph-name="g" horiz-adv-x="570"/>
<glyph d="M340 538q94 0 143 -54t49 -152v-312q0 -20 -20 -20h-58q-20 0 -20 20v296q0 143 -120 143q-64 0 -107 -45t-43 -102v-292q0 -20 -20 -20h-59q-20 0 -20 20v655q0 19 19 25l54 19q13 5 19.5 1.5t6.5 -19.5v-275h2q23 55 69 83.5t105 28.5z" unicode="h" glyph-name="h" horiz-adv-x="591"/>
<glyph d="M167 618q0 -21 -21 -21h-63q-21 0 -21 21v59q0 20 21 20h63q21 0 21 -20v-59zM164 20q0 -20 -20 -20h-59q-20 0 -20 20v490q0 20 20 20h59q20 0 20 -20v-490z" unicode="i" glyph-name="i" horiz-adv-x="229"/>
<glyph d="M170 618q0 -21 -20 -21h-64q-20 0 -20 21v59q0 20 20 20h64q20 0 20 -20v-59zM26 -148q-20 0 -20 21v51q0 19 20 19q42 0 42 87v480q0 20 20 20h59q20 0 20 -20v-517q0 -75 -40.5 -108t-100.5 -33z" unicode="j" glyph-name="j" horiz-adv-x="232"/>
<glyph d="M164 20q0 -20 -20 -20h-59q-20 0 -20 20v655q0 19 19 25l54 19q13 5 19.5 1.5t6.5 -19.5v-432l212 241q17 20 32 20h74q10 0 15 -6t-2 -14l-219 -242l230 -248q7 -7 3 -13.5t-14 -6.5h-77q-14 0 -33 20l-221 238v-238z" unicode="k" glyph-name="k" horiz-adv-x="534"/>
<glyph d="M144 0h-59q-20 0 -20 20v655q0 19 19 25l54 19q13 5 19.5 1.5t6.5 -19.5v-681q0 -20 -20 -20z" unicode="l" glyph-name="l" horiz-adv-x="229"/>
<glyph d="M666 538q200 0 200 -206v-312q0 -20 -20 -20h-59q-20 0 -20 20v291q0 73 -29 108t-92 35q-60 0 -95.5 -44.5t-35.5 -102.5v-287q0 -20 -20 -20h-59q-20 0 -20 20v291q0 73 -29 108t-92 35q-60 0 -95.5 -44.5t-35.5 -102.5v-287q0 -20 -20 -20h-59q-20 0 -20 20v490 q0 20 20 20h59q20 0 20 -20v-78h2q21 52 62 79t95 27q137 0 174 -114h2q23 58 69 86t98 28z" unicode="m" glyph-name="m" horiz-adv-x="925"/>
<glyph d="M340 538q94 0 143 -54t49 -152v-312q0 -20 -20 -20h-58q-20 0 -20 20v291q0 143 -120 143q-64 0 -107 -45t-43 -102v-287q0 -20 -20 -20h-59q-20 0 -20 20v490q0 20 20 20h59q20 0 20 -20v-84h2q23 56 69 84t105 28z" unicode="n" glyph-name="n" horiz-adv-x="591"/>
<glyph d="M306 -9q-115 0 -192 78t-77 198q0 121 76.5 196.5t192.5 75.5t193.5 -76t77.5 -196t-78 -198t-193 -78zM306 76q78 0 127 53.5t49 137.5q0 85 -48.5 136t-127.5 51q-77 0 -125.5 -51t-48.5 -136q0 -83 49 -137t125 -54z" unicode="o" glyph-name="o" horiz-adv-x="613"/>
<glyph d="M337 76q72 0 119.5 51.5t47.5 138.5t-47.5 138t-119.5 51q-74 0 -123.5 -50t-49.5 -128v-20q0 -79 50 -130t123 -51zM345 -9q-121 0 -178 93h-3v-245q0 -19 -20 -19h-59q-20 0 -20 20v670q0 20 20 20h59q20 0 20 -20v-64h2q56 93 179 93q111 0 183 -76t72 -197t-72 -198 t-183 -77z" unicode="p" glyph-name="p" horiz-adv-x="636"/>
<glyph d="M287 -9q-110 0 -180 77t-70 198t70.5 197t179.5 76q61 0 109 -24.5t75 -69.5h1v65q0 20 20 20h59q20 0 20 -20v-670q0 -20 -20 -20h-59q-20 0 -20 19v246h-2q-61 -94 -183 -94zM299 76q74 0 123.5 50.5t49.5 129.5v20q0 80 -49 129.5t-124 49.5q-74 0 -120.5 -50.5 t-46.5 -138.5q0 -87 46 -138.5t121 -51.5z" unicode="q" glyph-name="q" horiz-adv-x="636"/>
<glyph d="M164 20q0 -20 -20 -20h-59q-20 0 -20 20v490q0 20 20 20h59q20 0 20 -20v-86h2q29 113 118 113q33 0 54 -10q17 -8 9 -27l-17 -47q-6 -18 -27 -12q-13 4 -31 4q-47 0 -77.5 -51t-30.5 -112v-262z" unicode="r" glyph-name="r" horiz-adv-x="364"/>
<glyph d="M232 -10q-103 0 -175 32q-16 7 -11 23l17 48q5 15 24 8q76 -27 144 -27q125 0 125 69q0 29 -26.5 46.5t-92.5 36.5l-49 13q-61 17 -105 54t-44 99q0 67 54.5 107.5t151.5 40.5q106 0 174 -34q18 -8 10 -23l-19 -45q-6 -14 -24 -8q-69 26 -140 26q-113 0 -113 -63 q0 -29 28.5 -46t78.5 -31l49 -14q76 -21 118.5 -57t42.5 -101q0 -73 -56.5 -113.5t-161.5 -40.5z" unicode="s" glyph-name="s" horiz-adv-x="487"/>
<glyph d="M198 -5q-44 0 -78.5 26t-34.5 91v337h-46q-20 0 -20 20v41q0 20 20 20h46v63q0 19 17 24l56 21q25 8 25 -17v-91h94q20 0 20 -20v-41q0 -20 -20 -20h-94v-299q0 -39 9.5 -52t30.5 -13q19 0 35 6q21 5 26 -10l13 -39q10 -21 -8 -29q-38 -18 -91 -18z" unicode="t" glyph-name="t" horiz-adv-x="341"/>
<glyph d="M244 -9q-86 0 -135.5 54t-49.5 150v315q0 20 20 20h59q20 0 20 -20v-296q0 -71 30 -105t81 -34q64 0 105 45.5t41 109.5v280q0 20 20 20h59q20 0 20 -20v-490q0 -20 -20 -20h-59q-20 0 -20 20v84h-2q-46 -113 -169 -113z" unicode="u" glyph-name="u" horiz-adv-x="579"/>
<glyph d="M329 0h-124q-9 0 -13 4.5t-7 15.5l-161 490q-6 20 18 20h65q9 0 13 -4.5t7 -15.5l123 -388l15 -53h3l17 53l131 388l1 2q11 16 19 18h66q10 0 16 -5.5t3 -14.5l-172 -490q-3 -11 -7 -15.5t-13 -4.5z" unicode="v" glyph-name="v" horiz-adv-x="544"/>
<glyph d="M623 0h-121q-17 0 -22 20l-78 370l-12 62h-2l-12 -62l-79 -370q-5 -20 -20 -20h-123q-17 0 -20 20l-101 490q-3 20 19 20h58q15 0 20 -20l76 -389l10 -55h2l11 55l82 389q5 20 20 20h117q15 0 20 -20l80 -389l11 -55h2l10 55l78 389q5 20 20 20h58q10 0 15.5 -5.5 t3.5 -14.5l-103 -490q-5 -20 -20 -20z" unicode="w" glyph-name="w" horiz-adv-x="779"/>
<glyph d="M492 0h-62q-14 0 -30 20l-101 139l-29 41h-2l-29 -41l-101 -139q-15 -20 -30 -20h-61q-11 0 -18 6t-1 14l180 248l-174 242q-6 8 1 14t18 6h60q15 0 30 -20l98 -139l27 -40h2l27 40l98 139q15 20 30 20h61q11 0 17.5 -6t0.5 -14l-175 -243l181 -247q6 -8 -0.5 -14 t-17.5 -6z" unicode="x" glyph-name="x" horiz-adv-x="538"/>
<glyph d="M248 0h-43q-9 0 -13 4.5t-7 15.5l-161 490q-6 20 18 20h66q9 0 13 -4.5t7 -15.5l119 -385l18 -62h2l19 62l130 385q3 11 7 15.5t13 4.5h65q10 0 16 -5.5t3 -14.5l-202 -576q-25 -71 -63.5 -95t-94.5 -24q-61 0 -106 18q-17 7 -10 26l16 42q7 18 24 13q42 -14 74 -14 q56 0 75 56z" unicode="y" glyph-name="y" horiz-adv-x="543"/>
<glyph d="M454 0h-392q-19 0 -19 20v37q0 25 14 40l309 351v2h-296q-20 0 -20 20v40q0 20 20 20h390q19 0 19 -20v-34q0 -26 -10 -38l-310 -355v-2h295q20 0 20 -20v-41q0 -20 -20 -20z" unicode="z" glyph-name="z" horiz-adv-x="522"/>
<glyph d="M253 -180q-90 0 -121.5 39.5t-31.5 151.5v80q0 85 -9 110t-41 30q-8 1 -11.5 2.5t-6 5.5t-2.5 12v29q0 17 20 20q32 5 41 29.5t9 110.5v80q0 111 31.5 150.5t121.5 39.5q20 0 20 -20v-47q0 -20 -20 -20q-37 0 -46 -21.5t-9 -91.5v-80q0 -147 -57 -164v-2q57 -16 57 -163 v-81q0 -70 9 -91.5t46 -21.5q20 0 20 -20v-47q0 -20 -20 -20z" unicode="{" glyph-name="braceleft" horiz-adv-x="283"/>
<glyph d="M149 -142q0 -18 -18 -18h-46q-17 0 -17 18v864q0 18 17 18h46q18 0 18 -18v-864z" unicode="|" glyph-name="bar" horiz-adv-x="216"/>
<glyph d="M183 11q0 -112 -31.5 -151.5t-121.5 -39.5q-20 0 -20 20v47q0 20 20 20q37 0 46 21.5t9 91.5v81q0 147 57 163v2q-57 17 -57 164v80q0 70 -9 91.5t-46 21.5q-20 0 -20 20v47q0 20 20 20q90 0 121.5 -39.5t31.5 -150.5v-80q0 -86 9 -110.5t41 -29.5q20 -3 20 -20v-29 q0 -11 -4.5 -14.5t-15.5 -5.5q-32 -5 -41 -30t-9 -110v-80z" unicode="}" glyph-name="braceright" horiz-adv-x="283"/>
<glyph unicode=" " glyph-name="uni00A0" horiz-adv-x="321"/>
<glyph d="M79 530h81q22 0 22 -21v-83q0 -22 -22 -22h-81q-21 0 -21 22v83q0 21 21 21zM100 346h39q20 0 20 -20l10 -236v-250q0 -20 -20 -20h-59q-20 0 -20 20v250l10 236q2 20 20 20z" unicode="¡" glyph-name="exclamdown" horiz-adv-x="239"/>
<glyph d="M39 269q0 109 62 182t162 85v63q0 19 18 19h46q17 0 17 -19v-63q82 -11 137 -66q15 -15 1 -29l-32 -32q-13 -12 -29 1q-53 44 -118 44q-81 0 -125 -52t-44 -133q0 -79 44 -136t125 -57q64 0 117 43q16 14 30 1l32 -30q14 -14 -1 -30q-57 -55 -137 -66v-63q0 -18 -17 -18 h-46q-18 0 -18 18v63q-100 14 -162 89t-62 186z" unicode="¢" glyph-name="cent" horiz-adv-x="535"/>
<glyph d="M384 0h-302q-20 0 -20 20v49q0 17 19 38q13 16 13 129v85h-46q-20 0 -20 20v43q0 20 20 20h46v138q0 88 43.5 134.5t146.5 46.5q52 0 111 -14q23 -5 17 -27l-12 -40q-6 -19 -23 -16q-51 11 -91 11q-31 0 -50 -7.5t-27.5 -23.5t-11 -31.5t-2.5 -39.5v-131h115 q20 -2 20 -20v-43q0 -20 -20 -20h-115v-87q0 -66 -10.5 -97t-41.5 -46v-2h276q10 0 12 -3.5t-2 -16.5l-15 -49q-5 -14 -9 -17t-21 -3z" unicode="£" glyph-name="sterling" horiz-adv-x="466"/>
<glyph d="M390 20q0 -20 -20 -20h-60q-20 0 -20 20v113h-192q-20 0 -20 20v50q0 20 20 20h189v18l-28 44h-161q-20 0 -20 20v51q0 20 20 20h105l-190 314q-5 8 1 14t16 6h63q9 0 13.5 -0.5t9.5 -5t10 -14.5l179 -300l34 -63h3l34 63l178 300q7 14 13 17t20 3h63q11 0 17 -5.5 t0 -14.5l-190 -314h105q20 0 20 -20v-51q0 -20 -20 -20h-161l-28 -44v-18h189q20 0 20 -20v-50q0 -20 -20 -20h-192v-113z" unicode="¥" glyph-name="yen" horiz-adv-x="680"/>
<glyph d="M324 615q0 -18 -18 -18h-80q-18 0 -18 18v85q0 18 18 18h80q18 0 18 -18v-85zM156 615q0 -18 -18 -18h-80q-18 0 -18 18v85q0 18 18 18h80q18 0 18 -18v-85z" unicode="¨" glyph-name="dieresis" horiz-adv-x="363"/>
<glyph d="M262 241q-98 0 -167.5 69.5t-69.5 167.5t69.5 167.5t167.5 69.5t167.5 -69.5t69.5 -167.5t-69.5 -167.5t-167.5 -69.5zM262 284q80 0 136 57t56 137t-56 137t-136 57q-79 0 -135 -57t-56 -137t56 -137t135 -57zM265 327q-63 0 -106 43.5t-43 107.5t43 107.5t106 43.5 q33 0 70 -16q8 -5 4 -12l-11 -24q-3 -7 -12 -4q-32 8 -51 8q-35 0 -66.5 -26.5t-31.5 -76.5q0 -49 31.5 -76t66.5 -27q15 0 51 9q9 3 12 -5l11 -24q4 -8 -4 -11q-34 -17 -70 -17z" unicode="©" glyph-name="copyright" horiz-adv-x="524"/>
<glyph d="M178 393q47 0 76 26.5t29 56.5v19q-47 9 -81 9q-90 0 -90 -59q0 -24 17 -38t49 -14zM152 321q-50 0 -89 30.5t-39 91.5q0 128 177 128q42 0 82 -8v14q0 35 -18.5 53.5t-65.5 18.5q-46 0 -113 -20q-21 -6 -24 9l-10 35q-4 17 9 23q63 26 137 26q101 0 135.5 -38.5 t34.5 -117.5v-223q0 -14 -14 -14h-56q-15 0 -15 14v47h-1q-38 -69 -130 -69z" unicode="ª" glyph-name="ordfeminine" horiz-adv-x="411"/>
<glyph d="M446 29q-24 0 -45 25l-169 202q-12 12 0 24l169 202q21 25 45 25h62q14 0 19 -7.5t-5 -19.5l-177 -211v-2l177 -211q10 -12 5 -19.5t-19 -7.5h-62zM250 28q-26 0 -46 25l-169 202q-10 12 0 24l169 202q22 25 46 25h62q14 0 18.5 -7.5t-4.5 -19.5l-177 -211v-2l177 -211 q10 -13 5 -20t-19 -7h-62z" unicode="«" glyph-name="guillemotleft" horiz-adv-x="566"/>
<glyph d="M262 241q-98 0 -167.5 69.5t-69.5 167.5t69.5 167.5t167.5 69.5t167.5 -69.5t69.5 -167.5t-69.5 -167.5t-167.5 -69.5zM262 284q80 0 136 57t56 137t-56 137t-136 57q-79 0 -135 -57t-56 -137t56 -137t135 -57zM230 466h34q21 0 34.5 18t13.5 43q0 28 -13 45t-35 17h-34 v-123zM229 342q0 -8 -8 -8h-30q-9 0 -9 8v282q0 9 9 9h75q40 0 68 -26.5t28 -79.5q0 -71 -62 -97l56 -88q5 -8 -6 -8h-35q-7 0 -12 8l-53 85h-21v-85z" unicode="®" glyph-name="registered" horiz-adv-x="524"/>
<glyph d="M64 609q-18 0 -18 18v50q0 18 18 18h272q18 0 18 -18v-50q0 -18 -18 -18h-272z" unicode="¯" glyph-name="macron" horiz-adv-x="400"/>
<glyph d="M161 438q-65 0 -100.5 40.5t-35.5 101.5t35.5 101.5t100.5 40.5q64 0 100.5 -40.5t36.5 -101.5t-36.5 -101.5t-100.5 -40.5zM161 511q25 0 39.5 18.5t14.5 50.5q0 33 -14.5 51.5t-39.5 18.5t-39 -18.5t-14 -51.5q0 -32 14 -50.5t39 -18.5z" unicode="°" glyph-name="degree" horiz-adv-x="323"/>
<glyph d="M330 169q0 -20 -20 -20h-59q-22 0 -20 20v127h-166q-20 0 -20 20v47q0 20 20 20h166v132q-2 20 20 20h59q20 0 20 -20v-132h165q20 0 20 -20v-47q0 -20 -20 -20h-165v-127zM510 34q0 -18 -20 -20h-422q-20 0 -20 20v47q0 20 20 20h422q20 0 20 -20v-47z" unicode="±" glyph-name="plusminus" horiz-adv-x="560"/>
<glyph d="M47 604l27 95q5 20 22 20h106q10 0 13 -6.5t-3 -13.5l-67 -98q-12 -18 -29 -18h-56q-18 0 -13 21z" unicode="´" glyph-name="acute" horiz-adv-x="262"/>
<glyph d="M366 20q0 -20 -20 -20h-34q-20 0 -20 20v145q-109 0 -186 67t-77 186q0 84 38.5 143t96.5 84t129 25h183q20 0 20 -20v-630q0 -20 -20 -20h-34q-20 0 -20 20v583h-56v-583z" unicode="¶" glyph-name="paragraph" horiz-adv-x="563"/>
<glyph d="M128 -181q-56 0 -76 8q-6 2 -6 11l4 31q1 8 9 8q30 -5 57 -5q39 0 39 26q0 27 -55 27h-37q-7 0 -7 7v34q0 7 4 12l61 43h81l-74 -45v-1q109 0 109 -77q0 -37 -30 -58t-79 -21z" unicode="¸" glyph-name="cedilla" horiz-adv-x="278"/>
<glyph d="M212 323q-81 0 -135 54t-54 148q0 91 54 144t135 53q82 0 136 -52.5t54 -144.5q0 -94 -54 -148t-136 -54zM212 404q43 0 72 31t29 90q0 58 -29 87.5t-72 29.5q-42 0 -71 -29.5t-29 -87.5q0 -59 29 -90t71 -31z" unicode="º" glyph-name="ordmasculine" horiz-adv-x="425"/>
<glyph d="M335 256l-169 -202q-21 -25 -46 -25h-62q-14 0 -19 7.5t5 19.5l177 211v2l-177 211q-9 12 -4.5 19.5t18.5 7.5h62q24 0 46 -25l169 -202q10 -12 0 -24zM531 255l-169 -202q-20 -25 -45 -25h-62q-14 0 -19 7t5 20l177 211v2l-177 211q-10 12 -5 19.5t19 7.5h62 q24 0 45 -25l169 -202q12 -12 0 -24z" unicode="»" glyph-name="guillemotright" horiz-adv-x="566"/>
<glyph d="M156 344h-57q-14 0 -14 15v276h-55q-17 2 -10 17l20 45q5 10 7.5 11.5t13.5 1.5h95q15 0 15 -15v-336q0 -15 -15 -15zM156 23q-6 -13 -11 -17.5t-15 -4.5h-54q-10 0 -15.5 6.5t-1.5 15.5l310 665q6 13 11 17.5t15 4.5h54q10 0 15.5 -6.5t1.5 -15.5zM514 15q0 -15 -16 -15 h-53q-14 0 -14 15v46h-148q-12 0 -12 14v39q0 14 5 25l110 221q7 14 17 14h54q8 0 11 -6t-1 -14l-90 -182l-22 -42v-1h76v83v3q0 23 13 30l49 27q8 4 12.5 4.5t6.5 -3t2 -11.5v-133h34q16 2 16 -15v-39q0 -12 -16 -14h-34v-46z" unicode="¼" glyph-name="onequarter" horiz-adv-x="586"/>
<glyph d="M156 344h-57q-14 0 -14 15v276h-55q-17 2 -10 17l20 45q5 10 7.5 11.5t13.5 1.5h95q15 0 15 -15v-336q0 -15 -15 -15zM155 23q-6 -13 -11 -17.5t-15 -4.5h-54q-10 0 -15.5 6.5t-1.5 15.5l310 665q6 13 11 17.5t15 4.5h54q10 0 15.5 -6.5t1.5 -15.5zM577 15q0 -15 -16 -15 h-218q-13 0 -13 15v48q0 17 14 27l32 22q113 76 113 133q0 21 -15.5 36t-42.5 15t-64 -11q-19 -7 -23 9l-8 34q-5 18 10 25q38 16 94 16q64 0 100 -32.5t36 -84.5q0 -102 -129 -166l-21 -10v-1h135q16 0 16 -15v-45z" unicode="½" glyph-name="onehalf" horiz-adv-x="605"/>
<glyph d="M237 23q-6 -13 -11 -17.5t-15 -4.5h-54q-10 0 -15.5 6.5t-1.5 15.5l310 665q6 13 11 17.5t15 4.5h54q10 0 15.5 -6.5t1.5 -15.5zM142 333q-67 0 -107 16q-14 4 -11 18l14 47q3 9 21 4q36 -13 70 -13q35 0 55 12t20 33q0 43 -73 47l-44 1q-13 1 -13 15v31q0 14 5 18l91 76 v2h-117q-15 0 -15 15v40q0 15 15 15h205q13 0 13 -15v-40q0 -16 -11 -25l-88 -74v-2q117 -7 117 -108q0 -46 -38.5 -79.5t-108.5 -33.5zM595 15q0 -15 -16 -15h-53q-14 0 -14 15v46h-148q-12 0 -12 14v39q0 14 5 25l110 221q7 14 17 14h54q8 0 11 -6t-1 -14l-90 -182 l-22 -42v-1h76v83v3q0 23 13 30l49 27q8 4 12.5 4.5t6.5 -3t2 -11.5v-133h34q16 2 16 -15v-39q0 -12 -16 -14h-34v-46z" unicode="¾" glyph-name="threequarters" horiz-adv-x="667"/>
<glyph d="M332 531q22 0 22 -22v-83q0 -21 -22 -21h-81q-21 0 -21 21v83q0 22 21 22h81zM310 359q22 0 22 -20l1 -18q3 -57 -16 -88t-70 -63l-29 -18q-94 -60 -94 -142q0 -52 38 -82t105 -30q72 0 150 34q22 11 32 -10l19 -40q9 -20 -16 -33q-80 -41 -185 -41q-116 0 -179.5 55 t-63.5 137q0 137 138 220l22 13q37 22 51 41.5t16 48.5l1 16q2 20 20 20h38z" unicode="¿" glyph-name="questiondown" horiz-adv-x="459"/>
<glyph d="M391 779q4 -9 0.5 -15t-13.5 -6h-78q-16 0 -29 18l-77 94q-5 8 -2 14t13 6h124q14 0 23 -20zM201 221h283l-118 335l-22 70h-2l-23 -70zM169 132l-40 -112q-8 -20 -23 -20h-63q-10 0 -15.5 5.5t-2.5 14.5l243 670q4 12 8 16t15 4h102q11 0 15 -4t8 -16l243 -670 q3 -9 -2 -14.5t-15 -5.5h-65q-14 0 -22 20l-39 112h-347z" unicode="À" glyph-name="Agrave" horiz-adv-x="684"/>
<glyph d="M299 783l39 91q9 20 24 20h123q10 0 13.5 -6t-2.5 -14l-76 -94q-15 -18 -30 -18h-78q-10 0 -13.5 6t0.5 15zM201 221h283l-118 335l-22 70h-2l-23 -70zM169 132l-40 -112q-8 -20 -23 -20h-63q-10 0 -15.5 5.5t-2.5 14.5l243 670q4 12 8 16t15 4h102q11 0 15 -4t8 -16 l243 -670q3 -9 -2 -14.5t-15 -5.5h-65q-14 0 -22 20l-39 112h-347z" unicode="Á" glyph-name="Aacute" horiz-adv-x="684"/>
<glyph d="M255 764q-34 -18 -47 -18h-30q-10 0 -13.5 7.5t1.5 13.5l104 109q14 16 33 16h80q19 0 33 -16l102 -109q7 -8 3 -14.5t-14 -6.5h-31q-16 0 -47 18l-85 45h-2zM201 221h283l-118 335l-22 70h-2l-23 -70zM169 132l-40 -112q-8 -20 -23 -20h-63q-10 0 -15.5 5.5t-2.5 14.5 l243 670q4 12 8 16t15 4h102q11 0 15 -4t8 -16l243 -670q3 -9 -2 -14.5t-15 -5.5h-65q-14 0 -22 20l-39 112h-347z" unicode="Â" glyph-name="Acircumflex" horiz-adv-x="684"/>
<glyph d="M420 763q-30 0 -65 11l-41 14q-25 9 -48 9t-36 -16t-25 -16h-26q-16 0 -12 27q4 37 29.5 64t69.5 27q30 0 63 -11l42 -14q26 -9 47 -9q24 0 36 15q13 16 25 16h26q17 0 14 -28q-4 -36 -28.5 -62.5t-70.5 -26.5zM201 221h283l-118 335l-22 70h-2l-23 -70zM169 132 l-40 -112q-8 -20 -23 -20h-63q-10 0 -15.5 5.5t-2.5 14.5l243 670q4 12 8 16t15 4h102q11 0 15 -4t8 -16l243 -670q3 -9 -2 -14.5t-15 -5.5h-65q-14 0 -22 20l-39 112h-347z" unicode="Ã" glyph-name="Atilde" horiz-adv-x="684"/>
<glyph d="M507 774q0 -18 -18 -18h-97q-18 0 -18 18v95q0 18 18 18h97q18 0 18 -18v-95zM312 774q0 -18 -18 -18h-97q-18 0 -18 18v95q0 18 18 18h97q18 0 18 -18v-95zM201 221h283l-118 335l-22 70h-2l-23 -70zM169 132l-40 -112q-8 -20 -23 -20h-63q-10 0 -15.5 5.5t-2.5 14.5 l243 670q4 12 8 16t15 4h102q11 0 15 -4t8 -16l243 -670q3 -9 -2 -14.5t-15 -5.5h-65q-14 0 -22 20l-39 112h-347z" unicode="Ä" glyph-name="Adieresis" horiz-adv-x="684"/>
<glyph d="M343 738q-42 0 -70.5 27.5t-28.5 68.5q0 42 28.5 69.5t70.5 27.5t70.5 -27.5t28.5 -69.5q0 -41 -28.5 -68.5t-70.5 -27.5zM343 800q15 0 25.5 10t10.5 24t-10.5 24.5t-25.5 10.5t-25.5 -10.5t-10.5 -24.5t10.5 -24t25.5 -10zM201 221h283l-118 335l-22 70h-2l-23 -70z M169 132l-40 -112q-8 -20 -23 -20h-63q-10 0 -15.5 5.5t-2.5 14.5l243 670q4 12 8 16t15 4h102q11 0 15 -4t8 -16l243 -670q3 -9 -2 -14.5t-15 -5.5h-65q-14 0 -22 20l-39 112h-347z" unicode="Å" glyph-name="Aring" horiz-adv-x="684"/>
<glyph d="M467 221v407h-2l-33 -63l-192 -344h227zM467 132h-277l-63 -112q-11 -20 -23 -20h-65q-11 0 -17 6t-1 14l370 670q10 20 28 20h511q20 0 20 -20v-49q0 -20 -20 -20h-363v-231h335q14 0 16.5 -4t-1.5 -18l-13 -47q-5 -14 -9 -17t-21 -3h-307v-212h374q20 0 20 -20v-49 q0 -20 -20 -20h-454q-20 0 -20 20v112z" unicode="Æ" glyph-name="AE" horiz-adv-x="1003"/>
<glyph d="M369 -181q-63 0 -81 9q-3 1 -3 10l4 34q0 9 10 7q24 -4 48 -4q41 0 41 24q0 23 -49 23h-36q-7 0 -7 7v33q0 7 4 12l24 20q-129 20 -207.5 117.5t-78.5 242.5q0 163 95.5 265t252.5 102q90 0 154.5 -31.5t99.5 -73.5q14 -17 -3 -31l-38 -33q-16 -13 -31 2q-73 75 -182 75 q-110 0 -177.5 -73t-67.5 -202q0 -128 68 -200t177 -72q108 0 182 74q15 15 31 2l38 -32q17 -14 3 -32q-34 -42 -98 -73.5t-151 -31.5l-26 -17v-1q124 3 124 -73q0 -37 -30.5 -58t-89.5 -21z" unicode="Ç" glyph-name="Ccedilla" horiz-adv-x="686"/>
<glyph d="M374 781q4 -9 0.5 -15t-13.5 -6h-78q-16 0 -29 18l-77 94q-5 8 -2 14t13 6h124q14 0 23 -20zM168 390h335q14 0 16.5 -4t-1.5 -18l-13 -47q-5 -14 -9 -17t-21 -3h-307v-212h374q20 0 20 -20v-49q0 -20 -20 -20h-454q-20 0 -20 20v670q0 20 20 20h443q20 0 20 -20v-49 q0 -20 -20 -20h-363v-231z" unicode="È" glyph-name="Egrave" horiz-adv-x="605"/>
<glyph d="M267 781l39 91q9 20 24 20h123q10 0 13.5 -6t-2.5 -14l-76 -94q-15 -18 -30 -18h-78q-10 0 -13.5 6t0.5 15zM168 390h335q14 0 16.5 -4t-1.5 -18l-13 -47q-5 -14 -9 -17t-21 -3h-307v-212h374q20 0 20 -20v-49q0 -20 -20 -20h-454q-20 0 -20 20v670q0 20 20 20h443 q20 0 20 -20v-49q0 -20 -20 -20h-363v-231z" unicode="É" glyph-name="Eacute" horiz-adv-x="605"/>
<glyph d="M226 764q-34 -18 -47 -18h-30q-10 0 -13.5 7.5t1.5 13.5l104 109q14 16 33 16h80q19 0 33 -16l102 -109q7 -8 3 -14.5t-14 -6.5h-31q-15 0 -47 18l-85 45h-2zM168 390h335q14 0 16.5 -4t-1.5 -18l-13 -47q-5 -14 -9 -17t-21 -3h-307v-212h374q20 0 20 -20v-49 q0 -20 -20 -20h-454q-20 0 -20 20v670q0 20 20 20h443q20 0 20 -20v-49q0 -20 -20 -20h-363v-231z" unicode="Ê" glyph-name="Ecircumflex" horiz-adv-x="605"/>
<glyph d="M482 774q0 -18 -18 -18h-97q-18 0 -18 18v95q0 18 18 18h97q18 0 18 -18v-95zM287 774q0 -18 -18 -18h-97q-18 0 -18 18v95q0 18 18 18h97q18 0 18 -18v-95zM168 390h335q14 0 16.5 -4t-1.5 -18l-13 -47q-5 -14 -9 -17t-21 -3h-307v-212h374q20 0 20 -20v-49 q0 -20 -20 -20h-454q-20 0 -20 20v670q0 20 20 20h443q20 0 20 -20v-49q0 -20 -20 -20h-363v-231z" unicode="Ë" glyph-name="Edieresis" horiz-adv-x="605"/>
<glyph d="M170 781q4 -9 0.5 -15t-13.5 -6h-78q-16 0 -29 18l-77 94q-5 8 -2 14t13 6h124q14 0 23 -20zM168 20q0 -20 -20 -20h-60q-20 0 -20 20v670q0 20 20 20h60q20 0 20 -20v-670z" unicode="Ì" glyph-name="Igrave" horiz-adv-x="235"/>
<glyph d="M72 781l39 91q9 20 24 20h123q10 0 13.5 -6t-2.5 -14l-76 -94q-15 -18 -30 -18h-78q-10 0 -13.5 6t0.5 15zM170 20q0 -20 -20 -20h-60q-20 0 -20 20v670q0 20 20 20h60q20 0 20 -20v-670z" unicode="Í" glyph-name="Iacute" horiz-adv-x="237"/>
<glyph d="M68 763q-23 -18 -37 -18h-39q-9 0 -12 7.5t1 13.5l64 110q9 16 33 16h80q25 0 33 -16l62 -110q6 -10 2.5 -15.5t-13.5 -5.5h-38q-15 0 -37 18l-48 55h-2zM168 20q0 -20 -20 -20h-60q-20 0 -20 20v670q0 20 20 20h60q20 0 20 -20v-670z" unicode="Î" glyph-name="Icircumflex" horiz-adv-x="235"/>
<glyph d="M270 768q0 -18 -18 -18h-95q-18 0 -18 18v92q0 18 18 18h95q18 0 18 -18v-92zM97 768q0 -18 -18 -18h-95q-18 0 -18 18v92q0 18 18 18h95q18 0 18 -18v-92zM168 20q0 -20 -20 -20h-60q-20 0 -20 20v670q0 20 20 20h60q20 0 20 -20v-670z" unicode="Ï" glyph-name="Idieresis" horiz-adv-x="235"/>
<glyph d="M342 0h-229q-20 0 -20 20v282h-63q-20 0 -20 20v49q0 20 20 20h63v299q0 20 20 20h230q156 0 253 -91.5t97 -261.5q0 -172 -97.5 -264.5t-253.5 -92.5zM193 89h130q125 0 196.5 65.5t71.5 202.5q0 133 -72.5 198.5t-194.5 65.5h-131v-230h169q20 0 20 -20v-49 q0 -20 -20 -20h-169v-213z" unicode="Ð" glyph-name="Eth" horiz-adv-x="733"/>
<glyph d="M440 762q-30 0 -65 11l-41 14q-26 9 -48 9q-23 0 -36 -16t-25 -16h-26q-16 0 -12 27q4 37 29.5 64t69.5 27q30 0 63 -11l42 -14q25 -9 47 -9q24 0 36 15q13 16 25 16h26q17 0 14 -28q-4 -36 -28.5 -62.5t-70.5 -26.5zM168 20q0 -20 -20 -20h-60q-20 0 -20 20v670 q0 20 20 20h65q17 0 30 -20l325 -476l42 -65h1v541q0 20 20 20h60q20 0 20 -20v-670q0 -20 -20 -20h-65q-15 0 -30 20l-325 470l-42 65h-1v-535z" unicode="Ñ" glyph-name="Ntilde" horiz-adv-x="719"/>
<glyph unicode="Ò" glyph-name="Ograve" d="M448 781q4 -9 0.5 -15t-13.5 -6h-78q-16 0 -29 18l-77 94q-5 8 -2 14t13 6h124q14 0 23 -20zM386 -11q-154 0 -251 100.5t-97 264.5q0 165 97 266t251 101q155 0 252.5 -101t97.5 -266q0 -164 -97.5 -264.5t-252.5 -100.5zM386 82q110 0 178.5 74t68.5 198 q0 126 -68 200.5t-179 74.5t-178 -75t-67 -200t67.5 -198.5t177.5 -73.5z"/>
<glyph unicode="Ó" glyph-name="Oacute" d="M344 781l39 91q9 20 24 20h123q10 0 13.5 -6t-2.5 -14l-76 -94q-15 -18 -30 -18h-78q-10 0 -13.5 6t0.5 15zM386 -11q-154 0 -251 100.5t-97 264.5q0 165 97 266t251 101q155 0 252.5 -101t97.5 -266q0 -164 -97.5 -264.5t-252.5 -100.5zM386 82q110 0 178.5 74t68.5 198 q0 126 -68 200.5t-179 74.5t-178 -75t-67 -200t67.5 -198.5t177.5 -73.5z"/>
<glyph unicode="Ô" glyph-name="Ocircumflex" d="M300 764q-34 -18 -47 -18h-30q-10 0 -13.5 7.5t1.5 13.5l104 109q14 16 33 16h80q19 0 33 -16l102 -109q7 -8 3 -14.5t-14 -6.5h-31q-15 0 -47 18l-85 45h-2zM386 -11q-154 0 -251 100.5t-97 264.5q0 165 97 266t251 101q155 0 252.5 -101t97.5 -266q0 -164 -97.5 -264.5 t-252.5 -100.5zM386 82q110 0 178.5 74t68.5 198q0 126 -68 200.5t-179 74.5t-178 -75t-67 -200t67.5 -198.5t177.5 -73.5z"/>
<glyph unicode="Õ" glyph-name="Otilde" d="M466 762q-30 0 -65 11l-41 14q-26 9 -48 9q-23 0 -36 -16t-25 -16h-26q-16 0 -12 27q4 37 29.5 64t69.5 27q30 0 63 -11l42 -14q26 -9 47 -9q24 0 36 15q13 16 25 16h26q17 0 14 -28q-4 -36 -28.5 -62.5t-70.5 -26.5zM386 -11q-154 0 -251 100.5t-97 264.5q0 165 97 266 t251 101q155 0 252.5 -101t97.5 -266q0 -164 -97.5 -264.5t-252.5 -100.5zM386 82q110 0 178.5 74t68.5 198q0 126 -68 200.5t-179 74.5t-178 -75t-67 -200t67.5 -198.5t177.5 -73.5z"/>
<glyph unicode="Ö" glyph-name="Odieresis" d="M552 774q0 -18 -18 -18h-97q-18 0 -18 18v95q0 18 18 18h97q18 0 18 -18v-95zM357 774q0 -18 -18 -18h-97q-18 0 -18 18v95q0 18 18 18h97q18 0 18 -18v-95zM386 -11q-154 0 -251 100.5t-97 264.5q0 165 97 266t251 101q155 0 252.5 -101t97.5 -266q0 -164 -97.5 -264.5 t-252.5 -100.5zM386 82q110 0 178.5 74t68.5 198q0 126 -68 200.5t-179 74.5t-178 -75t-67 -200t67.5 -198.5t177.5 -73.5z"/>
<glyph d="M395 75q-13 -15 -28 0l-135 136h-2l-136 -136q-13 -15 -28 0l-33 32q-15 15 0 29l137 134v2l-137 135q-15 14 0 29l32 32q14 14 29 0l136 -136h2l136 136q14 14 28 0l33 -32q14 -14 0 -29l-137 -135v-2l136 -134q14 -14 0 -29z" unicode="×" glyph-name="multiply" horiz-adv-x="461"/>
<glyph unicode="Ø" glyph-name="Oslash" d="M386 -11q-113 0 -203 61h-2l-38 -45q-11 -14 -25 -2l-48 43q-14 11 -2 25l17 19l27 27q-74 96 -74 237q0 165 97 266t251 101q115 0 203 -60h2l38 45q12 13 26 2l48 -43q13 -11 1 -25l-19 -22l-24 -25q75 -97 75 -239q0 -164 -97.5 -264.5t-252.5 -100.5zM386 629 q-111 0 -178 -75t-67 -200q0 -97 39 -160h2l42 50l254 293l48 52q-58 40 -140 40zM386 82q110 0 178.5 74t68.5 198q0 98 -41 163h-2l-41 -51l-256 -293l-47 -50q59 -41 140 -41z"/>
<glyph d="M423 781q4 -9 0.5 -15t-13.5 -6h-78q-16 0 -29 18l-77 94q-5 8 -2 14t13 6h124q14 0 23 -20zM356 82q197 0 197 215v393q0 20 20 20h60q20 0 20 -20v-415q0 -61 -16.5 -110t-44.5 -81.5t-66.5 -54t-80.5 -31t-89 -9.5q-129 0 -213 69.5t-84 216.5v415q0 20 20 20h60 q20 0 20 -20v-393q0 -215 197 -215z" unicode="Ù" glyph-name="Ugrave" horiz-adv-x="711"/>
<glyph d="M299 781l39 91q9 20 24 20h123q10 0 13.5 -6t-2.5 -14l-76 -94q-15 -18 -30 -18h-78q-10 0 -13.5 6t0.5 15zM356 82q197 0 197 215v393q0 20 20 20h60q20 0 20 -20v-415q0 -61 -16.5 -110t-44.5 -81.5t-66.5 -54t-80.5 -31t-89 -9.5q-129 0 -213 69.5t-84 216.5v415 q0 20 20 20h60q20 0 20 -20v-393q0 -215 197 -215z" unicode="Ú" glyph-name="Uacute" horiz-adv-x="711"/>
<glyph d="M268 764q-34 -18 -47 -18h-30q-10 0 -13.5 7.5t1.5 13.5l104 109q14 16 33 16h80q19 0 33 -16l102 -109q7 -8 3 -14.5t-14 -6.5h-31q-15 0 -47 18l-85 45h-2zM356 82q197 0 197 215v393q0 20 20 20h60q20 0 20 -20v-415q0 -61 -16.5 -110t-44.5 -81.5t-66.5 -54 t-80.5 -31t-89 -9.5q-129 0 -213 69.5t-84 216.5v415q0 20 20 20h60q20 0 20 -20v-393q0 -215 197 -215z" unicode="Û" glyph-name="Ucircumflex" horiz-adv-x="711"/>
<glyph d="M520 774q0 -18 -18 -18h-97q-18 0 -18 18v95q0 18 18 18h97q18 0 18 -18v-95zM325 774q0 -18 -18 -18h-97q-18 0 -18 18v95q0 18 18 18h97q18 0 18 -18v-95zM356 82q197 0 197 215v393q0 20 20 20h60q20 0 20 -20v-415q0 -61 -16.5 -110t-44.5 -81.5t-66.5 -54t-80.5 -31 t-89 -9.5q-129 0 -213 69.5t-84 216.5v415q0 20 20 20h60q20 0 20 -20v-393q0 -215 197 -215z" unicode="Ü" glyph-name="Udieresis" horiz-adv-x="711"/>
<glyph d="M284 781l39 91q9 20 24 20h123q10 0 13.5 -6t-2.5 -14l-76 -94q-15 -18 -30 -18h-78q-10 0 -13.5 6t0.5 15zM370 0h-60q-20 0 -20 20v215l-277 455q-5 8 1 14t16 6h63q9 0 13.5 -0.5t9.5 -5t10 -14.5l179 -300l34 -63h3l34 63l178 300q7 14 13 17t20 3h63q11 0 17 -5.5 t0 -14.5l-277 -455v-215q0 -20 -20 -20z" unicode="Ý" glyph-name="Yacute" horiz-adv-x="681"/>
<glyph d="M168 98v-78q0 -20 -20 -20h-60q-20 0 -20 20v670q0 20 20 20h60q20 0 20 -20v-77h159q52 0 97 -14.5t82.5 -44t59.5 -80.5t22 -118q0 -126 -75.5 -192t-185.5 -66h-159zM168 187h143q84 0 129 47t45 122q0 81 -44.5 124.5t-129.5 43.5h-143v-337z" unicode="Þ" glyph-name="Thorn" horiz-adv-x="618"/>
<glyph d="M286 697q93 0 146 -40t53 -98q0 -29 -12.5 -54.5t-30 -42.5t-34.5 -31.5t-29.5 -30t-12.5 -30.5q0 -20 13 -31.5t45 -27.5l31 -16q64 -33 95 -66.5t31 -93.5q0 -64 -51 -104.5t-140 -40.5q-91 0 -156 30q-14 6 -9 20l16 48q5 13 23 8q3 -1 17.5 -5t27 -7.5t33.5 -6.5 t41 -3q53 0 77 19.5t24 47.5q0 23 -18.5 41t-62.5 40l-37 18q-53 26 -77 54t-24 68q0 28 18.5 55.5t41 45t41 42t18.5 48.5q0 30 -28 44.5t-70 14.5q-65 0 -84 -24t-19 -72v-496q0 -20 -20 -20h-59q-20 0 -20 20v428h-45q-20 0 -20 20v42q0 20 20 20h45v16q0 69 52 110 t150 41z" unicode="ß" glyph-name="germandbls" horiz-adv-x="595"/>
<glyph d="M332 604q7 -21 -13 -21h-56q-16 0 -29 18l-67 98q-5 7 -2.5 13.5t12.5 6.5h106q16 0 23 -20zM239 71q74 0 122.5 43t48.5 92v35q-64 12 -132 12q-71 0 -105.5 -22.5t-34.5 -71.5q0 -42 27 -65t74 -23zM410 20v69h-3q-26 -48 -79 -73t-118 -25q-69 0 -120 40.5t-51 123.5 q0 175 241 175q59 0 130 -13v18q0 30 -4 48.5t-17 36.5t-40.5 26t-71.5 8q-67 0 -155 -27q-27 -7 -33 12l-12 34q-6 21 14 29q79 36 190 36q70 0 115.5 -15t69 -46t32 -67.5t8.5 -89.5v-300q0 -20 -20 -20h-57q-19 0 -19 20z" unicode="à" glyph-name="agrave" horiz-adv-x="565"/>
<glyph d="M249 604l27 95q5 20 22 20h106q10 0 13 -6.5t-3 -13.5l-67 -98q-12 -18 -29 -18h-56q-18 0 -13 21zM238 71q74 0 122.5 43t48.5 92v35q-64 12 -132 12q-71 0 -105.5 -22.5t-34.5 -71.5q0 -42 27 -65t74 -23zM409 20v69h-3q-26 -48 -79 -73t-118 -25q-69 0 -120 40.5 t-51 123.5q0 175 241 175q59 0 130 -13v18q0 30 -4 48.5t-17 36.5t-40.5 26t-71.5 8q-67 0 -155 -27q-27 -7 -33 12l-12 34q-6 21 14 29q79 36 190 36q70 0 115.5 -15t69 -46t32 -67.5t8.5 -89.5v-300q0 -20 -20 -20h-57q-19 0 -19 20z" unicode="á" glyph-name="aacute" horiz-adv-x="564"/>
<glyph d="M204 591q-28 -16 -40 -16h-37q-10 0 -14 7t3 14l100 109q14 16 33 16h80q19 0 33 -16l100 -109q7 -8 2.5 -14.5t-14.5 -6.5h-37q-12 0 -40 16l-83 51h-2zM238 71q74 0 122.5 43t48.5 92v35q-64 12 -132 12q-71 0 -105.5 -22.5t-34.5 -71.5q0 -42 27 -65t74 -23zM409 20 v69h-3q-26 -48 -79 -73t-118 -25q-69 0 -120 40.5t-51 123.5q0 175 241 175q59 0 130 -13v18q0 30 -4 48.5t-17 36.5t-40.5 26t-71.5 8q-67 0 -155 -27q-27 -7 -33 12l-12 34q-6 21 14 29q79 36 190 36q70 0 115.5 -15t69 -46t32 -67.5t8.5 -89.5v-300q0 -20 -20 -20h-57 q-19 0 -19 20z" unicode="â" glyph-name="acircumflex" horiz-adv-x="564"/>
<glyph d="M371 591q-31 0 -64 11l-51 16q-24 7 -45 7q-28 0 -39 -14q-13 -16 -25 -16h-17q-15 0 -11 26q15 93 102 93q26 0 60 -12l52 -16q24 -7 44 -7q28 0 39 14q13 16 25 16h17q16 0 12 -26q-14 -92 -99 -92zM238 71q74 0 122.5 43t48.5 92v35q-64 12 -132 12 q-71 0 -105.5 -22.5t-34.5 -71.5q0 -42 27 -65t74 -23zM409 20v69h-3q-26 -48 -79 -73t-118 -25q-69 0 -120 40.5t-51 123.5q0 175 241 175q59 0 130 -13v18q0 30 -4 48.5t-17 36.5t-40.5 26t-71.5 8q-67 0 -155 -27q-27 -7 -33 12l-12 34q-6 21 14 29q79 36 190 36 q70 0 115.5 -15t69 -46t32 -67.5t8.5 -89.5v-300q0 -20 -20 -20h-57q-19 0 -19 20z" unicode="ã" glyph-name="atilde" horiz-adv-x="564"/>
<glyph d="M429 615q0 -18 -18 -18h-80q-18 0 -18 18v85q0 18 18 18h80q18 0 18 -18v-85zM261 615q0 -18 -18 -18h-80q-18 0 -18 18v85q0 18 18 18h80q18 0 18 -18v-85zM238 71q74 0 122.5 43t48.5 92v35q-64 12 -132 12q-71 0 -105.5 -22.5t-34.5 -71.5q0 -42 27 -65t74 -23z M409 20v69h-3q-26 -48 -79 -73t-118 -25q-69 0 -120 40.5t-51 123.5q0 175 241 175q59 0 130 -13v18q0 30 -4 48.5t-17 36.5t-40.5 26t-71.5 8q-67 0 -155 -27q-27 -7 -33 12l-12 34q-6 21 14 29q79 36 190 36q70 0 115.5 -15t69 -46t32 -67.5t8.5 -89.5v-300q0 -20 -20 -20 h-57q-19 0 -19 20z" unicode="ä" glyph-name="adieresis" horiz-adv-x="564"/>
<glyph d="M291 572q-42 0 -69.5 27t-27.5 69t27.5 69t69.5 27t69.5 -27t27.5 -69t-27.5 -69t-69.5 -27zM291 631q15 0 25 11t10 26t-10 26t-25 11t-25 -11t-10 -26t10 -26t25 -11zM238 71q74 0 122.5 43t48.5 92v35q-64 12 -132 12q-71 0 -105.5 -22.5t-34.5 -71.5q0 -42 27 -65 t74 -23zM409 20v69h-3q-26 -48 -79 -73t-118 -25q-69 0 -120 40.5t-51 123.5q0 175 241 175q59 0 130 -13v18q0 30 -4 48.5t-17 36.5t-40.5 26t-71.5 8q-67 0 -155 -27q-27 -7 -33 12l-12 34q-6 21 14 29q79 36 190 36q70 0 115.5 -15t69 -46t32 -67.5t8.5 -89.5v-300 q0 -20 -20 -20h-57q-19 0 -19 20z" unicode="å" glyph-name="aring" horiz-adv-x="564"/>
<glyph d="M673 454q-63 0 -105 -37.5t-56 -103.5h316q-6 62 -47.5 101.5t-107.5 39.5zM686 -9q-76 0 -134 29t-90 81h-2q-72 -110 -227 -110q-81 0 -138 39.5t-57 124.5q0 175 241 175q61 0 132 -13v19q0 60 -26 89.5t-109 29.5q-67 0 -155 -27q-27 -7 -33 12l-12 34q-6 21 14 29 q79 36 190 36q156 0 192 -92h2q73 92 199 92q117 0 185.5 -74t68.5 -191v-19q0 -21 -21 -21h-396q8 -69 52.5 -113.5t125.5 -44.5q75 0 135 45q16 14 29 1l31 -31q15 -15 0 -31q-74 -69 -197 -69zM248 71q70 0 116.5 43.5t46.5 91.5v35q-62 12 -134 12q-71 0 -105.5 -22.5 t-34.5 -71.5q0 -42 29.5 -65t81.5 -23z" unicode="æ" glyph-name="ae" horiz-adv-x="960"/>
<glyph d="M291 -181q-56 0 -76 8q-6 2 -6 11l4 31q1 8 9 8q30 -5 57 -5q39 0 39 26q0 27 -55 27h-37q-7 0 -7 7v34q0 7 4 12l25 18q-95 17 -153 91.5t-58 181.5q0 121 74 195.5t190 74.5q109 0 177 -69q16 -16 1 -29l-32 -32q-13 -11 -28 1q-53 44 -118 44q-82 0 -125.5 -52 t-43.5 -133q0 -79 44 -136t125 -57q60 0 117 43q16 14 29 1l32 -30q15 -14 -1 -30q-63 -63 -162 -69l-25 -15v-1q109 0 109 -77q0 -37 -30 -58t-79 -21z" unicode="ç" glyph-name="ccedilla" horiz-adv-x="525"/>
<glyph d="M355 604q7 -21 -13 -21h-56q-16 0 -29 18l-67 98q-5 7 -2.5 13.5t12.5 6.5h106q16 0 23 -20zM312 -9q-126 0 -200.5 75.5t-74.5 197.5q0 121 74 198t188 77q115 0 184.5 -74.5t69.5 -190.5v-19q0 -21 -21 -21h-398q7 -68 53.5 -113t127.5 -45q75 0 135 45q15 14 28 1 l31 -31q15 -15 0 -31q-74 -69 -197 -69zM299 454q-63 0 -106.5 -38t-56.5 -103h318q-6 62 -47.5 101.5t-107.5 39.5z" unicode="è" glyph-name="egrave" horiz-adv-x="586"/>
<glyph d="M270 604l27 95q5 20 22 20h106q10 0 13 -6.5t-3 -13.5l-67 -98q-12 -18 -29 -18h-56q-18 0 -13 21zM312 -9q-126 0 -200.5 75.5t-74.5 197.5q0 121 74 198t188 77q115 0 184.5 -74.5t69.5 -190.5v-19q0 -21 -21 -21h-398q7 -68 53.5 -113t127.5 -45q75 0 135 45 q15 14 28 1l31 -31q15 -15 0 -31q-74 -69 -197 -69zM299 454q-63 0 -106.5 -38t-56.5 -103h318q-6 62 -47.5 101.5t-107.5 39.5z" unicode="é" glyph-name="eacute" horiz-adv-x="586"/>
<glyph d="M215 591q-28 -16 -40 -16h-37q-10 0 -14 7t3 14l100 109q14 16 33 16h80q19 0 33 -16l100 -109q7 -8 2.5 -14.5t-14.5 -6.5h-37q-12 0 -40 16l-83 51h-2zM312 -9q-126 0 -200.5 75.5t-74.5 197.5q0 121 74 198t188 77q115 0 184.5 -74.5t69.5 -190.5v-19q0 -21 -21 -21 h-398q7 -68 53.5 -113t127.5 -45q75 0 135 45q15 14 28 1l31 -31q15 -15 0 -31q-74 -69 -197 -69zM299 454q-63 0 -106.5 -38t-56.5 -103h318q-6 62 -47.5 101.5t-107.5 39.5z" unicode="ê" glyph-name="ecircumflex" horiz-adv-x="586"/>
<glyph d="M445 615q0 -18 -18 -18h-80q-18 0 -18 18v85q0 18 18 18h80q18 0 18 -18v-85zM277 615q0 -18 -18 -18h-80q-18 0 -18 18v85q0 18 18 18h80q18 0 18 -18v-85zM312 -9q-126 0 -200.5 75.5t-74.5 197.5q0 121 74 198t188 77q115 0 184.5 -74.5t69.5 -190.5v-19 q0 -21 -21 -21h-398q7 -68 53.5 -113t127.5 -45q75 0 135 45q15 14 28 1l31 -31q15 -15 0 -31q-74 -69 -197 -69zM299 454q-63 0 -106.5 -38t-56.5 -103h318q-6 62 -47.5 101.5t-107.5 39.5z" unicode="ë" glyph-name="edieresis" horiz-adv-x="586"/>
<glyph d="M158 604q7 -21 -13 -21h-56q-16 0 -29 18l-67 98q-5 7 -2.5 13.5t12.5 6.5h106q16 0 23 -20zM164 20q0 -20 -20 -20h-59q-20 0 -20 20v490q0 20 20 20h59q20 0 20 -20v-490z" unicode="ì" glyph-name="igrave" horiz-adv-x="229"/>
<glyph d="M74 604l27 95q5 20 22 20h106q10 0 13 -6.5t-3 -13.5l-67 -98q-12 -18 -29 -18h-56q-18 0 -13 21zM164 20q0 -20 -20 -20h-59q-20 0 -20 20v490q0 20 20 20h59q20 0 20 -20v-490z" unicode="í" glyph-name="iacute" horiz-adv-x="229"/>
<glyph d="M70 592q-18 -18 -37 -18h-40q-9 0 -12.5 8t1.5 15l59 105q9 17 34 17h80q25 0 34 -17l58 -105q6 -11 2.5 -17t-13.5 -6h-40q-20 0 -36 18l-44 58h-2zM164 20q0 -20 -20 -20h-59q-20 0 -20 20v490q0 20 20 20h59q20 0 20 -20v-490z" unicode="î" glyph-name="icircumflex" horiz-adv-x="229"/>
<glyph d="M237 606q0 -18 -18 -18h-66q-18 0 -18 18v80q0 18 18 18h66q18 0 18 -18v-80zM95 606q0 -18 -18 -18h-66q-19 0 -19 18v80q0 18 19 18h66q18 0 18 -18v-80zM164 20q0 -20 -20 -20h-59q-20 0 -20 20v490q0 20 20 20h59q20 0 20 -20v-490z" unicode="ï" glyph-name="idieresis" horiz-adv-x="229"/>
<glyph d="M300 -9q-117 0 -190.5 70.5t-73.5 180.5q0 112 74.5 181.5t189.5 69.5q83 0 139 -39l2 1q-15 44 -42 77.5t-53 50.5l-172 -73q-18 -7 -27 11l-15 31q-9 18 11 27l42 17l73 26v1q-38 11 -96 15q-22 2 -19 24l6 37q2 19 29 17q104 -6 184 -48l92 39q17 7 27 -11l15 -31 q10 -19 -11 -27l-19 -8l-31 -10l-1 -2q132 -114 132 -346q0 -133 -75.5 -207t-190.5 -74zM300 76q75 0 123 49t48 132q0 73 -47.5 112.5t-123.5 39.5q-77 0 -123 -45.5t-46 -121.5q0 -74 45 -120t124 -46z" unicode="ð" glyph-name="eth" horiz-adv-x="605"/>
<glyph d="M401 591q-31 0 -64 11l-51 16q-24 7 -45 7q-28 0 -39 -14q-13 -16 -25 -16h-17q-15 0 -11 26q15 93 102 93q26 0 60 -12l52 -16q24 -7 44 -7q28 0 39 14q13 16 25 16h17q16 0 12 -26q-14 -92 -99 -92zM340 538q94 0 143 -54t49 -152v-312q0 -20 -20 -20h-58q-20 0 -20 20 v291q0 143 -120 143q-64 0 -107 -45t-43 -102v-287q0 -20 -20 -20h-59q-20 0 -20 20v490q0 20 20 20h59q20 0 20 -20v-84h2q23 56 69 84t105 28z" unicode="ñ" glyph-name="ntilde" horiz-adv-x="591"/>
<glyph d="M360 604q7 -21 -13 -21h-56q-16 0 -29 18l-67 98q-5 7 -2.5 13.5t12.5 6.5h106q16 0 23 -20zM306 -9q-115 0 -192 78t-77 198q0 121 76.5 196.5t192.5 75.5t193.5 -76t77.5 -196t-78 -198t-193 -78zM306 76q78 0 127 53.5t49 137.5q0 85 -48.5 136t-127.5 51 q-77 0 -125.5 -51t-48.5 -136q0 -83 49 -137t125 -54z" unicode="ò" glyph-name="ograve" horiz-adv-x="613"/>
<glyph d="M270 604l27 95q5 20 22 20h106q10 0 13 -6.5t-3 -13.5l-67 -98q-12 -18 -29 -18h-56q-18 0 -13 21zM306 -9q-115 0 -192 78t-77 198q0 121 76.5 196.5t192.5 75.5t193.5 -76t77.5 -196t-78 -198t-193 -78zM306 76q78 0 127 53.5t49 137.5q0 85 -48.5 136t-127.5 51 q-77 0 -125.5 -51t-48.5 -136q0 -83 49 -137t125 -54z" unicode="ó" glyph-name="oacute" horiz-adv-x="613"/>
<glyph d="M221 591q-28 -16 -40 -16h-37q-10 0 -14 7t3 14l100 109q14 16 33 16h80q19 0 33 -16l100 -109q7 -8 2.5 -14.5t-14.5 -6.5h-37q-12 0 -40 16l-83 51h-2zM306 -9q-115 0 -192 78t-77 198q0 121 76.5 196.5t192.5 75.5t193.5 -76t77.5 -196t-78 -198t-193 -78zM306 76 q78 0 127 53.5t49 137.5q0 85 -48.5 136t-127.5 51q-77 0 -125.5 -51t-48.5 -136q0 -83 49 -137t125 -54z" unicode="ô" glyph-name="ocircumflex" horiz-adv-x="613"/>
<glyph d="M383 593q-31 0 -64 11l-51 16q-24 7 -45 7q-28 0 -39 -14q-13 -16 -25 -16h-17q-15 0 -11 26q15 93 102 93q26 0 60 -12l52 -16q24 -7 44 -7q28 0 39 14q13 16 25 16h17q16 0 12 -26q-14 -92 -99 -92zM306 -9q-115 0 -192 78t-77 198q0 121 76.5 196.5t192.5 75.5 t193.5 -76t77.5 -196t-78 -198t-193 -78zM306 76q78 0 127 53.5t49 137.5q0 85 -48.5 136t-127.5 51q-77 0 -125.5 -51t-48.5 -136q0 -83 49 -137t125 -54z" unicode="õ" glyph-name="otilde" horiz-adv-x="613"/>
<glyph d="M449 615q0 -18 -18 -18h-80q-18 0 -18 18v85q0 18 18 18h80q18 0 18 -18v-85zM281 615q0 -18 -18 -18h-80q-18 0 -18 18v85q0 18 18 18h80q18 0 18 -18v-85zM306 -9q-115 0 -192 78t-77 198q0 121 76.5 196.5t192.5 75.5t193.5 -76t77.5 -196t-78 -198t-193 -78zM306 76 q78 0 127 53.5t49 137.5q0 85 -48.5 136t-127.5 51q-77 0 -125.5 -51t-48.5 -136q0 -83 49 -137t125 -54z" unicode="ö" glyph-name="odieresis" horiz-adv-x="613"/>
<glyph d="M233 383q-22 0 -22 22v81q0 21 22 21h77q21 0 21 -21v-81q0 -22 -21 -22h-77zM60 230q-20 0 -20 20v47q0 20 20 20h422q20 0 20 -20v-47q0 -18 -20 -20h-422zM233 40q-22 0 -22 22v81q0 21 22 21h77q21 0 21 -21v-81q0 -22 -21 -22h-77z" unicode="÷" glyph-name="divide" horiz-adv-x="542"/>
<glyph d="M306 -9q-91 0 -161 53h-2l-42 -46q-12 -13 -25 0l-36 37q-14 13 0 25l19 19l27 25q-49 71 -49 163q0 121 76.5 196.5t192.5 75.5q94 0 162 -51h2l41 44q14 13 26 0l36 -36q13 -12 0 -26l-19 -19l-25 -23q48 -69 48 -161q0 -120 -78 -198t-193 -78zM306 454 q-77 0 -125.5 -51t-48.5 -136q0 -53 21 -95h2l22 25l199 199l30 29q-43 29 -100 29zM306 76q78 0 127 53.5t49 137.5q0 51 -20 93h-2l-26 -28l-201 -202l-25 -23q42 -31 98 -31z" unicode="ø" glyph-name="oslash" horiz-adv-x="613"/>
<glyph d="M340 604q7 -21 -13 -21h-56q-16 0 -29 18l-67 98q-5 7 -2.5 13.5t12.5 6.5h106q16 0 23 -20zM244 -9q-86 0 -135.5 54t-49.5 150v315q0 20 20 20h59q20 0 20 -20v-296q0 -71 30 -105t81 -34q64 0 105 45.5t41 109.5v280q0 20 20 20h59q20 0 20 -20v-490q0 -20 -20 -20 h-59q-20 0 -20 20v84h-2q-46 -113 -169 -113z" unicode="ù" glyph-name="ugrave" horiz-adv-x="579"/>
<glyph d="M232 604l27 95q5 20 22 20h106q10 0 13 -6.5t-3 -13.5l-67 -98q-12 -18 -29 -18h-56q-18 0 -13 21zM244 -9q-86 0 -135.5 54t-49.5 150v315q0 20 20 20h59q20 0 20 -20v-296q0 -71 30 -105t81 -34q64 0 105 45.5t41 109.5v280q0 20 20 20h59q20 0 20 -20v-490 q0 -20 -20 -20h-59q-20 0 -20 20v84h-2q-46 -113 -169 -113z" unicode="ú" glyph-name="uacute" horiz-adv-x="579"/>
<glyph d="M203 591q-28 -16 -40 -16h-37q-10 0 -14 7t3 14l100 109q14 16 33 16h80q19 0 33 -16l100 -109q7 -8 2.5 -14.5t-14.5 -6.5h-37q-12 0 -40 16l-83 51h-2zM244 -9q-86 0 -135.5 54t-49.5 150v315q0 20 20 20h59q20 0 20 -20v-296q0 -71 30 -105t81 -34q64 0 105 45.5 t41 109.5v280q0 20 20 20h59q20 0 20 -20v-490q0 -20 -20 -20h-59q-20 0 -20 20v84h-2q-46 -113 -169 -113z" unicode="û" glyph-name="ucircumflex" horiz-adv-x="579"/>
<glyph d="M431 615q0 -18 -18 -18h-80q-18 0 -18 18v85q0 18 18 18h80q18 0 18 -18v-85zM263 615q0 -18 -18 -18h-80q-18 0 -18 18v85q0 18 18 18h80q18 0 18 -18v-85zM244 -9q-86 0 -135.5 54t-49.5 150v315q0 20 20 20h59q20 0 20 -20v-296q0 -71 30 -105t81 -34q64 0 105 45.5 t41 109.5v280q0 20 20 20h59q20 0 20 -20v-490q0 -20 -20 -20h-59q-20 0 -20 20v84h-2q-46 -113 -169 -113z" unicode="ü" glyph-name="udieresis" horiz-adv-x="579"/>
<glyph d="M226 604l27 95q5 20 22 20h106q10 0 13 -6.5t-3 -13.5l-67 -98q-12 -18 -29 -18h-56q-18 0 -13 21zM248 0h-43q-9 0 -13 4.5t-7 15.5l-161 490q-6 20 18 20h66q9 0 13 -4.5t7 -15.5l119 -385l18 -62h2l19 62l130 385q3 11 7 15.5t13 4.5h65q10 0 16 -5.5t3 -14.5 l-202 -576q-25 -71 -63.5 -95t-94.5 -24q-61 0 -106 18q-17 7 -10 26l16 42q7 18 24 13q42 -14 74 -14q56 0 75 56z" unicode="ý" glyph-name="yacute" horiz-adv-x="543"/>
<glyph d="M337 76q72 0 119.5 51.5t47.5 138.5q0 86 -47.5 136.5t-119.5 50.5q-74 0 -123.5 -49t-49.5 -128v-19q0 -80 50 -130.5t123 -50.5zM345 -9q-55 0 -102 25t-76 69h-3v-245q0 -20 -20 -20h-59q-20 0 -20 20v835q0 19 19 25l54 19q13 5 19.5 1.5t6.5 -19.5v-256h2 q60 94 178 94q111 0 183.5 -76.5t72.5 -196.5q0 -121 -72 -198t-183 -77z" unicode="þ" glyph-name="thorn" horiz-adv-x="636"/>
</font>
</defs>
</svg>
