<?xml version="1.0" encoding="UTF-8" standalone="no"?>
<!DOCTYPE svg  PUBLIC '-//W3C//DTD SVG 1.1//EN'  'http://www.w3.org/Graphics/SVG/1.1/DTD/svg11.dtd'>
<svg xmlns="http://www.w3.org/2000/svg" version="1.1">
<defs>
<font id="LFTZenoCondensed-Regular" horiz-adv-x="380">
<font-face font-family="LFT Zeno Condensed Regular" underline-position="0" x-height="530" descent="-215" unicode-range="U+0020-00FE" units-per-em="1000" ascent="785" cap-height="710" underline-thickness="0" font-weight="400" bbox="-22.7812 -200 546 908" panose-1="0 0 0 0 0 0 0 0 0 0"/>
<missing-glyph/>
<glyph horiz-adv-x="191" glyph-name="space" unicode=" "/>
<glyph horiz-adv-x="185" glyph-name="exclam" unicode="!" d="M82 162q-20 0 -20 20l-10 259v249q0 20 20 20h41q20 0 20 -20v-249l-10 -259q-2 -20 -20 -20h-21zM65 0q-21 0 -21 22v56q0 22 21 22h55q21 0 21 -22v-56q0 -22 -21 -22h-55z"/>
<glyph horiz-adv-x="238" glyph-name="quotedbl" unicode='&quot;' d="M193 505q-3 -20 -23 -20h-16q-16 0 -16 20v185q0 20 20 20h33q21 0 19 -20zM85 505q-1 -20 -23 -20h-15q-16 0 -16 20v185q0 20 20 20h32q23 0 20 -20z"/>
<glyph horiz-adv-x="445" glyph-name="numbersign" unicode="#" d="M237 286l37 167h-61l-37 -167h61zM219 209h-61l-42 -187q-5 -22 -25 -22h-35q-19 0 -14 22l42 187h-72q-10 0 -12 3.5t2 16.5l11 37q4 14 8 17t20 3h61l37 167h-67q-10 0 -12 3.5t2 16.5l11 37q4 14 8 17t20 3h56l36 158q5 22 25 22h35q19 0 14 -22l-35 -158h60l36 158 q5 22 25 22h35q19 0 14 -22l-35 -158h67q10 0 12 -3t-2 -17l-11 -37q-4 -14 -8 -17t-20 -3h-57l-37 -167h63q10 0 12 -3t-2 -17l-11 -37q-4 -14 -8 -17t-20 -3h-52l-42 -187q-5 -22 -25 -22h-35q-19 0 -14 22z"/>
<glyph horiz-adv-x="305" glyph-name="dollar" unicode="$" d="M282 167q0 -133 -98 -166v-61q0 -20 -20 -20h-21q-20 0 -20 20v53q-49 0 -83 19q-18 9 -10 27l14 32q6 16 28 6q30 -10 50 -10q78 0 78 101q0 73 -67 160l-21 28q-34 44 -47 63.5t-28 59.5t-15 83q0 50 26 92t75 55v61q0 20 20 20h21q20 0 20 -20v-55q42 -2 69 -16 q18 -9 11 -27l-13 -32q-6 -14 -30 -8q-21 7 -47 7q-35 0 -53 -22t-18 -54q0 -39 18 -73.5t55 -82.5l21 -27q27 -36 42.5 -60t29 -65.5t13.5 -87.5z"/>
<glyph horiz-adv-x="491" glyph-name="percent" unicode="%" d="M115 338q-102 0 -102 190q0 187 102 187t102 -187q0 -190 -102 -190zM181 22q-6 -22 -26 -22h-30q-21 0 -14 22l199 666q6 22 26 22h30q21 0 14 -22zM115 404q20 0 27.5 27t7.5 97q0 71 -8 96t-27 25q-20 0 -28 -25t-8 -96q0 -70 7.5 -97t28.5 -27zM377 -5 q-103 0 -103 192q0 185 103 185q101 0 101 -187q0 -190 -101 -190zM377 61q20 0 27.5 27t7.5 97q0 71 -8 96t-27 25q-20 0 -28 -24.5t-8 -96.5q0 -70 7.5 -97t28.5 -27z"/>
<glyph horiz-adv-x="397" glyph-name="ampersand" unicode="&amp;" d="M193 -5q-72 0 -121 53.5t-49 164.5q0 127 76 175v2q-61 45 -61 152q0 84 38.5 128.5t106.5 44.5t113 -20q18 -7 9 -27l-11 -27q-6 -16 -26 -11q-43 13 -74 13q-76 0 -76 -105q0 -38 13 -73.5t29 -47.5q12 -7 12 -19v-24q0 -18 -17 -29q-50 -30 -50 -132q0 -142 88 -142 t88 142q0 98 -42 132h-16q-20 0 -20 19v32q0 20 20 20h139q20 0 20 -20v-31q0 -20 -20 -20h-39v-2q40 -43 40 -130q0 -111 -49 -164.5t-121 -53.5z"/>
<glyph horiz-adv-x="131" glyph-name="quotesingle" unicode="&apos;" d="M86 505q-2 -20 -23 -20h-16q-16 0 -16 20v185q0 20 20 20h33q22 0 20 -20z"/>
<glyph horiz-adv-x="214" glyph-name="parenleft" unicode="(" d="M170 -123q-53 41 -98 155t-45 265q0 152 45 265.5t98 154.5q11 8 25 -4l22 -17q11 -10 4 -20q-1 -1 -11 -15t-14 -21.5t-15 -25.5t-17 -33.5t-15.5 -39t-15 -48.5t-11.5 -55t-8.5 -66t-2.5 -75t2.5 -75t8.5 -66t11.5 -55t15 -48.5t15.5 -39t17 -33.5t15 -25.5t14 -21.5 t11 -15q7 -10 -4 -20l-22 -17q-13 -12 -25 -4z"/>
<glyph horiz-adv-x="214" glyph-name="parenright" unicode=")" d="M187 297q0 -152 -44.5 -265.5t-97.5 -154.5q-11 -8 -26 4l-22 17q-11 10 -4 20q1 1 11 15t14 21.5t15 25.5t17 33.5t15.5 39t15 48.5t11.5 55t8.5 66t2.5 75t-2.5 75t-8.5 66t-11.5 55t-15 48.5t-15.5 39t-17 33.5t-15 25.5t-14 21.5t-11 15q-7 10 4 20l22 17q15 12 26 4 q53 -41 97.5 -154.5t44.5 -265.5z"/>
<glyph horiz-adv-x="395" glyph-name="asterisk" unicode="*" d="M232 359q2 -18 -18 -18h-32q-20 0 -18 18l11 122l-3 2l-101 -71q-15 -9 -25 7l-16 27q-10 17 7 25l110 53v2l-110 53q-17 8 -7 25l16 27q10 18 25 7l102 -71l2 2l-11 123q-2 18 18 18h32q20 0 18 -18l-11 -122l2 -2l102 70q14 11 25 -7l15 -27q10 -18 -6 -25l-110 -53v-2 l110 -52q16 -7 6 -25l-15 -28q-10 -17 -25 -6l-102 69l-2 -1z"/>
<glyph horiz-adv-x="387" glyph-name="plus" unicode="+" d="M38 236q-20 0 -20 20v35q0 20 20 20h116v128q0 20 20 20h40q20 0 20 -20v-128h116q20 0 20 -20v-35q0 -20 -20 -20h-116v-128q0 -20 -20 -20h-40q-20 0 -20 20v128h-116z"/>
<glyph horiz-adv-x="166" glyph-name="comma" unicode="," d="M54 -95l18 95h-18q-22 0 -22 22v63q0 21 22 21h59q21 0 21 -21v-52q0 -14 -9 -41l-38 -87h-33z"/>
<glyph horiz-adv-x="299" glyph-name="hyphen" unicode="-" d="M48 230q-20 0 -20 20v46q0 20 20 20h204q20 0 20 -20v-46q0 -20 -20 -20h-204z"/>
<glyph horiz-adv-x="166" glyph-name="period" unicode="." d="M54 0q-22 0 -22 22v63q0 21 22 21h59q21 0 21 -21v-63q0 -22 -21 -22h-59z"/>
<glyph horiz-adv-x="274" glyph-name="slash" unicode="/" d="M73 -30q-6 -22 -26 -22h-37q-21 0 -14 22l205 757q6 22 26 22h37q21 0 14 -22z"/>
<glyph horiz-adv-x="397" glyph-name="zero" unicode="0" d="M199 -5q-27 0 -48 6.5t-45 29t-39.5 60.5t-26 106t-10.5 160q0 90 10.5 157t26.5 104.5t39.5 60t45 29.5t47.5 7q27 0 48.5 -7t44.5 -29.5t39 -60t26 -104.5t10 -157q0 -92 -10 -160t-26 -106t-39.5 -60.5t-44.5 -29t-48 -6.5zM199 70q45 0 65 61t20 226 q0 157 -21.5 220.5t-63.5 63.5q-44 0 -65 -63t-21 -221q0 -113 10 -177t28 -87t48 -23z"/>
<glyph horiz-adv-x="218" glyph-name="one" unicode="1" d="M149 0h-42q-20 0 -20 20v613h-70q-21 0 -10 20l18 39q9 15 14 17q3 1 13 1h98q19 0 19 -20v-670q0 -20 -20 -20z"/>
<glyph horiz-adv-x="323" glyph-name="two" unicode="2" d="M274 0h-238q-19 0 -19 20v31q0 22 7 33l75 121q68 111 91 180q24 70 24 134q0 56 -21.5 88t-61.5 32q-28 0 -64 -9q-8 -2 -10 -2t-6.5 0.5t-6.5 3t-5 8.5l-13 30q-8 19 9 27q40 18 101 18q66 0 113 -48.5t47 -149.5q0 -66 -27 -144t-48 -115t-56 -93l-54 -86l-1 -2h164 q20 0 20 -20v-37q0 -20 -20 -20z"/>
<glyph horiz-adv-x="340" glyph-name="three" unicode="3" d="M130 -5q-68 0 -105 22q-17 11 -10 28l13 30q6 15 24 11l14 -6q14 -5 29 -7.5t35 -2.5q51 0 79.5 44.5t28.5 108.5q0 68 -35.5 108t-103.5 40h-10q-19 0 -19 20v32q0 14 7 25l128 183v2h-156q-20 0 -20 20v37q0 20 20 20h226q19 0 19 -20v-36q0 -24 -7 -33l-127 -179v-2 q73 -12 116.5 -68.5t43.5 -148.5q0 -103 -52 -165.5t-138 -62.5z"/>
<glyph horiz-adv-x="360" glyph-name="four" unicode="4" d="M291 20q0 -20 -20 -20h-40q-20 0 -20 20v126h-190q-16 0 -16 20v37q0 12 6 33l142 459q6 20 25 20h43q10 0 13.5 -7.5t-0.5 -19.5l-126 -412l-19 -50v-2h122v214q0 18 3 26t15 19l34 31q11 10 19.5 6.5t8.5 -20.5v-276h44q20 -2 20 -20v-38q0 -10 -5 -15.5t-15 -4.5h-44 v-126z"/>
<glyph horiz-adv-x="337" glyph-name="five" unicode="5" d="M317 222q0 -104 -52 -165.5t-141 -61.5q-58 0 -103 21q-15 7 -9 27l13 31q6 15 24 10q3 -1 14.5 -5t27 -6.5t36.5 -2.5q49 0 78.5 43.5t29.5 108.5q0 72 -39.5 109t-123.5 41h-1l-19 2q-20 0 -19 20l17 295q1 21 20 21h199q20 0 20 -20v-37q0 -20 -20 -20h-142l-12 -192 v-1q94 -5 148 -62.5t54 -155.5z"/>
<glyph horiz-adv-x="384" glyph-name="six" unicode="6" d="M198 -5q-39 0 -68 15.5t-52.5 53.5t-35.5 107t-12 170q0 374 209 374q43 0 84 -15q17 -6 9 -25l-13 -32q-6 -13 -25 -10q-30 7 -55 7q-114 0 -125 -224h2q31 41 96 41t107.5 -54t42.5 -166q0 -121 -44 -181.5t-120 -60.5zM198 71q25 0 42 13t25 36.5t11 48.5t3 58 q0 153 -82 153q-29 0 -52.5 -16.5t-31.5 -41.5q1 -137 21 -194t64 -57z"/>
<glyph horiz-adv-x="323" glyph-name="seven" unicode="7" d="M122 20q-6 -20 -26 -20h-45q-20 0 -14 20l191 611v2h-200q-20 0 -20 20v37q0 20 20 20h269q19 0 19 -20v-37q0 -17 -5 -32z"/>
<glyph horiz-adv-x="390" glyph-name="eight" unicode="8" d="M195 -5q-72 0 -122.5 51t-50.5 162q0 133 82 177v2q-63 32 -63 146q0 91 42.5 137t111.5 46q71 0 112.5 -46t41.5 -138q0 -110 -63 -145v-2q83 -42 83 -177q-1 -111 -51 -162t-123 -51zM195 412q42 0 58 29t16 86q0 115 -74 115q-40 0 -56.5 -28t-16.5 -86t15.5 -87 t57.5 -29zM195 70q94 0 94 138q0 68 -25 103.5t-69 35.5q-93 0 -93 -139q0 -138 93 -138z"/>
<glyph horiz-adv-x="383" glyph-name="nine" unicode="9" d="M185 640q-33 0 -52 -24.5t-24 -55.5t-5 -77q0 -75 18 -114t63 -39q28 0 52 17t33 42q-1 137 -21.5 194t-63.5 57zM185 715q39 0 68 -15.5t52.5 -53t35.5 -107t12 -169.5q0 -86 -10.5 -151.5t-34 -117.5t-65.5 -79t-101 -27q-43 0 -84 15q-16 7 -9 26l13 32q6 13 25 10 q30 -7 55 -7q118 0 127 221h-2q-29 -38 -96 -38q-65 0 -107.5 53.5t-42.5 165.5q0 121 44 181.5t120 60.5z"/>
<glyph horiz-adv-x="173" glyph-name="colon" unicode=":" d="M56 335q-21 0 -21 21v65q0 21 21 21h61q21 0 21 -21v-65q0 -21 -21 -21h-61zM56 0q-21 0 -21 22v64q0 22 21 22h61q21 0 21 -22v-64q0 -22 -21 -22h-61z"/>
<glyph horiz-adv-x="173" glyph-name="semicolon" unicode=";" d="M56 336q-21 0 -21 22v63q0 21 21 21h61q21 0 21 -21v-63q0 -22 -21 -22h-61zM56 -95l19 95h-19q-21 0 -21 22v64q0 22 21 22h61q21 0 21 -22v-53q0 -19 -9 -41l-39 -87h-34z"/>
<glyph horiz-adv-x="319" glyph-name="less" unicode="&lt;" d="M269 40q-14 -14 -28 0l-216 215q-15 15 0 29l216 215q14 14 28 1l26 -27q15 -13 0 -28l-176 -174v-2l176 -175q14 -14 0 -28z"/>
<glyph horiz-adv-x="375" glyph-name="equal" unicode="=" d="M45 311q-20 0 -20 20v37q0 20 20 20h285q20 0 20 -20v-37q0 -20 -20 -20h-285zM45 162q-20 0 -20 20v37q0 20 20 20h285q20 0 20 -20v-37q0 -20 -20 -20h-285z"/>
<glyph horiz-adv-x="319" glyph-name="greater" unicode="&gt;" d="M80 40q-14 -14 -28 0l-26 26q-14 14 0 28l175 175v2l-176 174q-14 14 0 28l27 27q14 14 28 -1l216 -215q14 -14 0 -29z"/>
<glyph horiz-adv-x="290" glyph-name="question" unicode="?" d="M105 167q-18 0 -20 20l-1 25q-3 112 46 183l17 23q30 44 42 72.5t12 64.5q0 45 -25.5 65.5t-59.5 20.5q-32 0 -62 -10q-11 -3 -17 -1.5t-11 11.5l-13 28q-8 20 10 28q46 18 101 18q72 0 115 -41.5t43 -116.5q0 -38 -12 -73t-23.5 -54t-38.5 -58l-18 -26q-37 -53 -43 -149 l-1 -10q0 -20 -20 -20h-21zM83 0q-21 0 -21 22v64q0 22 21 22h66q21 0 21 -22v-64q0 -22 -21 -22h-66z"/>
<glyph horiz-adv-x="513" glyph-name="at" unicode="@" d="M258 -94q-110 0 -171 95t-61 253v34q0 151 63 244.5t173 93.5q108 0 166.5 -87.5t58.5 -230.5v-19q0 -114 -30 -179t-87 -65q-63 0 -62 69h-2q-16 -70 -76 -70q-53 0 -80.5 51t-27.5 175q0 119 27.5 167.5t80.5 48.5q32 0 50.5 -16.5t26.5 -52.5h1v43q0 20 20 20h32 q18 0 18 -18v-335q0 -28 16 -28q23 0 38 60.5t15 127.5v20q0 125 -46.5 202t-138.5 77q-93 0 -144.5 -84t-51.5 -214v-34q0 -138 50 -222.5t142 -84.5q34 0 67 10t42.5 15.5t32.5 19.5l22 -33q-64 -53 -164 -53zM253 107q29 0 41.5 36t12.5 113v29q0 74 -12.5 106.5 t-45.5 32.5q-29 0 -42 -33t-13 -121q0 -96 14 -129.5t45 -33.5z"/>
<glyph horiz-adv-x="374" glyph-name="A" unicode="A" d="M129 199h118l-53 360l-5 73h-2l-5 -73zM118 121l-16 -101q-3 -20 -23 -20h-42q-21 0 -18 20l112 670q4 20 23 20h66q19 0 23 -20l112 -670q3 -20 -17 -20h-43q-18 0 -21 20l-16 101h-140z"/>
<glyph horiz-adv-x="367" glyph-name="B" unicode="B" d="M160 0h-92q-20 0 -20 20v670q0 20 20 20h91q64 0 119.5 -45t55.5 -131q0 -62 -26.5 -103.5t-67.5 -54.5v-2q47 -14 76.5 -62.5t29.5 -105.5q0 -107 -53 -156.5t-133 -49.5zM130 401h30q43 0 67.5 33.5t24.5 94.5q0 50 -27 79.5t-70 29.5h-25v-237zM130 329v-256h26 q108 0 108 132q0 52 -27.5 88t-72.5 36h-34z"/>
<glyph horiz-adv-x="330" glyph-name="C" unicode="C" d="M29 356q0 186 51.5 272.5t141.5 86.5q42 0 76 -13q20 -6 10 -27l-12 -29q-6 -10 -11.5 -12t-16.5 1q-25 5 -46 5q-111 0 -111 -284q0 -131 27.5 -209t83.5 -78q21 0 46 5q11 3 16.5 1.5t11.5 -12.5l12 -28q11 -22 -10 -28q-34 -13 -76 -13q-89 0 -141 88t-52 274z"/>
<glyph horiz-adv-x="396" glyph-name="D" unicode="D" d="M368 357q0 -357 -188 -357h-112q-20 0 -20 20v670q0 20 20 20h113q187 0 187 -353zM285 357q0 276 -103 276h-52v-556h51q51 0 77.5 61.5t26.5 218.5z"/>
<glyph horiz-adv-x="308" glyph-name="E" unicode="E" d="M130 382h119q13 0 15.5 -4t-0.5 -18l-8 -35q-4 -14 -8.5 -17t-21.5 -3h-96v-228h128q20 0 20 -20v-37q0 -20 -20 -20h-190q-20 0 -20 20v670q0 20 20 20h189q20 0 20 -20v-37q0 -20 -20 -20h-127v-251z"/>
<glyph horiz-adv-x="302" glyph-name="F" unicode="F" d="M130 360h121q13 0 15.5 -5t-0.5 -18l-8 -35q-4 -13 -8 -15.5t-22 -3.5h-98v-263q0 -20 -20 -20h-42q-20 0 -20 20v670q0 20 20 20h190q20 0 20 -20v-37q0 -20 -20 -20h-128v-273z"/>
<glyph horiz-adv-x="363" glyph-name="G" unicode="G" d="M29 356q0 186 52 272.5t141 86.5q48 0 84 -13q20 -6 10 -27l-12 -29q-7 -15 -24 -12q-22 6 -58 6q-56 0 -83.5 -76t-27.5 -208q0 -131 27.5 -209t82.5 -78q19 0 29 3v246q0 11 3.5 15.5t14.5 7.5l37 10q13 4 17 1t4 -16v-299q0 -18 -18 -27q-37 -16 -87 -16 q-89 0 -140.5 87.5t-51.5 274.5z"/>
<glyph horiz-adv-x="420" glyph-name="H" unicode="H" d="M130 302v-282q0 -20 -20 -20h-42q-20 0 -20 20v670q0 20 20 20h42q20 0 20 -20v-311h160v311q0 20 20 20h42q20 0 20 -20v-670q0 -20 -20 -20h-42q-20 0 -20 20v282h-160z"/>
<glyph horiz-adv-x="178" glyph-name="I" unicode="I" d="M130 20q0 -20 -20 -20h-42q-20 0 -20 20v670q0 20 20 20h42q20 0 20 -20v-670z"/>
<glyph horiz-adv-x="219" glyph-name="J" unicode="J" d="M34 -5q-20 0 -20 20v38q0 20 20 20q42 0 54 26.5t12 121.5v469q0 20 20 20h42q20 0 20 -20v-506q0 -61 -9 -99t-30 -57.5t-45.5 -26t-63.5 -6.5z"/>
<glyph horiz-adv-x="371" glyph-name="K" unicode="K" d="M130 20q0 -20 -20 -20h-42q-20 0 -20 20v670q0 20 20 20h42q20 0 20 -20v-334l133 334q8 20 27 20h48q22 0 14 -20l-143 -337l148 -333q8 -20 -12 -20h-50q-19 0 -27 20l-138 322v-322z"/>
<glyph horiz-adv-x="278" glyph-name="L" unicode="L" d="M130 77h123q12 0 14.5 -3.5t-1.5 -17.5l-11 -36q-4 -14 -8.5 -17t-21.5 -3h-157q-20 0 -20 20v670q0 20 20 20h42q20 0 20 -20v-613z"/>
<glyph horiz-adv-x="473" glyph-name="M" unicode="M" d="M425 20q0 -20 -20 -20h-42q-20 0 -20 20v524h-2l-12 -79l-78 -273q-4 -10 -12 -10h-3q-10 0 -13 10l-78 273l-13 79h-2v-524q0 -20 -20 -20h-42q-20 0 -20 20v670q0 20 20 20h50q20 0 25 -20l81 -278l12 -64h2l12 64l80 278q7 20 25 20h50q20 0 20 -20v-670z"/>
<glyph horiz-adv-x="426" glyph-name="N" unicode="N" d="M130 20q0 -20 -20 -20h-42q-20 0 -20 20v670q0 20 20 20h43q20 0 25 -20l143 -433l15 -73h2v506q0 20 20 20h42q20 0 20 -20v-670q0 -20 -20 -20h-43q-18 0 -25 20l-143 428l-15 81h-2v-509z"/>
<glyph horiz-adv-x="415" glyph-name="O" unicode="O" d="M207 -6q-178 0 -178 363q0 359 178 359q179 0 179 -359q0 -363 -179 -363zM207 70q96 0 96 287q0 283 -96 283q-95 0 -95 -283q0 -287 95 -287z"/>
<glyph horiz-adv-x="359" glyph-name="P" unicode="P" d="M130 201v-181q0 -20 -20 -20h-42q-20 0 -20 20v670q0 20 20 20h72q39 0 73.5 -14t64 -43t47 -81t17.5 -120q0 -120 -57.5 -185.5t-128.5 -65.5h-26zM130 275h14q50 0 83 50.5t33 126.5q0 84 -32 132.5t-84 48.5h-14v-358z"/>
<glyph horiz-adv-x="414" glyph-name="Q" unicode="Q" d="M207 716q179 0 179 -359q0 -306 -128 -353v-2l50 -100q11 -20 -14 -20h-48q-16 0 -26 20l-46 96q-145 31 -145 359q0 359 178 359zM207 642q-95 0 -95 -285q0 -287 95 -287q96 0 96 287q0 285 -96 285z"/>
<glyph horiz-adv-x="363" glyph-name="R" unicode="R" d="M253 467q0 76 -31 120.5t-81 44.5h-11v-329h16q41 0 74 48t33 116zM336 467q0 -79 -30.5 -135t-77.5 -82l105 -230q9 -20 -12 -20h-50q-19 0 -28 20l-92 208l-21 17v-225q0 -20 -20 -20h-42q-20 0 -20 20v670q0 20 20 20h74q78 0 136 -60t58 -183z"/>
<glyph horiz-adv-x="304" glyph-name="S" unicode="S" d="M282 170q0 -80 -38 -128.5t-116 -48.5q-56 0 -88 19q-18 9 -10 27l14 32q6 16 28 6q30 -10 50 -10q78 0 78 101q0 73 -67 160l-21 28q-34 45 -47 63.5t-28 58.5t-15 84q0 61 37 107t108 46q55 0 86 -16q18 -9 11 -27l-13 -32q-6 -14 -30 -8q-21 7 -47 7q-35 0 -53 -22 t-18 -54q0 -39 18 -73.5t55 -82.5l21 -27q27 -35 42.5 -59.5t29 -65t13.5 -85.5z"/>
<glyph horiz-adv-x="339" glyph-name="T" unicode="T" d="M129 633h-101q-20 0 -20 20v37q0 20 20 20h284q20 0 20 -20v-37q0 -20 -20 -20h-101v-613q0 -20 -20 -20h-42q-20 0 -20 20v613z"/>
<glyph horiz-adv-x="404" glyph-name="U" unicode="U" d="M202 72q50 0 65.5 38.5t15.5 143.5v436q0 20 20 20h42q20 0 20 -20v-455q0 -137 -40.5 -189t-122.5 -52q-85 0 -124 51.5t-39 189.5v455q0 20 20 20h42q20 0 20 -20v-436q0 -104 16 -143t65 -39z"/>
<glyph horiz-adv-x="385" glyph-name="V" unicode="V" d="M234 0h-83q-20 0 -24 20l-108 670q-3 20 18 20h42q20 0 23 -20l82 -555l8 -79h2l7 79l82 555q3 20 20 20h45q21 0 18 -20l-108 -670q-4 -20 -24 -20z"/>
<glyph horiz-adv-x="564" glyph-name="W" unicode="W" d="M453 0h-76q-20 0 -23 20l-65 471l-6 129h-2l-6 -129l-65 -471q-3 -20 -23 -20h-76q-22 0 -23 20l-66 670q-2 20 18 20h37q19 0 21 -20l47 -535l4 -91h2l9 91l69 535q2 20 22 20h62q20 0 22 -20l69 -535l9 -91h2l4 91l47 535q2 20 21 20h37q20 0 18 -20l-66 -670 q-1 -20 -23 -20z"/>
<glyph horiz-adv-x="381" glyph-name="X" unicode="X" d="M351 0h-47q-11 0 -16 4t-9 16l-72 222l-15 53h-2l-15 -53l-72 -222q-4 -12 -9 -16t-16 -4h-47q-23 0 -15 20l116 337l-114 333q-6 20 15 20h49q11 0 15.5 -4t8.5 -16l70 -217l14 -56h2l14 56l71 217q4 12 8 16t15 4h50q21 0 15 -20l-114 -333l115 -337q8 -20 -15 -20z "/>
<glyph horiz-adv-x="390" glyph-name="Y" unicode="Y" d="M215 0h-42q-20 0 -20 20v228l-143 442q-6 20 17 20h43q17 0 23 -20l88 -291l13 -63h3l11 63l89 291q6 20 21 20h45q23 0 17 -20l-145 -442v-228q0 -20 -20 -20z"/>
<glyph horiz-adv-x="344" glyph-name="Z" unicode="Z" d="M298 0h-258q-19 0 -19 20v38q0 13 7 33l208 540v2h-188q-20 0 -20 20v37q0 20 20 20h256q19 0 19 -20v-35q0 -20 -5 -32l-207 -544v-2h187q20 0 20 -20v-37q0 -20 -20 -20z"/>
<glyph horiz-adv-x="208" glyph-name="bracketleft" unicode="[" d="M188 -142h-120q-19 0 -19 20v812q0 20 19 20h120q20 0 20 -20v-37q0 -20 -20 -20h-60v-698h60q20 0 20 -20v-37q0 -20 -20 -20z"/>
<glyph horiz-adv-x="274" glyph-name="backslash" unicode="\" d="M201 -30l-205 757q-7 22 14 22h37q20 0 26 -22l205 -757q7 -22 -14 -22h-37q-20 0 -26 22z"/>
<glyph horiz-adv-x="208" glyph-name="bracketright" unicode="]" d="M140 -142h-120q-20 0 -20 20v37q0 20 20 20h60v698h-60q-20 0 -20 20v37q0 20 20 20h120q19 0 19 -20v-812q0 -20 -19 -20z"/>
<glyph horiz-adv-x="412" glyph-name="underscore" unicode="_" d="M20 -180q-20 0 -20 20v37q0 20 20 20h372q20 0 20 -20v-37q0 -20 -20 -20h-372z"/>
<glyph horiz-adv-x="202" glyph-name="grave" unicode="`" d="M170 594q5 -21 -13 -21h-26q-20 0 -29 18l-62 106q-11 20 10 20h68q16 0 23 -20z"/>
<glyph horiz-adv-x="362" glyph-name="a" unicode="a" d="M164 58q33 0 56.5 39.5t23.5 85.5v76q-22 5 -52 5q-51 0 -72 -26.5t-21 -75.5q0 -47 17.5 -75.5t47.5 -28.5zM244 20v43h-2q-11 -31 -38.5 -50.5t-59.5 -19.5q-56 0 -90 42t-34 128q0 78 42 121.5t128 43.5q33 0 54 -4v43q0 99 -65 99q-24 0 -84 -12q-11 -3 -17 -1 t-10 12l-11 26q-10 19 9 27q47 19 116 19q75 0 108 -44t33 -128v-345q0 -20 -20 -20h-38q-21 0 -21 20z"/>
<glyph glyph-name="b" unicode="b" d="M220 -7q-74 0 -93 83h-2v-56q0 -20 -20 -20h-41q-20 0 -20 20v660q0 20 18 25l37 9q13 5 19.5 1.5t6.5 -19.5v-240h1q19 81 95 81q64 0 97 -61t33 -210t-33.5 -211t-97.5 -62zM197 65q36 0 54 43t18 158q0 116 -17 158t-56 42q-38 0 -54.5 -39.5t-16.5 -124.5v-64 q0 -90 16 -131.5t56 -41.5z"/>
<glyph horiz-adv-x="290" glyph-name="c" unicode="c" d="M29 265q0 272 152 272q43 0 80 -15q17 -7 8 -26l-11 -27q-4 -10 -10.5 -11.5t-17.5 1.5q-30 6 -47 6q-72 0 -72 -200t72 -200q12 0 47 7q11 3 17.5 1t11.5 -13l11 -25q8 -18 -10 -26q-37 -16 -79 -16q-68 0 -110 63t-42 209z"/>
<glyph glyph-name="d" unicode="d" d="M185 65q38 0 54 42t16 132v63q0 87 -16 126t-57 39q-37 0 -54 -43t-17 -158q0 -117 17.5 -159t56.5 -42zM160 -7q-64 0 -97.5 61.5t-33.5 211.5q0 149 33.5 210.5t97.5 61.5q75 0 94 -82h1v224q0 20 19 25l36 9q13 5 19.5 1.5t6.5 -19.5v-676q0 -20 -20 -20h-41 q-20 0 -20 20v56h-2q-19 -83 -93 -83z"/>
<glyph horiz-adv-x="360" glyph-name="e" unicode="e" d="M190 -7q-161 0 -161 274q0 145 42.5 207.5t110.5 62.5q66 0 108 -62t42 -203v-18q0 -20 -20 -20h-201q2 -88 21 -128.5t64 -40.5q41 0 83 14q21 8 28 -10l11 -26q9 -21 -9 -28q-54 -22 -119 -22zM182 465q-34 0 -51 -38t-20 -127h139q-2 88 -18.5 126.5t-49.5 38.5z"/>
<glyph horiz-adv-x="214" glyph-name="f" unicode="f" d="M139 20q0 -20 -20 -20h-41q-20 0 -20 20v439h-25q-20 0 -20 20v31q0 20 20 20h25v51q0 61 25 88.5t75 27.5q33 0 57 -7q16 -5 9 -26l-11 -28q-6 -16 -20 -13q-16 3 -26 3t-16 -3.5t-8.5 -14t-3 -20t-0.5 -30.5v-28h49q20 0 20 -20v-31q0 -20 -20 -20h-49v-439z"/>
<glyph horiz-adv-x="378" glyph-name="g" unicode="g" d="M164 -200q-77 0 -119 40t-42 93q1 39 21 69.5t56 42.5v2q-46 17 -46 63q0 59 71 72v2q-34 18 -55 60.5t-21 100.5q0 99 42.5 145.5t108.5 46.5q77 0 113 -53h2v38q0 18 15 21l27 4q19 4 27 -12l17 -38q9 -20 -9 -27q-31 -13 -60 -16q20 -43 20 -109q-1 -85 -45 -134.5 t-107 -49.5q-65 0 -65 -30q0 -29 45 -30l48 -2q155 -6 155 -141q0 -74 -53 -116t-146 -42zM180 223q33 0 51 33.5t18 88.5q1 130 -69 130q-68 0 -69 -130q0 -54 18 -88t51 -34zM175 -140q52 0 79.5 25.5t27.5 72.5q0 68 -84 71l-48 2q-8 0 -24 2q-48 -23 -48 -85 q0 -38 25.5 -63t71.5 -25z"/>
<glyph horiz-adv-x="376" glyph-name="h" unicode="h" d="M222 537q116 0 116 -185v-332q0 -20 -20 -20h-41q-20 0 -20 20v321q0 65 -15 95t-49 30q-35 0 -51.5 -37t-16.5 -82v-327q0 -20 -20 -20h-41q-20 0 -20 20v660q0 20 18 25l37 9q13 5 19.5 1.5t6.5 -19.5v-240h2q8 38 33 59.5t62 21.5z"/>
<glyph horiz-adv-x="172" glyph-name="i" unicode="i" d="M128 618q0 -21 -20 -21h-44q-20 0 -20 21v50q0 20 20 20h44q20 0 20 -20v-50zM126 20q0 -20 -20 -20h-40q-20 0 -20 20v490q0 20 20 20h40q20 0 20 -20v-490z"/>
<glyph horiz-adv-x="174" glyph-name="j" unicode="j" d="M131 618q0 -21 -21 -21h-43q-21 0 -21 21v50q0 20 21 20h43q21 0 21 -20v-50zM16 -148q-20 0 -20 21v31q0 19 20 19q23 0 27.5 12t4.5 65v510q0 20 20 20h41q20 0 20 -20v-545q0 -38 -9.5 -62.5t-28.5 -34.5t-34.5 -13t-40.5 -3z"/>
<glyph horiz-adv-x="347" glyph-name="k" unicode="k" d="M125 20q0 -20 -20 -20h-41q-20 0 -20 20v660q0 20 18 25l37 9q13 5 19.5 1.5t6.5 -19.5v-428l113 242q10 20 29 20h45q22 0 13 -20l-121 -244l135 -246q5 -9 2 -14.5t-13 -5.5h-47q-17 0 -29 20l-127 239v-239z"/>
<glyph horiz-adv-x="168" glyph-name="l" unicode="l" d="M105 0h-41q-20 0 -20 20v660q0 20 18 25l37 9q13 5 19.5 1.5t6.5 -19.5v-676q0 -20 -20 -20z"/>
<glyph horiz-adv-x="580" glyph-name="m" unicode="m" d="M427 537q60 0 86.5 -46.5t26.5 -138.5v-332q0 -20 -20 -20h-41q-20 0 -20 20v321q0 66 -14 95.5t-47 29.5t-49.5 -37.5t-16.5 -81.5v-327q0 -20 -20 -20h-41q-20 0 -20 20v321q0 66 -14 95.5t-47 29.5t-49 -37.5t-16 -81.5v-327q0 -20 -20 -20h-41q-20 0 -20 20v490 q0 20 20 20h41q20 0 20 -20v-52h2q8 37 32.5 58t59.5 21q78 0 99 -87h2q13 43 43 65t64 22z"/>
<glyph horiz-adv-x="376" glyph-name="n" unicode="n" d="M222 537q116 0 116 -185v-332q0 -20 -20 -20h-41q-20 0 -20 20v321q0 125 -66 125q-35 0 -50.5 -37t-15.5 -82v-327q0 -20 -20 -20h-41q-20 0 -20 20v490q0 20 20 20h41q20 0 20 -20v-54h2q8 38 33 59.5t62 21.5z"/>
<glyph horiz-adv-x="367" glyph-name="o" unicode="o" d="M184 -7q-155 0 -155 274q0 270 155 270t155 -270q0 -274 -155 -274zM184 65q38 0 55.5 46t17.5 156q0 108 -17.5 153t-55.5 45q-39 0 -56 -45t-17 -153q0 -110 17 -156t56 -46z"/>
<glyph horiz-adv-x="382" glyph-name="p" unicode="p" d="M198 65q36 0 54 43t18 158q0 116 -17 158t-56 42q-38 0 -54.5 -39.5t-16.5 -124.5v-64q0 -90 16 -131.5t56 -41.5zM221 -7q-74 0 -93 83h-2v-237q-1 -19 -20 -19h-41q-20 0 -20 20v670q0 20 20 20h41q20 0 20 -20v-54h2q19 81 94 81q64 0 97 -61t33 -210t-33.5 -211 t-97.5 -62z"/>
<glyph glyph-name="q" unicode="q" d="M160 -7q-64 0 -97.5 61.5t-33.5 211.5q0 149 33.5 210.5t97.5 61.5q75 0 93 -82h2v54q0 20 20 20h41q20 0 20 -20v-671q0 -20 -20 -20h-41q-20 0 -20 20v237h-2q-19 -83 -93 -83zM185 65q38 0 54 42t16 132v63q0 87 -16 126t-57 39q-37 0 -54 -43t-17 -158 q0 -117 17.5 -159t56.5 -42z"/>
<glyph horiz-adv-x="264" glyph-name="r" unicode="r" d="M122 20q0 -20 -20 -20h-41q-20 0 -20 20v490q0 20 20 20h41q20 0 20 -20v-65h2q19 92 83 92q25 0 46 -10q17 -8 9 -27l-13 -34q-4 -10 -9.5 -11.5t-16.5 1.5q-13 4 -28 4q-35 0 -54 -49.5t-19 -113.5v-277z"/>
<glyph horiz-adv-x="262" glyph-name="s" unicode="s" d="M124 -7q-47 0 -86 13q-17 6 -10 25l13 32q4 11 10 12.5t17 -2.5q29 -8 47 -8q23 0 35 17t12 39q0 27 -11.5 51.5t-40.5 63.5l-20 28q-23 31 -34 48t-22 47.5t-11 62.5q0 47 31 81t88 34q45 0 80 -12q17 -6 10 -25l-13 -30q-4 -11 -9 -12.5t-16 1.5q-20 6 -43 6 q-25 0 -36 -16t-11 -38q0 -20 11.5 -41.5t40.5 -63.5l20 -29q2 -4 10 -14.5t10.5 -14.5t9 -14t9 -14.5t8 -14t7.5 -16t5 -16t4.5 -17.5t2.5 -18t1 -20q0 -59 -35 -92t-84 -33z"/>
<glyph horiz-adv-x="238" glyph-name="t" unicode="t" d="M146 -9q-43 0 -65 24t-22 86v358h-36q-20 0 -20 20v31q0 20 20 20h36v51q0 19 17 24l39 11q25 6 25 -17v-69h48q20 0 20 -20v-31q0 -20 -20 -20h-48v-323q0 -32 3 -47.5t7.5 -19t13.5 -3.5q5 0 20 3q11 4 17.5 2t9.5 -12l11 -26q7 -21 -9 -28q-28 -14 -67 -14z"/>
<glyph glyph-name="u" unicode="u" d="M153 -7q-114 0 -114 185v332q0 20 20 20h41q20 0 20 -20v-323q0 -65 15.5 -93.5t47.5 -28.5q38 0 55 36.5t17 87.5v321q0 20 20 20h41q20 0 20 -20v-490q0 -20 -20 -20h-41q-19 0 -19 20v56h-2q-20 -83 -101 -83z"/>
<glyph horiz-adv-x="335" glyph-name="v" unicode="v" d="M207 0h-78q-17 0 -20 20l-97 490q-3 20 19 20h43q15 0 20 -20l65 -381l8 -79h2l8 79l65 381q3 20 20 20h43q23 0 18 -20l-96 -490q-5 -20 -20 -20z"/>
<glyph horiz-adv-x="486" glyph-name="w" unicode="w" d="M384 0h-80q-18 0 -20 20l-34 339l-6 119h-2l-7 -119l-36 -339q-2 -20 -20 -20h-80q-17 0 -20 20l-65 490q-3 20 18 20h37q18 0 20 -20l43 -391l5 -74h2l6 74l44 391q2 20 20 20h68q18 0 20 -20l41 -391l6 -74h2l6 74l45 391q3 20 20 20h37q22 0 19 -20l-69 -490 q-3 -20 -20 -20z"/>
<glyph horiz-adv-x="325" glyph-name="x" unicode="x" d="M293 0h-40q-16 0 -23 20l-55 152l-11 44h-2l-12 -44l-54 -152q-5 -11 -9.5 -15.5t-13.5 -4.5h-41q-11 0 -15.5 5.5t-1.5 14.5l93 250l-89 240q-8 20 17 20h40q16 0 23 -20l50 -141l13 -49h2l14 49l49 141q9 20 23 20h40q25 0 17 -20l-90 -241l93 -249q4 -9 -1 -14.5 t-16 -5.5z"/>
<glyph horiz-adv-x="336" glyph-name="y" unicode="y" d="M150 0h-21q-17 0 -20 20l-97 490q-3 20 19 20h43q17 0 20 -20l65 -371l8 -79h2l9 79l64 371q5 20 20 20h44q23 0 18 -20l-112 -562q-16 -81 -48 -107t-87 -26q-43 0 -72 13q-18 7 -10 26l12 30q6 17 23 10q25 -9 49 -9q26 1 40 15.5t24 65.5z"/>
<glyph horiz-adv-x="311" glyph-name="z" unicode="z" d="M267 0h-223q-20 0 -20 20v40l5 20l177 377v2h-162q-20 0 -20 20v31q0 20 20 20h223q20 0 20 -20v-40q0 -6 -0.5 -10.5t-1.5 -7.5l-1 -2l-178 -376v-2h161q20 0 20 -20v-32q0 -20 -20 -20z"/>
<glyph horiz-adv-x="237" glyph-name="braceleft" unicode="{" d="M217 -180q-70 0 -102 42t-32 149v80q0 87 -9.5 113.5t-40.5 26.5q-20 0 -20 20v29q0 20 20 20q31 0 40.5 26.5t9.5 113.5v80q0 107 32 148.5t102 41.5q20 0 20 -20v-37q0 -20 -20 -20q-36 0 -45.5 -25.5t-9.5 -97.5v-80q0 -147 -57 -164v-2q57 -16 57 -163v-81 q0 -72 9.5 -97.5t45.5 -25.5q20 0 20 -20v-37q0 -20 -20 -20z"/>
<glyph horiz-adv-x="139" glyph-name="bar" unicode="|" d="M102 -142q0 -18 -17 -18h-30q-18 0 -18 18v864q0 18 18 18h30q17 0 17 -18v-864z"/>
<glyph horiz-adv-x="237" glyph-name="braceright" unicode="}" d="M155 11q0 -107 -32 -149t-103 -42q-20 0 -20 20v37q0 20 20 20q36 0 45.5 25.5t9.5 97.5v81q0 147 57 163v2q-57 17 -57 164v80q0 72 -9.5 97.5t-45.5 25.5q-20 0 -20 20v37q0 20 20 20q71 0 103 -41.5t32 -148.5v-80q0 -87 9.5 -113.5t40.5 -26.5q20 0 20 -20v-29 q0 -20 -20 -20q-31 0 -40.5 -26.5t-9.5 -113.5v-80z"/>
<glyph horiz-adv-x="190" glyph-name="uni00A0" unicode=" "/>
<glyph horiz-adv-x="189" glyph-name="exclamdown" unicode="¡" d="M65 530h59q22 0 22 -21v-62q0 -21 -22 -21h-59q-22 0 -22 21v62q0 21 22 21zM84 363h21q18 0 20 -20l10 -254v-249q0 -20 -20 -20h-41q-20 0 -20 20v249l10 254q0 20 20 20z"/>
<glyph horiz-adv-x="292" glyph-name="cent" unicode="¢" d="M29 265q0 234 114 267v60q0 20 20 20h22q20 0 20 -20v-56q23 -1 56 -14q17 -7 8 -26l-11 -27q-4 -10 -10.5 -11.5t-17.5 1.5q-30 6 -47 6q-72 0 -72 -200q0 -199 72 -199q17 0 47 6q11 3 17.5 1t11.5 -13l11 -25q8 -18 -10 -26q-32 -14 -55 -15v-56q0 -20 -20 -20h-22 q-20 0 -20 20v60q-114 33 -114 267z"/>
<glyph horiz-adv-x="309" glyph-name="sterling" unicode="£" d="M247 0h-199q-20 0 -20 20v36q0 18 17 32q8 6 12.5 14.5t8.5 41t4 90.5v92h-27q-20 0 -20 20v31q0 20 20 20h27v179q0 67 30.5 103.5t84.5 36.5q37 0 67 -7q16 -4 9 -26l-12 -33q-3 -10 -7.5 -12t-11.5 0q-15 2 -37 2q-25 0 -33 -22t-8 -66v-155h95q20 0 20 -20v-31 q0 -20 -20 -20h-95v-87q0 -74 -6.5 -108.5t-28.5 -51.5v-2h160q10 0 13 -3.5t-2 -16.5l-11 -37q-5 -14 -9 -17t-21 -3z"/>
<glyph horiz-adv-x="392" glyph-name="yen" unicode="¥" d="M237 21q0 -20 -20 -20h-42q-20 0 -20 20v125h-93q-20 0 -20 20v32q0 20 20 20h93v28l-9 32h-84q-20 0 -20 20v31q0 20 20 20h61l-112 342q-6 20 17 20h44q17 0 23 -20l88 -291l13 -64h3l11 64l88 291q6 20 22 20h45q23 0 17 -20l-113 -342h62q20 0 20 -20v-31 q0 -20 -20 -20h-85l-9 -32v-28h94q20 0 20 -20v-32q0 -20 -20 -20h-94v-125z"/>
<glyph horiz-adv-x="294" glyph-name="dieresis" unicode="¨" d="M260 616q0 -18 -18 -18h-55q-18 0 -18 18v60q0 18 18 18h55q18 0 18 -18v-60zM125 616q0 -18 -18 -18h-55q-18 0 -18 18v60q0 18 18 18h55q18 0 18 -18v-60z"/>
<glyph horiz-adv-x="498" glyph-name="copyright" unicode="©" d="M249 241q-97 0 -167 69.5t-70 167.5t69.5 167.5t167.5 69.5t167.5 -69.5t69.5 -167.5t-69.5 -167.5t-167.5 -69.5zM249 284q80 0 136 57t56 137t-56 137t-136 57q-79 0 -135 -57t-56 -137t56 -137t135 -57zM252 327q-63 0 -106 43.5t-43 107.5t43 107.5t106 43.5 q33 0 70 -16q8 -5 4 -12l-11 -24q-3 -7 -12 -4q-32 8 -51 8q-35 0 -66.5 -26.5t-31.5 -76.5q0 -49 31.5 -76t66.5 -27q15 0 51 9q9 3 12 -5l11 -24q4 -8 -4 -11q-34 -17 -70 -17z"/>
<glyph horiz-adv-x="267" glyph-name="ordfeminine" unicode="ª" d="M124 377q23 0 37 26t14 60v45q-13 3 -31 3q-35 0 -48 -16t-13 -50q0 -68 41 -68zM110 323q-41 0 -66 30.5t-25 92.5q0 56 30.5 87.5t93.5 31.5q21 0 32 -2v29q0 65 -40 65q-29 0 -60 -9q-16 -3 -20 9l-9 24q-6 14 7 20q37 14 84 14q102 0 102 -125v-248q0 -14 -16 -14 h-33q-15 0 -15 14v29h-1q-23 -48 -64 -48z"/>
<glyph horiz-adv-x="376" glyph-name="guillemotleft" unicode="«" d="M296 26q-15 0 -21 4.5t-13 20.5l-88 202q-6 12 0 24l88 202q7 16 13 20.5t21 4.5h34q29 0 18 -27l-96 -211v-2l96 -211q11 -27 -18 -27h-34zM150 26q-15 0 -21 4.5t-13 20.5l-88 202q-6 12 0 24l88 202q7 16 13 20.5t21 4.5h34q29 0 18 -27l-96 -211v-2l96 -211 q11 -27 -18 -27h-34z"/>
<glyph horiz-adv-x="498" glyph-name="registered" unicode="®" d="M249 241q-97 0 -167 69.5t-70 167.5t69.5 167.5t167.5 69.5t167.5 -69.5t69.5 -167.5t-69.5 -167.5t-167.5 -69.5zM249 284q80 0 136 57t56 137t-56 137t-136 57q-79 0 -135 -57t-56 -137t56 -137t135 -57zM217 466h34q21 0 34.5 18t13.5 43q0 28 -13 45t-35 17h-34v-123 zM216 342q0 -8 -8 -8h-30q-9 0 -9 8v282q0 9 9 9h75q40 0 68 -26.5t28 -79.5q0 -71 -62 -97l56 -88q5 -8 -6 -8h-35q-7 0 -12 8l-53 85h-21v-85z"/>
<glyph horiz-adv-x="284" glyph-name="macron" unicode="¯" d="M48 611q-18 0 -18 18v33q0 18 18 18h188q18 0 18 -18v-33q0 -18 -18 -18h-188z"/>
<glyph horiz-adv-x="223" glyph-name="degree" unicode="°" d="M112 438q-95 0 -95 140q0 137 95 137t95 -137q0 -140 -95 -140zM112 494q17 0 25.5 18.5t8.5 65.5q0 82 -34 82q-18 0 -26 -18.5t-8 -63.5q0 -48 8 -66t26 -18z"/>
<glyph horiz-adv-x="398" glyph-name="plusminus" unicode="±" d="M238 186q0 -20 -20 -20h-39q-20 0 -20 20v111h-116q-20 0 -20 20v34q0 20 20 20h116v111q0 20 20 20h39q20 0 20 -20v-111h117q20 0 20 -20v-34q0 -20 -20 -20h-117v-111zM370 65q0 -20 -20 -20h-305q-20 0 -20 20v33q0 20 20 20h305q20 0 20 -20v-33z"/>
<glyph horiz-adv-x="202" glyph-name="acute" unicode="´" d="M33 594l29 103q5 20 22 20h69q21 0 10 -20l-62 -106q-11 -18 -29 -18h-26q-20 0 -13 21z"/>
<glyph horiz-adv-x="361" glyph-name="paragraph" unicode="¶" d="M218 20q0 -20 -20 -20h-12q-20 0 -20 20v185q-62 0 -98.5 55.5t-36.5 176.5t36.5 177t99.5 56h128q20 0 20 -20v-630q0 -20 -20 -20h-12q-20 0 -20 20v608h-45v-608z"/>
<glyph horiz-adv-x="204" glyph-name="cedilla" unicode="¸" d="M85 -176q-35 0 -51 9q-6 4 -3 10l11 26q3 7 11 4q10 -4 26 -4q15 0 24.5 10t9.5 24q0 35 -45 35h-17q-7 0 -7 7v26q0 7 4 12l41 38h51l-44 -40l1 -1q37 -2 57.5 -23t20.5 -54q0 -35 -24 -57t-66 -22z"/>
<glyph horiz-adv-x="265" glyph-name="ordmasculine" unicode="º" d="M133 323q-113 0 -113 198q0 194 113 194q51 0 81.5 -41.5t30.5 -152.5q0 -198 -112 -198zM133 384q22 0 33 29t11 108q0 77 -11 105.5t-33 28.5q-23 0 -34 -28.5t-11 -105.5q0 -79 11 -108t34 -29z"/>
<glyph horiz-adv-x="376" glyph-name="guillemotright" unicode="»" d="M349 253l-88 -202q-7 -16 -13.5 -20.5t-20.5 -4.5h-34q-29 0 -18 27l96 211v2l-96 211q-11 27 18 27h34q14 0 20.5 -4.5t13.5 -20.5l88 -202q5 -12 0 -24zM203 253l-88 -202q-7 -16 -13.5 -20.5t-20.5 -4.5h-34q-29 0 -18 27l96 211v2l-96 211q-11 27 18 27h34 q14 0 20.5 -4.5t13.5 -20.5l88 -202q5 -12 0 -24z"/>
<glyph horiz-adv-x="446" glyph-name="onequarter" unicode="¼" d="M109 344h-39q-15 0 -15 15v287h-38q-17 0 -9 17l16 35q4 8 7.5 10t11.5 2h67q14 0 14 -15v-336q0 -15 -15 -15zM137 23q-6 -22 -26 -22h-30q-21 0 -14 22l184 665q6 22 26 22h31q21 0 14 -22zM400 15q0 -15 -15 -15h-34q-15 0 -15 15v53h-111q-12 0 -12 16v25q0 10 4 25 l79 228q4 15 18 15h36q17 0 10 -20l-67 -193l-12 -37v-1h55v67q0 23 14 34l30 18q8 8 14 5t6 -16v-108h23q15 0 15 -15v-27q0 -16 -15 -16h-23v-53z"/>
<glyph horiz-adv-x="458" glyph-name="onehalf" unicode="½" d="M109 344h-39q-15 0 -15 15v287h-38q-17 0 -9 17l16 35q4 8 7.5 10t11.5 2h67q14 0 14 -15v-336q0 -15 -15 -15zM138 23q-6 -22 -26 -22h-31q-21 0 -14 22l184 665q6 22 26 22h31q21 0 14 -22zM438 15q0 -15 -15 -15h-155q-12 0 -12 15v35q0 17 11 30l37 45q63 78 63 134 q0 50 -44 50q-22 0 -37 -5q-15 -4 -19 10l-6 30q-4 12 9 18q27 10 62 10q50 0 77.5 -26.5t27.5 -74.5q0 -36 -15.5 -74.5t-27.5 -55t-34 -45.5l-26 -33v-1h89q15 0 15 -15v-32z"/>
<glyph horiz-adv-x="490" glyph-name="threequarters" unicode="¾" d="M182 23q-6 -22 -26 -22h-29q-21 0 -14 22l184 665q6 22 26 22h31q21 0 14 -22zM78 338q-37 0 -61 11q-13 6 -10 19l7 26q3 12 19 9q20 -6 41 -6q51 0 51 59q0 24 -15.5 40.5t-43.5 19.5l-12 2q-14 2 -14 14v19q0 11 6 19l64 81v1h-79q-15 0 -15 15v28q0 15 15 15h136 q14 0 14 -15v-31q0 -12 -10 -25l-59 -75v-1q36 -8 60.5 -36.5t24.5 -70.5q0 -55 -30.5 -86.5t-88.5 -31.5zM444 15q0 -15 -15 -15h-34q-15 0 -15 15v53h-111q-12 0 -12 16v25q0 10 4 25l79 228q4 15 18 15h36q17 0 10 -20l-67 -193l-12 -37v-1h55v67q0 23 14 34l30 18 q8 8 14 5t6 -16v-108h23q15 0 15 -15v-27q0 -16 -15 -16h-23v-53z"/>
<glyph horiz-adv-x="268" glyph-name="questiondown" unicode="¿" d="M203 530q21 0 21 -21v-65q0 -21 -21 -21h-61q-21 0 -21 21v65q0 21 21 21h61zM184 363q20 0 20 -20l1 -24q3 -114 -46 -183l-16 -24q-29 -41 -41.5 -70.5t-12.5 -66.5q0 -45 25 -65.5t60 -20.5q29 0 62 10q11 3 17 1.5t11 -11.5l12 -28q10 -20 -9 -28q-47 -18 -102 -18 q-71 0 -114.5 42t-43.5 116q0 38 12.5 74t23 52.5t39.5 58.5l18 26q38 56 42 149l1 10q2 20 20 20h21z"/>
<glyph horiz-adv-x="375" glyph-name="Agrave" unicode="À" d="M217 766q7 -21 -13 -21h-30q-16 0 -28 18l-67 94q-5 7 -2 13.5t13 6.5h69q16 0 24 -20zM129 199h118l-53 360l-5 73h-2l-5 -73zM118 121l-15 -101q-3 -20 -23 -20h-43q-20 0 -17 20l111 670q4 20 24 20h65q20 0 24 -20l112 -670q3 -20 -18 -20h-42q-19 0 -22 20l-15 101 h-141z"/>
<glyph horiz-adv-x="374" glyph-name="Aacute" unicode="Á" d="M161 766l34 91q8 20 23 20h70q10 0 13 -6.5t-2 -13.5l-68 -94q-11 -18 -28 -18h-29q-10 0 -13.5 6t0.5 15zM129 199h118l-53 360l-5 73h-2l-5 -73zM118 121l-16 -101q-3 -20 -23 -20h-42q-21 0 -18 20l112 670q4 20 23 20h66q19 0 23 -20l112 -670q3 -20 -17 -20h-43 q-18 0 -21 20l-16 101h-140z"/>
<glyph horiz-adv-x="374" glyph-name="Acircumflex" unicode="Â" d="M132 763q-18 -18 -31 -18h-17q-10 0 -13.5 5.5t2.5 15.5l61 94q12 16 26 16h55q14 0 26 -16l61 -94q6 -10 2 -15.5t-14 -5.5h-17q-13 0 -31 18l-54 53h-2zM129 199h118l-53 360l-5 73h-2l-5 -73zM118 121l-16 -101q-3 -20 -23 -20h-42q-21 0 -18 20l112 670q4 20 23 20 h66q19 0 23 -20l112 -670q3 -20 -17 -20h-43q-18 0 -21 20l-16 101h-140z"/>
<glyph horiz-adv-x="374" glyph-name="Atilde" unicode="Ã" d="M245 765q-23 0 -51 10l-41 16q-15 5 -25 5q-15 0 -22 -12q-5 -10 -9 -13t-13 -3h-17q-14 0 -11 20q11 73 72 73q21 0 50 -11l42 -15q18 -6 24 -6q15 0 22 13q5 10 9 13t13 3h17q15 0 12 -20q-11 -73 -72 -73zM128 199h118l-53 360l-5 73h-2l-5 -73zM117 121l-15 -101 q-3 -20 -23 -20h-43q-20 0 -17 20l111 670q4 20 24 20h65q20 0 24 -20l112 -670q3 -20 -18 -20h-42q-19 0 -22 20l-15 101h-141z"/>
<glyph horiz-adv-x="374" glyph-name="Adieresis" unicode="Ä" d="M303 781q0 -18 -18 -18h-56q-18 0 -18 18v61q0 18 18 18h56q18 0 18 -18v-61zM165 781q0 -18 -18 -18h-56q-18 0 -18 18v61q0 18 18 18h56q18 0 18 -18v-61zM129 197h118l-53 360l-5 73h-2l-5 -73zM118 119l-16 -101q-3 -20 -23 -20h-42q-21 0 -18 20l112 670q4 20 23 20 h66q19 0 23 -20l112 -670q3 -20 -17 -20h-43q-18 0 -21 20l-16 101h-140z"/>
<glyph horiz-adv-x="374" glyph-name="Aring" unicode="Å" d="M188 733q-38 0 -63.5 25t-25.5 62q0 38 25.5 63t63.5 25t63 -25t25 -63q0 -37 -25 -62t-63 -25zM188 782q15 0 25.5 11t10.5 27t-10.5 27.5t-25.5 11.5q-16 0 -26.5 -11.5t-10.5 -27.5t10.5 -27t26.5 -11zM129 199h118l-53 360l-5 73h-2l-5 -73zM118 121l-16 -101 q-3 -20 -23 -20h-42q-21 0 -18 20l112 670q4 20 23 20h66q19 0 23 -20l112 -670q3 -20 -17 -20h-43q-18 0 -21 20l-16 101h-140z"/>
<glyph horiz-adv-x="486" glyph-name="AE" unicode="Æ" d="M232 199v436h-2l-10 -70l-83 -366h95zM232 121h-113l-23 -101q-5 -20 -23 -20h-41q-22 0 -17 20l158 670q4 20 23 20h244q20 0 20 -20v-37q0 -20 -20 -20h-126v-253h118q13 0 16 -5t-1 -18l-8 -35q-3 -13 -7.5 -16t-22.5 -3h-95v-226h127q20 0 20 -20v-37q0 -20 -20 -20 h-189q-20 0 -20 20v101z"/>
<glyph horiz-adv-x="330" glyph-name="Ccedilla" unicode="Ç" d="M191 -176q-33 0 -51 10q-6 2 -3 10l11 26q3 7 11 4q12 -5 28 -5q14 0 23.5 10t9.5 24q0 34 -47 34h-16q-7 0 -7 7v27q0 7 4 12l20 18q-145 46 -145 355q0 186 51.5 272.5t141.5 86.5q42 0 76 -13q20 -6 10 -27l-12 -29q-6 -10 -11.5 -12t-16.5 1q-25 5 -46 5 q-111 0 -111 -284q0 -131 27.5 -209t83.5 -78q21 0 46 5q11 3 16.5 1.5t11.5 -12.5l12 -28q11 -22 -10 -28q-34 -13 -76 -13h-3l-14 -13v-1q36 -2 57 -23t21 -54q0 -35 -24.5 -57t-67.5 -22z"/>
<glyph horiz-adv-x="309" glyph-name="Egrave" unicode="È" d="M205 766q7 -21 -13 -21h-30q-16 0 -28 18l-67 94q-5 7 -2 13.5t13 6.5h69q16 0 24 -20zM130 382h119q13 0 15.5 -4t-0.5 -18l-8 -35q-4 -14 -8.5 -17t-21.5 -3h-96v-228h128q20 0 20 -20v-37q0 -20 -20 -20h-190q-20 0 -20 20v670q0 20 20 20h189q20 0 20 -20v-37 q0 -20 -20 -20h-127v-251z"/>
<glyph horiz-adv-x="309" glyph-name="Eacute" unicode="É" d="M119 766l34 91q8 20 23 20h70q10 0 13 -6.5t-2 -13.5l-68 -94q-11 -18 -28 -18h-29q-10 0 -13.5 6t0.5 15zM130 382h119q13 0 15.5 -4t-0.5 -18l-8 -35q-4 -14 -8.5 -17t-21.5 -3h-96v-228h128q20 0 20 -20v-37q0 -20 -20 -20h-190q-20 0 -20 20v670q0 20 20 20h189 q20 0 20 -20v-37q0 -20 -20 -20h-127v-251z"/>
<glyph horiz-adv-x="309" glyph-name="Ecircumflex" unicode="Ê" d="M107 763q-18 -18 -31 -18h-17q-10 0 -14 5.5t2 15.5l62 94q10 16 25 16h56q15 0 25 -16l61 -94q6 -10 2.5 -15.5t-13.5 -5.5h-17q-13 0 -31 18l-54 53h-2zM130 382h119q13 0 15.5 -4t-0.5 -18l-8 -35q-4 -14 -8.5 -17t-21.5 -3h-96v-228h128q20 0 20 -20v-37 q0 -20 -20 -20h-190q-20 0 -20 20v670q0 20 20 20h189q20 0 20 -20v-37q0 -20 -20 -20h-127v-251z"/>
<glyph horiz-adv-x="310" glyph-name="Edieresis" unicode="Ë" d="M277 783q0 -18 -18 -18h-56q-18 0 -18 18v61q0 18 18 18h56q18 0 18 -18v-61zM139 783q0 -18 -18 -18h-56q-18 0 -18 18v61q0 18 18 18h56q18 0 18 -18v-61zM130 382h119q13 0 15.5 -4t-0.5 -18l-8 -35q-4 -14 -8.5 -17t-21.5 -3h-96v-228h128q20 0 20 -20v-37 q0 -20 -20 -20h-190q-20 0 -20 20v670q0 20 20 20h189q20 0 20 -20v-37q0 -20 -20 -20h-127v-251z"/>
<glyph horiz-adv-x="180" glyph-name="Igrave" unicode="Ì" d="M120 766q4 -9 0.5 -15t-13.5 -6h-29q-18 0 -28 18l-68 94q-5 7 -2 13.5t13 6.5h70q15 0 23 -20zM130 20q0 -20 -20 -20h-42q-20 0 -20 20v670q0 20 20 20h42q20 0 20 -20v-670z"/>
<glyph horiz-adv-x="180" glyph-name="Iacute" unicode="Í" d="M61 766l34 91q8 20 24 20h69q10 0 13 -6.5t-2 -13.5l-67 -94q-12 -18 -28 -18h-30q-20 0 -13 21zM130 20q0 -20 -20 -20h-42q-20 0 -20 20v670q0 20 20 20h42q20 0 20 -20v-670z"/>
<glyph horiz-adv-x="180" glyph-name="Icircumflex" unicode="Î" d="M50 763q-12 -18 -31 -18h-17q-22 0 -12 21l47 94q9 17 26 17h55q18 0 26 -17l46 -94q10 -21 -12 -21h-17q-18 0 -31 18l-39 56h-2zM130 20q0 -20 -20 -20h-42q-20 0 -20 20v670q0 20 20 20h42q20 0 20 -20v-670z"/>
<glyph horiz-adv-x="180" glyph-name="Idieresis" unicode="Ï" d="M201 782q0 -18 -18 -18h-57q-18 0 -18 18v62q0 18 18 18h57q18 0 18 -18v-62zM73 782q0 -18 -18 -18h-57q-18 0 -18 18v62q0 18 18 18h57q18 0 18 -18v-62zM130 20q0 -20 -20 -20h-42q-20 0 -20 20v670q0 20 20 20h42q20 0 20 -20v-670z"/>
<glyph horiz-adv-x="396" glyph-name="Eth" unicode="Ð" d="M180 0h-112q-20 0 -20 20v298h-32q-20 0 -20 20v37q0 20 20 20h32v295q0 20 20 20h113q187 0 187 -353q0 -357 -188 -357zM130 77h51q51 0 77.5 61.5t26.5 218.5q0 276 -103 276h-52v-238h66q20 0 20 -20v-37q0 -20 -20 -20h-66v-241z"/>
<glyph horiz-adv-x="426" glyph-name="Ntilde" unicode="Ñ" d="M277 766q-23 0 -50 10l-42 16q-15 5 -24 5q-15 0 -22 -12q-5 -10 -9 -13t-13 -3h-18q-13 0 -11 20q6 36 23 54.5t49 18.5q20 0 51 -11l41 -15q18 -6 25 -6q15 0 22 13q5 10 9 13t13 3h17q14 0 12 -20q-13 -73 -73 -73zM130 20q0 -20 -20 -20h-42q-20 0 -20 20v670 q0 20 20 20h43q20 0 25 -20l143 -433l15 -73h2v506q0 20 20 20h42q20 0 20 -20v-670q0 -20 -20 -20h-43q-18 0 -25 20l-143 428l-15 81h-2v-509z"/>
<glyph horiz-adv-x="414" glyph-name="Ograve" unicode="Ò" d="M249 766q7 -21 -13 -21h-30q-16 0 -28 18l-67 94q-5 7 -2 13.5t13 6.5h69q16 0 24 -20zM207 -6q-178 0 -178 363q0 359 178 359q179 0 179 -359q0 -363 -179 -363zM207 70q96 0 96 287q0 283 -96 283q-95 0 -95 -283q0 -287 95 -287z"/>
<glyph horiz-adv-x="414" glyph-name="Oacute" unicode="Ó" d="M182 766l34 91q8 20 23 20h70q10 0 13 -6.5t-2 -13.5l-68 -94q-10 -18 -28 -18h-29q-10 0 -13.5 6t0.5 15zM207 -6q-178 0 -178 363q0 359 178 359q179 0 179 -359q0 -363 -179 -363zM207 70q96 0 96 287q0 283 -96 283q-95 0 -95 -283q0 -287 95 -287z"/>
<glyph horiz-adv-x="414" glyph-name="Ocircumflex" unicode="Ô" d="M152 763q-18 -18 -31 -18h-17q-10 0 -13.5 5.5t2.5 15.5l61 94q12 16 26 16h55q14 0 26 -16l61 -94q6 -10 2 -15.5t-14 -5.5h-17q-13 0 -31 18l-54 53h-2zM207 -6q-178 0 -178 363q0 359 178 359q179 0 179 -359q0 -363 -179 -363zM207 70q96 0 96 287q0 283 -96 283 q-95 0 -95 -283q0 -287 95 -287z"/>
<glyph horiz-adv-x="414" glyph-name="Otilde" unicode="Õ" d="M265 766q-23 0 -50 10l-42 16q-15 5 -24 5q-15 0 -22 -12q-5 -10 -9 -13t-13 -3h-18q-13 0 -11 20q6 36 23 54.5t49 18.5q20 0 51 -11l41 -15q18 -6 25 -6q15 0 22 13q5 10 9 13t13 3h17q14 0 12 -20q-13 -73 -73 -73zM207 -6q-178 0 -178 363q0 359 178 359 q179 0 179 -359q0 -363 -179 -363zM207 70q96 0 96 287q0 283 -96 283q-95 0 -95 -283q0 -287 95 -287z"/>
<glyph horiz-adv-x="414" glyph-name="Odieresis" unicode="Ö" d="M322 783q0 -18 -18 -18h-56q-18 0 -18 18v61q0 18 18 18h56q18 0 18 -18v-61zM184 783q0 -18 -18 -18h-56q-18 0 -18 18v61q0 18 18 18h56q18 0 18 -18v-61zM207 -6q-178 0 -178 363q0 359 178 359q179 0 179 -359q0 -363 -179 -363zM207 70q96 0 96 287q0 283 -96 283 q-95 0 -95 -283q0 -287 95 -287z"/>
<glyph horiz-adv-x="355" glyph-name="multiply" unicode="×" d="M306 119q-14 -16 -29 0l-98 99h-2l-98 -99q-14 -14 -29 0l-24 23q-14 14 0 28l99 99v2l-99 99q-13 13 0 28l24 23q14 15 29 0l98 -99h2l98 99q15 15 29 0l24 -23q14 -14 0 -28l-99 -99v-2l99 -99q13 -13 0 -28z"/>
<glyph horiz-adv-x="414" glyph-name="Oslash" unicode="Ø" d="M207 -6q-66 0 -108 53h-2l-7 -21q-5 -15 -10.5 -20.5t-15.5 -5.5h-25q-10 0 -14.5 7.5t0.5 18.5l25 55l14 25q-36 90 -36 251q0 359 179 359q68 0 109 -51h2l6 20q6 15 11.5 20t15.5 5h24q11 0 15 -7.5t0 -17.5l-26 -55l-13 -25q34 -89 34 -248q0 -363 -178 -363z M207 642q-96 0 -96 -285q0 -83 7 -133h2l12 35l130 291l14 26q-24 66 -69 66zM207 69q95 0 95 288q0 75 -6 128h-2l-12 -33l-130 -292l-15 -27q23 -64 70 -64z"/>
<glyph horiz-adv-x="404" glyph-name="Ugrave" unicode="Ù" d="M233 766q7 -21 -13 -21h-30q-16 0 -28 18l-67 94q-5 7 -2 13.5t13 6.5h69q16 0 24 -20zM202 72q50 0 65.5 38.5t15.5 143.5v436q0 20 20 20h42q20 0 20 -20v-455q0 -137 -40.5 -189t-122.5 -52q-85 0 -124 51.5t-39 189.5v455q0 20 20 20h42q20 0 20 -20v-436 q0 -104 16 -143t65 -39z"/>
<glyph horiz-adv-x="404" glyph-name="Uacute" unicode="Ú" d="M166 766l34 91q8 20 24 20h69q10 0 13 -6.5t-2 -13.5l-67 -94q-12 -18 -28 -18h-30q-20 0 -13 21zM202 72q50 0 65.5 38.5t15.5 143.5v436q0 20 20 20h42q20 0 20 -20v-455q0 -137 -40.5 -189t-122.5 -52q-85 0 -124 51.5t-39 189.5v455q0 20 20 20h42q20 0 20 -20v-436 q0 -104 16 -143t65 -39z"/>
<glyph horiz-adv-x="404" glyph-name="Ucircumflex" unicode="Û" d="M147 763q-18 -18 -31 -18h-17q-10 0 -13.5 5.5t2.5 15.5l61 94q12 16 26 16h55q14 0 26 -16l61 -94q6 -10 2 -15.5t-14 -5.5h-17q-13 0 -31 18l-54 53h-2zM202 72q50 0 65.5 38.5t15.5 143.5v436q0 20 20 20h42q20 0 20 -20v-455q0 -137 -40.5 -189t-122.5 -52 q-85 0 -124 51.5t-39 189.5v455q0 20 20 20h42q20 0 20 -20v-436q0 -104 16 -143t65 -39z"/>
<glyph horiz-adv-x="404" glyph-name="Udieresis" unicode="Ü" d="M317 783q0 -18 -18 -18h-56q-18 0 -18 18v61q0 18 18 18h56q18 0 18 -18v-61zM179 783q0 -18 -18 -18h-56q-18 0 -18 18v61q0 18 18 18h56q18 0 18 -18v-61zM202 72q50 0 65.5 38.5t15.5 143.5v436q0 20 20 20h42q20 0 20 -20v-455q0 -137 -40.5 -189t-122.5 -52 q-85 0 -124 51.5t-39 189.5v455q0 20 20 20h42q20 0 20 -20v-436q0 -104 16 -143t65 -39z"/>
<glyph horiz-adv-x="390" glyph-name="Yacute" unicode="Ý" d="M167 766l34 91q8 20 24 20h69q10 0 13 -6.5t-2 -13.5l-67 -94q-12 -18 -28 -18h-30q-20 0 -13 21zM215 0h-42q-20 0 -20 20v228l-143 442q-6 20 17 20h43q17 0 23 -20l88 -291l13 -63h3l11 63l89 291q6 20 21 20h45q23 0 17 -20l-145 -442v-228q0 -20 -20 -20z"/>
<glyph horiz-adv-x="363" glyph-name="Thorn" unicode="Þ" d="M130 124v-104q0 -20 -20 -20h-42q-20 0 -20 20v670q0 20 20 20h42q20 0 20 -20v-103h18q35 0 68.5 -13.5t63.5 -39.5t48.5 -73t18.5 -107q0 -110 -61.5 -170t-137.5 -60h-18zM130 198h12q52 0 87 43t35 113q0 74 -34.5 114.5t-87.5 40.5h-12v-311z"/>
<glyph horiz-adv-x="396" glyph-name="germandbls" unicode="ß" d="M193 697q60 0 97 -31t37 -96q0 -37 -15.5 -64.5t-31.5 -50.5t-16 -48q0 -33 45 -101l19 -29q3 -4 11 -16.5t11 -16.5t9.5 -15t9 -16.5t7.5 -15.5t7 -17t4.5 -17t3.5 -20t1 -21q0 -63 -33.5 -96t-84.5 -33q-44 0 -82 13q-17 6 -10 25l13 32q4 11 9.5 12.5t16.5 -2.5 q27 -8 44 -8q23 0 35 17t12 39q0 26 -11 48.5t-40 65.5l-19 29q-59 85 -59 141q0 42 31.5 88t31.5 77q0 56 -54 56q-31 0 -42.5 -16.5t-11.5 -56.5v-533q0 -20 -20 -20h-41q-20 0 -20 20v439h-26q-20 0 -20 20v31q0 20 20 20h26v46q0 121 136 121z"/>
<glyph horiz-adv-x="362" glyph-name="agrave" unicode="à" d="M224 594q5 -21 -13 -21h-26q-20 0 -29 18l-62 106q-11 20 10 20h68q16 0 23 -20zM164 58q33 0 56.5 39.5t23.5 85.5v76q-22 5 -52 5q-51 0 -72 -26.5t-21 -75.5q0 -47 17.5 -75.5t47.5 -28.5zM244 20v43h-2q-11 -31 -38.5 -50.5t-59.5 -19.5q-56 0 -90 42t-34 128 q0 78 42 121.5t128 43.5q33 0 54 -4v43q0 99 -65 99q-24 0 -84 -12q-11 -3 -17 -1t-10 12l-11 26q-10 19 9 27q47 19 116 19q75 0 108 -44t33 -128v-345q0 -20 -20 -20h-38q-21 0 -21 20z"/>
<glyph horiz-adv-x="362" glyph-name="aacute" unicode="á" d="M153 594l29 103q5 20 22 20h69q21 0 10 -20l-62 -106q-11 -18 -29 -18h-26q-20 0 -13 21zM164 58q33 0 56.5 39.5t23.5 85.5v76q-22 5 -52 5q-51 0 -72 -26.5t-21 -75.5q0 -47 17.5 -75.5t47.5 -28.5zM244 20v43h-2q-11 -31 -38.5 -50.5t-59.5 -19.5q-56 0 -90 42 t-34 128q0 78 42 121.5t128 43.5q33 0 54 -4v43q0 99 -65 99q-24 0 -84 -12q-11 -3 -17 -1t-10 12l-11 26q-10 19 9 27q47 19 116 19q75 0 108 -44t33 -128v-345q0 -20 -20 -20h-38q-21 0 -21 20z"/>
<glyph horiz-adv-x="362" glyph-name="acircumflex" unicode="â" d="M125 591q-18 -18 -32 -18h-15q-10 0 -13 6.5t2 14.5l60 99q10 16 25 16h56q15 0 25 -16l60 -99q5 -9 1.5 -15t-13.5 -6h-15q-15 0 -31 18l-54 57h-2zM164 58q33 0 56.5 39.5t23.5 85.5v76q-22 5 -52 5q-51 0 -72 -26.5t-21 -75.5q0 -47 17.5 -75.5t47.5 -28.5zM244 20v43 h-2q-11 -31 -38.5 -50.5t-59.5 -19.5q-56 0 -90 42t-34 128q0 78 42 121.5t128 43.5q33 0 54 -4v43q0 99 -65 99q-24 0 -84 -12q-11 -3 -17 -1t-10 12l-11 26q-10 19 9 27q47 19 116 19q75 0 108 -44t33 -128v-345q0 -20 -20 -20h-38q-21 0 -21 20z"/>
<glyph horiz-adv-x="362" glyph-name="atilde" unicode="ã" d="M239 594q-21 0 -50 11l-42 15q-18 6 -24 6q-15 0 -22 -13q-5 -10 -9 -13t-13 -3h-17q-14 0 -11 20q11 73 71 73q20 0 51 -11l41 -15q18 -6 25 -6q15 0 22 13q5 10 9 13t13 3h16q15 0 12 -20q-11 -73 -72 -73zM164 58q33 0 56.5 39.5t23.5 85.5v76q-22 5 -52 5 q-51 0 -72 -26.5t-21 -75.5q0 -47 17.5 -75.5t47.5 -28.5zM244 20v43h-2q-11 -31 -38.5 -50.5t-59.5 -19.5q-56 0 -90 42t-34 128q0 78 42 121.5t128 43.5q33 0 54 -4v43q0 99 -65 99q-24 0 -84 -12q-11 -3 -17 -1t-10 12l-11 26q-10 19 9 27q47 19 116 19q75 0 108 -44 t33 -128v-345q0 -20 -20 -20h-38q-21 0 -21 20z"/>
<glyph horiz-adv-x="362" glyph-name="adieresis" unicode="ä" d="M297 616q0 -18 -18 -18h-55q-18 0 -18 18v60q0 18 18 18h55q18 0 18 -18v-60zM162 616q0 -18 -18 -18h-55q-18 0 -18 18v60q0 18 18 18h55q18 0 18 -18v-60zM164 58q33 0 56.5 39.5t23.5 85.5v76q-22 5 -52 5q-51 0 -72 -26.5t-21 -75.5q0 -47 17.5 -75.5t47.5 -28.5z M244 20v43h-2q-11 -31 -38.5 -50.5t-59.5 -19.5q-56 0 -90 42t-34 128q0 78 42 121.5t128 43.5q33 0 54 -4v43q0 99 -65 99q-24 0 -84 -12q-11 -3 -17 -1t-10 12l-11 26q-10 19 9 27q47 19 116 19q75 0 108 -44t33 -128v-345q0 -20 -20 -20h-38q-21 0 -21 20z"/>
<glyph horiz-adv-x="362" glyph-name="aring" unicode="å" d="M191 568q-38 0 -63.5 24.5t-25.5 62.5t25.5 62.5t63.5 24.5t63 -24.5t25 -62.5t-25 -62.5t-63 -24.5zM191 614q16 0 27 12t11 29t-11 29t-27 12t-27.5 -12t-11.5 -29t11.5 -29t27.5 -12zM164 58q33 0 56.5 39.5t23.5 85.5v76q-22 5 -52 5q-51 0 -72 -26.5t-21 -75.5 q0 -47 17.5 -75.5t47.5 -28.5zM244 20v43h-2q-11 -31 -38.5 -50.5t-59.5 -19.5q-56 0 -90 42t-34 128q0 78 42 121.5t128 43.5q33 0 54 -4v43q0 99 -65 99q-24 0 -84 -12q-11 -3 -17 -1t-10 12l-11 26q-10 19 9 27q47 19 116 19q75 0 108 -44t33 -128v-345q0 -20 -20 -20 h-38q-21 0 -21 20z"/>
<glyph horiz-adv-x="571" glyph-name="ae" unicode="æ" d="M396 465q-34 0 -51 -38t-20 -127h139q-2 88 -18.5 126.5t-49.5 38.5zM404 -7q-89 0 -127 85h-2q-42 -85 -131 -85q-56 0 -90 42t-34 128q0 78 42 121.5t128 43.5q33 0 54 -4v43q0 99 -65 99q-24 0 -84 -12q-11 -3 -17 -1t-10 12l-11 26q-10 19 9 27q47 19 116 19 q79 0 111 -55h2q37 55 101 55q66 0 108 -62t42 -203v-18q0 -20 -20 -20h-201q2 -88 21 -128.5t64 -40.5q41 0 83 14q21 8 28 -10l11 -26q9 -21 -9 -28q-54 -22 -119 -22zM164 58q34 0 57 39t23 86v76q-22 5 -52 5q-51 0 -72 -26.5t-21 -75.5q0 -47 17.5 -75.5t47.5 -28.5z "/>
<glyph horiz-adv-x="290" glyph-name="ccedilla" unicode="ç" d="M167 -176q-35 0 -51 9q-6 4 -3 10l11 26q3 7 11 4q10 -4 26 -4q15 0 24.5 10t9.5 24q0 35 -45 35h-17q-7 0 -7 7v26q0 7 4 12l15 14q-116 33 -116 268q0 272 152 272q43 0 80 -15q17 -7 8 -26l-11 -27q-4 -10 -10.5 -11.5t-17.5 1.5q-30 6 -47 6q-72 0 -72 -200t72 -200 q12 0 47 7q11 3 17.5 1t11.5 -13l11 -25q8 -18 -10 -27q-35 -14 -69 -15l-13 -12l1 -1q37 -2 57.5 -23t20.5 -54q0 -35 -24 -57t-66 -22z"/>
<glyph horiz-adv-x="360" glyph-name="egrave" unicode="è" d="M219 594q7 -21 -13 -21h-26q-18 0 -29 18l-62 106q-11 20 10 20h69q17 0 22 -20zM190 -7q-161 0 -161 274q0 145 42.5 207.5t110.5 62.5q66 0 108 -62t42 -203v-18q0 -20 -20 -20h-201q2 -88 21 -128.5t64 -40.5q41 0 83 14q21 8 28 -10l11 -26q9 -21 -9 -28 q-54 -22 -119 -22zM182 465q-34 0 -51 -38t-20 -127h139q-2 88 -18.5 126.5t-49.5 38.5z"/>
<glyph horiz-adv-x="360" glyph-name="eacute" unicode="é" d="M156 594l29 103q5 20 22 20h69q21 0 10 -20l-62 -106q-10 -18 -29 -18h-26q-20 0 -13 21zM190 -7q-161 0 -161 274q0 145 42.5 207.5t110.5 62.5q66 0 108 -62t42 -203v-18q0 -20 -20 -20h-201q2 -88 21 -128.5t64 -40.5q41 0 83 14q21 8 28 -10l11 -26q9 -21 -9 -28 q-54 -22 -119 -22zM182 465q-34 0 -51 -38t-20 -127h139q-2 88 -18.5 126.5t-49.5 38.5z"/>
<glyph horiz-adv-x="360" glyph-name="ecircumflex" unicode="ê" d="M127 591q-16 -18 -31 -18h-15q-10 0 -13.5 6.5t1.5 14.5l60 99q12 16 26 16h55q16 0 26 -16l59 -99q6 -9 2.5 -15t-13.5 -6h-15q-14 0 -32 18l-54 57h-2zM190 -7q-161 0 -161 274q0 145 42.5 207.5t110.5 62.5q66 0 108 -62t42 -203v-18q0 -20 -20 -20h-201 q2 -88 21 -128.5t64 -40.5q41 0 83 14q21 8 28 -10l11 -26q9 -21 -9 -28q-54 -22 -119 -22zM182 465q-34 0 -51 -38t-20 -127h139q-2 88 -18.5 126.5t-49.5 38.5z"/>
<glyph horiz-adv-x="360" glyph-name="edieresis" unicode="ë" d="M299 616q0 -18 -18 -18h-55q-18 0 -18 18v60q0 18 18 18h55q18 0 18 -18v-60zM164 616q0 -18 -18 -18h-55q-18 0 -18 18v60q0 18 18 18h55q18 0 18 -18v-60zM190 -7q-161 0 -161 274q0 145 42.5 207.5t110.5 62.5q66 0 108 -62t42 -203v-18q0 -20 -20 -20h-201 q2 -88 21 -128.5t64 -40.5q41 0 83 14q21 8 28 -10l11 -26q9 -21 -9 -28q-54 -22 -119 -22zM182 465q-34 0 -51 -38t-20 -127h139q-2 88 -18.5 126.5t-49.5 38.5z"/>
<glyph horiz-adv-x="168" glyph-name="igrave" unicode="ì" d="M112 594q5 -21 -13 -21h-26q-20 0 -29 18l-63 106q-11 20 10 20h69q16 0 23 -20zM124 20q0 -20 -20 -20h-40q-20 0 -20 20v490q0 20 20 20h40q20 0 20 -20v-490z"/>
<glyph horiz-adv-x="168" glyph-name="iacute" unicode="í" d="M58 594l29 103q5 20 22 20h69q21 0 10 -20l-62 -106q-10 -18 -29 -18h-26q-20 0 -13 21zM124 20q0 -20 -20 -20h-40q-20 0 -20 20v490q0 20 20 20h40q20 0 20 -20v-490z"/>
<glyph horiz-adv-x="168" glyph-name="icircumflex" unicode="î" d="M44 591q-12 -18 -31 -18h-16q-21 0 -12 20l47 98q8 17 25 17h55q16 0 25 -17l46 -98q9 -20 -12 -20h-15q-18 0 -32 18l-39 60h-2zM124 20q0 -20 -20 -20h-40q-20 0 -20 20v490q0 20 20 20h40q20 0 20 -20v-490z"/>
<glyph horiz-adv-x="168" glyph-name="idieresis" unicode="ï" d="M185 616q0 -18 -18 -18h-47q-18 0 -18 18v60q0 18 18 18h47q18 0 18 -18v-60zM66 616q0 -18 -18 -18h-47q-19 0 -19 18v60q0 18 19 18h47q18 0 18 -18v-60zM124 20q0 -20 -20 -20h-40q-20 0 -20 20v490q0 20 20 20h40q20 0 20 -20v-490z"/>
<glyph horiz-adv-x="367" glyph-name="eth" unicode="ð" d="M184 -7q-155 0 -155 274q0 254 155 254q5 0 17 -2l1 1q-6 10 -17 28t-15 26l-79 -22q-19 -5 -25 15l-7 25q-6 19 14 25l24 6l30 7v2l-27 30q-17 18 3 33l22 17q17 13 30 0q31 -29 53 -58l73 20q20 6 25 -15l7 -25q6 -19 -14 -25l-22 -6l-26 -6l-1 -2q43 -67 66 -142.5 t23 -185.5q0 -274 -155 -274zM184 66q38 0 55.5 45.5t17.5 155.5q0 105 -17.5 149t-55.5 44q-39 0 -56 -44t-17 -149q0 -110 17 -155.5t56 -45.5z"/>
<glyph horiz-adv-x="376" glyph-name="ntilde" unicode="ñ" d="M222 537q116 0 116 -185v-332q0 -20 -20 -20h-41q-20 0 -20 20v321q0 125 -66 125q-35 0 -50.5 -37t-15.5 -82v-327q0 -20 -20 -20h-41q-20 0 -20 20v490q0 20 20 20h41q20 0 20 -20v-54h2q8 38 33 59.5t62 21.5z"/>
<glyph horiz-adv-x="367" glyph-name="ograve" unicode="ò" d="M217 594q7 -21 -13 -21h-26q-18 0 -29 18l-62 106q-11 20 10 20h69q17 0 22 -20zM184 -7q-155 0 -155 274q0 270 155 270t155 -270q0 -274 -155 -274zM184 65q38 0 55.5 46t17.5 156q0 108 -17.5 153t-55.5 45q-39 0 -56 -45t-17 -153q0 -110 17 -156t56 -46z"/>
<glyph horiz-adv-x="367" glyph-name="oacute" unicode="ó" d="M156 594l29 103q7 20 23 20h68q21 0 10 -20l-62 -106q-9 -18 -29 -18h-26q-18 0 -13 21zM184 -7q-155 0 -155 274q0 270 155 270t155 -270q0 -274 -155 -274zM184 65q38 0 55.5 46t17.5 156q0 108 -17.5 153t-55.5 45q-39 0 -56 -45t-17 -153q0 -110 17 -156t56 -46z"/>
<glyph horiz-adv-x="367" glyph-name="ocircumflex" unicode="ô" d="M129 591q-16 -18 -31 -18h-15q-10 0 -13.5 6.5t1.5 14.5l60 99q12 16 26 16h55q16 0 26 -16l59 -99q6 -9 2.5 -15t-13.5 -6h-15q-14 0 -32 18l-54 57h-2zM184 -7q-155 0 -155 274q0 270 155 270t155 -270q0 -274 -155 -274zM184 65q38 0 55.5 46t17.5 156 q0 108 -17.5 153t-55.5 45q-39 0 -56 -45t-17 -153q0 -110 17 -156t56 -46z"/>
<glyph horiz-adv-x="367" glyph-name="otilde" unicode="õ" d="M241 594q-21 0 -50 11l-42 15q-18 6 -24 6q-15 0 -22 -13q-5 -10 -9 -13t-13 -3h-17q-14 0 -11 20q11 73 71 73q20 0 51 -11l41 -15q18 -6 25 -6q15 0 22 13q5 10 9 13t13 3h16q15 0 12 -20q-11 -73 -72 -73zM184 -7q-155 0 -155 274q0 270 155 270t155 -270 q0 -274 -155 -274zM184 65q38 0 55.5 46t17.5 156q0 108 -17.5 153t-55.5 45q-39 0 -56 -45t-17 -153q0 -110 17 -156t56 -46z"/>
<glyph horiz-adv-x="367" glyph-name="odieresis" unicode="ö" d="M297 616q0 -18 -18 -18h-55q-18 0 -18 18v60q0 18 18 18h55q18 0 18 -18v-60zM162 616q0 -18 -18 -18h-55q-18 0 -18 18v60q0 18 18 18h55q18 0 18 -18v-60zM184 -7q-155 0 -155 274q0 270 155 270t155 -270q0 -274 -155 -274zM184 65q38 0 55.5 46t17.5 156 q0 108 -17.5 153t-55.5 45q-39 0 -56 -45t-17 -153q0 -110 17 -156t56 -46z"/>
<glyph horiz-adv-x="385" glyph-name="divide" unicode="÷" d="M163 390q-21 0 -21 22v62q0 21 21 21h58q22 0 22 -21v-62q0 -22 -22 -22h-58zM40 232q-20 0 -20 20v35q0 20 20 20h305q20 0 20 -20v-35q0 -20 -20 -20h-305zM163 45q-21 0 -21 22v62q0 21 21 21h58q22 0 22 -21v-62q0 -22 -22 -22h-58z"/>
<glyph horiz-adv-x="371" glyph-name="oslash" unicode="ø" d="M186 -7q-59 0 -97 46h-2l-9 -19q-9 -20 -26 -20h-24q-10 0 -14.5 6.5t0.5 15.5l33 57l9 14q-25 64 -25 174q0 270 155 270q62 0 97 -45h2l9 19q9 20 24 20h25q10 0 14.5 -6.5t-0.5 -15.5l-33 -59l-9 -11q26 -67 26 -172q0 -274 -155 -274zM186 465q-39 0 -56 -45 t-17 -153q0 -50 2 -71h2l7 18l110 195l8 9q-17 47 -56 47zM186 66q38 0 55.5 45.5t17.5 155.5q0 41 -3 69h-2l-7 -18l-109 -193l-9 -11q16 -48 57 -48z"/>
<glyph glyph-name="ugrave" unicode="ù" d="M222 594q7 -21 -13 -21h-26q-19 0 -29 18l-62 106q-11 20 10 20h69q17 0 22 -20zM153 -7q-114 0 -114 185v332q0 20 20 20h41q20 0 20 -20v-323q0 -65 15.5 -93.5t47.5 -28.5q38 0 55 36.5t17 87.5v321q0 20 20 20h41q20 0 20 -20v-490q0 -20 -20 -20h-41q-19 0 -19 20 v56h-2q-20 -83 -101 -83z"/>
<glyph glyph-name="uacute" unicode="ú" d="M156 594l29 103q7 20 23 20h68q21 0 10 -20l-62 -106q-9 -18 -29 -18h-26q-18 0 -13 21zM153 -7q-114 0 -114 185v332q0 20 20 20h41q20 0 20 -20v-323q0 -65 15.5 -93.5t47.5 -28.5q38 0 55 36.5t17 87.5v321q0 20 20 20h41q20 0 20 -20v-490q0 -20 -20 -20h-41 q-19 0 -19 20v56h-2q-20 -83 -101 -83z"/>
<glyph glyph-name="ucircumflex" unicode="û" d="M133 591q-18 -18 -32 -18h-15q-10 0 -13 6.5t2 14.5l60 99q10 16 25 16h56q15 0 25 -16l60 -99q5 -9 1.5 -15t-13.5 -6h-15q-15 0 -31 18l-54 57h-2zM153 -7q-114 0 -114 185v332q0 20 20 20h41q20 0 20 -20v-323q0 -65 15.5 -93.5t47.5 -28.5q38 0 55 36.5t17 87.5v321 q0 20 20 20h41q20 0 20 -20v-490q0 -20 -20 -20h-41q-19 0 -19 20v56h-2q-20 -83 -101 -83z"/>
<glyph glyph-name="udieresis" unicode="ü" d="M300 616q0 -18 -18 -18h-55q-18 0 -18 18v60q0 18 18 18h55q18 0 18 -18v-60zM165 616q0 -18 -18 -18h-55q-18 0 -18 18v60q0 18 18 18h55q18 0 18 -18v-60zM153 -7q-114 0 -114 185v332q0 20 20 20h41q20 0 20 -20v-323q0 -65 15.5 -93.5t47.5 -28.5q38 0 55 36.5 t17 87.5v321q0 20 20 20h41q20 0 20 -20v-490q0 -20 -20 -20h-41q-19 0 -19 20v56h-2q-20 -83 -101 -83z"/>
<glyph horiz-adv-x="336" glyph-name="yacute" unicode="ý" d="M139 594l29 103q5 20 22 20h69q21 0 10 -20l-62 -106q-11 -18 -29 -18h-26q-20 0 -13 21zM150 0h-21q-17 0 -20 20l-97 490q-3 20 19 20h43q17 0 20 -20l65 -371l8 -79h2l9 79l64 371q5 20 20 20h44q23 0 18 -20l-112 -562q-16 -81 -48 -107t-87 -26q-43 0 -72 13 q-18 7 -10 26l12 30q6 17 23 10q25 -9 49 -9q26 1 40 15.5t24 65.5z"/>
<glyph glyph-name="thorn" unicode="þ" d="M197 65q36 0 54 43t18 158q0 116 -17 158t-56 42q-38 0 -54.5 -39.5t-16.5 -124.5v-64q0 -90 16 -131.5t56 -41.5zM220 -7q-74 0 -93 83h-2v-236q0 -20 -20 -20h-41q-20 0 -20 20v840q0 20 18 25l37 9q13 5 19.5 1.5t6.5 -19.5v-240h1q19 81 95 81q64 0 97 -61t33 -210 t-33.5 -211t-97.5 -62z"/>
</font>
</defs>
</svg>
