<?xml version="1.0" encoding="UTF-8" standalone="no"?>
<!DOCTYPE svg  PUBLIC '-//W3C//DTD SVG 1.1//EN'  'http://www.w3.org/Graphics/SVG/1.1/DTD/svg11.dtd'>
<svg version="1.1" xmlns="http://www.w3.org/2000/svg">
<defs>
<font id="LFTZenoCondensed-Medium" horiz-adv-x="410">
<font-face panose-1="0 0 0 0 0 0 0 0 0 0" descent="-180" ascent="820" underline-thickness="0" cap-height="710" units-per-em="1000" font-family="LFT Zeno Condensed Medium" unicode-range="U+0020-00FE" font-weight="400" bbox="-34 -207 568 921" underline-position="0" x-height="530"/>
<missing-glyph/>
<glyph horiz-adv-x="190" unicode=" " glyph-name="space"/>
<glyph d="M82 172q-18 0 -20 20l-20 319v179q0 20 20 20h72q20 0 20 -20v-179l-20 -319q-2 -20 -20 -20h-32zM61 0q-20 0 -20 20v76q0 20 20 20h74q20 0 20 -20v-76q0 -20 -20 -20h-74z" horiz-adv-x="196" unicode="!" glyph-name="exclam"/>
<glyph d="M213 505q-4 -20 -23 -20h-20q-16 0 -16 20v185q0 20 20 20h55q22 0 19 -20zM88 505q-4 -20 -23 -20h-19q-16 0 -16 20v185q0 20 20 20h54q10 0 16 -5.5t4 -14.5z" horiz-adv-x="271" unicode='&quot;' glyph-name="quotedbl"/>
<glyph d="M276 286l33 138h-60l-33 -138h60zM250 180h-60l-38 -158q-5 -22 -26 -22h-58q-19 0 -14 22l38 158h-84q-10 0 -12 3.5t2 16.5l19 66q4 14 8.5 17t21.5 3h71l33 138h-73q-10 0 -12 3.5t2 16.5l19 66q4 14 8.5 17t21.5 3h60l38 158q5 22 26 22h58q19 0 14 -22l-38 -158h60 l38 158q5 22 26 22h58q19 0 14 -22l-38 -158h81q10 0 12 -3.5t-2 -16.5l-19 -66q-4 -14 -8.5 -17t-21.5 -3h-68l-33 -138h70q10 0 12 -3.5t-2 -16.5l-19 -66q-4 -14 -8.5 -17t-21.5 -3h-57l-38 -158q-5 -22 -26 -22h-58q-19 0 -14 22z" horiz-adv-x="522" unicode="#" glyph-name="numbersign"/>
<glyph d="M307 182q0 -67 -27.5 -115t-83.5 -65v-62q0 -20 -20 -20h-34q-20 0 -20 20v53q-52 2 -84 22q-18 10 -10 29l22 52q7 14 31 6t47 -8q32 0 50 22t18 62q0 55 -58 132l-35 46q-3 5 -15 20t-15 19.5t-12.5 18t-12 19.5t-9 18.5t-9 21.5t-5.5 22t-4 26.5t-1 28.5q0 51 26 94.5 t76 61.5v64q0 20 20 20h34q20 0 20 -20v-55q55 -4 83 -22q18 -10 10 -29l-22 -52q-6 -13 -31 -7q-33 9 -45 9q-30 0 -45 -18.5t-15 -42.5q0 -31 13.5 -57.5t50.5 -75.5l33 -44q29 -38 40 -54t25 -55.5t14 -84.5z" horiz-adv-x="329" unicode="$" glyph-name="dollar"/>
<glyph d="M119 338q-109 0 -109 190q0 187 109 187t109 -187q0 -190 -109 -190zM213 22q-6 -22 -26 -22h-48q-21 0 -14 22l184 666q6 22 26 22h48q21 0 14 -22zM119 416q18 0 23.5 22t5.5 90t-6 88.5t-23 20.5q-18 0 -24 -20t-6 -89q0 -68 5.5 -90t24.5 -22zM404 -5 q-109 0 -109 192q0 107 30.5 146t78.5 39t78 -40t30 -147q0 -190 -108 -190zM404 73q18 0 23.5 22t5.5 90t-6 88.5t-23 20.5q-18 0 -24 -20t-6 -89q0 -68 5.5 -90t24.5 -22z" horiz-adv-x="522" unicode="%" glyph-name="percent"/>
<glyph d="M207 -5q-76 0 -130.5 54.5t-54.5 168.5q0 122 76 170v2q-61 45 -61 149q0 85 41.5 130.5t118.5 45.5q67 0 118 -22q18 -8 9 -28l-19 -46q-4 -10 -10.5 -11.5t-17.5 1.5q-50 11 -69 11q-28 0 -45 -21.5t-17 -66.5q0 -37 12.5 -70.5t23.5 -41.5q10 -7 10 -16v-44 q0 -18 -19 -31q-39 -27 -39 -111q0 -64 17.5 -93t55.5 -29t55.5 29t17.5 93q0 83 -30 112h-13q-20 0 -20 18v56q0 20 20 20h154q20 0 20 -20v-54q0 -20 -20 -20h-29v-2q30 -41 30 -110q0 -114 -54 -168.5t-131 -54.5z" horiz-adv-x="426" unicode="&amp;" glyph-name="ampersand"/>
<glyph d="M89 505q-4 -20 -23 -20h-20q-16 0 -16 20v185q0 20 20 20h55q10 0 16 -5.5t4 -14.5z" horiz-adv-x="148" unicode="&apos;" glyph-name="quotesingle"/>
<glyph d="M186 -125q-59 33 -109 150t-50 272t50 272t109 150q3 2 5.5 2.5t4 0.5t4 -1.5t4 -2.5t5 -4t5.5 -5l31 -25q11 -10 4 -20q-1 -2 -16 -24t-23.5 -36t-23 -47.5t-23 -66.5t-15 -84.5t-6.5 -108.5t6.5 -108.5t15 -84.5t23 -66.5t23 -47.5t23.5 -36t16 -24q7 -10 -4 -20 l-31 -25q-2 -2 -5.5 -5t-5 -4t-4 -2.5t-4 -1.5t-4 0.5t-5.5 2.5z" horiz-adv-x="242" unicode="(" glyph-name="parenleft"/>
<glyph d="M215 297q0 -155 -50 -272t-109 -150q-3 -2 -5.5 -2.5t-4 -0.5t-4 1.5t-4 2.5t-5 4t-5.5 5l-31 25q-11 10 -4 20q1 2 16 24t23.5 36t23 47.5t23 66.5t15 84.5t6.5 108.5t-6.5 108.5t-15 84.5t-23 66.5t-23 47.5t-23.5 36t-16 24q-7 10 4 20l31 25q2 2 5.5 5t5 4t4 2.5 t4 1.5t4 -0.5t5.5 -2.5q59 -33 109 -150t50 -272z" horiz-adv-x="242" unicode=")" glyph-name="parenright"/>
<glyph d="M247 359q3 -18 -18 -18h-48q-19 0 -18 18l14 113l-3 2l-92 -69q-15 -10 -25 8l-23 40q-11 17 6 25l105 46v2l-105 46q-17 8 -6 25l23 40q10 18 25 8l92 -69l3 2l-14 113q-1 18 18 18h48q21 0 18 -18l-15 -113l3 -2l93 69q14 11 25 -7l23 -41q10 -18 -6 -25l-105 -46v-2 l105 -46q16 -7 6 -25l-23 -41q-11 -18 -25 -7l-93 69l-3 -2z" unicode="*" glyph-name="asterisk"/>
<glyph d="M40 225q-20 0 -20 20v63q0 20 20 20h111v126q0 20 20 20h72q20 0 20 -20v-126h111q20 0 20 -20v-63q0 -20 -20 -20h-111v-127q0 -20 -20 -20h-72q-20 0 -20 20v127h-111z" horiz-adv-x="414" unicode="+" glyph-name="plus"/>
<glyph d="M57 -115l20 115h-27q-20 0 -20 20v92q0 20 20 20h86q20 0 20 -20v-79q0 -14 -9 -43l-44 -105h-46z" horiz-adv-x="186" unicode="," glyph-name="comma"/>
<glyph d="M45 215q-20 0 -20 20v80q0 20 20 20h214q20 0 20 -20v-80q0 -20 -20 -20h-214z" horiz-adv-x="304" unicode="-" glyph-name="hyphen"/>
<glyph d="M50 0q-20 0 -20 20v92q0 20 20 20h86q20 0 20 -20v-92q0 -20 -20 -20h-86z" horiz-adv-x="186" unicode="." glyph-name="period"/>
<glyph d="M97 -30q-6 -22 -26 -22h-61q-21 0 -14 22l205 757q6 22 26 22h61q21 0 14 -22z" horiz-adv-x="298" unicode="/" glyph-name="slash"/>
<glyph d="M212 -5q-185 0 -185 362q0 358 185 358t185 -358q0 -362 -185 -362zM212 98q27 0 41.5 22t22 78.5t7.5 158.5q0 142 -17.5 198.5t-53.5 56.5q-38 0 -54.5 -55.5t-16.5 -199.5q0 -102 7.5 -158.5t22 -78.5t41.5 -22z" horiz-adv-x="424" unicode="0" glyph-name="zero"/>
<glyph d="M179 0h-74q-20 0 -20 20v584h-62q-19 0 -10 20l29 66q8 16 13 18q4 2 17 2h108q19 0 19 -20v-670q0 -20 -20 -20z" horiz-adv-x="245" unicode="1" glyph-name="one"/>
<glyph d="M297 0h-258q-19 0 -19 20v55q0 22 7 33l83 137q94 153 94 268q0 45 -17 72t-47 27q-27 0 -62 -8q-8 -2 -10 -2t-6.5 0.5t-6.5 3t-5 8.5l-23 53q-8 20 9 28q43 20 114 20q68 0 117.5 -51t49.5 -151q0 -132 -118 -324l-50 -81l-2 -2h150q20 0 20 -20v-66q0 -20 -20 -20z " horiz-adv-x="340" unicode="2" glyph-name="two"/>
<glyph d="M137 -5q-77 0 -113 27q-15 12 -9 28l23 53q7 16 21 12q3 -1 14.5 -5.5t27.5 -8t36 -3.5q42 0 67.5 37t25.5 91q0 128 -126 128h-10q-19 0 -19 20v50q0 17 7 27l113 151v2h-146q-20 0 -20 20v66q0 20 20 20h248q19 0 19 -20v-65q0 -24 -7 -33l-112 -148v-2 q70 -16 107.5 -72.5t37.5 -143.5q0 -104 -57 -167.5t-148 -63.5z" horiz-adv-x="357" unicode="3" glyph-name="three"/>
<glyph d="M320 20q0 -20 -20 -20h-71q-20 0 -20 20v121h-188q-16 0 -16 20v64q0 9 7 33l125 437q6 20 26 20h75q21 0 13 -27l-111 -388l-19 -52v-2h88v147q0 17 4 25t16 20l61 56q9 9 19.5 4.5t10.5 -20.5v-232h33q20 0 20 -20v-65q0 -20 -20 -20h-33v-121z" horiz-adv-x="378" unicode="4" glyph-name="four"/>
<glyph d="M132 -5q-39 0 -60.5 6t-52.5 21q-17 8 -9 28l23 53q7 16 21 12q3 -1 14.5 -5.5t27.5 -8t36 -3.5q43 0 67.5 35.5t24.5 92.5q0 70 -38 99t-125 29h-10q-20 0 -19 20l18 316q1 20 20 20h213q20 0 20 -20v-66q0 -20 -20 -20h-128l-11 -160v-2q95 -4 143.5 -62.5t48.5 -153.5 q0 -107 -56.5 -169t-147.5 -62z" horiz-adv-x="351" unicode="5" glyph-name="five"/>
<glyph d="M207 -5q-40 0 -70.5 15.5t-56 52t-39.5 105t-14 165.5q0 186 53.5 284t174.5 98q46 0 94 -17q17 -7 9 -28l-23 -53q-5 -10 -11 -11.5t-17 1.5q-30 5 -52 5q-51 0 -77.5 -43.5t-34.5 -132.5h2q30 30 85 30q65 0 111 -56.5t46 -172.5q0 -120 -50 -181t-130 -61zM207 98 q22 0 36 9t20 28.5t8 39.5t2 52q0 66 -14 101t-50 35q-42 0 -68 -44q1 -124 16 -172.5t50 -48.5z" horiz-adv-x="405" unicode="6" glyph-name="six"/>
<glyph d="M149 20q-6 -20 -28 -20h-78q-18 0 -12 20l180 582v2h-181q-20 0 -20 20v66q0 20 20 20h284q19 0 19 -20v-62q0 -17 -5 -32z" horiz-adv-x="341" unicode="7" glyph-name="seven"/>
<glyph d="M203 -5q-76 0 -130.5 54.5t-54.5 168.5q0 124 76 172v2q-57 37 -57 136q0 92 46 140t120 48q75 0 120 -47.5t45 -140.5q0 -47 -15.5 -83t-40.5 -53v-2q76 -44 76 -172q0 -114 -54 -168.5t-131 -54.5zM203 421q31 0 43 23t12 73q0 98 -55 98q-30 0 -42.5 -23t-12.5 -74 q0 -50 12 -73.5t43 -23.5zM203 96q75 0 75 122q0 59 -20 89.5t-55 30.5q-75 0 -75 -120q0 -122 75 -122z" horiz-adv-x="406" unicode="8" glyph-name="eight"/>
<glyph d="M198 612q-22 0 -36 -9t-20 -28.5t-8 -39.5t-2 -52q0 -66 14 -101t50 -35q42 0 68 44q-1 124 -16 172.5t-50 48.5zM198 715q40 0 70.5 -15.5t56 -52t39.5 -105t14 -165.5q0 -93 -10.5 -160t-35.5 -119t-70 -77.5t-110 -25.5q-46 0 -94 17q-17 7 -9 28l23 53q5 10 11 11.5 t17 -1.5q30 -5 52 -5q57 0 81 42t29 134h-2q-28 -30 -85 -30q-65 0 -111 56.5t-46 172.5q0 120 50 181t130 61z" horiz-adv-x="405" unicode="9" glyph-name="nine"/>
<glyph d="M55 310q-20 0 -20 20v92q0 20 20 20h86q20 0 20 -20v-92q0 -20 -20 -20h-86zM55 0q-20 0 -20 20v92q0 20 20 20h86q20 0 20 -20v-92q0 -20 -20 -20h-86z" horiz-adv-x="196" unicode=":" glyph-name="colon"/>
<glyph d="M55 310q-20 0 -20 20v92q0 20 20 20h86q20 0 20 -20v-92q0 -20 -20 -20h-86zM62 -115l20 115h-27q-20 0 -20 20v92q0 20 20 20h86q20 0 20 -20v-79q0 -14 -9 -43l-44 -105h-46z" horiz-adv-x="196" unicode=";" glyph-name="semicolon"/>
<glyph d="M267 35q-14 -14 -28 0l-216 215q-15 14 0 29l216 215q14 14 28 0l45 -45q14 -14 0 -28l-157 -155v-2l157 -156q14 -14 0 -28z" horiz-adv-x="335" unicode="&lt;" glyph-name="less"/>
<glyph d="M45 311q-20 0 -20 20v66q0 20 20 20h295q20 0 20 -20v-66q0 -20 -20 -20h-295zM45 131q-20 0 -20 20v66q0 20 20 20h295q20 0 20 -20v-66q0 -20 -20 -20h-295z" horiz-adv-x="385" unicode="=" glyph-name="equal"/>
<glyph d="M97 35q-14 -14 -28 0l-45 45q-14 14 0 28l157 156v2l-157 155q-14 14 0 28l45 45q14 14 28 0l216 -215q15 -15 0 -29z" horiz-adv-x="336" unicode="&gt;" glyph-name="greater"/>
<glyph d="M102 182q-18 0 -20 20l-2 27q-7 100 44 168l18 24q30 39 41.5 64t11.5 57q0 38 -22.5 55.5t-52.5 17.5q-18 0 -58 -8q-8 -2 -10 -2t-6.5 0.5t-6.5 3t-5 8.5l-22 50q-9 20 9 28q50 20 110 20q79 0 127 -43t48 -121q0 -53 -17.5 -92.5t-55.5 -88.5l-20 -26q-29 -37 -41 -63 t-16 -61l-2 -18q-2 -20 -20 -20h-32zM70 0q-20 0 -20 20v92q0 20 20 20h96q20 0 20 -20v-92q0 -20 -20 -20h-96z" horiz-adv-x="316" unicode="?" glyph-name="question"/>
<glyph d="M257 -94q-112 0 -174.5 93.5t-62.5 249.5v44q0 148 64.5 240.5t176.5 92.5q111 0 172 -86t61 -227v-24q0 -116 -35 -180t-94 -64q-32 0 -51 14t-18 41h-2q-13 -55 -74 -55q-109 0 -109 220q0 221 110 221q59 0 73 -54h1v28q0 20 20 20h55q16 0 16 -16v-331q0 -18 16 -18 q20 0 34 57t14 115v25q0 119 -48 193t-141 74q-94 0 -145.5 -80t-51.5 -206v-44q0 -134 49.5 -214.5t143.5 -80.5q16 0 30.5 1.5t27.5 5t22 6t20.5 8t15 7.5t14.5 8l11 7l25 -38q-66 -53 -166 -53zM253 120q26 0 34 25.5t8 94.5v52q0 71 -7.5 95t-38.5 24q-24 0 -35.5 -30.5 t-11.5 -115.5q0 -88 11 -116.5t40 -28.5z" horiz-adv-x="514" unicode="@" glyph-name="at"/>
<glyph d="M157 218h98l-43 321l-5 76h-2l-5 -76zM143 112l-12 -92q-3 -20 -23 -20h-75q-20 0 -17 20l111 670q4 20 23 20h109q19 0 23 -20l112 -670q3 -20 -17 -20h-75q-17 0 -20 20l-12 92h-127z" unicode="A" glyph-name="A"/>
<glyph d="M170 0h-104q-20 0 -20 20v670q0 20 20 20h104q74 0 134 -45.5t60 -134.5q0 -60 -29.5 -98t-71.5 -52v-2q50 -12 81.5 -61.5t31.5 -107.5q0 -105 -58.5 -157t-147.5 -52zM160 412h9q38 0 60.5 27.5t22.5 80.5q0 43 -23 68t-60 25h-9v-201zM160 316v-219h6q98 0 98 112 q0 46 -27.5 76.5t-67.5 30.5h-9z" horiz-adv-x="394" unicode="B" glyph-name="B"/>
<glyph d="M25 357q0 188 59 273t157 85q41 0 84 -17q17 -7 9 -28l-23 -53q-5 -10 -11 -11.5t-17 1.5q-25 5 -42 5q-104 0 -104 -255q0 -259 104 -259q17 0 42 5q8 2 10 2t6.5 -0.5t6.5 -3t5 -8.5l23 -53q8 -21 -9 -28q-43 -17 -84 -17q-97 0 -156.5 87.5t-59.5 274.5z" horiz-adv-x="352" unicode="C" glyph-name="C"/>
<glyph d="M398 357q0 -86 -12 -151t-31 -103.5t-46 -62t-53 -32t-56 -8.5h-134q-20 0 -20 20v670q0 20 20 20h135q197 0 197 -353zM284 357q0 247 -82 247h-42v-498h41q42 0 62.5 56.5t20.5 194.5z" horiz-adv-x="423" unicode="D" glyph-name="D"/>
<glyph d="M160 395h107q13 0 15.5 -4.5t-0.5 -18.5l-14 -63q-3 -14 -7.5 -17t-22.5 -3h-78v-183h113q20 0 20 -20v-66q0 -20 -20 -20h-207q-20 0 -20 20v670q0 20 20 20h205q20 0 20 -20v-66q0 -20 -20 -20h-111v-209z" horiz-adv-x="323" unicode="E" glyph-name="E"/>
<glyph d="M160 370h111q13 0 15.5 -5t-0.5 -18l-14 -63q-3 -14 -7.5 -17t-22.5 -3h-82v-244q0 -20 -20 -20h-74q-20 0 -20 20v670q0 20 20 20h207q20 0 20 -20v-66q0 -20 -20 -20h-113v-234z" horiz-adv-x="317" unicode="F" glyph-name="F"/>
<glyph d="M25 357q0 187 59.5 272.5t155.5 85.5q50 0 93 -17q17 -7 9 -28l-23 -53q-6 -13 -21 -12q-35 7 -58 7q-50 0 -76.5 -65t-26.5 -190q0 -259 101 -259q12 0 18 2v218q0 15 20 21l63 18q13 4 16.5 2t3.5 -12v-300q0 -16 -19 -29q-36 -23 -102 -23q-97 0 -155 87t-58 275z" horiz-adv-x="392" unicode="G" glyph-name="G"/>
<glyph d="M160 289v-269q0 -20 -20 -20h-74q-20 0 -20 20v670q0 20 20 20h74q20 0 20 -20v-295h130v295q0 20 20 20h74q20 0 20 -20v-670q0 -20 -20 -20h-74q-20 0 -20 20v269h-130z" horiz-adv-x="450" unicode="H" glyph-name="H"/>
<glyph d="M160 20q0 -20 -20 -20h-74q-20 0 -20 20v670q0 20 20 20h74q20 0 20 -20v-670z" horiz-adv-x="206" unicode="I" glyph-name="I"/>
<glyph d="M33 -5q-20 0 -20 20v66q0 20 20 20q42 0 54 24.5t12 113.5v451q0 20 20 20h74q20 0 20 -20v-483q0 -68 -11.5 -111t-36.5 -64.5t-55 -29t-77 -7.5z" horiz-adv-x="246" unicode="J" glyph-name="J"/>
<glyph d="M160 20q0 -20 -20 -20h-74q-20 0 -20 20v670q0 20 20 20h74q20 0 20 -20v-326l105 326q6 20 28 20h82q20 0 12 -20l-124 -340l129 -330q8 -20 -12 -20h-82q-20 0 -28 20l-110 304v-304z" horiz-adv-x="403" unicode="K" glyph-name="K"/>
<glyph d="M160 106h118q10 0 12 -3.5t-2 -16.5l-19 -66q-4 -14 -8.5 -17t-21.5 -3h-173q-20 0 -20 20v670q0 20 20 20h74q20 0 20 -20v-584z" horiz-adv-x="300" unicode="L" glyph-name="L"/>
<glyph d="M462 20q0 -20 -20 -20h-74q-20 0 -20 20v474h-2l-12 -84l-66 -239q-2 -10 -12 -10h-3q-10 0 -13 10l-65 239l-13 84h-2v-474q0 -20 -20 -20h-74q-20 0 -20 20v670q0 20 20 20h84q20 0 25 -20l70 -250l8 -54h2l8 54l70 250q5 20 25 20h84q20 0 20 -20v-670z" horiz-adv-x="508" unicode="M" glyph-name="M"/>
<glyph d="M160 20q0 -20 -20 -20h-74q-20 0 -20 20v670q0 20 20 20h74q20 0 25 -20l114 -365l15 -79h2v444q0 20 20 20h74q20 0 20 -20v-670q0 -20 -20 -20h-74q-18 0 -25 20l-114 357l-15 88h-2v-445z" horiz-adv-x="456" unicode="N" glyph-name="N"/>
<glyph d="M222 -7q-29 0 -55 8.5t-52.5 33t-46 63.5t-31.5 105.5t-12 153.5q0 107 17.5 182t48 111.5t62.5 51.5t69 15q30 0 55.5 -8.5t52.5 -32.5t46 -62.5t31 -104t12 -152.5t-12 -153.5t-31 -105.5t-46 -63.5t-52.5 -33t-55.5 -8.5zM222 96q42 0 62.5 58.5t20.5 202.5 q0 257 -83 257t-83 -257q0 -144 20.5 -202.5t62.5 -58.5z" horiz-adv-x="444" unicode="O" glyph-name="O"/>
<glyph d="M160 191v-171q0 -20 -20 -20h-74q-20 0 -20 20v670q0 20 20 20h104q84 0 144 -65.5t60 -197.5q0 -117 -58.5 -186.5t-129.5 -69.5h-26zM160 290h9q39 0 66 47t27 110q0 72 -25.5 114t-67.5 42h-9v-313z" horiz-adv-x="387" unicode="P" glyph-name="P"/>
<glyph d="M222 717q30 0 55.5 -8.5t52.5 -32.5t46 -62.5t31 -104t12 -152.5q0 -291 -130 -349v-2l51 -104q9 -20 -14 -20h-78q-17 0 -26 20l-45 99q-152 39 -152 356q0 107 17.5 182t48 111.5t62.5 51.5t69 15zM222 614q-83 0 -83 -257q0 -144 20.5 -201.5t62.5 -57.5t62.5 57.5 t20.5 201.5q0 257 -83 257z" horiz-adv-x="444" unicode="Q" glyph-name="Q"/>
<glyph d="M257 457q0 68 -24.5 107t-66.5 39h-6v-293h6q39 0 65 44t26 103zM371 457q0 -73 -26 -127.5t-69 -85.5l96 -224q9 -20 -12 -20h-82q-20 0 -28 20l-77 190l-13 34v-224q0 -20 -20 -20h-74q-20 0 -20 20v670q0 20 20 20h101q84 0 144 -63t60 -190z" horiz-adv-x="398" unicode="R" glyph-name="R"/>
<glyph d="M307 182q0 -84 -43.5 -136.5t-130.5 -52.5q-60 0 -95 22q-18 10 -10 29l22 52q7 14 31 6t47 -8q32 0 50 22t18 62q0 55 -58 132l-35 46q-3 5 -15 20t-15 19.5t-12.5 18t-12 19.5t-9 18.5t-9 21.5t-5.5 22t-4 26.5t-1 28.5q0 65 41 115t120 50q63 0 98 -22q18 -10 10 -29 l-22 -52q-6 -13 -31 -7q-33 9 -45 9q-30 0 -45 -18.5t-15 -42.5q0 -31 13.5 -57.5t50.5 -75.5l33 -44q29 -38 40 -54t25 -55.5t14 -84.5z" horiz-adv-x="327" unicode="S" glyph-name="S"/>
<glyph d="M116 604h-86q-20 0 -20 20v66q0 20 20 20h286q20 0 20 -20v-66q0 -20 -20 -20h-86v-584q0 -20 -20 -20h-74q-20 0 -20 20v584z" horiz-adv-x="346" unicode="T" glyph-name="T"/>
<glyph d="M216 96q41 0 53.5 33.5t12.5 129.5v431q0 20 20 20h74q20 0 20 -20v-443q0 -142 -44.5 -198t-135.5 -56t-135.5 56t-44.5 198v443q0 20 20 20h74q20 0 20 -20v-431q0 -96 12.5 -129.5t53.5 -33.5z" horiz-adv-x="432" unicode="U" glyph-name="U"/>
<glyph d="M271 0h-133q-20 0 -23 20l-99 670q-3 20 17 20h74q20 0 23 -20l65 -523l9 -105h2l8 105l66 523q3 20 21 20h76q20 0 17 -20l-100 -670q-3 -20 -23 -20z" unicode="V" glyph-name="V"/>
<glyph d="M487 0h-118q-20 0 -23 20l-45 396l-7 177h-2l-7 -177l-45 -396q-3 -20 -23 -20h-118q-22 0 -23 20l-57 670q-2 20 17 20h60q21 0 23 -20l35 -503l4 -115h2l10 115l53 503q2 20 21 20h98q19 0 21 -20l53 -503l10 -115h2l4 115l35 503q2 20 23 20h60q19 0 17 -20l-57 -670 q-1 -20 -23 -20z" horiz-adv-x="586" unicode="W" glyph-name="W"/>
<glyph d="M373 0h-80q-18 0 -23 20l-60 212l-8 40h-2l-8 -40l-60 -212q-5 -20 -23 -20h-80q-23 0 -17 20l106 333l-106 337q-6 20 17 20h80q18 0 23 -20l60 -216l7 -40h2l8 40l61 216q3 12 6.5 16t14.5 4h82q23 0 17 -20l-106 -336l106 -334q6 -20 -17 -20z" horiz-adv-x="402" unicode="X" glyph-name="X"/>
<glyph d="M242 0h-74q-20 0 -20 20v218l-142 452q-6 20 17 20h75q17 0 23 -20l75 -273l9 -59h3l7 59l76 273q6 20 21 20h75q10 0 16 -5.5t3 -14.5l-144 -452v-218q0 -20 -20 -20z" horiz-adv-x="412" unicode="Y" glyph-name="Y"/>
<glyph d="M317 0h-278q-19 0 -19 20v65q0 17 7 33l194 484v2h-174q-20 0 -20 20v66q0 20 20 20h276q19 0 19 -20v-62q0 -20 -5 -32l-193 -488v-2h173q20 0 20 -20v-66q0 -20 -20 -20z" horiz-adv-x="362" unicode="Z" glyph-name="Z"/>
<glyph d="M211 -147h-145q-19 0 -19 20v817q0 20 19 20h145q20 0 20 -20v-66q0 -20 -20 -20h-56v-645h56q20 0 20 -20v-66q0 -20 -20 -20z" horiz-adv-x="231" unicode="[" glyph-name="bracketleft"/>
<glyph d="M201 -30l-205 757q-7 22 14 22h61q20 0 26 -22l205 -757q7 -22 -14 -22h-61q-20 0 -26 22z" horiz-adv-x="299" unicode="\" glyph-name="backslash"/>
<glyph d="M165 -147h-145q-20 0 -20 20v66q0 20 20 20h56v645h-56q-20 0 -20 20v66q0 20 20 20h145q19 0 19 -20v-817q0 -20 -19 -20z" horiz-adv-x="231" unicode="]" glyph-name="bracketright"/>
<glyph d="M20 -180q-20 0 -20 20v66q0 20 20 20h382q20 0 20 -20v-66q0 -20 -20 -20h-382z" horiz-adv-x="422" unicode="_" glyph-name="underscore"/>
<glyph d="M197 596q8 -23 -12 -23h-44q-18 0 -30 17l-78 107q-5 7 -2.5 13.5t12.5 6.5h101q16 0 23 -20z" horiz-adv-x="229" unicode="`" glyph-name="grave"/>
<glyph d="M183 78q21 0 38.5 31t17.5 74v63q-18 4 -37 4q-46 0 -61.5 -23t-15.5 -65t17 -63t41 -21zM239 20v43h-2q-23 -70 -92 -70q-56 0 -92 43t-36 127q0 78 44 124t137 46q23 0 41 -3v24q0 88 -58 88q-24 0 -79 -11q-6 -1 -8 -1.5t-6 -0.5t-6 1t-4 4t-4 7l-19 46q-9 20 9 28 q55 22 128 22q76 0 115.5 -44t39.5 -126v-347q0 -20 -19 -20h-68q-21 0 -21 20z" horiz-adv-x="382" unicode="a" glyph-name="a"/>
<glyph d="M243 -7q-72 0 -89 79h-2v-52q0 -20 -20 -20h-72q-20 0 -20 20v656q0 19 20 25l62 16q12 5 21 2t9 -18v-243h2q16 79 90 79q135 0 135 -271q0 -273 -136 -273zM209 86q30 0 44 38t14 142q0 107 -13 142.5t-49 35.5q-32 0 -42.5 -31.5t-10.5 -115.5v-64q0 -87 9.5 -117 t47.5 -30z" horiz-adv-x="404" unicode="b" glyph-name="b"/>
<glyph d="M25 263q0 147 46.5 210.5t120.5 63.5q42 0 84 -17q18 -8 9 -28l-19 -46q-4 -10 -10.5 -11.5t-17.5 1.5q-30 6 -46 6q-28 0 -41.5 -39.5t-13.5 -139.5t13 -137.5t42 -37.5q16 0 46 6q11 3 17 1t11 -13l19 -44q9 -20 -9 -28q-42 -17 -84 -17q-74 0 -120.5 62.5t-46.5 207.5 z" horiz-adv-x="302" unicode="c" glyph-name="c"/>
<glyph d="M199 86q32 0 42.5 32t10.5 116v64q0 87 -9.5 117t-47.5 30q-30 0 -44 -38t-14 -142q0 -108 13 -143.5t49 -35.5zM160 -7q-135 0 -135 272q0 273 136 273q72 0 90 -79h1v217q0 19 20 25l62 16q12 5 21 2t9 -18v-681q0 -20 -20 -20h-72q-20 0 -20 20v52h-2q-17 -79 -90 -79 z" horiz-adv-x="404" unicode="d" glyph-name="d"/>
<glyph d="M204 -7q-86 0 -132.5 61.5t-46.5 212.5q0 145 47 207.5t122 62.5q72 0 118 -62.5t46 -207.5v-26q0 -20 -20 -20h-200q2 -79 17.5 -106.5t61.5 -27.5q43 0 81 14q21 7 28 -10l19 -46q9 -20 -9 -28q-55 -24 -132 -24zM194 442q-27 0 -40.5 -30.5t-15.5 -108.5h108 q-2 78 -14.5 108.5t-37.5 30.5z" horiz-adv-x="383" unicode="e" glyph-name="e"/>
<glyph d="M169 20q0 -20 -20 -20h-72q-20 0 -20 20v416h-27q-20 0 -20 20v54q0 20 20 20h27v48q0 64 31.5 96.5t87.5 32.5q45 0 72 -9q8 -3 10.5 -12t-1.5 -16l-19 -47q-4 -10 -8.5 -12t-11.5 0q-17 3 -27 3q-14 0 -18 -14.5t-4 -51.5v-18h45q20 0 20 -20v-54q0 -20 -20 -20h-45 v-416z" horiz-adv-x="244" unicode="f" glyph-name="f"/>
<glyph d="M177 -207q-82 0 -127.5 41t-44.5 93q2 83 84 108v2q-50 21 -50 68q0 62 69 81v2q-35 19 -57 61t-22 96q0 98 47.5 145t121.5 47q85 0 125 -53h2v40q0 21 17 23l28 5q12 3 18 0.5t12 -14.5l20 -46q4 -6 1.5 -16t-11.5 -13q-33 -14 -61 -18q18 -40 18 -100 q0 -85 -49 -134.5t-120 -49.5q-49 0 -49 -26q0 -24 29 -26l53 -2q166 -5 166 -150q0 -80 -60 -122t-160 -42zM198 237q27 0 41.5 29.5t14.5 78.5q2 116 -56 116q-54 0 -56 -116q0 -49 14.5 -78.5t41.5 -29.5zM193 -132q94 0 94 89q0 57 -66 60l-53 2q-9 0 -23 2 q-41 -22 -41 -74q0 -36 22.5 -57.5t66.5 -21.5z" horiz-adv-x="417" unicode="g" glyph-name="g"/>
<glyph d="M249 537q116 0 116 -190v-327q0 -20 -20 -20h-72q-20 0 -20 20v317q0 56 -11 81.5t-38 25.5q-52 0 -52 -97v-327q0 -20 -20 -20h-72q-20 0 -20 20v656q0 19 20 25l62 16q12 5 21 2t9 -18v-245h2q8 38 32.5 59.5t62.5 21.5z" horiz-adv-x="400" unicode="h" glyph-name="h"/>
<glyph d="M152 608q0 -20 -20 -20h-72q-20 0 -20 20v74q0 20 20 20h72q20 0 20 -20v-74zM152 20q0 -20 -20 -20h-72q-20 0 -20 20v490q0 20 20 20h72q20 0 20 -20v-490z" horiz-adv-x="192" unicode="i" glyph-name="i"/>
<glyph d="M159 608q0 -20 -20 -20h-72q-20 0 -20 20v74q0 20 20 20h72q20 0 20 -20v-74zM15 -159q-20 0 -20 21v54q0 19 20 19q24 0 28 8t4 57v510q0 20 20 20h72q20 0 20 -20v-540q0 -37 -10 -63t-22.5 -38.5t-35.5 -19t-37 -7.5t-39 -1z" horiz-adv-x="199" unicode="j" glyph-name="j"/>
<glyph d="M152 20q0 -20 -20 -20h-72q-20 0 -20 20v656q0 19 20 25l62 16q12 5 21 2t9 -18v-431l86 240q8 20 28 20h74q20 0 12 -20l-97 -246l112 -244q10 -20 -11 -20h-76q-19 0 -28 20l-100 238v-238z" horiz-adv-x="372" unicode="k" glyph-name="k"/>
<glyph d="M132 0h-72q-20 0 -20 20v656q0 19 20 25l62 16q12 5 21 2t9 -18v-681q0 -20 -20 -20z" horiz-adv-x="192" unicode="l" glyph-name="l"/>
<glyph d="M448 537q114 0 114 -190v-327q0 -20 -20 -20h-72q-20 0 -20 20v317q0 57 -10 82t-37 25q-46 0 -46 -97v-327q0 -20 -20 -20h-72q-20 0 -20 20v317q0 57 -10 82t-37 25q-46 0 -46 -97v-327q0 -20 -20 -20h-72q-20 0 -20 20v490q0 20 20 20h72q20 0 20 -20v-50h2 q18 77 89 77q75 0 99 -88h2q29 88 104 88z" horiz-adv-x="597" unicode="m" glyph-name="m"/>
<glyph d="M249 537q116 0 116 -190v-327q0 -20 -20 -20h-72q-20 0 -20 20v317q0 107 -53 107q-48 0 -48 -97v-327q0 -20 -20 -20h-72q-20 0 -20 20v490q0 20 20 20h72q20 0 20 -20v-54h2q18 81 95 81z" horiz-adv-x="400" unicode="n" glyph-name="n"/>
<glyph d="M194 -7q-169 0 -169 274q0 270 169 270t169 -270q0 -274 -169 -274zM194 88q31 0 44 38t13 141q0 100 -13 137.5t-44 37.5t-44 -37.5t-13 -137.5q0 -103 13 -141t44 -38z" horiz-adv-x="388" unicode="o" glyph-name="o"/>
<glyph d="M211 86q30 0 44 38t14 142q0 107 -13 142.5t-49 35.5q-32 0 -42.5 -31.5t-10.5 -115.5v-64q0 -87 9.5 -117t47.5 -30zM245 -7q-71 0 -89 79h-2v-232q0 -20 -20 -20h-72q-20 0 -20 20v670q0 20 20 20h72q20 0 20 -20v-52h2q17 79 90 79q135 0 135 -271q0 -273 -136 -273z " horiz-adv-x="408" unicode="p" glyph-name="p"/>
<glyph d="M160 -7q-135 0 -135 272q0 273 136 273q73 0 89 -79h2v51q0 20 20 20h72q20 0 20 -20v-671q0 -20 -20 -20h-72q-20 0 -20 20v233h-2q-9 -41 -30.5 -60t-59.5 -19zM199 86q32 0 42.5 32t10.5 116v64q0 87 -9.5 117t-47.5 30q-30 0 -44 -38t-14 -142q0 -108 13 -143.5 t49 -35.5z" horiz-adv-x="404" unicode="q" glyph-name="q"/>
<glyph d="M147 20q0 -20 -20 -20h-72q-20 0 -20 20v490q0 20 20 20h72q20 0 20 -20v-71h2q18 98 84 98q25 0 51 -12q16 -7 9 -28l-21 -57q-4 -11 -10 -12.5t-17 2.5q-13 4 -32 4q-66 0 -66 -127v-287z" horiz-adv-x="292" unicode="r" glyph-name="r"/>
<glyph d="M135 -7q-58 0 -110 19q-18 8 -9 28l20 48q4 11 10.5 12.5t17.5 -2.5q30 -10 53 -10q17 0 27.5 13t10.5 32q0 24 -10.5 45.5t-38.5 57.5l-14 18q-24 31 -35.5 48t-23.5 48.5t-12 65.5q0 49 33.5 85t96.5 36q55 0 97 -17q17 -7 9 -28l-19 -46q-4 -11 -9 -12.5t-16 1.5 q-23 7 -44 7q-39 0 -39 -41q0 -24 50 -92l14 -19q4 -5 15.5 -20t15 -20.5t12 -18.5t12 -21.5t8 -21.5t6 -26.5t1.5 -28.5q0 -40 -13.5 -69t-34.5 -43.5t-41.5 -21t-39.5 -6.5z" horiz-adv-x="277" unicode="s" glyph-name="s"/>
<glyph d="M165 -9q-55 0 -82 28.5t-27 103.5v313h-36q-20 0 -20 20v54q0 20 20 20h36v47q0 19 20 25l62 16q12 5 21 2t9 -18v-72h48q20 0 20 -20v-54q0 -20 -20 -20h-48v-263q0 -39 2.5 -58t6 -23t11.5 -4q3 0 21 3q11 4 17 2.5t10 -12.5l19 -46q9 -19 -9 -28q-35 -16 -81 -16z" horiz-adv-x="267" unicode="t" glyph-name="t"/>
<glyph d="M155 -7q-120 0 -120 191v326q0 20 20 20h72q20 0 20 -20v-316q0 -55 13.5 -81t44.5 -26q30 0 41.5 24.5t11.5 72.5v326q0 20 20 20h72q20 0 20 -20v-490q0 -20 -20 -20h-72q-20 0 -20 20v57h-2q-22 -84 -101 -84z" unicode="u" glyph-name="u"/>
<glyph d="M239 0h-118q-17 0 -20 20l-93 490q-3 20 20 20h73q17 0 20 -20l53 -368l5 -79h2l5 79l53 368q3 20 20 20h73q23 0 20 -20l-93 -490q-3 -20 -20 -20z" horiz-adv-x="360" unicode="v" glyph-name="v"/>
<glyph d="M430 0h-116q-18 0 -20 20l-25 262l-9 180h-2l-9 -180l-24 -262q-2 -20 -20 -20h-115q-17 0 -20 20l-60 490q-3 20 20 20h61q18 0 20 -20l31 -368l5 -89h2l5 89l40 368q2 20 20 20h91q18 0 20 -20l40 -368l5 -89h2l5 89l30 368q2 20 20 20h61q23 0 20 -20l-58 -490 q-3 -20 -20 -20z" horiz-adv-x="518" unicode="w" glyph-name="w"/>
<glyph d="M316 0h-69q-13 0 -20 20l-43 134l-9 42h-2l-9 -42l-42 -134q-7 -20 -20 -20h-69q-10 0 -16.5 5.5t-3.5 14.5l86 246l-86 244q-4 9 2.5 14.5t17.5 5.5h69q14 0 20 -20l42 -136l9 -45h2l11 45l41 136q7 20 20 20h69q11 0 17.5 -5.5t2.5 -14.5l-87 -246l87 -244 q3 -9 -3.5 -14.5t-16.5 -5.5z" horiz-adv-x="349" unicode="x" glyph-name="x"/>
<glyph d="M156 0h-34q-17 0 -20 20l-93 490q-3 20 20 20h74q17 0 20 -20l53 -348l5 -79h2l7 79l51 348q3 20 20 20h74q10 0 16 -5.5t4 -14.5l-106 -546q-17 -89 -48 -119t-95 -30q-60 0 -93 17q-18 9 -9 28l19 48q7 17 23 11q27 -10 55 -10q24 1 33.5 13.5t19.5 66.5z" horiz-adv-x="364" unicode="y" glyph-name="y"/>
<glyph d="M283 0h-240q-20 0 -20 20v64l5 20l169 330v2h-154q-20 0 -20 20v54q0 20 20 20h240q20 0 20 -20v-64q0 -6 -0.5 -10.5t-1.5 -7.5l-1 -2l-170 -330v-2h153q20 0 20 -20v-54q0 -20 -20 -20z" horiz-adv-x="326" unicode="z" glyph-name="z"/>
<glyph d="M244 -180q-89 0 -126.5 51.5t-37.5 179.5v13q0 98 -8 128t-42 30q-20 0 -20 20v46q0 20 20 20q34 0 42 30t8 128v13q0 128 37.5 179.5t126.5 51.5q20 0 20 -20v-66q0 -20 -20 -20q-37 0 -46 -26t-9 -112v-13q0 -154 -52 -187v-2q52 -32 52 -187v-13q0 -86 9 -112t46 -26 q20 0 20 -20v-66q0 -20 -20 -20z" horiz-adv-x="264" unicode="{" glyph-name="braceleft"/>
<glyph d="M110 -140q0 -20 -20 -20h-34q-20 0 -20 20v860q0 20 20 20h34q20 0 20 -20v-860z" horiz-adv-x="146" unicode="|" glyph-name="bar"/>
<glyph d="M184 51q0 -128 -37.5 -179.5t-126.5 -51.5q-20 0 -20 20v66q0 20 20 20q37 0 46 26t9 112v13q0 155 52 187v2q-52 33 -52 187v13q0 86 -9 112t-46 26q-20 0 -20 20v66q0 20 20 20q89 0 126.5 -51.5t37.5 -179.5v-13q0 -98 8 -128t42 -30q20 0 20 -20v-46q0 -20 -20 -20 q-34 0 -42 -30t-8 -128v-13z" horiz-adv-x="264" unicode="}" glyph-name="braceright"/>
<glyph horiz-adv-x="190" unicode=" " glyph-name="uni00A0"/>
<glyph d="M60 530h84q20 0 20 -20v-86q0 -20 -20 -20h-84q-20 0 -20 20v86q0 20 20 20zM86 348h32q18 0 20 -20l20 -309v-179q0 -20 -20 -20h-72q-20 0 -20 20v179l20 309q2 20 20 20z" horiz-adv-x="204" unicode="¡" glyph-name="exclamdown"/>
<glyph d="M25 263q0 228 119 267v62q0 20 20 20h34q20 0 20 -20v-56q25 -2 58 -16q18 -8 9 -28l-19 -46q-4 -10 -10.5 -11.5t-17.5 1.5q-30 6 -46 6q-28 0 -41.5 -39.5t-13.5 -139.5t13 -137.5t42 -37.5q16 0 46 6q11 3 17 1t11 -13l19 -44q9 -20 -9 -28q-33 -14 -58 -16v-56 q0 -20 -20 -20h-34q-20 0 -20 20v62q-119 37 -119 263z" horiz-adv-x="306" unicode="¢" glyph-name="cent"/>
<glyph d="M258 0h-213q-20 0 -20 20v65q0 18 17 32q8 6 12 15t7.5 41t3.5 90v50h-25q-20 0 -20 20v54q0 20 20 20h25v171q0 69 33 103t90 34q45 0 72 -9q16 -6 9 -28l-21 -57q-3 -10 -8 -12t-12 0q-16 3 -27 3q-14 0 -18 -14.5t-4 -51.5v-139h75q20 0 20 -20v-54q0 -20 -20 -20h-75 v-40q0 -67 -7.5 -107t-32.5 -58v-2h157q10 0 12 -3.5t-1 -16.5l-19 -66q-4 -14 -8.5 -17t-21.5 -3z" horiz-adv-x="325" unicode="£" glyph-name="sterling"/>
<glyph d="M267 20q0 -20 -20 -20h-74q-20 0 -20 20v119h-89q-20 0 -20 20v56q0 20 20 20h89v3l-18 57h-71q-20 0 -20 20v56q0 20 20 20h41l-94 299q-6 20 17 20h75q17 0 23 -20l75 -273l9 -59h3l7 59l76 273q6 20 21 20h75q10 0 16 -5.5t3 -14.5l-95 -299h43q20 0 20 -20v-56 q0 -20 -20 -20h-74l-18 -57v-3h92q20 0 20 -20v-56q0 -20 -20 -20h-92v-119z" horiz-adv-x="422" unicode="¥" glyph-name="yen"/>
<glyph d="M284 609q0 -18 -18 -18h-68q-18 0 -18 18v74q0 18 18 18h68q18 0 18 -18v-74zM134 609q0 -18 -18 -18h-68q-18 0 -18 18v74q0 18 18 18h68q18 0 18 -18v-74z" horiz-adv-x="314" unicode="¨" glyph-name="dieresis"/>
<glyph d="M249 241q-97 0 -167 69.5t-70 167.5t69.5 167.5t167.5 69.5t167.5 -69.5t69.5 -167.5t-69.5 -167.5t-167.5 -69.5zM249 285q79 0 135 56.5t56 136.5t-56 136.5t-135 56.5t-134.5 -56.5t-55.5 -136.5t55.5 -136.5t134.5 -56.5zM252 327q-63 0 -106 43.5t-43 107.5 t43 107.5t106 43.5q33 0 70 -16q8 -5 4 -12l-12 -25q-3 -7 -12 -4q-32 8 -50 8q-35 0 -65.5 -26t-30.5 -76q0 -49 30.5 -75.5t65.5 -26.5q14 0 50 9q9 3 12 -5l12 -25q4 -8 -4 -11q-34 -17 -70 -17z" horiz-adv-x="498" unicode="©" glyph-name="copyright"/>
<glyph d="M138 388q15 0 26.5 22t11.5 54v37q-12 2 -24 2q-54 0 -54 -58q0 -28 12 -42.5t28 -14.5zM111 323q-41 0 -67 30.5t-26 91.5q0 57 32 90t99 33q11 0 27 -2v17q0 29 -11 44t-28 15q-29 0 -57 -8q-16 -3 -20 8l-14 37q-5 15 7 20q42 16 92 16q55 0 83 -32t28 -91v-250 q0 -14 -16 -14h-50q-14 0 -14 14v29h-2q-21 -48 -63 -48z" horiz-adv-x="288" unicode="ª" glyph-name="ordfeminine"/>
<glyph d="M314 26q-17 0 -24.5 4t-13.5 21l-79 202q-5 12 0 24l79 202q6 17 13.5 21t24.5 4h57q31 0 20 -27l-88 -211v-2l88 -211q11 -27 -20 -27h-57zM144 26q-17 0 -24.5 4t-13.5 21l-79 202q-5 12 0 24l79 202q6 17 13.5 21t24.5 4h57q31 0 20 -27l-88 -211v-2l88 -211 q11 -27 -20 -27h-57z" horiz-adv-x="419" unicode="«" glyph-name="guillemotleft"/>
<glyph d="M249 241q-97 0 -167 69.5t-70 167.5t69.5 167.5t167.5 69.5t167.5 -69.5t69.5 -167.5t-69.5 -167.5t-167.5 -69.5zM249 285q79 0 135 56.5t56 136.5t-56 136.5t-135 56.5t-134.5 -56.5t-55.5 -136.5t55.5 -136.5t134.5 -56.5zM220 467h33q21 0 34.5 17.5t13.5 42.5 q0 28 -13 44.5t-35 16.5h-33v-121zM219 342q0 -8 -8 -8h-31q-9 0 -9 8v282q0 9 9 9h75q40 0 68 -26.5t28 -79.5q0 -71 -62 -97l56 -88q5 -8 -6 -8h-36q-7 0 -12 8l-53 85h-19v-85z" horiz-adv-x="498" unicode="®" glyph-name="registered"/>
<glyph d="M48 601q-18 0 -18 18v54q0 18 18 18h208q18 0 18 -18v-54q0 -18 -18 -18h-208z" horiz-adv-x="304" unicode="¯" glyph-name="macron"/>
<glyph d="M115 433q-102 0 -102 142q0 140 102 140t102 -140q0 -142 -102 -142zM115 497q16 0 23 16.5t7 61.5q0 43 -7 60t-23 17t-23 -17t-7 -60q0 -45 7 -61.5t23 -16.5z" horiz-adv-x="230" unicode="°" glyph-name="degree"/>
<glyph d="M267 192q0 -20 -20 -20h-70q-20 0 -20 20v94h-112q-20 0 -20 20v59q0 20 20 20h112v93q0 20 20 20h70q20 0 20 -20v-93h112q20 0 20 -20v-59q0 -20 -20 -20h-112v-94zM400 52q0 -20 -20 -20h-335q-20 0 -20 20v59q0 20 20 20h335q20 0 20 -20v-59z" horiz-adv-x="425" unicode="±" glyph-name="plusminus"/>
<glyph d="M32 596l30 101q7 20 23 20h101q10 0 12.5 -6.5t-2.5 -13.5l-78 -107q-12 -17 -30 -17h-44q-20 0 -12 23z" horiz-adv-x="229" unicode="´" glyph-name="acute"/>
<glyph d="M219 20q0 -20 -20 -20h-14q-20 0 -20 20v185q-62 0 -98.5 55.5t-36.5 176.5t36.5 177t99.5 56h131q20 0 20 -20v-630q0 -20 -20 -20h-14q-20 0 -20 20v608h-44v-608z" horiz-adv-x="363" unicode="¶" glyph-name="paragraph"/>
<glyph d="M86 -180q-37 0 -52 11q-6 4 -3 10l14 31q3 7 10 4q10 -4 21 -4q26 0 26 29q0 30 -48 30h-3q-7 0 -7 7v33q0 4 4 12l39 38h58l-39 -42v-2q34 -4 53 -24t19 -52q0 -37 -25.5 -59t-66.5 -22z" horiz-adv-x="204" unicode="¸" glyph-name="cedilla"/>
<glyph d="M143 323q-125 0 -125 197q0 195 125 195t125 -195q0 -197 -125 -197zM143 398q22 0 30.5 25.5t8.5 96.5q0 70 -8.5 95.5t-30.5 25.5t-30.5 -25.5t-8.5 -95.5q0 -71 8.5 -96.5t30.5 -25.5z" horiz-adv-x="286" unicode="º" glyph-name="ordmasculine"/>
<glyph d="M392 253l-79 -202q-6 -17 -13.5 -21t-24.5 -4h-57q-31 0 -20 27l88 211v2l-88 211q-11 27 20 27h57q17 0 24.5 -4t13.5 -21l79 -202q4 -12 0 -24zM222 253l-79 -202q-6 -17 -13.5 -21t-24.5 -4h-57q-31 0 -20 27l88 211v2l-88 211q-11 27 20 27h57q17 0 24.5 -4t13.5 -21 l79 -202q4 -12 0 -24z" horiz-adv-x="419" unicode="»" glyph-name="guillemotright"/>
<glyph d="M122 343h-68q-11 0 -11 10v277h-38q-14 0 -8 13l25 58q4 9 14 9h87q9 0 9 -10v-347q0 -10 -10 -10zM163 22q-6 -22 -26 -22h-47q-21 0 -14 22l184 666q6 22 26 22h50q21 0 14 -22zM449 10q0 -10 -10 -10h-59q-11 0 -11 10v53h-123q-8 0 -8 11v44q0 9 3 17l85 226 q4 11 14 11h62q12 0 7 -14l-78 -201l-8 -23v-1h46v52q0 18 11 24l54 29q15 9 15 -9v-96h23q10 0 10 -10v-49q0 -11 -10 -11h-23v-53z" horiz-adv-x="482" unicode="¼" glyph-name="onequarter"/>
<glyph d="M122 343h-68q-11 0 -11 10v277h-38q-14 0 -8 13l25 58q4 9 14 9h87q9 0 9 -10v-347q0 -10 -10 -10zM166 22q-6 -22 -26 -22h-50q-21 0 -14 22l184 666q6 22 26 22h50q21 0 14 -22zM468 10q0 -10 -11 -10h-171q-4 0 -4.5 1.5t-0.5 8.5v55q0 18 10 31l42 55q44 59 44 98 q0 42 -35 42q-9 0 -33 -4q-11 -3 -13 8l-10 53q-2 9 8 13q27 11 64 11q51 0 80.5 -24.5t29.5 -75.5q0 -74 -63 -155l-31 -40v-1h83q11 0 11 -10v-56z" horiz-adv-x="478" unicode="½" glyph-name="onehalf"/>
<glyph d="M190 22q-6 -22 -26 -22h-47q-21 0 -14 22l184 666q6 22 26 22h50q21 0 14 -22zM71 341q-43 0 -64 14q-6 6 -4 15l12 43q2 7 11 6q21 -6 37 -6q41 0 41 49q0 54 -60 54h-5q-10 0 -10 10v32q0 10 4 15l53 66v1h-63q-10 0 -10 10v49q0 11 10 11h143q10 0 10 -11v-44 q0 -11 -9 -22l-53 -65v-1q37 -7 58.5 -36t21.5 -69q0 -58 -34.5 -89.5t-88.5 -31.5zM473 10q0 -10 -10 -10h-59q-11 0 -11 10v53h-123q-8 0 -8 11v44q0 9 3 17l85 226q4 11 14 11h62q12 0 7 -14l-78 -201l-8 -23v-1h46v52q0 18 11 24l54 29q15 9 15 -9v-96h23q10 0 10 -10 v-49q0 -11 -10 -11h-23v-53z" horiz-adv-x="506" unicode="¾" glyph-name="threequarters"/>
<glyph d="M237 530q20 0 20 -20v-92q0 -20 -20 -20h-86q-20 0 -20 20v92q0 20 20 20h86zM210 348q18 0 20 -20l2 -27q7 -100 -44 -168l-18 -24q-30 -39 -41.5 -64t-11.5 -57q0 -38 22.5 -55.5t52.5 -17.5q18 0 58 8q8 2 10 2t6.5 -0.5t6.5 -3t5 -8.5l22 -50q9 -20 -9 -28 q-50 -20 -110 -20q-79 0 -127 43t-48 121q0 53 17.5 92.5t55.5 88.5l20 26q29 37 41 63t16 61l2 18q2 20 20 20h32z" horiz-adv-x="294" unicode="¿" glyph-name="questiondown"/>
<glyph d="M243 769q4 -9 0.5 -16t-12.5 -7h-49q-16 0 -30 17l-83 95q-6 8 -3 14t13 6h106q15 0 23 -20zM157 218h98l-43 321l-5 76h-2l-5 -76zM143 112l-12 -92q-3 -20 -23 -20h-75q-20 0 -17 20l111 670q4 20 23 20h109q19 0 23 -20l112 -670q3 -20 -17 -20h-75q-17 0 -20 20 l-12 92h-127z" unicode="À" glyph-name="Agrave"/>
<glyph d="M171 769l35 89q8 20 23 20h106q10 0 13 -6t-3 -14l-83 -95q-14 -17 -30 -17h-49q-9 0 -12.5 7t0.5 16zM157 218h98l-43 321l-5 76h-2l-5 -76zM143 112l-12 -92q-3 -20 -23 -20h-75q-20 0 -17 20l111 670q4 20 23 20h109q19 0 23 -20l112 -670q3 -20 -17 -20h-75 q-17 0 -20 20l-12 92h-127z" unicode="Á" glyph-name="Aacute"/>
<glyph d="M153 762q-17 -17 -31 -17h-26q-10 0 -14 6t2 17l56 91q11 17 18 19q3 1 6 1h82q2 0 4.5 -0.5t4 -1t3 -2l2.5 -2.5t2.5 -3t2.5 -3t2.5 -4t2.5 -4l56 -91q6 -11 2 -17t-14 -6h-26q-14 0 -31 17l-51 48h-2zM157 218h98l-43 321l-5 76h-2l-5 -76zM143 112l-12 -92 q-3 -20 -23 -20h-75q-20 0 -17 20l111 670q4 20 23 20h109q19 0 23 -20l112 -670q3 -20 -17 -20h-75q-17 0 -20 20l-12 92h-127z" unicode="Â" glyph-name="Acircumflex"/>
<glyph d="M265 758q-22 0 -47 9l-46 17q-18 6 -25 6q-12 0 -19 -12q-5 -10 -9 -13t-13 -3h-27q-13 0 -10 20q16 85 77 85q22 0 47 -9l46 -17q18 -6 25 -6q12 0 19 12q5 10 9 13t13 3h27q13 0 10 -20q-16 -85 -77 -85zM157 218h98l-43 321l-5 76h-2l-5 -76zM143 112l-12 -92 q-3 -20 -23 -20h-75q-20 0 -17 20l111 670q4 20 23 20h109q19 0 23 -20l112 -670q3 -20 -17 -20h-75q-17 0 -20 20l-12 92h-127z" unicode="Ã" glyph-name="Atilde"/>
<glyph d="M335 774q0 -18 -18 -18h-69q-18 0 -18 18v75q0 18 18 18h69q18 0 18 -18v-75zM181 774q0 -18 -18 -18h-69q-18 0 -18 18v75q0 18 18 18h69q18 0 18 -18v-75zM157 214h98l-43 321l-5 76h-2l-5 -76zM143 108l-12 -92q-3 -20 -23 -20h-75q-20 0 -17 20l111 670q4 20 23 20 h109q19 0 23 -20l112 -670q3 -20 -17 -20h-75q-17 0 -20 20l-12 92h-127z" unicode="Ä" glyph-name="Adieresis"/>
<glyph d="M205 729q-42 0 -69.5 27t-27.5 69t27.5 69t69.5 27t69.5 -27t27.5 -69t-27.5 -69t-69.5 -27zM205 786q16 0 26.5 11.5t10.5 27.5t-10.5 27.5t-26.5 11.5t-26.5 -11.5t-10.5 -27.5t10.5 -27.5t26.5 -11.5zM157 218h98l-43 321l-5 76h-2l-5 -76zM143 112l-12 -92 q-3 -20 -23 -20h-75q-20 0 -17 20l111 670q4 20 23 20h109q19 0 23 -20l112 -670q3 -20 -17 -20h-75q-17 0 -20 20l-12 92h-127z" unicode="Å" glyph-name="Aring"/>
<glyph d="M256 218v392h-2l-10 -66l-73 -326h85zM256 112h-109l-21 -92q-5 -20 -23 -20h-73q-22 0 -17 20l164 670q5 20 23 20h281q20 0 20 -20v-66q0 -20 -20 -20h-111v-214h107q13 0 15.5 -5t-0.5 -18l-14 -63q-3 -14 -7.5 -17t-22.5 -3h-78v-178h113q20 0 20 -20v-66 q0 -20 -20 -20h-207q-20 0 -20 20v92z" horiz-adv-x="530" unicode="Æ" glyph-name="AE"/>
<glyph d="M206 -180q-34 0 -51 12q-6 4 -3 10l14 31q3 7 10 4q12 -5 25 -5q11 0 18 8.5t7 20.5q0 30 -52 30h-3q-7 0 -7 7v33q0 4 4 12l21 19q-75 21 -119.5 108t-44.5 247q0 188 59 273t157 85q41 0 84 -17q17 -7 9 -28l-23 -53q-5 -10 -11 -11.5t-17 1.5q-25 5 -42 5 q-104 0 -104 -255q0 -259 104 -259q17 0 42 5q8 2 10 2t6.5 -0.5t6.5 -3t5 -8.5l23 -53q8 -21 -9 -28q-43 -17 -78 -17l-15 -16v-2q32 -4 51 -24.5t19 -51.5q0 -37 -26 -59t-70 -22z" horiz-adv-x="352" unicode="Ç" glyph-name="Ccedilla"/>
<glyph d="M220 769q4 -9 0.5 -16t-12.5 -7h-49q-16 0 -30 17l-83 95q-6 8 -3 14t13 6h106q15 0 23 -20zM160 395h107q13 0 15.5 -4.5t-0.5 -18.5l-14 -63q-3 -14 -7.5 -17t-22.5 -3h-78v-183h113q20 0 20 -20v-66q0 -20 -20 -20h-207q-20 0 -20 20v670q0 20 20 20h205q20 0 20 -20 v-66q0 -20 -20 -20h-111v-209z" horiz-adv-x="323" unicode="È" glyph-name="Egrave"/>
<glyph d="M112 769l35 89q8 20 23 20h106q10 0 13 -6t-3 -14l-83 -95q-14 -17 -30 -17h-49q-9 0 -12.5 7t0.5 16zM160 395h107q13 0 15.5 -4.5t-0.5 -18.5l-14 -63q-3 -14 -7.5 -17t-22.5 -3h-78v-183h113q20 0 20 -20v-66q0 -20 -20 -20h-207q-20 0 -20 20v670q0 20 20 20h205 q20 0 20 -20v-66q0 -20 -20 -20h-111v-209z" horiz-adv-x="323" unicode="É" glyph-name="Eacute"/>
<glyph d="M116 762q-17 -17 -31 -17h-26q-10 0 -14 6t2 17l56 91q11 17 18 19q3 1 6 1h82q2 0 4.5 -0.5t4 -1t3 -2l2.5 -2.5t2.5 -3t2.5 -3t2.5 -4t2.5 -4l56 -91q6 -11 2 -17t-14 -6h-26q-14 0 -31 17l-51 48h-2zM160 395h107q13 0 15.5 -4.5t-0.5 -18.5l-14 -63q-3 -14 -7.5 -17 t-22.5 -3h-78v-183h113q20 0 20 -20v-66q0 -20 -20 -20h-207q-20 0 -20 20v670q0 20 20 20h205q20 0 20 -20v-66q0 -20 -20 -20h-111v-209z" horiz-adv-x="323" unicode="Ê" glyph-name="Ecircumflex"/>
<glyph d="M293 778q0 -18 -18 -18h-69q-18 0 -18 18v75q0 18 18 18h69q18 0 18 -18v-75zM139 778q0 -18 -18 -18h-69q-18 0 -18 18v75q0 18 18 18h69q18 0 18 -18v-75zM160 395h107q13 0 15.5 -4.5t-0.5 -18.5l-14 -63q-3 -14 -7.5 -17t-22.5 -3h-78v-183h113q20 0 20 -20v-66 q0 -20 -20 -20h-207q-20 0 -20 20v670q0 20 20 20h205q20 0 20 -20v-66q0 -20 -20 -20h-111v-209z" horiz-adv-x="323" unicode="Ë" glyph-name="Edieresis"/>
<glyph d="M144 769q4 -9 0.5 -16t-12.5 -7h-49q-16 0 -30 17l-83 95q-6 8 -3 14t13 6h106q15 0 23 -20zM160 20q0 -20 -20 -20h-74q-20 0 -20 20v670q0 20 20 20h74q20 0 20 -20v-670z" horiz-adv-x="206" unicode="Ì" glyph-name="Igrave"/>
<glyph d="M66 769l35 89q8 20 23 20h106q10 0 13 -6t-3 -14l-83 -95q-14 -17 -30 -17h-49q-9 0 -12.5 7t0.5 16zM160 20q0 -20 -20 -20h-74q-20 0 -20 20v670q0 20 20 20h74q20 0 20 -20v-670z" horiz-adv-x="206" unicode="Í" glyph-name="Iacute"/>
<glyph d="M61 762q-13 -17 -31 -17h-26q-24 0 -12 23l46 91q10 20 24 20h82q14 0 24 -20l46 -91q12 -23 -12 -23h-26q-18 0 -31 17l-41 51h-2zM160 20q0 -20 -20 -20h-74q-20 0 -20 20v670q0 20 20 20h74q20 0 20 -20v-670z" horiz-adv-x="206" unicode="Î" glyph-name="Icircumflex"/>
<glyph d="M228 778q0 -18 -18 -18h-69q-18 0 -18 18v75q0 18 18 18h69q18 0 18 -18v-75zM84 778q0 -18 -18 -18h-69q-18 0 -18 18v75q0 18 18 18h69q18 0 18 -18v-75zM160 20q0 -20 -20 -20h-74q-20 0 -20 20v670q0 20 20 20h74q20 0 20 -20v-670z" horiz-adv-x="206" unicode="Ï" glyph-name="Idieresis"/>
<glyph d="M200 0h-134q-20 0 -20 20v284h-30q-20 0 -20 20v66q0 20 20 20h30v280q0 20 20 20h135q197 0 197 -353q0 -86 -12 -151t-31 -103.5t-46 -62t-53 -32t-56 -8.5zM160 106h41q42 0 62.5 56.5t20.5 194.5q0 247 -82 247h-42v-194h46q20 0 20 -20v-66q0 -20 -20 -20h-46v-198z " horiz-adv-x="423" unicode="Ð" glyph-name="Eth"/>
<glyph d="M292 760q-22 0 -47 9l-46 17q-18 6 -25 6q-12 0 -19 -12q-5 -10 -9 -13t-13 -3h-27q-13 0 -10 20q16 85 77 85q22 0 47 -9l46 -17q18 -6 25 -6q12 0 19 12q5 10 9 13t13 3h27q13 0 10 -20q-16 -85 -77 -85zM160 20q0 -20 -20 -20h-74q-20 0 -20 20v670q0 20 20 20h74 q20 0 25 -20l114 -365l15 -79h2v444q0 20 20 20h74q20 0 20 -20v-670q0 -20 -20 -20h-74q-18 0 -25 20l-114 357l-15 88h-2v-445z" horiz-adv-x="456" unicode="Ñ" glyph-name="Ntilde"/>
<glyph d="M277 769q4 -9 0.5 -16t-12.5 -7h-49q-16 0 -30 17l-83 95q-6 8 -3 14t13 6h106q15 0 23 -20zM222 -7q-29 0 -55 8.5t-52.5 33t-46 63.5t-31.5 105.5t-12 153.5q0 107 17.5 182t48 111.5t62.5 51.5t69 15q30 0 55.5 -8.5t52.5 -32.5t46 -62.5t31 -104t12 -152.5 t-12 -153.5t-31 -105.5t-46 -63.5t-52.5 -33t-55.5 -8.5zM222 96q42 0 62.5 58.5t20.5 202.5q0 257 -83 257t-83 -257q0 -144 20.5 -202.5t62.5 -58.5z" horiz-adv-x="444" unicode="Ò" glyph-name="Ograve"/>
<glyph d="M193 769l35 89q8 20 23 20h106q10 0 13 -6t-3 -14l-83 -95q-14 -17 -30 -17h-49q-9 0 -12.5 7t0.5 16zM222 -7q-29 0 -55 8.5t-52.5 33t-46 63.5t-31.5 105.5t-12 153.5q0 107 17.5 182t48 111.5t62.5 51.5t69 15q30 0 55.5 -8.5t52.5 -32.5t46 -62.5t31 -104t12 -152.5 t-12 -153.5t-31 -105.5t-46 -63.5t-52.5 -33t-55.5 -8.5zM222 96q42 0 62.5 58.5t20.5 202.5q0 257 -83 257t-83 -257q0 -144 20.5 -202.5t62.5 -58.5z" horiz-adv-x="444" unicode="Ó" glyph-name="Oacute"/>
<glyph d="M170 762q-17 -17 -31 -17h-26q-10 0 -14 6t2 17l56 91q11 17 18 19q3 1 6 1h82q2 0 4.5 -0.5t4 -1t3 -2l2.5 -2.5t2.5 -3t2.5 -3t2.5 -4t2.5 -4l56 -91q6 -11 2 -17t-14 -6h-26q-14 0 -31 17l-51 48h-2zM222 -7q-29 0 -55 8.5t-52.5 33t-46 63.5t-31.5 105.5t-12 153.5 q0 107 17.5 182t48 111.5t62.5 51.5t69 15q30 0 55.5 -8.5t52.5 -32.5t46 -62.5t31 -104t12 -152.5t-12 -153.5t-31 -105.5t-46 -63.5t-52.5 -33t-55.5 -8.5zM222 96q42 0 62.5 58.5t20.5 202.5q0 257 -83 257t-83 -257q0 -144 20.5 -202.5t62.5 -58.5z" horiz-adv-x="444" unicode="Ô" glyph-name="Ocircumflex"/>
<glyph d="M282 760q-22 0 -47 9l-46 17q-18 6 -25 6q-12 0 -19 -12q-5 -10 -9 -13t-13 -3h-27q-13 0 -10 20q16 85 77 85q22 0 47 -9l46 -17q18 -6 25 -6q12 0 19 12q5 10 9 13t13 3h27q13 0 10 -20q-16 -85 -77 -85zM222 -7q-29 0 -55 8.5t-52.5 33t-46 63.5t-31.5 105.5 t-12 153.5q0 107 17.5 182t48 111.5t62.5 51.5t69 15q30 0 55.5 -8.5t52.5 -32.5t46 -62.5t31 -104t12 -152.5t-12 -153.5t-31 -105.5t-46 -63.5t-52.5 -33t-55.5 -8.5zM222 96q42 0 62.5 58.5t20.5 202.5q0 257 -83 257t-83 -257q0 -144 20.5 -202.5t62.5 -58.5z" horiz-adv-x="444" unicode="Õ" glyph-name="Otilde"/>
<glyph d="M352 778q0 -18 -18 -18h-69q-18 0 -18 18v75q0 18 18 18h69q18 0 18 -18v-75zM198 778q0 -18 -18 -18h-69q-18 0 -18 18v75q0 18 18 18h69q18 0 18 -18v-75zM222 -7q-29 0 -55 8.5t-52.5 33t-46 63.5t-31.5 105.5t-12 153.5q0 107 17.5 182t48 111.5t62.5 51.5t69 15 q30 0 55.5 -8.5t52.5 -32.5t46 -62.5t31 -104t12 -152.5t-12 -153.5t-31 -105.5t-46 -63.5t-52.5 -33t-55.5 -8.5zM222 96q42 0 62.5 58.5t20.5 202.5q0 257 -83 257t-83 -257q0 -144 20.5 -202.5t62.5 -58.5z" horiz-adv-x="444" unicode="Ö" glyph-name="Odieresis"/>
<glyph d="M304 103q-15 -14 -29 0l-89 91h-2l-90 -91q-14 -14 -29 0l-41 41q-14 14 0 28l91 90v2l-91 90q-14 14 0 28l41 41q15 14 29 0l90 -90h2l89 90q14 14 29 0l41 -41q14 -14 0 -28l-91 -90v-2l91 -90q14 -14 0 -28z" horiz-adv-x="369" unicode="×" glyph-name="multiply"/>
<glyph d="M222 -7q-68 0 -114 49h-2l-7 -20q-7 -22 -26 -22h-38q-10 0 -14 6.5t0 15.5l30 61l14 24q-40 92 -40 250q0 107 17.5 182t48 111.5t62.5 51.5t69 15q71 0 116 -49h2l7 20q7 22 26 22h38q10 0 14 -6.5t0 -15.5l-30 -61l-14 -25q38 -91 38 -245q0 -87 -12 -153.5 t-31 -105.5t-46 -63.5t-52.5 -33t-55.5 -8.5zM222 614q-83 0 -83 -257q0 -65 2 -92h2l15 38l111 224l14 25q-20 62 -61 62zM222 96q42 0 62.5 58.5t20.5 202.5q0 59 -2 84h-2l-13 -34l-111 -224l-17 -30q19 -57 62 -57z" horiz-adv-x="446" unicode="Ø" glyph-name="Oslash"/>
<glyph d="M253 769q4 -9 0.5 -16t-12.5 -7h-49q-16 0 -30 17l-83 95q-6 8 -3 14t13 6h106q15 0 23 -20zM216 96q41 0 53.5 33.5t12.5 129.5v431q0 20 20 20h74q20 0 20 -20v-443q0 -142 -44.5 -198t-135.5 -56t-135.5 56t-44.5 198v443q0 20 20 20h74q20 0 20 -20v-431 q0 -96 12.5 -129.5t53.5 -33.5z" horiz-adv-x="432" unicode="Ù" glyph-name="Ugrave"/>
<glyph d="M175 769l35 89q8 20 23 20h106q10 0 13 -6t-3 -14l-83 -95q-14 -17 -30 -17h-49q-9 0 -12.5 7t0.5 16zM216 96q41 0 53.5 33.5t12.5 129.5v431q0 20 20 20h74q20 0 20 -20v-443q0 -142 -44.5 -198t-135.5 -56t-135.5 56t-44.5 198v443q0 20 20 20h74q20 0 20 -20v-431 q0 -96 12.5 -129.5t53.5 -33.5z" horiz-adv-x="432" unicode="Ú" glyph-name="Uacute"/>
<glyph d="M164 762q-17 -17 -31 -17h-26q-10 0 -14 6t2 17l56 91q11 17 18 19q3 1 6 1h82q2 0 4.5 -0.5t4 -1t3 -2l2.5 -2.5t2.5 -3t2.5 -3t2.5 -4t2.5 -4l56 -91q6 -11 2 -17t-14 -6h-26q-14 0 -31 17l-51 48h-2zM216 96q41 0 53.5 33.5t12.5 129.5v431q0 20 20 20h74q20 0 20 -20 v-443q0 -142 -44.5 -198t-135.5 -56t-135.5 56t-44.5 198v443q0 20 20 20h74q20 0 20 -20v-431q0 -96 12.5 -129.5t53.5 -33.5z" horiz-adv-x="432" unicode="Û" glyph-name="Ucircumflex"/>
<glyph d="M346 778q0 -18 -18 -18h-69q-18 0 -18 18v75q0 18 18 18h69q18 0 18 -18v-75zM192 778q0 -18 -18 -18h-69q-18 0 -18 18v75q0 18 18 18h69q18 0 18 -18v-75zM216 96q41 0 53.5 33.5t12.5 129.5v431q0 20 20 20h74q20 0 20 -20v-443q0 -142 -44.5 -198t-135.5 -56 t-135.5 56t-44.5 198v443q0 20 20 20h74q20 0 20 -20v-431q0 -96 12.5 -129.5t53.5 -33.5z" horiz-adv-x="432" unicode="Ü" glyph-name="Udieresis"/>
<glyph d="M171 769l35 89q8 20 23 20h106q10 0 13 -6t-3 -14l-83 -95q-14 -17 -30 -17h-49q-9 0 -12.5 7t0.5 16zM242 0h-74q-20 0 -20 20v218l-142 452q-6 20 17 20h75q17 0 23 -20l75 -273l9 -59h3l7 59l76 273q6 20 21 20h75q10 0 16 -5.5t3 -14.5l-144 -452v-218q0 -20 -20 -20 z" horiz-adv-x="412" unicode="Ý" glyph-name="Yacute"/>
<glyph d="M160 116v-96q0 -20 -20 -20h-74q-20 0 -20 20v670q0 20 20 20h74q20 0 20 -20v-95h16q77 0 137.5 -61t60.5 -182q0 -108 -61.5 -172t-136.5 -64h-16zM160 215h9q39 0 66 41t27 96q0 63 -25.5 99.5t-67.5 36.5h-9v-273z" horiz-adv-x="392" unicode="Þ" glyph-name="Thorn"/>
<glyph d="M216 707q68 0 112 -35.5t44 -114.5q0 -39 -15 -66.5t-30.5 -49.5t-15.5 -46q0 -30 42 -86l14 -19l12 -16l12 -16t10 -14.5t9.5 -16t8 -15.5t7.5 -17.5t4.5 -18t3.5 -21t1 -22.5q0 -40 -13.5 -69t-34.5 -43.5t-41.5 -21t-39.5 -6.5q-52 0 -100 19q-18 8 -9 28l20 48 q4 11 10.5 12.5t17.5 -2.5q25 -10 43 -10q17 0 27.5 13t10.5 32q0 23 -10.5 43.5t-38.5 58.5l-14 19q-60 82 -60 137q0 46 29.5 89.5t29.5 76.5q0 57 -47 57q-26 0 -36 -15.5t-10 -50.5v-528q0 -20 -20 -20h-72q-20 0 -20 20v416h-27q-20 0 -20 20v54q0 20 20 20h27v48 q0 129 159 129z" horiz-adv-x="440" unicode="ß" glyph-name="germandbls"/>
<glyph d="M244 596q8 -23 -12 -23h-44q-18 0 -30 17l-78 107q-5 7 -2.5 13.5t12.5 6.5h101q16 0 23 -20zM183 78q21 0 38.5 31t17.5 74v63q-18 4 -37 4q-46 0 -61.5 -23t-15.5 -65t17 -63t41 -21zM239 20v43h-2q-23 -70 -92 -70q-56 0 -92 43t-36 127q0 78 44 124t137 46 q23 0 41 -3v24q0 88 -58 88q-24 0 -79 -11q-6 -1 -8 -1.5t-6 -0.5t-6 1t-4 4t-4 7l-19 46q-9 20 9 28q55 22 128 22q76 0 115.5 -44t39.5 -126v-347q0 -20 -19 -20h-68q-21 0 -21 20z" horiz-adv-x="382" unicode="à" glyph-name="agrave"/>
<glyph d="M157 596l30 101q7 20 23 20h101q10 0 12.5 -6.5t-2.5 -13.5l-78 -107q-12 -17 -30 -17h-44q-20 0 -12 23zM183 78q21 0 38.5 31t17.5 74v63q-18 4 -37 4q-46 0 -61.5 -23t-15.5 -65t17 -63t41 -21zM239 20v43h-2q-23 -70 -92 -70q-56 0 -92 43t-36 127q0 78 44 124 t137 46q23 0 41 -3v24q0 88 -58 88q-24 0 -79 -11q-6 -1 -8 -1.5t-6 -0.5t-6 1t-4 4t-4 7l-19 46q-9 20 9 28q55 22 128 22q76 0 115.5 -44t39.5 -126v-347q0 -20 -19 -20h-68q-21 0 -21 20z" horiz-adv-x="382" unicode="á" glyph-name="aacute"/>
<glyph d="M142 590q-15 -17 -32 -17h-22q-10 0 -13.5 7.5t1.5 15.5l53 101q11 20 24 20h82q13 0 24 -20l53 -101q12 -23 -12 -23h-22q-17 0 -32 17l-51 56h-2zM183 78q21 0 38.5 31t17.5 74v63q-18 4 -37 4q-46 0 -61.5 -23t-15.5 -65t17 -63t41 -21zM239 20v43h-2q-23 -70 -92 -70 q-56 0 -92 43t-36 127q0 78 44 124t137 46q23 0 41 -3v24q0 88 -58 88q-24 0 -79 -11q-6 -1 -8 -1.5t-6 -0.5t-6 1t-4 4t-4 7l-19 46q-9 20 9 28q55 22 128 22q76 0 115.5 -44t39.5 -126v-347q0 -20 -19 -20h-68q-21 0 -21 20z" horiz-adv-x="382" unicode="â" glyph-name="acircumflex"/>
<glyph d="M252 592q-22 0 -47 9l-46 17q-18 6 -25 6q-12 0 -19 -12q-5 -10 -9 -13t-13 -3h-26q-13 0 -10 20q16 84 76 84q22 0 47 -9l46 -17q18 -6 25 -6q12 0 19 12q5 10 9 13t13 3h26q13 0 10 -20q-16 -84 -76 -84zM183 78q21 0 38.5 31t17.5 74v63q-18 4 -37 4q-46 0 -61.5 -23 t-15.5 -65t17 -63t41 -21zM239 20v43h-2q-23 -70 -92 -70q-56 0 -92 43t-36 127q0 78 44 124t137 46q23 0 41 -3v24q0 88 -58 88q-24 0 -79 -11q-6 -1 -8 -1.5t-6 -0.5t-6 1t-4 4t-4 7l-19 46q-9 20 9 28q55 22 128 22q76 0 115.5 -44t39.5 -126v-347q0 -20 -19 -20h-68 q-21 0 -21 20z" horiz-adv-x="382" unicode="ã" glyph-name="atilde"/>
<glyph d="M322 609q0 -18 -18 -18h-68q-18 0 -18 18v74q0 18 18 18h68q18 0 18 -18v-74zM172 609q0 -18 -18 -18h-68q-18 0 -18 18v74q0 18 18 18h68q18 0 18 -18v-74zM183 78q21 0 38.5 31t17.5 74v63q-18 4 -37 4q-46 0 -61.5 -23t-15.5 -65t17 -63t41 -21zM239 20v43h-2 q-23 -70 -92 -70q-56 0 -92 43t-36 127q0 78 44 124t137 46q23 0 41 -3v24q0 88 -58 88q-24 0 -79 -11q-6 -1 -8 -1.5t-6 -0.5t-6 1t-4 4t-4 7l-19 46q-9 20 9 28q55 22 128 22q76 0 115.5 -44t39.5 -126v-347q0 -20 -19 -20h-68q-21 0 -21 20z" horiz-adv-x="382" unicode="ä" glyph-name="adieresis"/>
<glyph d="M205 563q-42 0 -69.5 27t-27.5 69t27.5 69t69.5 27t69.5 -27t27.5 -69t-27.5 -69t-69.5 -27zM205 618q16 0 27.5 12t11.5 29t-11.5 29t-27.5 12t-27.5 -12t-11.5 -29t11.5 -29t27.5 -12zM183 78q21 0 38.5 31t17.5 74v63q-18 4 -37 4q-46 0 -61.5 -23t-15.5 -65t17 -63 t41 -21zM239 20v43h-2q-23 -70 -92 -70q-56 0 -92 43t-36 127q0 78 44 124t137 46q23 0 41 -3v24q0 88 -58 88q-24 0 -79 -11q-6 -1 -8 -1.5t-6 -0.5t-6 1t-4 4t-4 7l-19 46q-9 20 9 28q55 22 128 22q76 0 115.5 -44t39.5 -126v-347q0 -20 -19 -20h-68q-21 0 -21 20z" horiz-adv-x="382" unicode="å" glyph-name="aring"/>
<glyph d="M404 442q-27 0 -40.5 -30.5t-15.5 -108.5h108q-2 78 -14.5 108.5t-37.5 30.5zM414 -7q-93 0 -135 69h-2q-30 -41 -58.5 -55t-73.5 -14q-56 0 -92 43t-36 127q0 78 44 124t137 46q23 0 41 -3v24q0 88 -58 88q-24 0 -79 -11q-6 -1 -8 -1.5t-6 -0.5t-6 1t-4 4t-4 7l-19 46 q-9 20 9 28q55 22 128 22q71 0 110 -39h2q36 39 100 39q72 0 118 -62.5t46 -207.5v-26q0 -20 -20 -20h-200q2 -79 17.5 -106.5t61.5 -27.5q42 0 81 14q21 7 28 -10l19 -46q9 -20 -9 -28q-55 -24 -132 -24zM183 78q21 0 38.5 31t17.5 74v63q-18 4 -37 4q-46 0 -61.5 -23 t-15.5 -65t17 -63t41 -21z" horiz-adv-x="588" unicode="æ" glyph-name="ae"/>
<glyph d="M180 -180q-37 0 -52 11q-6 4 -3 10l14 31q3 7 10 4q10 -4 21 -4q26 0 26 29q0 30 -48 30h-3q-7 0 -7 7v33q0 4 4 12l14 14q-131 29 -131 266q0 147 46.5 210.5t120.5 63.5q42 0 84 -17q18 -8 9 -28l-19 -46q-4 -10 -10.5 -11.5t-17.5 1.5q-30 6 -46 6q-28 0 -41.5 -39.5 t-13.5 -139.5t13 -137.5t42 -37.5q16 0 46 6q11 3 17 1t11 -13l19 -44q9 -20 -9 -28q-35 -13 -62 -16l-14 -15v-2q34 -4 53 -24t19 -52q0 -37 -25.5 -59t-66.5 -22z" horiz-adv-x="302" unicode="ç" glyph-name="ccedilla"/>
<glyph d="M239 596q8 -23 -12 -23h-44q-18 0 -30 17l-78 107q-5 7 -2.5 13.5t12.5 6.5h101q16 0 23 -20zM204 -7q-86 0 -132.5 61.5t-46.5 212.5q0 145 47 207.5t122 62.5q72 0 118 -62.5t46 -207.5v-26q0 -20 -20 -20h-200q2 -79 17.5 -106.5t61.5 -27.5q43 0 81 14q21 7 28 -10 l19 -46q9 -20 -9 -28q-55 -24 -132 -24zM194 442q-27 0 -40.5 -30.5t-15.5 -108.5h108q-2 78 -14.5 108.5t-37.5 30.5z" horiz-adv-x="383" unicode="è" glyph-name="egrave"/>
<glyph d="M156 596l30 101q7 20 23 20h101q10 0 12.5 -6.5t-2.5 -13.5l-78 -107q-12 -17 -30 -17h-44q-20 0 -12 23zM204 -7q-86 0 -132.5 61.5t-46.5 212.5q0 145 47 207.5t122 62.5q72 0 118 -62.5t46 -207.5v-26q0 -20 -20 -20h-200q2 -79 17.5 -106.5t61.5 -27.5q43 0 81 14 q21 7 28 -10l19 -46q9 -20 -9 -28q-55 -24 -132 -24zM194 442q-27 0 -40.5 -30.5t-15.5 -108.5h108q-2 78 -14.5 108.5t-37.5 30.5z" horiz-adv-x="383" unicode="é" glyph-name="eacute"/>
<glyph d="M139 590q-15 -17 -32 -17h-22q-10 0 -13.5 7.5t1.5 15.5l53 101q11 20 24 20h82q13 0 24 -20l53 -101q12 -23 -12 -23h-22q-17 0 -32 17l-51 56h-2zM204 -7q-86 0 -132.5 61.5t-46.5 212.5q0 145 47 207.5t122 62.5q72 0 118 -62.5t46 -207.5v-26q0 -20 -20 -20h-200 q2 -79 17.5 -106.5t61.5 -27.5q43 0 81 14q21 7 28 -10l19 -46q9 -20 -9 -28q-55 -24 -132 -24zM194 442q-27 0 -40.5 -30.5t-15.5 -108.5h108q-2 78 -14.5 108.5t-37.5 30.5z" horiz-adv-x="383" unicode="ê" glyph-name="ecircumflex"/>
<glyph d="M323 609q0 -18 -18 -18h-68q-18 0 -18 18v74q0 18 18 18h68q18 0 18 -18v-74zM173 609q0 -18 -18 -18h-68q-18 0 -18 18v74q0 18 18 18h68q18 0 18 -18v-74zM204 -7q-86 0 -132.5 61.5t-46.5 212.5q0 145 47 207.5t122 62.5q72 0 118 -62.5t46 -207.5v-26q0 -20 -20 -20 h-200q2 -79 17.5 -106.5t61.5 -27.5q43 0 81 14q21 7 28 -10l19 -46q9 -20 -9 -28q-55 -24 -132 -24zM194 442q-27 0 -40.5 -30.5t-15.5 -108.5h108q-2 78 -14.5 108.5t-37.5 30.5z" horiz-adv-x="383" unicode="ë" glyph-name="edieresis"/>
<glyph d="M133 596q6 -23 -12 -23h-44q-18 0 -30 17l-68 107q-5 7 -2.5 13.5t12.5 6.5h99q18 0 23 -20zM152 20q0 -20 -20 -20h-72q-20 0 -20 20v490q0 20 20 20h72q20 0 20 -20v-490z" horiz-adv-x="192" unicode="ì" glyph-name="igrave"/>
<glyph d="M62 596l22 101q5 20 23 20h99q10 0 12.5 -6.5t-2.5 -13.5l-68 -107q-12 -17 -30 -17h-44q-18 0 -12 23zM152 20q0 -20 -20 -20h-72q-20 0 -20 20v490q0 20 20 20h72q20 0 20 -20v-490z" horiz-adv-x="192" unicode="í" glyph-name="iacute"/>
<glyph d="M54 590q-14 -17 -32 -17h-22q-21 0 -13 20l46 104q8 20 22 20h82q14 0 22 -20l46 -104q8 -20 -13 -20h-22q-18 0 -32 17l-41 58h-2zM152 20q0 -20 -20 -20h-72q-20 0 -20 20v490q0 20 20 20h72q20 0 20 -20v-490z" horiz-adv-x="192" unicode="î" glyph-name="icircumflex"/>
<glyph d="M211 609q0 -18 -18 -18h-58q-18 0 -18 18v74q0 18 18 18h58q18 0 18 -18v-74zM75 609q0 -18 -18 -18h-58q-18 0 -18 18v74q0 18 18 18h58q18 0 18 -18v-74zM152 20q0 -20 -20 -20h-72q-20 0 -20 20v490q0 20 20 20h72q20 0 20 -20v-490z" horiz-adv-x="192" unicode="ï" glyph-name="idieresis"/>
<glyph d="M194 -7q-169 0 -169 274q0 133 45.5 185.5t123.5 52.5h4v2q-6 12 -30 54l-73 -20q-20 -5 -25 15l-11 42q-6 19 14 25l15 4l28 6v2q-2 3 -5 5.5t-6 5.5l-5 5q-16 18 3 33l41 31q17 13 30 0q27 -25 49 -52l58 16q20 6 25 -15l11 -42q6 -19 -14 -25l-27 -6v-2 q87 -141 87 -322q0 -274 -169 -274zM194 88q31 0 44 38t13 141q0 94 -13 129.5t-44 35.5t-44 -35.5t-13 -129.5q0 -103 13 -141t44 -38z" horiz-adv-x="388" unicode="ð" glyph-name="eth"/>
<glyph d="M162 596l30 101q7 20 23 20h101q10 0 12.5 -6.5t-2.5 -13.5l-78 -107q-12 -17 -30 -17h-44q-20 0 -12 23zM249 537q116 0 116 -190v-327q0 -20 -20 -20h-72q-20 0 -20 20v317q0 107 -53 107q-48 0 -48 -97v-327q0 -20 -20 -20h-72q-20 0 -20 20v490q0 20 20 20h72 q20 0 20 -20v-54h2q18 81 95 81z" horiz-adv-x="400" unicode="ñ" glyph-name="ntilde"/>
<glyph d="M241 596q8 -23 -12 -23h-44q-18 0 -30 17l-78 107q-5 7 -2.5 13.5t12.5 6.5h101q16 0 23 -20zM194 -7q-169 0 -169 274q0 270 169 270t169 -270q0 -274 -169 -274zM194 88q31 0 44 38t13 141q0 100 -13 137.5t-44 37.5t-44 -37.5t-13 -137.5q0 -103 13 -141t44 -38z" horiz-adv-x="388" unicode="ò" glyph-name="ograve"/>
<glyph d="M160 596l30 101q7 20 23 20h101q10 0 12.5 -6.5t-2.5 -13.5l-78 -107q-12 -17 -30 -17h-44q-20 0 -12 23zM194 -7q-169 0 -169 274q0 270 169 270t169 -270q0 -274 -169 -274zM194 88q31 0 44 38t13 141q0 100 -13 137.5t-44 37.5t-44 -37.5t-13 -137.5q0 -103 13 -141 t44 -38z" horiz-adv-x="388" unicode="ó" glyph-name="oacute"/>
<glyph d="M142 590q-15 -17 -32 -17h-22q-10 0 -13.5 7.5t1.5 15.5l53 101q11 20 24 20h82q13 0 24 -20l53 -101q12 -23 -12 -23h-22q-17 0 -32 17l-51 56h-2zM194 -7q-169 0 -169 274q0 270 169 270t169 -270q0 -274 -169 -274zM194 88q31 0 44 38t13 141q0 100 -13 137.5 t-44 37.5t-44 -37.5t-13 -137.5q0 -103 13 -141t44 -38z" horiz-adv-x="388" unicode="ô" glyph-name="ocircumflex"/>
<glyph d="M254 592q-22 0 -47 9l-46 17q-18 6 -25 6q-12 0 -19 -12q-5 -10 -9 -13t-13 -3h-26q-13 0 -10 20q16 84 76 84q22 0 47 -9l46 -17q18 -6 25 -6q12 0 19 12q5 10 9 13t13 3h26q13 0 10 -20q-16 -84 -76 -84zM194 -7q-169 0 -169 274q0 270 169 270t169 -270 q0 -274 -169 -274zM194 88q31 0 44 38t13 141q0 100 -13 137.5t-44 37.5t-44 -37.5t-13 -137.5q0 -103 13 -141t44 -38z" horiz-adv-x="388" unicode="õ" glyph-name="otilde"/>
<glyph d="M321 609q0 -18 -18 -18h-68q-18 0 -18 18v74q0 18 18 18h68q18 0 18 -18v-74zM171 609q0 -18 -18 -18h-68q-18 0 -18 18v74q0 18 18 18h68q18 0 18 -18v-74zM194 -7q-169 0 -169 274q0 270 169 270t169 -270q0 -274 -169 -274zM194 88q31 0 44 38t13 141q0 100 -13 137.5 t-44 37.5t-44 -37.5t-13 -137.5q0 -103 13 -141t44 -38z" horiz-adv-x="388" unicode="ö" glyph-name="odieresis"/>
<glyph d="M165 390q-20 0 -20 20v90q0 20 20 20h84q20 0 20 -20v-90q0 -20 -20 -20h-84zM40 217q-20 0 -20 20v63q0 20 20 20h335q20 0 20 -20v-63q0 -20 -20 -20h-335zM165 20q-20 0 -20 20v90q0 20 20 20h84q20 0 20 -20v-90q0 -20 -20 -20h-84z" horiz-adv-x="415" unicode="÷" glyph-name="divide"/>
<glyph d="M196 -7q-61 0 -100 38h-2l-6 -13q-6 -18 -25 -18h-36q-10 0 -14.5 6.5t0.5 15.5l33 55l10 13q-29 66 -29 177q0 270 169 270q62 0 100 -38h2l7 15q7 17 22 17h38q10 0 14.5 -6.5t-0.5 -15.5l-33 -55l-10 -13q29 -66 29 -174q0 -274 -169 -274zM196 442q-31 0 -44 -37.5 t-13 -137.5v-37h2l10 24l80 136l10 12q-13 40 -45 40zM196 88q31 0 44 38t13 141v34h-2l-10 -24l-80 -136l-10 -12q13 -41 45 -41z" horiz-adv-x="392" unicode="ø" glyph-name="oslash"/>
<glyph d="M247 596q8 -23 -12 -23h-44q-18 0 -30 17l-78 107q-5 7 -2.5 13.5t12.5 6.5h101q16 0 23 -20zM155 -7q-120 0 -120 191v326q0 20 20 20h72q20 0 20 -20v-316q0 -55 13.5 -81t44.5 -26q30 0 41.5 24.5t11.5 72.5v326q0 20 20 20h72q20 0 20 -20v-490q0 -20 -20 -20h-72 q-20 0 -20 20v57h-2q-22 -84 -101 -84z" unicode="ù" glyph-name="ugrave"/>
<glyph d="M164 596l30 101q7 20 23 20h101q10 0 12.5 -6.5t-2.5 -13.5l-78 -107q-12 -17 -30 -17h-44q-20 0 -12 23zM155 -7q-120 0 -120 191v326q0 20 20 20h72q20 0 20 -20v-316q0 -55 13.5 -81t44.5 -26q30 0 41.5 24.5t11.5 72.5v326q0 20 20 20h72q20 0 20 -20v-490 q0 -20 -20 -20h-72q-20 0 -20 20v57h-2q-22 -84 -101 -84z" unicode="ú" glyph-name="uacute"/>
<glyph d="M150 590q-15 -17 -32 -17h-22q-10 0 -13.5 7.5t1.5 15.5l53 101q11 20 24 20h82q13 0 24 -20l53 -101q12 -23 -12 -23h-22q-17 0 -32 17l-51 56h-2zM155 -7q-120 0 -120 191v326q0 20 20 20h72q20 0 20 -20v-316q0 -55 13.5 -81t44.5 -26q30 0 41.5 24.5t11.5 72.5v326 q0 20 20 20h72q20 0 20 -20v-490q0 -20 -20 -20h-72q-20 0 -20 20v57h-2q-22 -84 -101 -84z" unicode="û" glyph-name="ucircumflex"/>
<glyph d="M329 609q0 -18 -18 -18h-68q-18 0 -18 18v74q0 18 18 18h68q18 0 18 -18v-74zM179 609q0 -18 -18 -18h-68q-18 0 -18 18v74q0 18 18 18h68q18 0 18 -18v-74zM155 -7q-120 0 -120 191v326q0 20 20 20h72q20 0 20 -20v-316q0 -55 13.5 -81t44.5 -26q30 0 41.5 24.5 t11.5 72.5v326q0 20 20 20h72q20 0 20 -20v-490q0 -20 -20 -20h-72q-20 0 -20 20v57h-2q-22 -84 -101 -84z" unicode="ü" glyph-name="udieresis"/>
<glyph d="M146 596l30 101q7 20 23 20h101q10 0 12.5 -6.5t-2.5 -13.5l-78 -107q-12 -17 -30 -17h-44q-20 0 -12 23zM156 0h-34q-17 0 -20 20l-93 490q-3 20 20 20h74q17 0 20 -20l53 -348l5 -79h2l7 79l51 348q3 20 20 20h74q10 0 16 -5.5t4 -14.5l-106 -546q-17 -89 -48 -119 t-95 -30q-60 0 -93 17q-18 9 -9 28l19 48q7 17 23 11q27 -10 55 -10q24 1 33.5 13.5t19.5 66.5z" horiz-adv-x="364" unicode="ý" glyph-name="yacute"/>
<glyph d="M209 86q30 0 44 38t14 142q0 107 -13 142.5t-49 35.5q-32 0 -42.5 -31.5t-10.5 -115.5v-64q0 -87 9.5 -117t47.5 -30zM243 -7q-72 0 -89 79h-2v-232q0 -20 -20 -20h-72q-20 0 -20 20v836q0 19 20 25l62 16q12 5 21 2t9 -18v-243h2q16 79 90 79q135 0 135 -271 q0 -273 -136 -273z" horiz-adv-x="404" unicode="þ" glyph-name="thorn"/>
</font>
</defs>
</svg>
