<?xml version="1.0" encoding="UTF-8" standalone="no"?>
<!DOCTYPE svg  PUBLIC '-//W3C//DTD SVG 1.1//EN'  'http://www.w3.org/Graphics/SVG/1.1/DTD/svg11.dtd'>
<svg xmlns="http://www.w3.org/2000/svg" version="1.1">
<defs>
<font id="LFTZenoCondensed-Light" horiz-adv-x="341">
<font-face x-height="530" panose-1="0 0 0 0 0 0 0 0 0 0" units-per-em="1000" underline-position="0" ascent="750" underline-thickness="0" descent="-250" bbox="-19 -192 524 894" font-weight="400" font-family="LFT Zeno Condensed Light" unicode-range="U+0020-00FE" cap-height="710"/>
<missing-glyph/>
<glyph horiz-adv-x="192" unicode=" " glyph-name="space"/>
<glyph horiz-adv-x="173" unicode="!" glyph-name="exclam" d="M91 152h-10q-20 0 -20 20v518q0 20 20 20h10q20 0 20 -20v-518q0 -20 -20 -20zM69 0q-23 0 -23 23v37q0 23 23 23h35q23 0 23 -23v-37q0 -23 -23 -23h-35z"/>
<glyph horiz-adv-x="204" unicode='&quot;' glyph-name="quotedbl" d="M172 505q0 -20 -23 -20h-11q-16 0 -16 20v185q0 20 20 20h10q20 0 20 -20v-185zM82 505q0 -20 -23 -20h-11q-16 0 -16 20v185q0 20 20 20h10q20 0 20 -20v-185z"/>
<glyph horiz-adv-x="369" unicode="#" glyph-name="numbersign" d="M197 286l41 196h-61l-41 -196h61zM187 238h-61l-46 -216q-5 -22 -25 -22h-12q-19 0 -14 22l46 216h-59q-10 0 -11.5 3t1.5 17l2 8q4 14 8 17t18 3h51l41 196h-60q-10 0 -11.5 3t1.5 17l2 8q4 14 8 17t18 3h53l33 158q5 22 25 22h12q19 0 14 -22l-33 -158h61l33 158 q5 22 25 22h12q19 0 14 -22l-33 -158h53q10 0 11.5 -3t-1.5 -17l-2 -8q-4 -14 -8 -17t-19 -3h-45l-41 -196h55q10 0 11.5 -3t-1.5 -17l-2 -8q-4 -14 -8 -17t-19 -3h-46l-46 -216q-5 -22 -25 -22h-12q-19 0 -14 22z"/>
<glyph horiz-adv-x="281" unicode="$" glyph-name="dollar" d="M257 151q0 -122 -85 -151v-60q0 -20 -20 -20h-9q-20 0 -20 20v53q-48 0 -81 15q-17 9 -10 25l5 13q5 15 26 6q27 -12 52 -12q89 0 89 117q0 89 -77 189l-7 9q-30 39 -47.5 65.5t-33 68.5t-15.5 85q0 49 25.5 88.5t73.5 49.5v58q0 20 20 20h9q20 0 20 -20v-55 q31 -2 55 -11q18 -7 11 -25l-4 -11q-6 -15 -28 -9q-17 5 -50 5q-41 0 -61 -25.5t-20 -65.5q0 -78 82 -180l8 -10q44 -56 68 -109.5t24 -122.5z"/>
<glyph horiz-adv-x="459" unicode="%" glyph-name="percent" d="M111 338q-96 0 -96 190q0 187 96 187q95 0 95 -187q0 -190 -95 -190zM149 22q-7 -22 -26 -22h-13q-21 0 -14 22l214 666q7 22 26 22h13q21 0 14 -22zM111 388q24 0 33.5 32.5t9.5 107.5q0 76 -10 106.5t-33 30.5t-33.5 -30t-10.5 -107q0 -75 10 -107.5t34 -32.5zM349 -5 q-96 0 -96 192q0 185 96 185q95 0 95 -187q0 -190 -95 -190zM349 45q24 0 33.5 32.5t9.5 107.5q0 76 -10 106.5t-33 30.5t-33.5 -30t-10.5 -107q0 -75 10 -107.5t34 -32.5z"/>
<glyph horiz-adv-x="367" unicode="&amp;" glyph-name="ampersand" d="M178 -5q-69 0 -112 52.5t-43 160.5q0 131 76 180v2q-28 22 -44.5 64t-16.5 91q0 82 35.5 126t94.5 44q67 0 108 -19q16 -7 10 -25l-3 -8q-7 -18 -25 -12q-51 14 -79 14q-47 0 -68 -29.5t-21 -91.5q0 -42 13 -78.5t35 -51.5q13 -8 13 -22v-5q0 -18 -15 -27 q-61 -34 -61 -152q0 -163 103 -163t103 163q0 112 -53 152h-20q-20 0 -20 20v8q0 20 20 20h124q20 0 20 -20v-8q0 -20 -20 -20h-49v-2q50 -45 50 -150q0 -108 -43 -160.5t-112 -52.5z"/>
<glyph horiz-adv-x="114" unicode="&apos;" glyph-name="quotesingle" d="M82 505q0 -20 -23 -20h-11q-16 0 -16 20v185q0 20 20 20h10q20 0 20 -20v-185z"/>
<glyph horiz-adv-x="186" unicode="(" glyph-name="parenleft" d="M153 -120q-47 49 -86.5 159t-39.5 258t39.5 258t86.5 159q12 12 23 3l12 -10q12 -9 4 -20q-20 -29 -30.5 -47t-34 -69t-35.5 -120.5t-12 -153.5t12 -153.5t35.5 -120.5t34 -69t30.5 -47q8 -11 -4 -20l-12 -10q-11 -9 -23 3z"/>
<glyph horiz-adv-x="186" unicode=")" glyph-name="parenright" d="M159 297q0 -148 -39.5 -258t-86.5 -159q-12 -12 -23 -3l-12 10q-12 9 -4 20q20 29 30.5 47t34 69t35.5 120.5t12 153.5t-12 153.5t-35.5 120.5t-34 69t-30.5 47q-8 11 4 20l12 10q11 9 23 -3q47 -49 86.5 -159t39.5 -258z"/>
<glyph horiz-adv-x="380" unicode="*" glyph-name="asterisk" d="M216 359q2 -18 -18 -18h-16q-20 0 -18 18l12 139l-2 1l-115 -80q-15 -10 -25 6l-8 14q-10 17 7 25l126 60v2l-126 60q-16 8 -7 25l8 14q10 16 25 6l116 -81l2 1l-13 141q-2 18 18 18h16q20 0 18 -18l-11 -139l2 -1l114 78q15 11 25 -6l8 -14q10 -17 -7 -25l-125 -59v-2 l125 -59q17 -8 7 -25l-8 -14q-10 -17 -25 -6l-114 78l-2 -1z"/>
<glyph horiz-adv-x="360" unicode="+" glyph-name="plus" d="M35 246q-20 0 -20 20v8q0 20 20 20h121v129q0 20 20 20h8q20 0 20 -20v-129h121q20 0 20 -20v-8q0 -20 -20 -20h-121v-129q0 -20 -20 -20h-8q-20 0 -20 20v129h-121z"/>
<glyph horiz-adv-x="146" unicode="," glyph-name="comma" d="M50 -75l17 75h-10q-23 0 -23 23v34q0 23 23 23h32q23 0 23 -23v-24q0 -19 -10 -39l-31 -69h-21z"/>
<glyph horiz-adv-x="294" unicode="-" glyph-name="hyphen" d="M50 244q-20 0 -20 20v12q0 20 20 20h194q20 0 20 -20v-12q0 -20 -20 -20h-194z"/>
<glyph horiz-adv-x="146" unicode="." glyph-name="period" d="M57 0q-23 0 -23 23v34q0 23 23 23h32q23 0 23 -23v-34q0 -23 -23 -23h-32z"/>
<glyph horiz-adv-x="249" unicode="/" glyph-name="slash" d="M48 -30q-6 -22 -26 -22h-12q-21 0 -14 22l205 757q6 22 26 22h12q21 0 14 -22z"/>
<glyph horiz-adv-x="369" unicode="0" glyph-name="zero" d="M185 -5q-24 0 -42 5t-40 26t-36 58t-24 106.5t-10 166.5q0 93 10 161.5t24 105.5t36 58.5t40 27t42 5.5t42.5 -5.5t40 -27t35.5 -58.5t23.5 -105t9.5 -162q0 -97 -9.5 -166.5t-23.5 -106.5t-36 -58t-40 -26t-42 -5zM185 42q33 0 53.5 24t33 95.5t12.5 195.5 q0 171 -25 241.5t-74 70.5q-50 0 -75 -70t-25 -242q0 -124 12.5 -195.5t33.5 -95.5t54 -24z"/>
<glyph horiz-adv-x="191" unicode="1" glyph-name="one" d="M118 0h-10q-20 0 -20 20v642h-77q-22 0 -10 20l7 12q7 12 10 14t14 2h87q19 0 19 -20v-670q0 -20 -20 -20z"/>
<glyph horiz-adv-x="305" unicode="2" glyph-name="two" d="M251 0h-219q-19 0 -19 20v7q0 22 7 33l67 105q1 2 17 27t22 34.5t21.5 37.5t23 45t19.5 47t18 54t10.5 54.5t4.5 60.5q0 141 -102 141q-25 0 -65 -11q-6 -1 -8 -1.5t-6 -0.5t-6 1t-4 4t-4 7l-3 8q-7 18 9 25q35 17 88 17q65 0 109 -46t44 -148q0 -27 -3 -53.5 t-10.5 -53.5t-13.5 -48.5t-18.5 -48t-19.5 -42t-22.5 -41.5t-20.5 -34.5t-20.5 -32.5t-16.5 -26l-58 -91v-2h179q20 0 20 -20v-8q0 -20 -20 -20z"/>
<glyph horiz-adv-x="323" unicode="3" glyph-name="three" d="M122 -5q-63 0 -97 17q-17 9 -10 27l3 8q6 15 26 9q49 -14 78 -14q60 0 92 51.5t32 126.5q0 72 -40.5 120t-111.5 48h-10q-19 0 -19 20v13q0 12 7 23l143 216v2h-166q-20 0 -20 20v8q0 20 20 20h204q19 0 19 -20v-7q0 -23 -7 -33l-143 -211v-2q76 -6 126 -63.5t50 -153.5 q0 -102 -47 -163.5t-129 -61.5z"/>
<glyph horiz-adv-x="342" unicode="4" glyph-name="four" d="M262 20q0 -20 -20 -20h-10q-18 0 -20 20v131h-191q-16 0 -16 20v9q0 19 5 33l158 482q7 20 25 20h11q10 0 13.5 -7.5t-0.5 -19.5l-142 -437l-18 -48v-2h155v282q0 19 2.5 26.5t14.5 18.5l7 6q26 23 26 -13v-320h55q20 -3 20 -20v-10q0 -10 -5.5 -15.5t-14.5 -4.5h-55 v-131z"/>
<glyph horiz-adv-x="322" unicode="5" glyph-name="five" d="M297 218q0 -102 -48 -162.5t-134 -60.5q-60 0 -92 15q-14 7 -9 25l3 9q5 15 27 9q44 -11 77 -11q56 0 90 52t34 124q0 156 -163 172h-1l-29 3q-20 2 -19 21l17 273q1 23 20 23h184q20 0 20 -20v-8q0 -20 -20 -20h-156l-13 -224v-1q95 -6 153.5 -61t58.5 -158z"/>
<glyph horiz-adv-x="362" unicode="6" glyph-name="six" d="M189 -5q-52 0 -84.5 28.5t-52 108t-19.5 216.5q0 367 189 367q36 0 74 -13q16 -5 10 -23l-4 -11q-5 -13 -21 -9q-30 8 -59 8q-66 0 -100.5 -72t-37.5 -199h2q33 51 108 51q65 0 104 -51t39 -159q0 -242 -148 -242zM189 43q96 0 96 184q0 170 -100 170q-32 0 -63 -21 t-37 -52q1 -151 26.5 -216t77.5 -65z"/>
<glyph horiz-adv-x="305" unicode="7" glyph-name="seven" d="M95 20q-6 -20 -25 -20h-12q-21 0 -15 20l201 640v2h-218q-20 0 -20 20v8q0 20 20 20h254q19 0 19 -20v-12q0 -17 -5 -32z"/>
<glyph horiz-adv-x="374" unicode="8" glyph-name="eight" d="M187 -5q-69 0 -115.5 47t-46.5 155q0 143 89 182v2q-70 30 -70 156q0 89 39 134t104 45q66 0 104 -45t38 -135q0 -122 -69 -155v-2q90 -40 89 -181q-1 -108 -47 -155.5t-115 -47.5zM187 403q53 0 72.5 34t19.5 100q0 131 -92 131q-50 0 -71 -32.5t-21 -97.5 q0 -66 19.5 -100.5t72.5 -34.5zM187 44q112 0 112 154q0 76 -29.5 117t-82.5 41q-112 0 -112 -158q0 -154 112 -154z"/>
<glyph horiz-adv-x="360" unicode="9" glyph-name="nine" d="M171 667q-96 0 -96 -184q0 -83 22.5 -126.5t76.5 -43.5q31 0 62 21.5t39 51.5q-1 151 -26.5 216t-77.5 65zM171 715q52 0 84.5 -28.5t52 -108t19.5 -216.5q0 -79 -10 -143t-32 -115.5t-61 -80t-92 -28.5q-36 0 -74 13q-16 5 -10 23l4 12q5 13 21 9q34 -9 59 -9 q66 0 102.5 71t41.5 196h-2q-33 -47 -108 -47q-65 0 -104 51t-39 159q0 242 148 242z"/>
<glyph horiz-adv-x="149" unicode=":" glyph-name="colon" d="M57 359q-23 0 -23 23v37q0 23 23 23h35q23 0 23 -23v-37q0 -23 -23 -23h-35zM57 0q-23 0 -23 23v37q0 23 23 23h35q23 0 23 -23v-37q0 -23 -23 -23h-35z"/>
<glyph horiz-adv-x="149" unicode=";" glyph-name="semicolon" d="M57 362q-23 0 -23 23v34q0 23 23 23h35q23 0 23 -23v-34q0 -23 -23 -23h-35zM50 -75l17 75h-10q-23 0 -23 23v37q0 23 23 23h35q23 0 23 -23v-27q0 -22 -10 -39l-34 -69h-21z"/>
<glyph horiz-adv-x="302" unicode="&lt;" glyph-name="less" d="M270 45q-14 -14 -28 0l-216 215q-14 14 0 29l216 215q14 14 28 1l8 -8q14 -14 0 -28l-195 -193v-2l194 -194q14 -14 0 -28z"/>
<glyph horiz-adv-x="365" unicode="=" glyph-name="equal" d="M45 310q-20 0 -20 20v8q0 20 20 20h275q20 0 20 -20v-8q0 -20 -20 -20h-275zM45 192q-20 0 -20 20v8q0 20 20 20h275q20 0 20 -20v-8q0 -20 -20 -20h-275z"/>
<glyph horiz-adv-x="302" unicode="&gt;" glyph-name="greater" d="M62 45q-14 -14 -28 0l-7 7q-14 14 0 28l194 194v2l-195 193q-14 14 0 28l8 8q14 13 28 -1l216 -215q14 -15 0 -29z"/>
<glyph horiz-adv-x="263" unicode="?" glyph-name="question" d="M108 152q-20 0 -20 20v22q0 72 10.5 114t37.5 84l15 23q30 46 42.5 79t12.5 73q0 53 -28.5 76.5t-66.5 23.5q-30 0 -66 -12q-20 -5 -28 10l-3 6q-9 19 10 27q42 17 93 17q64 0 102.5 -41t38.5 -112q0 -24 -3.5 -44.5t-13.5 -42t-16 -32.5t-22 -36t-21 -33l-16 -26 q-8 -13 -13.5 -29t-8.5 -27.5t-4.5 -33.5t-1.5 -28.5v-31.5v-24v-2q0 -20 -20 -20h-10zM96 0q-23 0 -23 23v37q0 23 23 23h35q23 0 23 -23v-37q0 -23 -23 -23h-35z"/>
<glyph horiz-adv-x="511" unicode="@" glyph-name="at" d="M259 -94q-108 0 -167.5 96t-59.5 257v24q0 153 61.5 248t169.5 95q105 0 160.5 -88.5t55.5 -234.5v-14q0 -245 -105 -245q-28 0 -41 19t-13 65h-3q-9 -45 -27 -65.5t-51 -20.5q-54 0 -80 52t-26 181q0 118 26 164.5t80 46.5q33 0 52 -20.5t28 -63.5h1v58q0 20 20 20h10 q20 0 20 -20v-339q0 -23 3.5 -30.5t12.5 -7.5q25 0 41 63.5t16 140.5v15q0 130 -45 210t-135 80q-92 0 -143.5 -87t-51.5 -222v-24q0 -142 50.5 -230.5t140.5 -88.5q67 0 142 48l19 -29q-62 -53 -161 -53zM252 93q67 0 67 179v5q0 160 -70 160q-33 0 -48.5 -35.5 t-15.5 -126.5q0 -104 17 -143t50 -39z"/>
<glyph horiz-adv-x="338" unicode="A" glyph-name="A" d="M100 180h138l-63 399l-5 69h-2l-5 -69zM92 130l-19 -110q-3 -20 -23 -20h-10q-21 0 -18 20l112 670q4 20 24 20h22q20 0 24 -20l112 -670q3 -20 -18 -20h-10q-20 0 -23 20l-19 110h-154z"/>
<glyph horiz-adv-x="340" unicode="B" glyph-name="B" d="M150 0h-80q-20 0 -20 20v670q0 20 20 20h78q54 0 104.5 -44.5t50.5 -127.5q0 -65 -23 -110t-64 -57v-2q44 -15 72 -63t28 -104q0 -57 -14.5 -98.5t-39 -63t-52.5 -31t-60 -9.5zM100 389h50q48 0 74.5 39.5t26.5 109.5q0 57 -31 90.5t-80 33.5h-40v-273zM100 341v-293h46 q63 0 90.5 39t27.5 114q0 58 -28 99t-77 41h-59z"/>
<glyph horiz-adv-x="308" unicode="C" glyph-name="C" d="M32 354q0 361 171 361q38 0 68 -9q11 -3 14 -8t-3 -19l-2 -4q-6 -11 -11 -13t-16 1q-25 5 -50 5q-62 0 -90.5 -87.5t-28.5 -226.5q0 -137 29 -225.5t90 -88.5q24 0 49 5q11 3 16.5 1t11.5 -13l2 -4q11 -22 -11 -28q-26 -8 -68 -8q-171 0 -171 361z"/>
<glyph horiz-adv-x="369" unicode="D" glyph-name="D" d="M337 357q0 -86 -10 -151t-25.5 -103.5t-39.5 -62t-48 -32t-54 -8.5h-90q-20 0 -20 20v670q0 20 20 20h91q30 0 53.5 -8t47.5 -31.5t39.5 -61.5t25.5 -102t10 -150zM285 357q0 305 -123 305h-62v-614h61q39 0 64.5 24t42.5 94.5t17 190.5z"/>
<glyph horiz-adv-x="292" unicode="E" glyph-name="E" d="M100 369h130q13 0 16 -4.5t-1 -17.5l-2 -7q-4 -13 -8.5 -16t-21.5 -3h-113v-273h142q20 0 20 -20v-8q0 -20 -20 -20h-172q-20 0 -20 20v670q0 20 20 20h172q20 0 20 -20v-8q0 -20 -20 -20h-142v-293z"/>
<glyph horiz-adv-x="286" unicode="F" glyph-name="F" d="M100 349h130q13 0 16 -4.5t-1 -17.5l-2 -7q-4 -13 -8 -15t-22 -4h-113v-281q0 -20 -20 -20h-10q-20 0 -20 20v670q0 20 20 20h172q20 0 20 -20v-8q0 -20 -20 -20h-142v-313z"/>
<glyph horiz-adv-x="334" unicode="G" glyph-name="G" d="M32 354q0 361 171 361q47 0 76 -9q11 -3 14 -8t-3 -19l-2 -4q-6 -11 -11 -13t-16 1q-20 5 -58 5q-62 0 -90.5 -87.5t-28.5 -226.5q0 -137 29.5 -225.5t90.5 -88.5q24 0 39 3v275q0 12 3 16.5t14 7.5l11 3q13 4 17.5 -0.5t4.5 -19.5v-298q0 -21 -18 -25q-35 -9 -71 -9 q-172 0 -172 361z"/>
<glyph horiz-adv-x="390" unicode="H" glyph-name="H" d="M100 315v-295q0 -20 -20 -20h-10q-20 0 -20 20v670q0 20 20 20h10q20 0 20 -20v-327h190v327q0 20 20 20h10q20 0 20 -20v-670q0 -20 -20 -20h-10q-20 0 -20 20v295h-190z"/>
<glyph horiz-adv-x="150" unicode="I" glyph-name="I" d="M100 20q0 -20 -20 -20h-10q-20 0 -20 20v670q0 20 20 20h10q20 0 20 -20v-670z"/>
<glyph horiz-adv-x="192" unicode="J" glyph-name="J" d="M34 -5q-20 0 -20 20v10q0 20 20 20q42 0 54 28t12 130v487q0 20 20 20h10q20 0 20 -20v-529q0 -71 -14 -107.5t-37 -47.5t-65 -11z"/>
<glyph horiz-adv-x="338" unicode="K" glyph-name="K" d="M309 0h-17q-18 0 -27 20l-163 334v2l158 334q9 20 27 20h13q10 0 15 -5.5t1 -14.5l-161 -334l166 -336q9 -20 -12 -20zM80 0h-10q-20 0 -20 20v670q0 20 20 20h10q20 0 20 -20v-670q0 -20 -20 -20z"/>
<glyph horiz-adv-x="257" unicode="L" glyph-name="L" d="M100 48h128q13 0 16 -4t-1 -18l-2 -7q-4 -13 -8.5 -16t-21.5 -3h-141q-20 0 -20 20v670q0 20 20 20h10q20 0 20 -20v-642z"/>
<glyph horiz-adv-x="438" unicode="M" glyph-name="M" d="M388 20q0 -20 -20 -20h-10q-20 0 -20 20v573h-2l-12 -74l-91 -307q-4 -10 -12 -10h-3q-10 0 -13 10l-90 307l-13 74h-2v-573q0 -20 -20 -20h-10q-20 0 -20 20v670q0 20 20 20h16q18 0 25 -20l91 -307l16 -73h2l16 73l91 307q7 20 25 20h16q20 0 20 -20v-670z"/>
<glyph horiz-adv-x="396" unicode="N" glyph-name="N" d="M100 20q0 -20 -20 -20h-10q-20 0 -20 20v670q0 20 20 20h12q18 0 25 -20l172 -502l15 -67h2v569q0 20 20 20h10q20 0 20 -20v-670q0 -20 -20 -20h-12q-18 0 -25 20l-172 499l-15 74h-2v-573z"/>
<glyph horiz-adv-x="384" unicode="O" glyph-name="O" d="M192 -5q-24 0 -44 7t-42.5 30t-38 61t-25.5 105.5t-10 158.5t10 158t25.5 104.5t38 60t42.5 29t44 6.5q25 0 45 -6.5t42.5 -29t37.5 -60t25 -104.5t10 -158t-10 -158.5t-25 -105.5t-37.5 -61t-43 -30t-44.5 -7zM192 44q108 0 108 313q0 309 -108 309t-108 -309 q0 -313 108 -313z"/>
<glyph horiz-adv-x="331" unicode="P" glyph-name="P" d="M100 211v-191q0 -20 -20 -20h-10q-20 0 -20 20v670q0 20 20 20h40q82 0 140.5 -60.5t58.5 -192.5q0 -123 -56 -184.5t-127 -61.5h-26zM100 259h19q60 0 99 53.5t39 144.5q0 95 -38 150t-100 55h-19v-403z"/>
<glyph horiz-adv-x="384" unicode="Q" glyph-name="Q" d="M192 715q25 0 45 -6.5t42.5 -29t37.5 -60t25 -104.5t10 -158q0 -324 -125 -358v-2l49 -95q11 -20 -14 -20h-18q-16 0 -26 20l-47 94q-139 19 -139 361q0 91 10 158t25.5 104.5t38 60t42.5 29t44 6.5zM192 669q-108 0 -108 -312q0 -315 108 -315t108 315q0 167 -30 239.5 t-78 72.5z"/>
<glyph horiz-adv-x="328" unicode="R" glyph-name="R" d="M249 476q0 84 -37.5 134t-95.5 50h-16v-365h26q44 0 83.5 51.5t39.5 129.5zM301 476q0 -85 -35 -142t-87 -78l114 -236q9 -20 -12 -20h-17q-19 0 -28 20l-108 225h-28v-225q0 -20 -20 -20h-10q-20 0 -20 20v670q0 20 20 20h47q32 0 63 -12.5t59 -38.5t45 -73.5t17 -109.5 z"/>
<glyph horiz-adv-x="281" unicode="S" glyph-name="S" d="M257 157q0 -75 -32.5 -119.5t-102.5 -44.5q-47 0 -80 15q-17 9 -10 25l5 13q5 15 26 6q27 -12 52 -12q89 0 89 117q0 89 -77 189l-7 9q-32 41 -48 65.5t-32 67t-16 86.5q0 57 33 99t95 42q47 0 75 -11q18 -7 11 -25l-4 -11q-6 -15 -28 -9q-17 5 -50 5q-41 0 -61 -25.5 t-20 -65.5q0 -78 82 -180l8 -10q44 -55 68 -108t24 -118z"/>
<glyph horiz-adv-x="332" unicode="T" glyph-name="T" d="M141 662h-116q-20 0 -20 20v8q0 20 20 20h282q20 0 20 -20v-8q0 -20 -20 -20h-116v-642q0 -20 -20 -20h-10q-20 0 -20 20v642z"/>
<glyph horiz-adv-x="376" unicode="U" glyph-name="U" d="M188 47q58 0 77 44.5t19 157.5v441q0 20 20 20h10q20 0 20 -20v-468q0 -131 -36 -179t-110 -48q-79 0 -112.5 47t-33.5 180v468q0 20 20 20h10q20 0 20 -20v-441q0 -113 19 -157.5t77 -44.5z"/>
<glyph horiz-adv-x="359" unicode="V" glyph-name="V" d="M197 0h-34q-20 0 -24 20l-117 670q-3 20 18 20h11q20 0 23 -20l98 -587l7 -54h2l7 54l97 587q3 20 20 20h14q21 0 18 -20l-116 -670q-4 -20 -24 -20z"/>
<glyph horiz-adv-x="541" unicode="W" glyph-name="W" d="M418 0h-33q-21 0 -24 20l-84 546l-5 80h-2l-6 -80l-84 -546q-3 -20 -24 -20h-33q-21 0 -24 20l-74 670q-2 20 18 20h15q17 0 19 -20l58 -567l5 -68h2l7 68l85 567q3 20 23 20h27q20 0 23 -20l85 -567l8 -68h2l4 68l58 567q2 20 20 20h14q20 0 18 -20l-74 -670 q-3 -20 -24 -20z"/>
<glyph horiz-adv-x="361" unicode="X" glyph-name="X" d="M329 0h-14q-19 0 -27 20l-84 231l-22 67h-2l-22 -67l-85 -231q-8 -20 -27 -20h-14q-21 0 -13 20l126 340l-121 330q-8 20 13 20h17q11 0 15.5 -4t9.5 -16l81 -219l20 -71h2l21 71l81 219q5 12 9.5 16t15.5 4h17q21 0 13 -20l-122 -330l125 -340q8 -20 -13 -20z"/>
<glyph horiz-adv-x="367" unicode="Y" glyph-name="Y" d="M188 0h-10q-20 0 -20 20v238l-145 432q-6 20 17 20h12q17 0 23 -20l101 -309l17 -68h3l15 68l101 309q6 20 22 20h15q21 0 15 -20l-146 -432v-238q0 -20 -20 -20z"/>
<glyph horiz-adv-x="326" unicode="Z" glyph-name="Z" d="M279 0h-238q-19 0 -19 20v11q0 13 7 33l221 596v2h-201q-20 0 -20 20v8q0 20 20 20h236q19 0 19 -20v-9q0 -20 -5 -32l-222 -599v-2h202q20 0 20 -20v-8q0 -20 -20 -20z"/>
<glyph horiz-adv-x="184" unicode="[" glyph-name="bracketleft" d="M164 -137h-95q-19 0 -19 20v807q0 20 19 20h95q20 0 20 -20v-8q0 -20 -20 -20h-64v-751h64q20 0 20 -20v-8q0 -20 -20 -20z"/>
<glyph horiz-adv-x="249" unicode="\" glyph-name="backslash" d="M201 -30l-205 757q-7 22 14 22h12q20 0 26 -22l205 -757q7 -22 -14 -22h-12q-20 0 -26 22z"/>
<glyph horiz-adv-x="184" unicode="]" glyph-name="bracketright" d="M115 -137h-95q-20 0 -20 20v8q0 20 20 20h64v751h-64q-20 0 -20 20v8q0 20 20 20h95q19 0 19 -20v-807q0 -20 -19 -20z"/>
<glyph horiz-adv-x="402" unicode="_" glyph-name="underscore" d="M20 -180q-20 0 -20 20v8q0 20 20 20h362q20 0 20 -20v-8q0 -20 -20 -20h-362z"/>
<glyph horiz-adv-x="175" unicode="`" glyph-name="grave" d="M142 592q5 -19 -14 -19h-8q-20 0 -28 19l-46 105q-9 20 10 20h36q17 0 22 -20z"/>
<glyph unicode="a" glyph-name="a" d="M145 38q43 0 73.5 48t30.5 97v88q-32 7 -67 7q-109 0 -109 -116q0 -53 17 -88.5t55 -35.5zM249 20v42h-2q-12 -30 -43.5 -49.5t-60.5 -19.5q-121 0 -121 170q0 77 40.5 118.5t119.5 41.5q42 0 67 -5v61q0 111 -73 111q-24 0 -89 -13q-7 -2 -12 -1.5t-7.5 3.5t-6.5 10 l-3 6q-9 17 10 25q42 17 104 17q72 0 99 -43.5t27 -131.5v-342q0 -20 -20 -20h-9q-20 0 -20 20z"/>
<glyph horiz-adv-x="355" unicode="b" glyph-name="b" d="M196 -7q-33 0 -59.5 22t-37.5 64h-2v-59q0 -20 -20 -20h-10q-20 0 -20 20v664q0 12 3 16.5t14 7.5l11 3q13 4 17.5 -0.5t4.5 -19.5v-238h1q10 41 37 62.5t63 21.5q63 0 94 -60.5t31 -210.5q0 -151 -31 -212t-96 -61zM184 44q28 0 46 17t29.5 68t11.5 137 q0 125 -20.5 173.5t-63.5 48.5q-90 0 -90 -182v-63q0 -199 87 -199z"/>
<glyph horiz-adv-x="278" unicode="c" glyph-name="c" d="M32 266q0 271 137 271q42 0 77 -14q15 -6 7 -24l-3 -7q-5 -11 -11.5 -12.5t-17.5 1.5q-35 7 -48 7q-43 0 -66 -58.5t-23 -163.5t23.5 -164.5t65.5 -59.5q14 0 49 7q11 3 17.5 1.5t11.5 -12.5l3 -7q7 -17 -10 -24q-35 -14 -75 -14q-61 0 -99 63t-38 210z"/>
<glyph horiz-adv-x="355" unicode="d" glyph-name="d" d="M171 44q87 0 87 199v63q0 182 -90 182q-43 0 -63.5 -48.5t-20.5 -173.5q0 -86 11.5 -137t29.5 -68t46 -17zM159 -7q-65 0 -96 61t-31 212q0 150 31.5 210.5t95.5 60.5q77 0 98 -84h1v231q0 12 3 16.5t14 7.5l11 3q13 4 17.5 -0.5t4.5 -19.5v-671q0 -20 -20 -20h-10 q-20 0 -20 20v59h-2q-11 -42 -37.5 -64t-59.5 -22z"/>
<glyph horiz-adv-x="336" unicode="e" glyph-name="e" d="M175 -7q-143 0 -143 273q0 145 38.5 208t98.5 63t98.5 -61.5t38.5 -198.5v-11q0 -20 -20 -20h-202q5 -204 90 -204q43 0 85 14q11 5 17.5 3.5t11.5 -12.5l3 -7q9 -22 -10 -28q-54 -19 -106 -19zM169 488q-41 0 -61.5 -46t-23.5 -146h170q-4 192 -85 192z"/>
<glyph horiz-adv-x="184" unicode="f" glyph-name="f" d="M108 20q0 -20 -19 -20h-11q-19 0 -19 20v462h-24q-20 0 -20 20v8q0 20 20 20h24v53q0 58 18 81t62 23q18 0 42 -6q16 -4 9 -24l-3 -9q-5 -16 -19 -13q-11 2 -26 2q-16 0 -24 -8.5t-9 -18.5t-1 -35v-7v-38h54q20 0 20 -20v-8q0 -20 -20 -20h-54v-462z"/>
<glyph horiz-adv-x="350" unicode="g" glyph-name="g" d="M162 -192q-72 0 -111 38.5t-39 92.5q0 37 19 70t50 45v2q-42 14 -42 58q0 59 73 63v2q-33 17 -53 60.5t-20 105.5q0 100 38 146t96 46q70 0 100 -54h2v36q0 18 13 19l27 4q17 4 24 -11l14 -29q8 -18 -8 -25q-30 -13 -59 -14q21 -43 21 -118q-1 -85 -40 -134.5t-94 -49.5 q-82 0 -82 -35q0 -17 14.5 -24.5t47.5 -9.5l43 -2q143 -6 143 -131q0 -68 -45 -109.5t-132 -41.5zM173 209q39 0 60 37t22 99q1 144 -82 144q-81 0 -82 -144q-1 -61 21 -98.5t61 -37.5zM167 -147q60 0 90.5 29.5t30.5 76.5q0 77 -102 82l-43 2q-9 0 -25 2q-56 -24 -56 -96 q0 -41 28 -68.5t77 -27.5z"/>
<glyph horiz-adv-x="352" unicode="h" glyph-name="h" d="M194 537q61 0 88.5 -44.5t27.5 -135.5v-337q0 -20 -20 -20h-10q-20 0 -20 20v324q0 76 -19 110t-59 34q-31 0 -51.5 -29t-27 -59t-6.5 -54v-326q0 -20 -20 -20h-10q-20 0 -20 20v664q0 12 3 16.5t14 7.5l11 3q13 4 17.5 -0.5t4.5 -19.5v-235h2q9 38 35 59.5t60 21.5z"/>
<glyph horiz-adv-x="151" unicode="i" glyph-name="i" d="M104 627q0 -21 -21 -21h-15q-21 0 -21 21v26q0 21 21 21h15q21 0 21 -21v-26zM100 20q0 -20 -20 -20h-9q-20 0 -20 20v490q0 20 20 20h9q20 0 20 -20v-490z"/>
<glyph horiz-adv-x="149" unicode="j" glyph-name="j" d="M102 627q0 -21 -21 -21h-15q-21 0 -21 21v26q0 21 21 21h15q21 0 21 -21v-26zM17 -136q-20 0 -20 21v8q0 19 20 19q23 0 27.5 16t4.5 72v510q0 20 20 20h10q20 0 20 -20v-550q0 -58 -21.5 -77t-60.5 -19z"/>
<glyph horiz-adv-x="322" unicode="k" glyph-name="k" d="M97 267l141 243q12 20 29 20h16q11 0 15 -5t-1 -15l-144 -242l158 -248q6 -9 2.5 -14.5t-13.5 -5.5h-18q-16 0 -30 20l-155 240v-240q0 -20 -20 -20h-10q-20 0 -20 20v664q0 12 3 16.5t14 7.5l11 3q13 4 17.5 -0.5t4.5 -19.5v-424z"/>
<glyph horiz-adv-x="144" unicode="l" glyph-name="l" d="M77 0h-10q-20 0 -20 20v664q0 12 3 16.5t14 7.5l11 3q13 4 17.5 -0.5t4.5 -19.5v-671q0 -20 -20 -20z"/>
<glyph horiz-adv-x="562" unicode="m" glyph-name="m" d="M405 537q61 0 87 -44.5t26 -135.5v-337q0 -20 -20 -20h-10q-20 0 -20 20v324q0 77 -18 110.5t-57 33.5q-31 0 -51.5 -29t-27.5 -59t-7 -54v-326q0 -20 -20 -20h-10q-20 0 -20 20v324q0 77 -18 110.5t-57 33.5q-31 0 -51.5 -29t-27 -59t-6.5 -54v-326q0 -20 -20 -20h-10 q-20 0 -20 20v490q0 20 20 20h10q20 0 20 -20v-54h2q9 38 35 59.5t60 21.5q79 0 100 -86h2q13 45 45.5 65.5t63.5 20.5z"/>
<glyph horiz-adv-x="352" unicode="n" glyph-name="n" d="M194 537q61 0 88.5 -44.5t27.5 -135.5v-337q0 -20 -20 -20h-10q-20 0 -20 20v324q0 76 -19 110t-59 34q-31 0 -51.5 -29t-27 -59t-6.5 -54v-326q0 -20 -20 -20h-10q-20 0 -20 20v490q0 20 20 20h10q20 0 20 -20v-54h2q9 38 35 59.5t60 21.5z"/>
<glyph horiz-adv-x="346" unicode="o" glyph-name="o" d="M173 -7q-141 0 -141 274q0 270 141 270t141 -270q0 -274 -141 -274zM173 42q46 0 67.5 53.5t21.5 171.5q0 115 -21.5 168t-67.5 53t-67.5 -53t-21.5 -168q0 -118 21.5 -171.5t67.5 -53.5z"/>
<glyph horiz-adv-x="355" unicode="p" glyph-name="p" d="M184 44q28 0 46 17t29.5 68t11.5 137q0 125 -20.5 173.5t-63.5 48.5q-90 0 -90 -182v-63q0 -199 87 -199zM196 -7q-33 0 -59.5 22t-37.5 64h-2v-240q-1 -19 -20 -19h-10q-20 0 -20 20v670q0 20 20 20h10q20 0 20 -20v-57h2q10 41 36.5 62.5t62.5 21.5q63 0 94 -60.5 t31 -210.5q0 -151 -31 -212t-96 -61z"/>
<glyph horiz-adv-x="355" unicode="q" glyph-name="q" d="M159 -7q-65 0 -96 61t-31 212q0 150 31.5 210.5t95.5 60.5q76 0 97 -84h2v57q0 20 20 20h10q20 0 20 -20v-670q0 -20 -20 -20h-10q-20 0 -20 19v240h-2q-11 -42 -37.5 -64t-59.5 -22zM171 44q87 0 87 199v63q0 182 -90 182q-43 0 -63.5 -48.5t-20.5 -173.5 q0 -86 11.5 -137t29.5 -68t46 -17z"/>
<glyph horiz-adv-x="235" unicode="r" glyph-name="r" d="M97 20q0 -20 -20 -20h-10q-20 0 -20 20v490q0 20 20 20h10q20 0 20 -20v-60h2q19 87 81 87q23 0 42 -9q17 -8 9 -26l-5 -10q-5 -10 -10 -12t-16 1q-13 4 -23 4q-34 0 -57 -62.5t-23 -135.5v-267z"/>
<glyph horiz-adv-x="246" unicode="s" glyph-name="s" d="M113 -7q-33 0 -62 7q-17 4 -11 22l6 15q4 11 9 12.5t16 -1.5q20 -6 42 -6q30 0 43 21t13 46q0 29 -12 55t-43 71l-26 38q-22 32 -32 48.5t-20.5 46.5t-10.5 59q0 45 28 77.5t80 32.5q33 0 62 -7q17 -4 11 -22l-6 -15q-4 -11 -9 -12.5t-16 1.5q-20 6 -42 6q-30 0 -43 -21 t-13 -46q0 -26 11.5 -49.5t42.5 -69.5l26 -38q22 -33 33 -50.5t21 -48.5t10 -62q0 -45 -28 -77.5t-80 -32.5z"/>
<glyph horiz-adv-x="208" unicode="t" glyph-name="t" d="M126 -9q-65 0 -65 87v404h-36q-20 0 -20 20v8q0 20 20 20h36v55q0 11 2 15.5t12 7.5l16 5q20 6 20 -17v-66h48q20 0 20 -20v-8q0 -20 -20 -20h-48v-383q0 -36 7 -46t22 -10q7 0 19 3q11 4 17.5 2t9.5 -12l2 -6q8 -21 -9 -28q-24 -11 -53 -11z"/>
<glyph horiz-adv-x="349" unicode="u" glyph-name="u" d="M150 -7q-56 0 -82 44t-26 134v339q0 20 20 20h10q20 0 20 -20v-331q0 -137 68 -137q33 0 55 27.5t29.5 59.5t7.5 65v316q0 20 20 20h10q20 0 20 -20v-490q0 -20 -20 -20h-10q-19 0 -19 20v54h-2q-8 -38 -35.5 -59.5t-65.5 -21.5z"/>
<glyph horiz-adv-x="310" unicode="v" glyph-name="v" d="M174 0h-38q-15 0 -20 20l-100 490q-5 20 17 20h13q15 0 20 -20l77 -395l11 -79h2l11 79l77 395q5 20 20 20h13q22 0 17 -20l-100 -490q-5 -20 -20 -20z"/>
<glyph horiz-adv-x="454" unicode="w" glyph-name="w" d="M338 0h-45q-17 0 -20 20l-42 416l-4 57h-2l-5 -57l-47 -416q-2 -20 -20 -20h-45q-17 0 -20 20l-71 490q-3 20 17 20h13q17 0 20 -20l54 -414l6 -60h2l7 60l48 414q2 20 20 20h44q18 0 20 -20l42 -414l7 -60h2l7 60l61 414q3 20 20 20h13q20 0 17 -20l-79 -490 q-3 -20 -20 -20z"/>
<glyph horiz-adv-x="301" unicode="x" glyph-name="x" d="M270 0h-12q-12 0 -16.5 4t-9.5 16l-66 169l-14 47h-2l-14 -47l-67 -169q-5 -12 -9.5 -16t-16.5 -4h-12q-22 0 -14 20l100 254l-93 236q-8 20 14 20h11q17 0 26 -20l58 -146l17 -54h2l17 54l58 146q9 20 26 20h11q22 0 14 -20l-94 -236l100 -254q8 -20 -14 -20z"/>
<glyph horiz-adv-x="309" unicode="y" glyph-name="y" d="M144 0h-9q-15 0 -20 20l-100 490q-5 20 17 20h13q15 0 20 -20l77 -395l11 -79h2l11 79l77 395q5 20 20 20h13q22 0 17 -20l-118 -578q-7 -32 -18 -55t-23 -34.5t-28.5 -18t-28.5 -8t-29 -1.5q-24 0 -52 10q-16 5 -10 24l4 11q6 17 23 10q22 -8 44 -8q28 0 46 15.5 t28 65.5z"/>
<glyph horiz-adv-x="295" unicode="z" glyph-name="z" d="M250 0h-205q-20 0 -20 20v16l5 20l185 424v2h-170q-20 0 -20 20v8q0 20 20 20h205q20 0 20 -20v-16q0 -6 -1 -10.5t-1 -7.5l-1 -2l-186 -423v-2h169q20 0 20 -20v-9q0 -20 -20 -20z"/>
<glyph horiz-adv-x="210" unicode="{" glyph-name="braceleft" d="M190 -180q-53 0 -79 31.5t-26 118.5v148q0 76 -10.5 98.5t-39.5 22.5q-20 0 -20 20v12q0 20 20 20q29 0 39.5 23t10.5 99v147q0 87 26 118.5t79 31.5q20 0 20 -20v-8q0 -20 -20 -20q-36 0 -45.5 -24.5t-9.5 -83.5v-147q0 -139 -62 -141v-2q35 -1 48.5 -37.5t13.5 -102.5 v-148q0 -59 9.5 -83.5t45.5 -24.5q20 0 20 -20v-8q0 -20 -20 -20z"/>
<glyph horiz-adv-x="116" unicode="|" glyph-name="bar" d="M78 -144q0 -16 -15 -16h-10q-15 0 -15 16v867q0 17 15 17h10q15 0 15 -17v-867z"/>
<glyph horiz-adv-x="210" unicode="}" glyph-name="braceright" d="M125 -30q0 -87 -26 -118.5t-79 -31.5q-20 0 -20 20v8q0 20 20 20q36 0 45.5 24.5t9.5 83.5v148q0 66 13.5 102.5t48.5 37.5v2q-62 2 -62 141v147q0 59 -9.5 83.5t-45.5 24.5q-20 0 -20 20v8q0 20 20 20q53 0 79 -31.5t26 -118.5v-147q0 -76 10.5 -99t39.5 -23 q20 0 20 -20v-12q0 -20 -20 -20q-29 0 -39.5 -22.5t-10.5 -98.5v-148z"/>
<glyph horiz-adv-x="190" unicode=" " glyph-name="uni00A0"/>
<glyph horiz-adv-x="173" unicode="¡" glyph-name="exclamdown" d="M69 530h35q23 0 23 -23v-37q0 -23 -23 -23h-35q-23 0 -23 23v37q0 23 23 23zM91 -180h-10q-20 0 -20 20v518q0 20 20 20h10q20 0 20 -20v-518q0 -20 -20 -20z"/>
<glyph horiz-adv-x="278" unicode="¢" glyph-name="cent" d="M32 266q0 240 110 268v58q0 20 20 20h9q20 0 20 -20v-56q25 -1 55 -13q15 -6 7 -24l-3 -7q-5 -11 -11.5 -12.5t-17.5 1.5q-30 6 -48 6q-43 0 -66 -58t-23 -163t23.5 -164t65.5 -59q19 0 49 6q11 3 17.5 1.5t11.5 -12.5l3 -7q7 -17 -10 -24q-30 -12 -53 -13v-56 q0 -20 -20 -20h-9q-20 0 -20 20v58q-110 28 -110 270z"/>
<glyph horiz-adv-x="292" unicode="£" glyph-name="sterling" d="M236 0h-186q-20 0 -20 20v7q0 18 17 32q9 7 13.5 14.5t9 40.5t4.5 90v134h-29q-20 0 -20 20v8q0 20 20 20h29v187q0 67 28 105.5t80 38.5q31 0 62 -6q16 -3 9 -24l-3 -9q-2 -7 -4.5 -10t-6 -3t-8.5 1q-13 2 -46 2q-61 0 -61 -110v-172h115q20 0 20 -20v-8q0 -20 -20 -20 h-115v-134q0 -82 -5 -110.5t-25 -44.5v-2h163q11 0 14 -3.5t-2 -16.5l-3 -7q-6 -15 -10 -17.5t-20 -2.5z"/>
<glyph horiz-adv-x="367" unicode="¥" glyph-name="yen" d="M188 1h-10q-20 0 -20 20v132h-97q-20 0 -20 20v7q0 20 20 20h97v60h-97q-20 0 -20 20v7q0 20 20 20h81l-129 384q-6 20 17 20h12q17 0 23 -20l101 -309l17 -68h3l15 68l101 309q6 20 22 20h15q21 0 15 -20l-130 -384h81q20 0 20 -20v-7q0 -20 -20 -20h-97v-60h97 q20 0 20 -20v-7q0 -20 -20 -20h-97v-132q0 -20 -20 -20z"/>
<glyph horiz-adv-x="274" unicode="¨" glyph-name="dieresis" d="M236 623q0 -18 -18 -18h-42q-18 0 -18 18v45q0 18 18 18h42q18 0 18 -18v-45zM116 623q0 -18 -18 -18h-42q-18 0 -18 18v45q0 18 18 18h42q18 0 18 -18v-45z"/>
<glyph horiz-adv-x="498" unicode="©" glyph-name="copyright" d="M249 241q-97 0 -167 69.5t-70 167.5t69.5 167.5t167.5 69.5t167.5 -69.5t69.5 -167.5t-69.5 -167.5t-167.5 -69.5zM249 283q80 0 136.5 57.5t56.5 137.5t-56.5 137.5t-136.5 57.5t-136 -57t-56 -138t56 -138t136 -57zM252 327q-63 0 -106.5 43.5t-43.5 107.5t43.5 107.5 t106.5 43.5q33 0 70 -16q8 -5 4 -12l-11 -23q-3 -7 -12 -4q-32 8 -51 8q-35 0 -67.5 -27t-32.5 -77t32.5 -77t67.5 -27q24 0 51 9q9 3 12 -5l11 -23q4 -8 -4 -11q-34 -17 -70 -17z"/>
<glyph horiz-adv-x="246" unicode="ª" glyph-name="ordfeminine" d="M109 366q31 0 48 29t17 66v53q-22 5 -38 5q-39 0 -53.5 -16t-14.5 -58q0 -79 41 -79zM108 323q-88 0 -88 123q0 56 29.5 86t86.5 30q23 0 38 -3v41q0 72 -42 72q-23 0 -63 -10q-14 -3 -19 9l-5 12q-5 13 7 19q36 13 77 13q52 0 72 -31.5t20 -95.5v-246q0 -14 -15 -14h-17 q-15 0 -15 14v28h-1q-23 -47 -65 -47z"/>
<glyph horiz-adv-x="333" unicode="«" glyph-name="guillemotleft" d="M277 26q-12 0 -17 4.5t-13 20.5l-97 202q-6 12 0 24l97 202q8 16 13 20.5t17 4.5h11q27 0 16 -27l-104 -211v-2l104 -211q11 -27 -16 -27h-11zM155 26q-12 0 -17 4.5t-13 20.5l-97 202q-6 12 0 24l97 202q8 16 13 20.5t17 4.5h11q27 0 16 -27l-104 -211v-2l104 -211 q11 -27 -16 -27h-11z"/>
<glyph horiz-adv-x="498" unicode="®" glyph-name="registered" d="M249 241q-97 0 -167 69.5t-70 167.5t69.5 167.5t167.5 69.5t167.5 -69.5t69.5 -167.5t-69.5 -167.5t-167.5 -69.5zM249 283q80 0 136.5 57.5t56.5 137.5t-56.5 137.5t-136.5 57.5t-136 -57t-56 -138t56 -138t136 -57zM214 465h35q21 0 34.5 18.5t13.5 43.5q0 29 -13 46 t-35 17h-35v-125zM213 342q0 -8 -8 -8h-29q-9 0 -9 8v282q0 9 9 9h75q40 0 68 -26.5t28 -79.5q0 -71 -62 -97l56 -88q5 -8 -6 -8h-34q-7 0 -12 8l-54 85h-22v-85z"/>
<glyph horiz-adv-x="264" unicode="¯" glyph-name="macron" d="M48 621q-18 0 -18 18v12q0 18 18 18h168q18 0 18 -18v-12q0 -18 -18 -18h-168z"/>
<glyph horiz-adv-x="216" unicode="°" glyph-name="degree" d="M108 443q-88 0 -88 137q0 135 88 135t88 -135q0 -137 -88 -137zM108 490q38 0 38 90q0 88 -38 88t-38 -88q0 -90 38 -90z"/>
<glyph horiz-adv-x="370" unicode="±" glyph-name="plusminus" d="M209 179q0 -20 -20 -20h-8q-20 0 -20 20v129h-121q-20 0 -20 20v8q0 20 20 20h121v129q0 20 20 20h8q20 0 20 -20v-129h121q20 0 20 -20v-8q0 -20 -20 -20h-121v-129zM340 77q0 -20 -20 -20h-275q-20 0 -20 20v8q0 20 20 20h275q20 0 20 -20v-8z"/>
<glyph horiz-adv-x="175" unicode="´" glyph-name="acute" d="M33 592l28 105q5 20 22 20h36q19 0 10 -20l-46 -105q-8 -19 -28 -19h-8q-19 0 -14 19z"/>
<glyph horiz-adv-x="359" unicode="¶" glyph-name="paragraph" d="M217 20q0 -20 -20 -20h-10q-20 0 -20 20v185q-62 0 -98.5 55.5t-36.5 176.5t36.5 177t99.5 56h124q20 0 20 -20v-630q0 -20 -20 -20h-10q-20 0 -20 20v608h-45v-608z"/>
<glyph horiz-adv-x="204" unicode="¸" glyph-name="cedilla" d="M84 -172q-31 0 -50 8q-6 2 -3 10l8 20q3 6 11 4q20 -4 31 -4q17 0 30 12t13 28q0 18 -12.5 28.5t-30.5 10.5h-30q-7 0 -7 7v19q0 9 4 12l42 38h45l-49 -38h1q40 0 62.5 -21t22.5 -56q0 -33 -23 -55.5t-65 -22.5z"/>
<glyph horiz-adv-x="244" unicode="º" glyph-name="ordmasculine" d="M122 323q-44 0 -72 41t-28 157q0 61 8.5 102t24.5 59.5t31.5 25.5t35.5 7q21 0 36.5 -7t31 -25.5t24 -59.5t8.5 -102q0 -116 -27.5 -157t-72.5 -41zM122 370q50 0 50 151q0 148 -50 148t-50 -148q0 -151 50 -151z"/>
<glyph horiz-adv-x="333" unicode="»" glyph-name="guillemotright" d="M305 253l-97 -202q-8 -16 -13 -20.5t-17 -4.5h-11q-27 0 -16 27l104 211v2l-104 211q-11 27 16 27h11q12 0 17 -4.5t13 -20.5l97 -202q6 -12 0 -24zM183 253l-97 -202q-8 -16 -13 -20.5t-17 -4.5h-11q-27 0 -16 27l104 211v2l-104 211q-11 27 16 27h11q12 0 17 -4.5 t13 -20.5l97 -202q6 -12 0 -24z"/>
<glyph horiz-adv-x="409" unicode="¼" glyph-name="onequarter" d="M95 344h-9q-20 0 -20 20v298h-37q-22 0 -10 20l7 12q7 12 10 14t14 2h46q19 0 19 -20v-326q0 -20 -20 -20zM110 23q-6 -22 -26 -22h-12q-21 0 -14 22l184 665q6 22 26 22h12q21 0 14 -22zM350 20q0 -20 -20 -20h-8q-20 0 -20 20v53h-98q-16 0 -16 20v7q0 16 5 33l72 229 q6 20 23 20h9q10 0 13.5 -8t-0.5 -19l-56 -184l-16 -51v-2h64v82q0 18 2.5 25.5t14.5 19.5l6 6q25 25 25 -13v-120h24q20 0 20 -20v-5q0 -10 -5 -15.5t-15 -4.5h-24v-53z"/>
<glyph horiz-adv-x="437" unicode="½" glyph-name="onehalf" d="M95 344h-9q-20 0 -20 20v298h-37q-22 0 -10 20l7 12q7 12 10 14t14 2h46q19 0 19 -20v-326q0 -20 -20 -20zM110 23q-6 -22 -26 -22h-12q-21 0 -14 22l184 665q6 22 26 22h12q21 0 14 -22zM408 20q0 -20 -20 -20h-138q-19 0 -19 20v15q0 15 12 28l31 36q82 96 82 169 q0 59 -53 59q-23 0 -40 -6q-20 -7 -26 12l-2 6q-5 18 11 23q28 10 59 10q49 0 74.5 -28.5t25.5 -73.5q0 -13 -2 -26t-4.5 -24t-8 -24t-9 -21t-11 -21t-11 -19t-12.5 -18t-11.5 -15t-12 -14.5t-9.5 -12.5l-21 -26v-2h95q20 0 20 -20v-7z"/>
<glyph horiz-adv-x="473" unicode="¾" glyph-name="threequarters" d="M174 23q-6 -22 -26 -22h-12q-21 0 -14 22l184 665q6 22 26 22h12q21 0 14 -22zM84 335q-34 0 -58 7q-19 5 -15 24l2 9q3 16 26 11q28 -6 46 -6q61 0 61 70q0 22 -16 40.5t-43 24.5l-18 4q-19 5 -19 19v6q0 12 9 23l74 95v2h-94q-20 0 -20 20v6q0 20 20 20h128 q19 0 19 -20v-17q0 -15 -11 -28l-66 -85v-2q37 -9 63.5 -36.5t26.5 -71.5q0 -115 -115 -115zM414 20q0 -20 -20 -20h-8q-20 0 -20 20v53h-98q-16 0 -16 20v7q0 16 5 33l72 229q6 20 23 20h9q10 0 13.5 -8t-0.5 -19l-56 -184l-16 -51v-2h64v82q0 18 2.5 25.5t14.5 19.5l6 6 q25 25 25 -13v-120h24q20 0 20 -20v-5q0 -10 -5 -15.5t-15 -4.5h-24v-53z"/>
<glyph horiz-adv-x="242" unicode="¿" glyph-name="questiondown" d="M168 530q23 0 23 -23v-37q0 -23 -23 -23h-35q-23 0 -23 23v37q0 23 23 23h35zM158 378q20 0 20 -20v-22q0 -72 -10.5 -114t-37.5 -84l-15 -23q-30 -46 -42.5 -79t-12.5 -73q0 -53 28.5 -76.5t66.5 -23.5q30 0 66 12q20 5 28 -10l3 -6q9 -19 -10 -27q-42 -17 -93 -17 q-64 0 -102.5 41t-38.5 112q0 24 3.5 44.5t13.5 42t16 32.5t22 36t21 33l16 26q8 13 13.5 29t8.5 27.5t4.5 33.5t1.5 28.5v31.5v24v2q0 20 20 20h10z"/>
<glyph horiz-adv-x="339" unicode="À" glyph-name="Agrave" d="M190 762q6 -19 -14 -19h-10q-16 0 -26 19l-52 93q-5 8 -1.5 14t13.5 6h33q17 0 24 -20zM101 180h138l-63 399l-5 69h-2l-5 -69zM93 130l-19 -110q-3 -20 -23 -20h-10q-21 0 -18 20l112 670q4 20 24 20h22q20 0 24 -20l112 -670q3 -20 -18 -20h-10q-20 0 -23 20l-19 110 h-154z"/>
<glyph horiz-adv-x="338" unicode="Á" glyph-name="Aacute" d="M150 762l33 93q7 20 24 20h33q10 0 13.5 -6t-1.5 -14l-52 -93q-10 -19 -26 -19h-10q-20 0 -14 19zM100 180h138l-63 399l-5 69h-2l-5 -69zM92 130l-19 -110q-3 -20 -23 -20h-10q-21 0 -18 20l112 670q4 20 24 20h22q20 0 24 -20l112 -670q3 -20 -18 -20h-10q-20 0 -23 20 l-19 110h-154z"/>
<glyph horiz-adv-x="338" unicode="Â" glyph-name="Acircumflex" d="M111 764q-17 -19 -31 -19h-8q-10 0 -13 5.5t2 13.5l67 96q9 13 27 13h29q18 0 27 -13l66 -96q5 -8 2 -13.5t-13 -5.5h-8q-14 0 -31 19l-57 58h-2zM100 180h138l-63 399l-5 69h-2l-5 -69zM92 130l-19 -110q-3 -20 -23 -20h-10q-21 0 -18 20l112 670q4 20 24 20h22 q20 0 24 -20l112 -670q3 -20 -18 -20h-10q-20 0 -23 20l-19 110h-154z"/>
<glyph horiz-adv-x="338" unicode="Ã" glyph-name="Atilde" d="M224 771q-21 0 -54 12l-37 14q-15 5 -24 5q-18 0 -25 -13q-5 -10 -9 -13t-13 -3h-8q-14 0 -12 20q7 62 67 62q18 0 54 -13l37 -14q15 -5 24 -5q18 0 25 13q5 10 9 13t13 3h7q16 0 14 -20q-7 -61 -68 -61zM99 180h138l-63 399l-5 69h-2l-5 -69zM91 130l-19 -110 q-3 -20 -23 -20h-10q-21 0 -18 20l112 670q4 20 24 20h22q20 0 24 -20l112 -670q3 -20 -18 -20h-10q-20 0 -23 20l-19 110h-154z"/>
<glyph horiz-adv-x="338" unicode="Ä" glyph-name="Adieresis" d="M270 788q0 -18 -18 -18h-43q-18 0 -18 18v46q0 18 18 18h43q18 0 18 -18v-46zM148 788q0 -18 -18 -18h-43q-18 0 -18 18v46q0 18 18 18h43q18 0 18 -18v-46zM100 180h138l-63 399l-5 69h-2l-5 -69zM92 130l-19 -110q-3 -20 -23 -20h-10q-21 0 -18 20l112 670q4 20 24 20 h22q20 0 24 -20l112 -670q3 -20 -18 -20h-10q-20 0 -23 20l-19 110h-154z"/>
<glyph horiz-adv-x="338" unicode="Å" glyph-name="Aring" d="M170 737q-35 0 -57.5 22t-22.5 56t22.5 56.5t57.5 22.5q34 0 56.5 -22.5t22.5 -56.5t-22.5 -56t-56.5 -22zM170 777q15 0 25.5 11t10.5 27t-10.5 27.5t-25.5 11.5q-16 0 -26.5 -11.5t-10.5 -27.5t10.5 -27t26.5 -11zM100 180h138l-63 399l-5 69h-2l-5 -69zM92 130 l-19 -110q-3 -20 -23 -20h-10q-21 0 -18 20l112 670q4 20 24 20h22q20 0 24 -20l112 -670q3 -20 -18 -20h-10q-20 0 -23 20l-19 110h-154z"/>
<glyph horiz-adv-x="442" unicode="Æ" glyph-name="AE" d="M207 180v479h-2l-10 -74l-92 -405h104zM207 130h-116l-25 -110q-5 -20 -23 -20h-9q-23 0 -18 20l152 670q4 20 24 20h207q20 0 20 -20v-8q0 -20 -20 -20h-142v-293h130q13 0 16 -4.5t-1 -17.5l-2 -7q-4 -13 -8.5 -16t-21.5 -3h-113v-273h142q20 0 20 -20v-8 q0 -20 -20 -20h-172q-20 0 -20 20v110z"/>
<glyph horiz-adv-x="308" unicode="Ç" glyph-name="Ccedilla" d="M175 -172q-31 0 -50 8q-6 2 -3 10l8 21q3 6 11 4q20 -4 31 -4q17 0 29.5 11.5t12.5 27.5q0 18 -12 28t-30 10h-30q-7 0 -7 7v20q0 9 4 12l19 17q-126 45 -126 354q0 361 171 361q38 0 68 -9q11 -3 14 -8t-3 -19l-2 -4q-6 -11 -11 -13t-16 1q-25 5 -50 5 q-62 0 -90.5 -87.5t-28.5 -226.5q0 -137 29 -225.5t90 -88.5q24 0 49 5q11 3 16.5 1t11.5 -13l2 -4q11 -22 -11 -28q-26 -8 -68 -8q-8 0 -12 1l-14 -11h1q40 0 62.5 -21t22.5 -56q0 -33 -23 -55.5t-65 -22.5z"/>
<glyph horiz-adv-x="294" unicode="È" glyph-name="Egrave" d="M189 762q6 -19 -14 -19h-10q-16 0 -26 19l-52 93q-5 8 -1.5 14t13.5 6h33q17 0 24 -20zM100 369h130q13 0 16 -4.5t-1 -17.5l-2 -7q-4 -13 -8.5 -16t-21.5 -3h-113v-273h142q20 0 20 -20v-8q0 -20 -20 -20h-172q-20 0 -20 20v670q0 20 20 20h172q20 0 20 -20v-8 q0 -20 -20 -20h-142v-293z"/>
<glyph horiz-adv-x="294" unicode="É" glyph-name="Eacute" d="M125 762l33 93q7 20 24 20h33q10 0 13.5 -6t-1.5 -14l-52 -93q-10 -19 -26 -19h-10q-20 0 -14 19zM100 369h130q13 0 16 -4.5t-1 -17.5l-2 -7q-4 -13 -8.5 -16t-21.5 -3h-113v-273h142q20 0 20 -20v-8q0 -20 -20 -20h-172q-20 0 -20 20v670q0 20 20 20h172q20 0 20 -20 v-8q0 -20 -20 -20h-142v-293z"/>
<glyph horiz-adv-x="294" unicode="Ê" glyph-name="Ecircumflex" d="M97 764q-17 -19 -31 -19h-8q-10 0 -13 5.5t2 13.5l67 96q9 13 27 13h29q18 0 27 -13l66 -96q5 -8 2 -13.5t-13 -5.5h-8q-14 0 -31 19l-57 58h-2zM100 369h130q13 0 16 -4.5t-1 -17.5l-2 -7q-4 -13 -8.5 -16t-21.5 -3h-113v-273h142q20 0 20 -20v-8q0 -20 -20 -20h-172 q-20 0 -20 20v670q0 20 20 20h172q20 0 20 -20v-8q0 -20 -20 -20h-142v-293z"/>
<glyph horiz-adv-x="296" unicode="Ë" glyph-name="Edieresis" d="M261 788q0 -18 -18 -18h-43q-18 0 -18 18v46q0 18 18 18h43q18 0 18 -18v-46zM139 788q0 -18 -18 -18h-43q-18 0 -18 18v46q0 18 18 18h43q18 0 18 -18v-46zM100 369h130q13 0 16 -4.5t-1 -17.5l-2 -7q-4 -13 -8.5 -16t-21.5 -3h-113v-273h142q20 0 20 -20v-8 q0 -20 -20 -20h-172q-20 0 -20 20v670q0 20 20 20h172q20 0 20 -20v-8q0 -20 -20 -20h-142v-293z"/>
<glyph horiz-adv-x="154" unicode="Ì" glyph-name="Igrave" d="M96 762q6 -19 -14 -19h-10q-16 0 -26 19l-52 93q-5 8 -1.5 14t13.5 6h33q17 0 24 -20zM100 20q0 -20 -20 -20h-10q-20 0 -20 20v670q0 20 20 20h10q20 0 20 -20v-670z"/>
<glyph horiz-adv-x="154" unicode="Í" glyph-name="Iacute" d="M56 762l33 93q7 20 24 20h33q10 0 13.5 -6t-1.5 -14l-52 -93q-10 -19 -26 -19h-10q-20 0 -14 19zM100 20q0 -20 -20 -20h-10q-20 0 -20 20v670q0 20 20 20h10q20 0 20 -20v-670z"/>
<glyph horiz-adv-x="154" unicode="Î" glyph-name="Icircumflex" d="M39 764q-11 -19 -31 -19h-8q-20 0 -11 19l47 97q6 13 27 13h29q21 0 27 -13l46 -97q9 -19 -11 -19h-8q-20 0 -31 19l-37 61h-2zM100 20q0 -20 -20 -20h-10q-20 0 -20 20v670q0 20 20 20h10q20 0 20 -20v-670z"/>
<glyph horiz-adv-x="154" unicode="Ï" glyph-name="Idieresis" d="M173 786q0 -18 -18 -18h-44q-18 0 -18 18v48q0 18 18 18h44q18 0 18 -18v-48zM61 786q0 -18 -18 -18h-44q-18 0 -18 18v48q0 18 18 18h44q18 0 18 -18v-48zM100 20q0 -20 -20 -20h-10q-20 0 -20 20v670q0 20 20 20h10q20 0 20 -20v-670z"/>
<glyph horiz-adv-x="369" unicode="Ð" glyph-name="Eth" d="M160 0h-90q-20 0 -20 20v312h-34q-20 0 -20 20v8q0 20 20 20h34v310q0 20 20 20h91q30 0 53.5 -8t47.5 -31.5t39.5 -61.5t25.5 -102t10 -150t-10 -151t-25.5 -103.5t-39.5 -62t-48 -32t-54 -8.5zM100 48h61q39 0 64.5 24t42.5 94.5t17 190.5q0 305 -123 305h-62v-282h86 q20 0 20 -20v-8q0 -20 -20 -20h-86v-284z"/>
<glyph horiz-adv-x="396" unicode="Ñ" glyph-name="Ntilde" d="M262 771q-21 0 -54 12l-37 14q-15 5 -24 5q-18 0 -25 -13q-5 -10 -9 -13t-13 -3h-8q-14 0 -12 20q7 62 67 62q18 0 54 -13l37 -14q15 -5 24 -5q18 0 25 13q5 10 9 13t13 3h7q16 0 14 -20q-7 -61 -68 -61zM100 20q0 -20 -20 -20h-10q-20 0 -20 20v670q0 20 20 20h12 q18 0 25 -20l172 -502l15 -67h2v569q0 20 20 20h10q20 0 20 -20v-670q0 -20 -20 -20h-12q-18 0 -25 20l-172 499l-15 74h-2v-573z"/>
<glyph horiz-adv-x="384" unicode="Ò" glyph-name="Ograve" d="M220 762q6 -19 -14 -19h-10q-16 0 -26 19l-52 93q-5 8 -1.5 14t13.5 6h33q17 0 24 -20zM192 -5q-24 0 -44 7t-42.5 30t-38 61t-25.5 105.5t-10 158.5t10 158t25.5 104.5t38 60t42.5 29t44 6.5q25 0 45 -6.5t42.5 -29t37.5 -60t25 -104.5t10 -158t-10 -158.5t-25 -105.5 t-37.5 -61t-43 -30t-44.5 -7zM192 44q108 0 108 313q0 309 -108 309t-108 -309q0 -313 108 -313z"/>
<glyph horiz-adv-x="384" unicode="Ó" glyph-name="Oacute" d="M170 762l33 93q7 20 24 20h33q10 0 13.5 -6t-1.5 -14l-52 -93q-10 -19 -26 -19h-10q-20 0 -14 19zM192 -5q-24 0 -44 7t-42.5 30t-38 61t-25.5 105.5t-10 158.5t10 158t25.5 104.5t38 60t42.5 29t44 6.5q25 0 45 -6.5t42.5 -29t37.5 -60t25 -104.5t10 -158t-10 -158.5 t-25 -105.5t-37.5 -61t-43 -30t-44.5 -7zM192 44q108 0 108 313q0 309 -108 309t-108 -309q0 -313 108 -313z"/>
<glyph horiz-adv-x="384" unicode="Ô" glyph-name="Ocircumflex" d="M134 764q-17 -19 -31 -19h-8q-10 0 -13 5.5t2 13.5l67 96q9 13 27 13h29q18 0 27 -13l66 -96q5 -8 2 -13.5t-13 -5.5h-8q-14 0 -31 19l-57 58h-2zM192 -5q-24 0 -44 7t-42.5 30t-38 61t-25.5 105.5t-10 158.5t10 158t25.5 104.5t38 60t42.5 29t44 6.5q25 0 45 -6.5 t42.5 -29t37.5 -60t25 -104.5t10 -158t-10 -158.5t-25 -105.5t-37.5 -61t-43 -30t-44.5 -7zM192 44q108 0 108 313q0 309 -108 309t-108 -309q0 -313 108 -313z"/>
<glyph horiz-adv-x="384" unicode="Õ" glyph-name="Otilde" d="M249 771q-21 0 -54 12l-37 14q-15 5 -24 5q-18 0 -25 -13q-5 -10 -9 -13t-13 -3h-8q-14 0 -12 20q7 62 67 62q18 0 54 -13l37 -14q15 -5 24 -5q18 0 25 13q5 10 9 13t13 3h7q16 0 14 -20q-7 -61 -68 -61zM192 -5q-24 0 -44 7t-42.5 30t-38 61t-25.5 105.5t-10 158.5 t10 158t25.5 104.5t38 60t42.5 29t44 6.5q25 0 45 -6.5t42.5 -29t37.5 -60t25 -104.5t10 -158t-10 -158.5t-25 -105.5t-37.5 -61t-43 -30t-44.5 -7zM192 44q108 0 108 313q0 309 -108 309t-108 -309q0 -313 108 -313z"/>
<glyph horiz-adv-x="384" unicode="Ö" glyph-name="Odieresis" d="M292 788q0 -18 -18 -18h-43q-18 0 -18 18v46q0 18 18 18h43q18 0 18 -18v-46zM170 788q0 -18 -18 -18h-43q-18 0 -18 18v46q0 18 18 18h43q18 0 18 -18v-46zM192 -5q-24 0 -44 7t-42.5 30t-38 61t-25.5 105.5t-10 158.5t10 158t25.5 104.5t38 60t42.5 29t44 6.5 q25 0 45 -6.5t42.5 -29t37.5 -60t25 -104.5t10 -158t-10 -158.5t-25 -105.5t-37.5 -61t-43 -30t-44.5 -7zM192 44q108 0 108 313q0 309 -108 309t-108 -309q0 -313 108 -313z"/>
<glyph unicode="×" glyph-name="multiply" d="M308 134q-15 -16 -29 0l-107 108h-2l-107 -108q-14 -14 -29 0l-6 6q-14 14 0 28l107 107v2l-107 108q-13 13 0 28l6 6q15 16 29 0l107 -108h2l107 108q15 15 29 0l6 -6q15 -13 0 -28l-107 -108v-2l107 -107q13 -13 0 -28z"/>
<glyph horiz-adv-x="382" unicode="Ø" glyph-name="Oslash" d="M191 -5q-64 0 -101 56h-2l-7 -22q-7 -18 -12 -23.5t-15 -5.5h-11q-11 0 -15.5 8t0.5 21l21 49l14 26q-32 88 -32 253q0 91 10 158t25.5 104.5t38 60t42.5 29t44 6.5q64 0 102 -54h2l6 20q7 18 12 23.5t15 5.5h11q11 0 15.5 -8t-0.5 -21l-21 -49l-13 -25q31 -88 31 -250 q0 -91 -10 -158.5t-25 -105.5t-37.5 -61t-43 -30t-44.5 -7zM191 669q-108 0 -108 -312q0 -113 11 -174h2l10 31l149 359l13 26q-27 70 -77 70zM191 42q108 0 108 315q0 102 -11 171h-2l-11 -32l-149 -359l-12 -25q27 -70 77 -70z"/>
<glyph horiz-adv-x="376" unicode="Ù" glyph-name="Ugrave" d="M212 762q6 -19 -14 -19h-10q-16 0 -26 19l-52 93q-5 8 -1.5 14t13.5 6h33q17 0 24 -20zM188 47q58 0 77 44.5t19 157.5v441q0 20 20 20h10q20 0 20 -20v-468q0 -131 -36 -179t-110 -48q-79 0 -112.5 47t-33.5 180v468q0 20 20 20h10q20 0 20 -20v-441q0 -113 19 -157.5 t77 -44.5z"/>
<glyph horiz-adv-x="376" unicode="Ú" glyph-name="Uacute" d="M157 762l33 93q7 20 24 20h33q10 0 13.5 -6t-1.5 -14l-52 -93q-10 -19 -26 -19h-10q-20 0 -14 19zM188 47q58 0 77 44.5t19 157.5v441q0 20 20 20h10q20 0 20 -20v-468q0 -131 -36 -179t-110 -48q-79 0 -112.5 47t-33.5 180v468q0 20 20 20h10q20 0 20 -20v-441 q0 -113 19 -157.5t77 -44.5z"/>
<glyph horiz-adv-x="376" unicode="Û" glyph-name="Ucircumflex" d="M130 764q-17 -19 -31 -19h-8q-10 0 -13 5.5t2 13.5l67 96q9 13 27 13h29q18 0 27 -13l66 -96q5 -8 2 -13.5t-13 -5.5h-8q-14 0 -31 19l-57 58h-2zM188 47q58 0 77 44.5t19 157.5v441q0 20 20 20h10q20 0 20 -20v-468q0 -131 -36 -179t-110 -48q-79 0 -112.5 47t-33.5 180 v468q0 20 20 20h10q20 0 20 -20v-441q0 -113 19 -157.5t77 -44.5z"/>
<glyph horiz-adv-x="376" unicode="Ü" glyph-name="Udieresis" d="M288 788q0 -18 -18 -18h-43q-18 0 -18 18v46q0 18 18 18h43q18 0 18 -18v-46zM166 788q0 -18 -18 -18h-43q-18 0 -18 18v46q0 18 18 18h43q18 0 18 -18v-46zM188 47q58 0 77 44.5t19 157.5v441q0 20 20 20h10q20 0 20 -20v-468q0 -131 -36 -179t-110 -48q-79 0 -112.5 47 t-33.5 180v468q0 20 20 20h10q20 0 20 -20v-441q0 -113 19 -157.5t77 -44.5z"/>
<glyph horiz-adv-x="367" unicode="Ý" glyph-name="Yacute" d="M163 762l33 93q7 20 24 20h33q10 0 13.5 -6t-1.5 -14l-52 -93q-10 -19 -26 -19h-10q-20 0 -14 19zM188 0h-10q-20 0 -20 20v238l-145 432q-6 20 17 20h12q17 0 23 -20l101 -309l17 -68h3l15 68l101 309q6 20 22 20h15q21 0 15 -20l-146 -432v-238q0 -20 -20 -20z"/>
<glyph horiz-adv-x="334" unicode="Þ" glyph-name="Thorn" d="M100 132v-112q0 -20 -20 -20h-10q-20 0 -20 20v670q0 20 20 20h10q20 0 20 -20v-112h20q47 0 90.5 -21t76 -73.5t32.5 -128.5t-32.5 -128.5t-76 -73.5t-90.5 -21h-20zM100 180h14q66 0 109 45t43 130t-43 130t-109 45h-14v-350z"/>
<glyph horiz-adv-x="352" unicode="ß" glyph-name="germandbls" d="M169 687q52 0 82.5 -26.5t30.5 -78.5q0 -44 -33 -89t-33 -74q0 -18 7 -37.5t14 -32t28 -47.5l23 -38q3 -4 13 -21t13 -22.5t10.5 -19.5t10.5 -22t7 -20.5t5.5 -24t1.5 -24.5q0 -52 -25 -84.5t-82 -32.5q-35 0 -64 7q-17 4 -11 22l5 15q4 11 9 13t16 -2q20 -6 45 -6 q29 0 42 21t13 46q0 28 -11 53t-41 73l-24 38q-21 32 -30 48t-18.5 43.5t-9.5 53.5q0 38 33.5 86t33.5 78q0 55 -61 55q-36 0 -49.5 -17.5t-13.5 -61.5v-538q0 -20 -20 -20h-10q-20 0 -20 20v462h-24q-20 0 -20 20v8q0 20 20 20h24v43q0 114 113 114z"/>
<glyph unicode="à" glyph-name="agrave" d="M203 592q5 -19 -14 -19h-8q-20 0 -28 19l-46 105q-9 20 10 20h36q17 0 22 -20zM145 38q43 0 73.5 48t30.5 97v88q-32 7 -67 7q-109 0 -109 -116q0 -53 17 -88.5t55 -35.5zM249 20v42h-2q-12 -30 -43.5 -49.5t-60.5 -19.5q-121 0 -121 170q0 77 40.5 118.5t119.5 41.5 q42 0 67 -5v61q0 111 -73 111q-24 0 -89 -13q-7 -2 -12 -1.5t-7.5 3.5t-6.5 10l-3 6q-9 17 10 25q42 17 104 17q72 0 99 -43.5t27 -131.5v-342q0 -20 -20 -20h-9q-20 0 -20 20z"/>
<glyph unicode="á" glyph-name="aacute" d="M148 592l28 105q5 20 22 20h36q19 0 10 -20l-46 -105q-8 -19 -28 -19h-8q-19 0 -14 19zM145 38q43 0 73.5 48t30.5 97v88q-32 7 -67 7q-109 0 -109 -116q0 -53 17 -88.5t55 -35.5zM249 20v42h-2q-12 -30 -43.5 -49.5t-60.5 -19.5q-121 0 -121 170q0 77 40.5 118.5 t119.5 41.5q42 0 67 -5v61q0 111 -73 111q-24 0 -89 -13q-7 -2 -12 -1.5t-7.5 3.5t-6.5 10l-3 6q-9 17 10 25q42 17 104 17q72 0 99 -43.5t27 -131.5v-342q0 -20 -20 -20h-9q-20 0 -20 20z"/>
<glyph unicode="â" glyph-name="acircumflex" d="M107 592q-17 -19 -31 -19h-8q-10 0 -13 5.5t2 13.5l67 96q10 13 27 13h29q18 0 27 -13l66 -96q5 -8 2 -13.5t-13 -5.5h-8q-14 0 -31 19l-57 58h-2zM145 38q43 0 73.5 48t30.5 97v88q-32 7 -67 7q-109 0 -109 -116q0 -53 17 -88.5t55 -35.5zM249 20v42h-2 q-12 -30 -43.5 -49.5t-60.5 -19.5q-121 0 -121 170q0 77 40.5 118.5t119.5 41.5q42 0 67 -5v61q0 111 -73 111q-24 0 -89 -13q-7 -2 -12 -1.5t-7.5 3.5t-6.5 10l-3 6q-9 17 10 25q42 17 104 17q72 0 99 -43.5t27 -131.5v-342q0 -20 -20 -20h-9q-20 0 -20 20z"/>
<glyph unicode="ã" glyph-name="atilde" d="M226 596q-21 0 -54 12l-37 14q-15 5 -24 5q-18 0 -25 -13q-5 -10 -9 -13t-13 -3h-8q-14 0 -12 20q7 62 67 62q18 0 54 -13l37 -14q15 -5 24 -5q18 0 25 13q5 10 9 13t13 3h7q16 0 14 -20q-7 -61 -68 -61zM145 38q43 0 73.5 48t30.5 97v88q-32 7 -67 7q-109 0 -109 -116 q0 -53 17 -88.5t55 -35.5zM249 20v42h-2q-12 -30 -43.5 -49.5t-60.5 -19.5q-121 0 -121 170q0 77 40.5 118.5t119.5 41.5q42 0 67 -5v61q0 111 -73 111q-24 0 -89 -13q-7 -2 -12 -1.5t-7.5 3.5t-6.5 10l-3 6q-9 17 10 25q42 17 104 17q72 0 99 -43.5t27 -131.5v-342 q0 -20 -20 -20h-9q-20 0 -20 20z"/>
<glyph unicode="ä" glyph-name="adieresis" d="M272 623q0 -18 -18 -18h-42q-18 0 -18 18v45q0 18 18 18h42q18 0 18 -18v-45zM152 623q0 -18 -18 -18h-42q-18 0 -18 18v45q0 18 18 18h42q18 0 18 -18v-45zM145 38q43 0 73.5 48t30.5 97v88q-32 7 -67 7q-109 0 -109 -116q0 -53 17 -88.5t55 -35.5zM249 20v42h-2 q-12 -30 -43.5 -49.5t-60.5 -19.5q-121 0 -121 170q0 77 40.5 118.5t119.5 41.5q42 0 67 -5v61q0 111 -73 111q-24 0 -89 -13q-7 -2 -12 -1.5t-7.5 3.5t-6.5 10l-3 6q-9 17 10 25q42 17 104 17q72 0 99 -43.5t27 -131.5v-342q0 -20 -20 -20h-9q-20 0 -20 20z"/>
<glyph unicode="å" glyph-name="aring" d="M176 572q-35 0 -57.5 22t-22.5 56t22.5 56.5t57.5 22.5q34 0 56.5 -22.5t22.5 -56.5t-22.5 -56t-56.5 -22zM176 610q16 0 27 11.5t11 28.5t-11 29t-27 12t-27.5 -12t-11.5 -29t11.5 -28.5t27.5 -11.5zM145 38q43 0 73.5 48t30.5 97v88q-32 7 -67 7q-109 0 -109 -116 q0 -53 17 -88.5t55 -35.5zM249 20v42h-2q-12 -30 -43.5 -49.5t-60.5 -19.5q-121 0 -121 170q0 77 40.5 118.5t119.5 41.5q42 0 67 -5v61q0 111 -73 111q-24 0 -89 -13q-7 -2 -12 -1.5t-7.5 3.5t-6.5 10l-3 6q-9 17 10 25q42 17 104 17q72 0 99 -43.5t27 -131.5v-342 q0 -20 -20 -20h-9q-20 0 -20 20z"/>
<glyph horiz-adv-x="554" unicode="æ" glyph-name="ae" d="M387 487q-41 0 -61.5 -45.5t-23.5 -145.5h170q-4 191 -85 191zM393 -7q-84 0 -119 100h-2q-19 -56 -56 -78t-73 -22q-121 0 -121 170q0 77 40.5 118.5t119.5 41.5q42 0 67 -5v61q0 111 -73 111q-24 0 -89 -13q-7 -2 -12 -1.5t-7.5 3.5t-6.5 10l-3 6q-9 17 10 25 q42 17 104 17q87 0 112 -71h2q37 71 101 71q60 0 98.5 -61.5t38.5 -198.5v-11q0 -20 -20 -20h-202q5 -203 90 -203q46 0 85 13q11 5 17.5 3.5t11.5 -12.5l3 -7q9 -22 -10 -28q-54 -19 -106 -19zM145 38q46 0 75 47t29 98v88q-32 7 -67 7q-109 0 -109 -116q0 -53 17 -88.5 t55 -35.5z"/>
<glyph horiz-adv-x="278" unicode="ç" glyph-name="ccedilla" d="M154 -172q-31 0 -50 8q-6 2 -3 10l8 20q3 6 11 4q20 -4 31 -4q17 0 30 12t13 28q0 18 -12.5 28.5t-30.5 10.5h-30q-7 0 -7 7v19q0 9 4 12l17 15q-103 34 -103 268q0 271 137 271q42 0 77 -14q15 -6 7 -24l-3 -7q-5 -11 -11.5 -12.5t-17.5 1.5q-35 7 -48 7 q-43 0 -66 -58.5t-23 -163.5t23.5 -164.5t65.5 -59.5q14 0 49 7q11 3 17.5 1.5t11.5 -12.5l3 -7q7 -17 -10 -24q-35 -14 -75 -14l-13 -10h1q40 0 62.5 -21t22.5 -56q0 -33 -23 -55.5t-65 -22.5z"/>
<glyph horiz-adv-x="336" unicode="è" glyph-name="egrave" d="M199 592q5 -19 -14 -19h-8q-20 0 -28 19l-46 105q-9 20 10 20h36q17 0 22 -20zM175 -7q-143 0 -143 273q0 145 38.5 208t98.5 63t98.5 -61.5t38.5 -198.5v-11q0 -20 -20 -20h-202q5 -204 90 -204q43 0 85 14q11 5 17.5 3.5t11.5 -12.5l3 -7q9 -22 -10 -28 q-54 -19 -106 -19zM169 488q-41 0 -61.5 -46t-23.5 -146h170q-4 192 -85 192z"/>
<glyph horiz-adv-x="336" unicode="é" glyph-name="eacute" d="M155 592l28 105q5 20 22 20h36q19 0 10 -20l-46 -105q-8 -19 -28 -19h-8q-19 0 -14 19zM175 -7q-143 0 -143 273q0 145 38.5 208t98.5 63t98.5 -61.5t38.5 -198.5v-11q0 -20 -20 -20h-202q5 -204 90 -204q43 0 85 14q11 5 17.5 3.5t11.5 -12.5l3 -7q9 -22 -10 -28 q-54 -19 -106 -19zM169 488q-41 0 -61.5 -46t-23.5 -146h170q-4 192 -85 192z"/>
<glyph horiz-adv-x="336" unicode="ê" glyph-name="ecircumflex" d="M115 592q-17 -19 -31 -19h-8q-10 0 -13 5.5t2 13.5l67 96q10 13 27 13h29q18 0 27 -13l66 -96q5 -8 2 -13.5t-13 -5.5h-8q-14 0 -31 19l-57 58h-2zM175 -7q-143 0 -143 273q0 145 38.5 208t98.5 63t98.5 -61.5t38.5 -198.5v-11q0 -20 -20 -20h-202q5 -204 90 -204 q43 0 85 14q11 5 17.5 3.5t11.5 -12.5l3 -7q9 -22 -10 -28q-54 -19 -106 -19zM169 488q-41 0 -61.5 -46t-23.5 -146h170q-4 192 -85 192z"/>
<glyph horiz-adv-x="336" unicode="ë" glyph-name="edieresis" d="M274 623q0 -18 -18 -18h-42q-18 0 -18 18v45q0 18 18 18h42q18 0 18 -18v-45zM154 623q0 -18 -18 -18h-42q-18 0 -18 18v45q0 18 18 18h42q18 0 18 -18v-45zM175 -7q-143 0 -143 273q0 145 38.5 208t98.5 63t98.5 -61.5t38.5 -198.5v-11q0 -20 -20 -20h-202 q5 -204 90 -204q43 0 85 14q11 5 17.5 3.5t11.5 -12.5l3 -7q9 -22 -10 -28q-54 -19 -106 -19zM169 488q-41 0 -61.5 -46t-23.5 -146h170q-4 192 -85 192z"/>
<glyph horiz-adv-x="143" unicode="ì" glyph-name="igrave" d="M91 592q5 -19 -14 -19h-8q-20 0 -28 19l-46 105q-9 20 10 20h36q17 0 22 -20zM96 20q0 -20 -20 -20h-9q-20 0 -20 20v490q0 20 20 20h9q20 0 20 -20v-490z"/>
<glyph horiz-adv-x="143" unicode="í" glyph-name="iacute" d="M52 592l28 105q5 20 22 20h36q19 0 10 -20l-46 -105q-8 -19 -28 -19h-8q-19 0 -14 19zM96 20q0 -20 -20 -20h-9q-20 0 -20 20v490q0 20 20 20h9q20 0 20 -20v-490z"/>
<glyph horiz-adv-x="143" unicode="î" glyph-name="icircumflex" d="M34 592q-11 -19 -31 -19h-8q-9 0 -12 5.5t1 13.5l47 93q7 13 27 13h29q20 0 27 -13l46 -93q4 -8 1 -13.5t-12 -5.5h-8q-20 0 -31 19l-37 61h-2zM96 20q0 -20 -20 -20h-9q-20 0 -20 20v490q0 20 20 20h9q20 0 20 -20v-490z"/>
<glyph horiz-adv-x="143" unicode="ï" glyph-name="idieresis" d="M159 623q0 -18 -18 -18h-36q-18 0 -18 18v45q0 18 18 18h36q18 0 18 -18v-45zM56 623q0 -18 -18 -18h-36q-18 0 -18 18v45q0 18 18 18h36q18 0 18 -18v-45zM96 20q0 -20 -20 -20h-9q-20 0 -20 20v490q0 20 20 20h9q20 0 20 -20v-490z"/>
<glyph horiz-adv-x="346" unicode="ð" glyph-name="eth" d="M173 -7q-141 0 -141 274q0 270 141 270q14 0 31 -5h1q-10 18 -34 54l-84 -24q-18 -5 -25 15l-3 8q-6 19 14 25l33 9l31 8l1 1q-18 22 -39 45q-7 7 -6 17t9 16l4 3q17 13 30 0q28 -26 57 -65l88 25q18 6 25 -15l3 -8q6 -19 -14 -25l-35 -10l-35 -9l-1 -1q44 -69 67 -145 t23 -189q0 -274 -141 -274zM173 43q46 0 67.5 53t21.5 171q0 115 -21.5 167.5t-67.5 52.5t-67.5 -52.5t-21.5 -167.5q0 -118 21.5 -171t67.5 -53z"/>
<glyph horiz-adv-x="352" unicode="ñ" glyph-name="ntilde" d="M239 596q-21 0 -54 12l-37 14q-15 5 -24 5q-18 0 -25 -13q-5 -10 -9 -13t-13 -3h-8q-14 0 -12 20q7 62 67 62q18 0 54 -13l37 -14q15 -5 24 -5q18 0 25 13q5 10 9 13t13 3h7q16 0 14 -20q-7 -61 -68 -61zM194 537q61 0 88.5 -44.5t27.5 -135.5v-337q0 -20 -20 -20h-10 q-20 0 -20 20v324q0 76 -19 110t-59 34q-31 0 -51.5 -29t-27 -59t-6.5 -54v-326q0 -20 -20 -20h-10q-20 0 -20 20v490q0 20 20 20h10q20 0 20 -20v-54h2q9 38 35 59.5t60 21.5z"/>
<glyph horiz-adv-x="346" unicode="ò" glyph-name="ograve" d="M193 592q5 -19 -14 -19h-8q-20 0 -28 19l-46 105q-9 20 10 20h36q17 0 22 -20zM173 -7q-141 0 -141 274q0 270 141 270t141 -270q0 -274 -141 -274zM173 42q46 0 67.5 53.5t21.5 171.5q0 115 -21.5 168t-67.5 53t-67.5 -53t-21.5 -168q0 -118 21.5 -171.5t67.5 -53.5z "/>
<glyph horiz-adv-x="346" unicode="ó" glyph-name="oacute" d="M152 592l28 105q5 20 22 20h36q19 0 10 -20l-46 -105q-8 -19 -28 -19h-8q-19 0 -14 19zM173 -7q-141 0 -141 274q0 270 141 270t141 -270q0 -274 -141 -274zM173 42q46 0 67.5 53.5t21.5 171.5q0 115 -21.5 168t-67.5 53t-67.5 -53t-21.5 -168q0 -118 21.5 -171.5 t67.5 -53.5z"/>
<glyph horiz-adv-x="346" unicode="ô" glyph-name="ocircumflex" d="M116 592q-17 -19 -31 -19h-8q-10 0 -13 5.5t2 13.5l67 96q10 13 27 13h29q18 0 27 -13l66 -96q5 -8 2 -13.5t-13 -5.5h-8q-14 0 -31 19l-57 58h-2zM173 -7q-141 0 -141 274q0 270 141 270t141 -270q0 -274 -141 -274zM173 42q46 0 67.5 53.5t21.5 171.5q0 115 -21.5 168 t-67.5 53t-67.5 -53t-21.5 -168q0 -118 21.5 -171.5t67.5 -53.5z"/>
<glyph horiz-adv-x="346" unicode="õ" glyph-name="otilde" d="M229 596q-21 0 -54 12l-37 14q-15 5 -24 5q-18 0 -25 -13q-5 -10 -9 -13t-13 -3h-8q-14 0 -12 20q7 62 67 62q18 0 54 -13l37 -14q15 -5 24 -5q18 0 25 13q5 10 9 13t13 3h7q16 0 14 -20q-7 -61 -68 -61zM173 -7q-141 0 -141 274q0 270 141 270t141 -270 q0 -274 -141 -274zM173 42q46 0 67.5 53.5t21.5 171.5q0 115 -21.5 168t-67.5 53t-67.5 -53t-21.5 -168q0 -118 21.5 -171.5t67.5 -53.5z"/>
<glyph horiz-adv-x="346" unicode="ö" glyph-name="odieresis" d="M272 623q0 -18 -18 -18h-42q-18 0 -18 18v45q0 18 18 18h42q18 0 18 -18v-45zM152 623q0 -18 -18 -18h-42q-18 0 -18 18v45q0 18 18 18h42q18 0 18 -18v-45zM173 -7q-141 0 -141 274q0 270 141 270t141 -270q0 -274 -141 -274zM173 42q46 0 67.5 53.5t21.5 171.5 q0 115 -21.5 168t-67.5 53t-67.5 -53t-21.5 -168q0 -118 21.5 -171.5t67.5 -53.5z"/>
<glyph horiz-adv-x="355" unicode="÷" glyph-name="divide" d="M161 390q-23 0 -23 23v34q0 23 23 23h32q23 0 23 -23v-34q0 -23 -23 -23h-32zM40 246q-20 0 -20 20v8q0 20 20 20h275q20 0 20 -20v-8q0 -20 -20 -20h-275zM161 70q-23 0 -23 23v34q0 23 23 23h32q23 0 23 -23v-34q0 -23 -23 -23h-32z"/>
<glyph horiz-adv-x="350" unicode="ø" glyph-name="oslash" d="M175 -7q-59 0 -94 53h-2l-12 -24q-7 -13 -12 -17.5t-14 -4.5h-12q-10 0 -14.5 6t0.5 16l32 59l9 15q-22 64 -22 171q0 270 141 270q61 0 95 -53h2l11 24q10 22 26 22h12q10 0 14.5 -6t-0.5 -16l-34 -62l-7 -10q22 -64 22 -169q0 -274 -141 -274zM175 487 q-46 0 -67.5 -52.5t-21.5 -167.5q0 -69 5 -105h2l4 12l140 253l6 7q-22 53 -68 53zM175 43q46 0 67.5 53t21.5 171q0 68 -5 104h-2l-5 -13l-138 -250l-7 -10q20 -55 68 -55z"/>
<glyph horiz-adv-x="349" unicode="ù" glyph-name="ugrave" d="M197 592q5 -19 -14 -19h-8q-20 0 -28 19l-46 105q-9 20 10 20h36q17 0 22 -20zM150 -7q-56 0 -82 44t-26 134v339q0 20 20 20h10q20 0 20 -20v-331q0 -137 68 -137q33 0 55 27.5t29.5 59.5t7.5 65v316q0 20 20 20h10q20 0 20 -20v-490q0 -20 -20 -20h-10q-19 0 -19 20v54 h-2q-8 -38 -35.5 -59.5t-65.5 -21.5z"/>
<glyph horiz-adv-x="349" unicode="ú" glyph-name="uacute" d="M148 592l28 105q5 20 22 20h36q19 0 10 -20l-46 -105q-8 -19 -28 -19h-8q-19 0 -14 19zM150 -7q-56 0 -82 44t-26 134v339q0 20 20 20h10q20 0 20 -20v-331q0 -137 68 -137q33 0 55 27.5t29.5 59.5t7.5 65v316q0 20 20 20h10q20 0 20 -20v-490q0 -20 -20 -20h-10 q-19 0 -19 20v54h-2q-8 -38 -35.5 -59.5t-65.5 -21.5z"/>
<glyph horiz-adv-x="349" unicode="û" glyph-name="ucircumflex" d="M115 592q-17 -19 -31 -19h-8q-10 0 -13 5.5t2 13.5l67 96q10 13 27 13h29q18 0 27 -13l66 -96q5 -8 2 -13.5t-13 -5.5h-8q-14 0 -31 19l-57 58h-2zM150 -7q-56 0 -82 44t-26 134v339q0 20 20 20h10q20 0 20 -20v-331q0 -137 68 -137q33 0 55 27.5t29.5 59.5t7.5 65v316 q0 20 20 20h10q20 0 20 -20v-490q0 -20 -20 -20h-10q-19 0 -19 20v54h-2q-8 -38 -35.5 -59.5t-65.5 -21.5z"/>
<glyph horiz-adv-x="349" unicode="ü" glyph-name="udieresis" d="M271 623q0 -18 -18 -18h-42q-18 0 -18 18v45q0 18 18 18h42q18 0 18 -18v-45zM151 623q0 -18 -18 -18h-42q-18 0 -18 18v45q0 18 18 18h42q18 0 18 -18v-45zM150 -7q-56 0 -82 44t-26 134v339q0 20 20 20h10q20 0 20 -20v-331q0 -137 68 -137q33 0 55 27.5t29.5 59.5 t7.5 65v316q0 20 20 20h10q20 0 20 -20v-490q0 -20 -20 -20h-10q-19 0 -19 20v54h-2q-8 -38 -35.5 -59.5t-65.5 -21.5z"/>
<glyph horiz-adv-x="309" unicode="ý" glyph-name="yacute" d="M131 592l28 105q5 20 22 20h36q19 0 10 -20l-46 -105q-8 -19 -28 -19h-8q-19 0 -14 19zM144 0h-9q-15 0 -20 20l-100 490q-5 20 17 20h13q15 0 20 -20l77 -395l11 -79h2l11 79l77 395q5 20 20 20h13q22 0 17 -20l-118 -578q-7 -32 -18 -55t-23 -34.5t-28.5 -18t-28.5 -8 t-29 -1.5q-24 0 -52 10q-16 5 -10 24l4 11q6 17 23 10q22 -8 44 -8q28 0 46 15.5t28 65.5z"/>
<glyph horiz-adv-x="355" unicode="þ" glyph-name="thorn" d="M184 44q28 0 46 17t29.5 68t11.5 137q0 125 -20.5 173.5t-63.5 48.5q-90 0 -90 -182v-63q0 -199 87 -199zM196 -7q-33 0 -59.5 22t-37.5 64h-2v-239q0 -20 -20 -20h-10q-20 0 -20 20v844q0 12 3 16.5t14 7.5l11 3q13 4 17.5 -0.5t4.5 -19.5v-238h1q10 41 37 62.5t63 21.5 q63 0 94 -60.5t31 -210.5q0 -151 -31 -212t-96 -61z"/>
</font>
</defs>
</svg>
